%
M48
M72
T01C0.0236
T02C0.0315
T03C0.0320
T04C0.0400
T05C0.0433
T06C0.0472
T07C0.0630
T08C0.0787
%
T01
X20409Y8449
X24809Y6649
X26409Y10449
X19409Y15449
X14209Y16649
X8909Y22449
X15409Y23449
X37909Y9399
X39409Y6449
T02
X26909Y19449
T03
X30109Y17649
X30109Y16649
X30409Y19449
X31409Y19449
X32409Y19449
X33409Y19449
X34909Y20349
X34909Y21349
X34909Y22349
X34909Y23349
X33409Y22449
X32409Y22449
X31409Y22449
X30409Y22449
X35559Y19049
X36409Y19049
X37259Y19049
X37909Y20349
X37909Y21349
X37909Y22349
X37909Y23349
X37259Y17049
X36409Y17049
X35559Y17049
X28409Y10849
X27409Y10849
X28009Y9449
X28009Y8449
X28909Y7149
X29909Y7449
X30909Y7449
X31909Y7449
X32909Y7449
X33909Y7449
X34909Y7449
X35909Y7449
X36909Y7449
X36909Y10449
X35909Y10449
X34909Y10449
X33909Y10449
X32909Y10449
X31909Y10449
X30909Y10449
X29909Y10449
X25709Y9449
X25709Y8449
X25909Y7149
X22909Y9449
X22909Y10449
X23209Y11949
X23209Y12949
X23209Y13949
X23209Y14949
X24809Y15149
X24809Y16149
X23209Y16149
X22209Y17249
X21209Y17249
X20209Y16149
X20209Y14949
X20209Y13949
X20209Y12949
X18709Y12749
X20209Y11949
X20809Y10449
X20809Y9449
X20259Y6949
X19409Y6949
X18559Y6949
X17209Y6849
X17209Y7849
X17209Y8949
X17209Y9949
X15309Y9949
X15309Y8949
X15309Y7849
X15309Y6849
X12409Y4249
X12409Y3249
X14009Y3249
X17009Y3249
X11209Y7649
X10609Y6249
X10609Y5249
X10609Y4249
X10609Y3249
X7609Y3249
X7609Y4249
X7609Y5249
X7609Y6249
X7209Y7649
X4109Y6049
X3109Y6049
X15709Y12749
X16709Y13949
X17709Y13949
X18409Y16449
X18409Y17449
X18409Y18449
X18409Y19449
X18409Y20449
X18409Y21449
X18409Y22449
X15409Y22449
X15409Y21449
X15409Y20449
X15409Y19449
X15409Y18449
X15409Y17449
X15409Y16449
X10509Y26049
X10509Y27049
X12309Y27149
X12309Y26149
X15309Y26149
X15309Y27149
X8509Y27049
X8509Y26049
T04
X9309Y24499
X10309Y24399
X11309Y24499
X12309Y24399
X13309Y24499
X14309Y24399
X15309Y24499
X16309Y24399
X17309Y24499
X18309Y24399
X19909Y24499
X20909Y24399
X21909Y24499
X22909Y24399
X23909Y24499
X24909Y24399
X25909Y24499
X26909Y24399
X28909Y24499
X29909Y24399
X30909Y24499
X31909Y24399
X32909Y24499
X33909Y24399
X34909Y24499
X35909Y24399
X38839Y24449
X38959Y23449
X39959Y23449
X39979Y24449
X39859Y22449
X38859Y22449
X38959Y21449
X39959Y21449
X39859Y20449
X38859Y20449
X38959Y19449
X39959Y19449
X39859Y18449
X38859Y18449
X38959Y17449
X39959Y17449
X39859Y16449
X38859Y16449
X38959Y15449
X39959Y15449
X39859Y14449
X38859Y14449
X38959Y13449
X39959Y13449
X39859Y12449
X38859Y12449
X38959Y11449
X39959Y11449
X39859Y10449
X38859Y10449
X38959Y9449
X39959Y9449
X39859Y8449
X38859Y8449
X38839Y7449
X39979Y7449
X37909Y5399
X36909Y5499
X35909Y5399
X34909Y5499
X33909Y5399
X32909Y5499
X31909Y5399
X30909Y5499
X28909Y5399
X27909Y5499
X26909Y5399
X25909Y5499
X24909Y5399
X23909Y5499
X22909Y5399
X21909Y5499
X19909Y5399
X18909Y5499
X17909Y5399
X16909Y5499
X15909Y5399
X14909Y5499
X13909Y5399
X12909Y5499
X12219Y7369
X13999Y7369
X13999Y9929
X12219Y9929
X5709Y8949
X5709Y7949
X5709Y6949
X24239Y10549
X25379Y10549
X24459Y11949
X24559Y12949
X24459Y13949
X11379Y23149
X10239Y23149
X16409Y25879
X17409Y25879
X17409Y27019
X16409Y27019
T05
X11582Y20516
T06
X3909Y2801
X3909Y4319
X24439Y3449
X25956Y3449
X27439Y3449
X28886Y3449
X30334Y3449
X32039Y3449
X33486Y3449
X34934Y3449
X36639Y3449
X38086Y3449
X39534Y3449
X39479Y26449
X37961Y26449
X36679Y26449
X35161Y26449
X33879Y26449
X32361Y26449
X31079Y26449
X29561Y26449
X28279Y26449
X26761Y26449
X25479Y26449
X23961Y26449
X22479Y26449
X21031Y26449
X19583Y26449
X3909Y24619
X3909Y23101
T07
X11582Y12209
T08
X26909Y16849
X26909Y22049
M30
