G75*
G70*
%OFA0B0*%
%FSLAX24Y24*%
%IPPOS*%
%LPD*%
%AMOC8*
5,1,8,0,0,1.08239X$1,22.5*
%
%ADD10C,0.0820*%
%ADD11R,0.0820X0.0820*%
%ADD12R,0.1182X0.0867*%
%ADD13R,0.1655X0.0356*%
%ADD14R,0.1655X0.0552*%
%ADD15C,0.0513*%
%ADD16C,0.0710*%
%ADD17C,0.0600*%
%ADD18OC8,0.0600*%
%ADD19C,0.0740*%
%ADD20R,0.1640X0.1640*%
%ADD21C,0.1330*%
%ADD22R,0.0880X0.0880*%
%ADD23C,0.0880*%
%ADD24OC8,0.0740*%
%ADD25OC8,0.0710*%
%ADD26C,0.0710*%
%ADD27R,0.0320X0.0950*%
%ADD28C,0.0840*%
D10*
X007260Y005950D03*
X007260Y006950D03*
X007260Y007950D03*
X012160Y004600D03*
X013160Y004700D03*
X014160Y004600D03*
X015160Y004700D03*
X016160Y004600D03*
X017160Y004700D03*
X018160Y004600D03*
X021160Y004600D03*
X022160Y004700D03*
X023160Y004600D03*
X024160Y004700D03*
X025160Y004600D03*
X026160Y004700D03*
X027160Y004600D03*
X030160Y004600D03*
X031160Y004700D03*
X032160Y004600D03*
X033160Y004700D03*
X034160Y004600D03*
X035160Y004700D03*
X036160Y004600D03*
X037090Y006650D03*
X038230Y006650D03*
X038110Y007650D03*
X037110Y007650D03*
X037210Y008650D03*
X038210Y008650D03*
X038110Y009650D03*
X037110Y009650D03*
X037210Y010650D03*
X038210Y010650D03*
X038110Y011650D03*
X037110Y011650D03*
X037210Y012650D03*
X038210Y012650D03*
X038110Y013650D03*
X037110Y013650D03*
X037110Y015650D03*
X038110Y015650D03*
X038210Y016650D03*
X037210Y016650D03*
X036060Y015850D03*
X035060Y015950D03*
X034060Y015850D03*
X033060Y015950D03*
X032060Y015850D03*
X031060Y015950D03*
X025160Y015200D03*
X024160Y015300D03*
X023160Y015200D03*
X023160Y014100D03*
X024160Y014200D03*
X025160Y014100D03*
X024160Y013100D03*
X023160Y013000D03*
X025160Y013000D03*
X014230Y006550D03*
X013090Y006550D03*
X008630Y022150D03*
X007490Y022150D03*
X008560Y023600D03*
X007560Y023700D03*
X007760Y025150D03*
X008760Y025150D03*
X009560Y023700D03*
X010560Y023600D03*
X011560Y023700D03*
X012560Y023600D03*
X013560Y023700D03*
X014560Y023600D03*
X015560Y023700D03*
X016560Y023600D03*
X019160Y023600D03*
X020160Y023700D03*
X021160Y023600D03*
X022160Y023700D03*
X023160Y023600D03*
X024160Y023700D03*
X025160Y023600D03*
X028160Y023600D03*
X029160Y023700D03*
X030160Y023600D03*
X031160Y023700D03*
X032160Y023600D03*
X033160Y023700D03*
X034160Y023600D03*
X037090Y023650D03*
X038230Y023650D03*
X038110Y021650D03*
X037110Y021650D03*
X037210Y020650D03*
X038210Y020650D03*
X038110Y019650D03*
X037110Y019650D03*
X037210Y018650D03*
X038210Y018650D03*
X038110Y017650D03*
X037110Y017650D03*
X013660Y025480D03*
X012560Y025480D03*
X012560Y026620D03*
X013660Y026620D03*
X008760Y026950D03*
X007760Y026950D03*
D11*
X018160Y023700D03*
X027160Y023700D03*
X037210Y022650D03*
X038210Y022650D03*
X038210Y014650D03*
X037210Y014650D03*
X029160Y004700D03*
X020160Y004700D03*
X011160Y004700D03*
D12*
X010306Y011344D03*
X002077Y010399D03*
X002077Y021383D03*
X010266Y021422D03*
D13*
X011014Y020753D03*
X011014Y020281D03*
X011014Y019769D03*
D14*
X011014Y019139D03*
X011014Y018155D03*
X011014Y017170D03*
X011014Y016186D03*
X011014Y015202D03*
X011014Y014218D03*
X011014Y013233D03*
X011014Y012249D03*
D15*
X009833Y020517D03*
D16*
X009833Y012210D03*
D17*
X009120Y009050D02*
X008600Y009050D01*
X008600Y008050D02*
X009120Y008050D01*
X009120Y007050D02*
X008600Y007050D01*
X008600Y006050D02*
X009120Y006050D01*
X011600Y006050D02*
X012120Y006050D01*
X012120Y007050D02*
X011600Y007050D01*
X011600Y008050D02*
X012120Y008050D01*
X012120Y009050D02*
X011600Y009050D01*
X012800Y015550D02*
X013320Y015550D01*
X013320Y016550D02*
X012800Y016550D01*
X012800Y017550D02*
X013320Y017550D01*
X013320Y018550D02*
X012800Y018550D01*
X012800Y019550D02*
X013320Y019550D01*
X013320Y020550D02*
X012800Y020550D01*
X012800Y021550D02*
X013320Y021550D01*
X015800Y021550D02*
X016320Y021550D01*
X016320Y020550D02*
X015800Y020550D01*
X015800Y019550D02*
X016320Y019550D01*
X016320Y018550D02*
X015800Y018550D01*
X015800Y017550D02*
X016320Y017550D01*
X016320Y016550D02*
X015800Y016550D01*
X015800Y015550D02*
X016320Y015550D01*
X022160Y012110D02*
X022160Y011590D01*
X023160Y011590D02*
X023160Y012110D01*
X024160Y012110D02*
X024160Y011590D01*
X025160Y011590D02*
X025160Y012110D01*
X025160Y009110D02*
X025160Y008590D01*
X024160Y008590D02*
X024160Y009110D01*
X023160Y009110D02*
X023160Y008590D01*
X022160Y008590D02*
X022160Y009110D01*
X031900Y009350D02*
X032420Y009350D01*
X032420Y008350D02*
X031900Y008350D01*
X031900Y007350D02*
X032420Y007350D01*
X032420Y006350D02*
X031900Y006350D01*
X034900Y006350D02*
X035420Y006350D01*
X035420Y007350D02*
X034900Y007350D01*
X034900Y008350D02*
X035420Y008350D01*
X035420Y009350D02*
X034900Y009350D01*
X034900Y010350D02*
X035420Y010350D01*
X035420Y011350D02*
X034900Y011350D01*
X034900Y012350D02*
X035420Y012350D01*
X035420Y013350D02*
X034900Y013350D01*
X032420Y013350D02*
X031900Y013350D01*
X031900Y012350D02*
X032420Y012350D01*
X032420Y011350D02*
X031900Y011350D01*
X031900Y010350D02*
X032420Y010350D01*
X031060Y018690D02*
X031060Y019210D01*
X030060Y019210D02*
X030060Y018690D01*
X029060Y018690D02*
X029060Y019210D01*
X028060Y019210D02*
X028060Y018690D01*
X028060Y021690D02*
X028060Y022210D01*
X029060Y022210D02*
X029060Y021690D01*
X030060Y021690D02*
X030060Y022210D01*
X031060Y022210D02*
X031060Y021690D01*
D18*
X032360Y022150D03*
X033360Y022150D03*
X033360Y019150D03*
X032360Y019150D03*
X032860Y018150D03*
X032860Y017150D03*
X032160Y014650D03*
X035160Y014650D03*
X035860Y017150D03*
X035860Y018150D03*
X017460Y018550D03*
X017460Y021550D03*
X011360Y024550D03*
X010360Y024550D03*
X010360Y027550D03*
X011360Y027550D03*
X013660Y013150D03*
X013660Y010150D03*
D19*
X027960Y016750D03*
X027960Y017750D03*
D20*
X003860Y025350D03*
D21*
X001260Y025350D03*
X006460Y025350D03*
D22*
X003290Y002650D03*
X006290Y002650D03*
X010890Y002650D03*
X015490Y002650D03*
X019890Y002650D03*
X022690Y002650D03*
X025690Y002650D03*
X030290Y002650D03*
X034890Y002650D03*
X025730Y018650D03*
X022730Y018650D03*
X024030Y025650D03*
X026830Y025650D03*
X029630Y025650D03*
X032430Y025650D03*
X035230Y025650D03*
X038030Y025650D03*
X021030Y025650D03*
X016630Y025650D03*
X002660Y007720D03*
D23*
X002660Y006202D03*
X004808Y002650D03*
X007738Y002650D03*
X009186Y002650D03*
X012338Y002650D03*
X013786Y002650D03*
X016938Y002650D03*
X018386Y002650D03*
X021408Y002650D03*
X024208Y002650D03*
X027138Y002650D03*
X028586Y002650D03*
X031738Y002650D03*
X033186Y002650D03*
X036338Y002650D03*
X037786Y002650D03*
X024212Y018650D03*
X021282Y018650D03*
X019834Y018650D03*
X019582Y025650D03*
X018134Y025650D03*
X015112Y025650D03*
X022512Y025650D03*
X025312Y025650D03*
X028112Y025650D03*
X030912Y025650D03*
X033712Y025650D03*
X036512Y025650D03*
D24*
X036010Y021850D03*
X035160Y021850D03*
X034310Y021850D03*
X034310Y019950D03*
X035160Y019950D03*
X036010Y019950D03*
X030060Y014150D03*
X029060Y014150D03*
X027760Y012150D03*
X026760Y012150D03*
X025660Y007550D03*
X026760Y006350D03*
X027760Y006350D03*
X024160Y006350D03*
X023160Y006350D03*
X021660Y007550D03*
X020710Y006650D03*
X019860Y006650D03*
X019010Y006650D03*
X016360Y006550D03*
X015360Y006550D03*
X012360Y010150D03*
X008360Y010150D03*
X005360Y007450D03*
X005360Y006450D03*
X019360Y010950D03*
X020360Y010950D03*
D25*
X019360Y009050D03*
X016360Y008550D03*
X014160Y008550D03*
X026760Y008050D03*
X027760Y010250D03*
X029060Y010250D03*
X029060Y012450D03*
D26*
X030060Y012450D03*
X030060Y010250D03*
X027760Y008050D03*
X026760Y010250D03*
X020360Y009050D03*
X015360Y008550D03*
X013160Y008550D03*
D27*
X028810Y008480D03*
X029310Y008480D03*
X029810Y008480D03*
X030310Y008480D03*
X030310Y006420D03*
X029810Y006420D03*
X029310Y006420D03*
X028810Y006420D03*
D28*
X005660Y004650D03*
X001660Y004650D03*
X001660Y009250D03*
X005660Y009250D03*
M02*
