G75*
G70*
%OFA0B0*%
%FSLAX24Y24*%
%IPPOS*%
%LPD*%
%AMOC8*
5,1,8,0,0,1.08239X$1,22.5*
%
%ADD10C,0.0740*%
%ADD11R,0.0740X0.0740*%
%ADD12C,0.0520*%
%ADD13OC8,0.0520*%
%ADD14C,0.0660*%
%ADD15R,0.1560X0.1560*%
%ADD16C,0.1250*%
%ADD17R,0.0800X0.0800*%
%ADD18C,0.0800*%
%ADD19OC8,0.0660*%
%ADD20C,0.0600*%
%ADD21OC8,0.0630*%
%ADD22C,0.0630*%
%ADD23C,0.0120*%
%ADD24C,0.0320*%
%ADD25C,0.0396*%
%ADD26C,0.0160*%
D10*
X005709Y006949D03*
X005709Y007949D03*
X005709Y008949D03*
X013909Y005399D03*
X014909Y005499D03*
X015909Y005399D03*
X016909Y005499D03*
X017909Y005399D03*
X018909Y005499D03*
X019909Y005399D03*
X022909Y005399D03*
X023909Y005499D03*
X024909Y005399D03*
X025909Y005499D03*
X026909Y005399D03*
X027909Y005499D03*
X028909Y005399D03*
X031909Y005399D03*
X032909Y005499D03*
X033909Y005399D03*
X034909Y005499D03*
X035909Y005399D03*
X036909Y005499D03*
X037909Y005399D03*
X038839Y007449D03*
X038859Y008449D03*
X039859Y008449D03*
X039959Y009449D03*
X038959Y009449D03*
X038859Y010449D03*
X039859Y010449D03*
X039959Y011449D03*
X038959Y011449D03*
X038859Y012449D03*
X039859Y012449D03*
X039959Y013449D03*
X038959Y013449D03*
X038859Y014449D03*
X039859Y014449D03*
X039859Y016449D03*
X038859Y016449D03*
X038959Y017449D03*
X039959Y017449D03*
X039859Y018449D03*
X038859Y018449D03*
X038959Y019449D03*
X039959Y019449D03*
X039859Y020449D03*
X038859Y020449D03*
X038959Y021449D03*
X039959Y021449D03*
X039859Y022449D03*
X038859Y022449D03*
X038839Y024449D03*
X039979Y024449D03*
X035909Y024399D03*
X034909Y024499D03*
X033909Y024399D03*
X032909Y024499D03*
X031909Y024399D03*
X030909Y024499D03*
X029909Y024399D03*
X026909Y024399D03*
X025909Y024499D03*
X024909Y024399D03*
X023909Y024499D03*
X022909Y024399D03*
X021909Y024499D03*
X020909Y024399D03*
X018309Y024399D03*
X017309Y024499D03*
X016309Y024399D03*
X015309Y024499D03*
X014309Y024399D03*
X013309Y024499D03*
X012309Y024399D03*
X011309Y024499D03*
X010309Y024399D03*
X009309Y024499D03*
X010239Y023149D03*
X011379Y023149D03*
X010509Y026049D03*
X010509Y027049D03*
X008509Y027049D03*
X008509Y026049D03*
X016409Y025879D03*
X017409Y025879D03*
X017409Y027019D03*
X016409Y027019D03*
X024459Y013949D03*
X024559Y012949D03*
X024459Y011949D03*
X024239Y010549D03*
X025379Y010549D03*
X039979Y007449D03*
D11*
X030909Y005499D03*
X021909Y005499D03*
X012909Y005499D03*
X019909Y024499D03*
X028909Y024499D03*
X038959Y023449D03*
X039959Y023449D03*
X039959Y015449D03*
X038959Y015449D03*
D12*
X033409Y019189D02*
X033409Y019709D01*
X032409Y019709D02*
X032409Y019189D01*
X031409Y019189D02*
X031409Y019709D01*
X030409Y019709D02*
X030409Y019189D01*
X030409Y022189D02*
X030409Y022709D01*
X031409Y022709D02*
X031409Y022189D01*
X032409Y022189D02*
X032409Y022709D01*
X033409Y022709D02*
X033409Y022189D01*
X023469Y014949D02*
X022949Y014949D01*
X022949Y013949D02*
X023469Y013949D01*
X023469Y012949D02*
X022949Y012949D01*
X022949Y011949D02*
X023469Y011949D01*
X020469Y011949D02*
X019949Y011949D01*
X019949Y012949D02*
X020469Y012949D01*
X020469Y013949D02*
X019949Y013949D01*
X019949Y014949D02*
X020469Y014949D01*
X018669Y016449D02*
X018149Y016449D01*
X018149Y017449D02*
X018669Y017449D01*
X018669Y018449D02*
X018149Y018449D01*
X018149Y019449D02*
X018669Y019449D01*
X018669Y020449D02*
X018149Y020449D01*
X018149Y021449D02*
X018669Y021449D01*
X018669Y022449D02*
X018149Y022449D01*
X015669Y022449D02*
X015149Y022449D01*
X015149Y021449D02*
X015669Y021449D01*
X015669Y020449D02*
X015149Y020449D01*
X015149Y019449D02*
X015669Y019449D01*
X015669Y018449D02*
X015149Y018449D01*
X015149Y017449D02*
X015669Y017449D01*
X015669Y016449D02*
X015149Y016449D01*
X010869Y006249D02*
X010349Y006249D01*
X010349Y005249D02*
X010869Y005249D01*
X010869Y004249D02*
X010349Y004249D01*
X010349Y003249D02*
X010869Y003249D01*
X007869Y003249D02*
X007349Y003249D01*
X007349Y004249D02*
X007869Y004249D01*
X007869Y005249D02*
X007349Y005249D01*
X007349Y006249D02*
X007869Y006249D01*
X029909Y007189D02*
X029909Y007709D01*
X030909Y007709D02*
X030909Y007189D01*
X031909Y007189D02*
X031909Y007709D01*
X032909Y007709D02*
X032909Y007189D01*
X033909Y007189D02*
X033909Y007709D01*
X034909Y007709D02*
X034909Y007189D01*
X035909Y007189D02*
X035909Y007709D01*
X036909Y007709D02*
X036909Y007189D01*
X036909Y010189D02*
X036909Y010709D01*
X035909Y010709D02*
X035909Y010189D01*
X034909Y010189D02*
X034909Y010709D01*
X033909Y010709D02*
X033909Y010189D01*
X032909Y010189D02*
X032909Y010709D01*
X031909Y010709D02*
X031909Y010189D01*
X030909Y010189D02*
X030909Y010709D01*
X029909Y010709D02*
X029909Y010189D01*
D13*
X028909Y007149D03*
X025909Y007149D03*
X018709Y012749D03*
X015709Y012749D03*
X020209Y016149D03*
X023209Y016149D03*
X034909Y020349D03*
X034909Y021349D03*
X034909Y022349D03*
X034909Y023349D03*
X037909Y023349D03*
X037909Y022349D03*
X037909Y021349D03*
X037909Y020349D03*
X015309Y026149D03*
X015309Y027149D03*
X012309Y027149D03*
X012309Y026149D03*
X014009Y003249D03*
X017009Y003249D03*
D14*
X030109Y016649D03*
X030109Y017649D03*
D15*
X026909Y019449D03*
D16*
X026909Y022049D03*
X026909Y016849D03*
D17*
X028279Y026449D03*
X031079Y026449D03*
X033879Y026449D03*
X036679Y026449D03*
X039479Y026449D03*
X025479Y026449D03*
X022479Y026449D03*
X003909Y024619D03*
X003909Y004319D03*
X024439Y003449D03*
X027439Y003449D03*
X032039Y003449D03*
X036639Y003449D03*
D18*
X003909Y002801D03*
X025956Y003449D03*
X028886Y003449D03*
X030334Y003449D03*
X033486Y003449D03*
X034934Y003449D03*
X038086Y003449D03*
X039534Y003449D03*
X037961Y026449D03*
X035161Y026449D03*
X032361Y026449D03*
X029561Y026449D03*
X026761Y026449D03*
X023961Y026449D03*
X021031Y026449D03*
X019583Y026449D03*
X003909Y023101D03*
D19*
X016709Y013949D03*
X017709Y013949D03*
X021209Y017249D03*
X022209Y017249D03*
X027409Y010849D03*
X028409Y010849D03*
X022909Y010449D03*
X022909Y009449D03*
X020259Y006949D03*
X019409Y006949D03*
X018559Y006949D03*
X015309Y006849D03*
X015309Y007849D03*
X015309Y008949D03*
X015309Y009949D03*
X011209Y007649D03*
X007209Y007649D03*
X004109Y006049D03*
X003109Y006049D03*
X035559Y017049D03*
X036409Y017049D03*
X037259Y017049D03*
X037259Y019049D03*
X036409Y019049D03*
X035559Y019049D03*
D20*
X013999Y010229D02*
X013999Y009629D01*
X012219Y009629D02*
X012219Y010229D01*
X012219Y007669D02*
X012219Y007069D01*
X013999Y007069D02*
X013999Y007669D01*
D21*
X017209Y007849D03*
X017209Y009949D03*
X020809Y009449D03*
X025709Y008449D03*
X028009Y008449D03*
X024809Y016149D03*
X012409Y003249D03*
D22*
X012409Y004249D03*
X017209Y006849D03*
X017209Y008949D03*
X020809Y010449D03*
X025709Y009449D03*
X028009Y009449D03*
X024809Y015149D03*
D23*
X024809Y016149D02*
X024809Y016549D01*
X024409Y016949D01*
X023909Y016949D01*
X026409Y019449D01*
X026909Y019449D01*
X029509Y021349D02*
X027409Y023449D01*
X025909Y023449D01*
X025409Y022949D01*
X024909Y022949D01*
X024409Y022449D01*
X019909Y022449D01*
X018909Y021449D01*
X018409Y021449D01*
X016409Y021949D02*
X016409Y018949D01*
X016909Y018449D01*
X017409Y018449D01*
X015409Y016449D01*
X015309Y016349D01*
X016909Y014949D02*
X017909Y013949D01*
X018409Y013949D01*
X018909Y013449D01*
X019709Y013449D01*
X020209Y013949D01*
X020209Y014949D02*
X021209Y014949D01*
X021909Y014249D01*
X021909Y011449D01*
X022209Y011149D01*
X024909Y011149D01*
X025209Y011449D01*
X029109Y011449D01*
X029209Y011349D01*
X029209Y009449D01*
X029709Y008949D01*
X030209Y008949D01*
X030909Y008249D01*
X030909Y007449D01*
X029909Y007449D02*
X029909Y007049D01*
X029109Y006249D01*
X021109Y006249D01*
X020809Y006549D01*
X020809Y008049D01*
X020409Y008449D01*
X020809Y009449D02*
X019909Y009449D01*
X019409Y009949D01*
X019409Y010949D01*
X020209Y011749D01*
X020209Y011949D01*
X020209Y012949D01*
X018709Y011449D01*
X005909Y011449D01*
X005409Y011949D01*
X005409Y021949D01*
X004256Y023101D01*
X003909Y023101D01*
X003909Y024619D02*
X004739Y024619D01*
X005909Y023449D01*
X005909Y015449D01*
X006409Y014949D01*
X016909Y014949D01*
X017709Y013949D02*
X017909Y013949D01*
X018909Y013449D02*
X018909Y012949D01*
X018709Y012749D01*
X022909Y010449D02*
X023409Y010449D01*
X023609Y010249D01*
X023609Y009449D01*
X023909Y009149D01*
X025009Y009149D01*
X025709Y008449D01*
X026209Y007849D02*
X026609Y007849D01*
X026809Y008049D01*
X026809Y010049D01*
X026409Y010449D01*
X028009Y009449D02*
X028709Y008749D01*
X028709Y009949D01*
X028409Y010249D01*
X028409Y010849D01*
X030909Y010449D02*
X030909Y009149D01*
X031809Y008249D01*
X037609Y008249D01*
X037909Y007949D01*
X037909Y006949D01*
X038909Y005949D01*
X040309Y005949D01*
X040609Y006249D01*
X040609Y007849D01*
X040009Y008449D01*
X039859Y008449D01*
X038859Y008449D02*
X037909Y009399D01*
X037909Y008549D02*
X038209Y008249D01*
X038209Y007149D01*
X038909Y006449D01*
X039409Y006449D01*
X037909Y008549D02*
X032509Y008549D01*
X031909Y009149D01*
X031909Y010449D01*
X033909Y010449D02*
X033909Y010949D01*
X034109Y011149D01*
X037259Y011149D01*
X038959Y009449D01*
X033909Y007449D02*
X033909Y006549D01*
X033509Y006149D01*
X030609Y006149D01*
X030209Y005749D01*
X030209Y005049D01*
X030509Y004749D01*
X033634Y004749D01*
X034934Y003449D01*
X033486Y003449D02*
X033486Y003871D01*
X032909Y004449D01*
X030409Y004449D01*
X029909Y004949D01*
X029909Y005949D01*
X030409Y006449D01*
X032409Y006449D01*
X032909Y006949D01*
X032909Y007449D01*
X031909Y007449D02*
X031909Y007149D01*
X031509Y006749D01*
X030309Y006749D01*
X029609Y006049D01*
X029609Y004849D01*
X030309Y004149D01*
X031339Y004149D01*
X032039Y003449D01*
X027439Y003449D02*
X027439Y002979D01*
X026909Y002449D01*
X018909Y002449D01*
X018659Y002699D01*
X018809Y005399D02*
X018909Y005499D01*
X018559Y008599D02*
X019409Y009449D01*
X019909Y009449D01*
X024809Y006649D02*
X025309Y007149D01*
X025909Y007149D01*
X025909Y007549D01*
X026209Y007849D01*
X028709Y008049D02*
X028709Y008749D01*
X028709Y008049D02*
X029209Y007549D01*
X029209Y007449D01*
X029909Y007449D01*
X029209Y007449D02*
X028909Y007149D01*
X020209Y016149D02*
X018909Y017449D01*
X018409Y017449D01*
X018409Y018449D02*
X017409Y018449D01*
X018409Y018449D02*
X020009Y018449D01*
X022409Y018449D01*
X022909Y017949D01*
X022909Y017449D01*
X023409Y016949D01*
X023909Y016949D01*
X021209Y017249D02*
X020009Y018449D01*
X016409Y018949D02*
X015909Y019449D01*
X015409Y019449D01*
X016409Y021949D02*
X015909Y022449D01*
X015409Y022449D01*
X008909Y022449D01*
X013309Y023949D02*
X013309Y024499D01*
X013309Y023949D02*
X013909Y023449D01*
X015409Y023449D01*
X029509Y021349D02*
X034909Y021349D01*
X034909Y022349D02*
X033909Y023449D01*
X032909Y023449D01*
X032409Y022949D01*
X032409Y022449D01*
X034909Y023349D02*
X035559Y022699D01*
X035559Y019049D01*
X037409Y019949D02*
X037409Y020849D01*
X037909Y021349D01*
X037909Y019449D02*
X037909Y018449D01*
X037259Y017799D01*
X037259Y017049D01*
X032409Y016949D02*
X032409Y019449D01*
X031409Y019449D02*
X031409Y018149D01*
X030109Y016649D01*
X030109Y017649D02*
X030109Y019149D01*
X030409Y019449D01*
D24*
X018559Y008599D02*
X017209Y009949D01*
X015309Y009949D01*
X012219Y009929D02*
X012199Y009949D01*
X005409Y009949D01*
X003109Y007649D01*
X003109Y006049D01*
X003909Y004319D02*
X005779Y002449D01*
X006809Y002449D01*
X006859Y002499D01*
X006909Y002449D01*
X018409Y002449D01*
X018659Y002699D01*
X018109Y003249D01*
X017009Y003249D01*
X018659Y002699D02*
X018909Y002949D01*
X018909Y005449D01*
X018859Y005399D01*
X017909Y005399D01*
X017659Y006249D02*
X017209Y006699D01*
X017209Y006849D01*
X015309Y006849D01*
X016909Y005499D02*
X017659Y006249D01*
X019009Y006249D01*
X019409Y006649D01*
X019409Y006949D01*
X019409Y007449D01*
X020409Y008449D01*
X018559Y008599D02*
X018559Y006949D01*
X012219Y007369D02*
X012219Y009929D01*
X008909Y006949D02*
X008909Y004949D01*
X009609Y004249D01*
X010609Y004249D01*
X009609Y004249D02*
X010609Y003249D01*
X007609Y003249D02*
X007609Y004249D01*
X007609Y003249D02*
X006859Y002499D01*
X006709Y006949D02*
X008909Y006949D01*
X006709Y006949D02*
X005709Y007949D01*
D25*
X014209Y016649D03*
X019409Y015449D03*
X026409Y010449D03*
X024809Y006649D03*
X020409Y008449D03*
X037909Y009399D03*
X039409Y006449D03*
X015409Y023449D03*
X008909Y022449D03*
D26*
X014209Y016649D02*
X015409Y015449D01*
X019409Y015449D01*
X026909Y016849D02*
X027809Y015949D01*
X031409Y015949D01*
X032409Y016949D01*
X037409Y019949D02*
X037909Y019449D01*
M02*
