G75*
G70*
%OFA0B0*%
%FSLAX24Y24*%
%IPPOS*%
%LPD*%
%AMOC8*
5,1,8,0,0,1.08239X$1,22.5*
%
%ADD10C,0.0030*%
%ADD11C,0.0120*%
%ADD12C,0.0100*%
%ADD13C,0.0080*%
%ADD14C,0.0050*%
%ADD15C,0.0060*%
%ADD16C,0.0010*%
%ADD17C,0.0160*%
%ADD18R,0.0230X0.0160*%
%ADD19R,0.0340X0.0240*%
%ADD20R,0.0200X0.1000*%
%ADD21R,0.0750X0.0300*%
D10*
X000575Y001565D02*
X000575Y001935D01*
X000698Y001812D01*
X000822Y001935D01*
X000822Y001565D01*
X000943Y001627D02*
X000943Y001750D01*
X001005Y001812D01*
X001128Y001812D01*
X001190Y001750D01*
X001190Y001688D01*
X000943Y001688D01*
X000943Y001627D02*
X001005Y001565D01*
X001128Y001565D01*
X001312Y001627D02*
X001373Y001565D01*
X001559Y001565D01*
X001680Y001565D02*
X001680Y001935D01*
X001742Y001812D02*
X001865Y001812D01*
X001927Y001750D01*
X001927Y001565D01*
X002048Y001565D02*
X002048Y001935D01*
X002295Y001935D01*
X002172Y001750D02*
X002048Y001750D01*
X002048Y001565D02*
X002295Y001565D01*
X001742Y001812D02*
X001680Y001750D01*
X001559Y001812D02*
X001373Y001812D01*
X001312Y001750D01*
X001312Y001627D01*
X003275Y000850D02*
X003522Y000850D01*
X003675Y000850D02*
X003860Y000850D01*
X003922Y000788D01*
X003922Y000727D01*
X003860Y000665D01*
X003675Y000665D01*
X003675Y001035D01*
X003860Y001035D01*
X003922Y000974D01*
X003922Y000912D01*
X003860Y000850D01*
X004043Y000727D02*
X004105Y000788D01*
X004290Y000788D01*
X004290Y000850D02*
X004290Y000665D01*
X004105Y000665D01*
X004043Y000727D01*
X004105Y000912D02*
X004228Y000912D01*
X004290Y000850D01*
X004412Y000912D02*
X004535Y000912D01*
X004473Y000974D02*
X004473Y000727D01*
X004535Y000665D01*
X004675Y000850D02*
X004922Y000850D01*
X004798Y000727D02*
X004798Y000974D01*
X007175Y000974D02*
X007237Y001035D01*
X007360Y001035D01*
X007422Y000974D01*
X007422Y000912D01*
X007360Y000850D01*
X007422Y000788D01*
X007422Y000727D01*
X007360Y000665D01*
X007237Y000665D01*
X007175Y000727D01*
X007298Y000850D02*
X007360Y000850D01*
X007543Y000727D02*
X007605Y000727D01*
X007605Y000665D01*
X007543Y000665D01*
X007543Y000727D01*
X007727Y000727D02*
X007789Y000665D01*
X007913Y000665D01*
X007974Y000727D01*
X007974Y000788D01*
X007913Y000850D01*
X007851Y000850D01*
X007913Y000850D02*
X007974Y000912D01*
X007974Y000974D01*
X007913Y001035D01*
X007789Y001035D01*
X007727Y000974D01*
X008096Y001035D02*
X008096Y000788D01*
X008219Y000665D01*
X008343Y000788D01*
X008343Y001035D01*
X011875Y000974D02*
X011875Y000727D01*
X011937Y000665D01*
X012060Y000665D01*
X012122Y000727D01*
X012122Y000850D01*
X011998Y000850D01*
X011875Y000974D02*
X011937Y001035D01*
X012060Y001035D01*
X012122Y000974D01*
X012243Y001035D02*
X012490Y000665D01*
X012490Y001035D01*
X012612Y001035D02*
X012797Y001035D01*
X012859Y000974D01*
X012859Y000727D01*
X012797Y000665D01*
X012612Y000665D01*
X012612Y001035D01*
X012243Y001035D02*
X012243Y000665D01*
X007590Y004165D02*
X007590Y004535D01*
X007343Y004535D02*
X007343Y004165D01*
X007222Y004227D02*
X007222Y004474D01*
X007160Y004535D01*
X007037Y004535D01*
X006975Y004474D01*
X006975Y004227D01*
X007037Y004165D01*
X007160Y004165D01*
X007222Y004227D01*
X007343Y004535D02*
X007590Y004165D01*
X004545Y005588D02*
X004175Y005588D01*
X004175Y005342D01*
X004175Y005710D02*
X004175Y005957D01*
X004545Y005957D01*
X004545Y006078D02*
X004545Y006325D01*
X004175Y006325D01*
X004175Y006078D01*
X004360Y006202D02*
X004360Y006325D01*
X004237Y006447D02*
X004175Y006508D01*
X004175Y006632D01*
X004237Y006693D01*
X004484Y006693D01*
X004545Y006632D01*
X004545Y006508D01*
X004484Y006447D01*
X004484Y007183D02*
X004360Y007183D01*
X004298Y007245D01*
X004298Y007430D01*
X004175Y007430D02*
X004545Y007430D01*
X004545Y007245D01*
X004484Y007183D01*
X004298Y007307D02*
X004175Y007183D01*
X004175Y007551D02*
X004175Y007798D01*
X004545Y007798D01*
X004484Y007920D02*
X004237Y007920D01*
X004175Y007982D01*
X004175Y008105D01*
X004237Y008167D01*
X004484Y008167D01*
X004545Y008105D01*
X004545Y007982D01*
X004484Y007920D01*
X004484Y008288D02*
X004545Y008350D01*
X004545Y008473D01*
X004484Y008535D01*
X004422Y008535D01*
X004360Y008473D01*
X004360Y008350D01*
X004298Y008288D01*
X004237Y008288D01*
X004175Y008350D01*
X004175Y008473D01*
X004237Y008535D01*
X006875Y009427D02*
X006937Y009365D01*
X007060Y009365D01*
X007122Y009427D01*
X007122Y009674D01*
X007060Y009735D01*
X006937Y009735D01*
X006875Y009674D01*
X006875Y009427D01*
X007243Y009365D02*
X007243Y009735D01*
X007490Y009735D01*
X007612Y009735D02*
X007859Y009735D01*
X007735Y009550D02*
X007612Y009550D01*
X007612Y009365D02*
X007612Y009735D01*
X007367Y009550D02*
X007243Y009550D01*
X011875Y005635D02*
X011998Y005635D01*
X011937Y005635D02*
X011937Y005265D01*
X011998Y005265D02*
X011875Y005265D01*
X012121Y005327D02*
X012121Y005574D01*
X012182Y005635D01*
X012306Y005635D01*
X012367Y005574D01*
X012367Y005327D01*
X012306Y005265D01*
X012182Y005265D01*
X012121Y005327D01*
X012570Y005388D02*
X012755Y005388D01*
X012817Y005450D01*
X012817Y005574D01*
X012755Y005635D01*
X012570Y005635D01*
X012570Y005265D01*
X012693Y005388D02*
X012817Y005265D01*
X012938Y005265D02*
X013185Y005265D01*
X013307Y005327D02*
X013368Y005265D01*
X013492Y005265D01*
X013554Y005327D01*
X013554Y005388D01*
X013492Y005450D01*
X013368Y005450D01*
X013307Y005512D01*
X013307Y005574D01*
X013368Y005635D01*
X013492Y005635D01*
X013554Y005574D01*
X013670Y005574D02*
X013732Y005635D01*
X013855Y005635D01*
X013917Y005574D01*
X013917Y005512D01*
X013855Y005450D01*
X013917Y005388D01*
X013917Y005327D01*
X013855Y005265D01*
X013732Y005265D01*
X013670Y005327D01*
X013793Y005450D02*
X013855Y005450D01*
X014038Y005388D02*
X014038Y005635D01*
X014038Y005388D02*
X014162Y005265D01*
X014285Y005388D01*
X014285Y005635D01*
X014407Y005574D02*
X014468Y005635D01*
X014592Y005635D01*
X014654Y005574D01*
X014654Y005512D01*
X014592Y005450D01*
X014654Y005388D01*
X014654Y005327D01*
X014592Y005265D01*
X014468Y005265D01*
X014407Y005327D01*
X014530Y005450D02*
X014592Y005450D01*
X014875Y005450D02*
X014998Y005512D01*
X015060Y005512D01*
X015122Y005450D01*
X015122Y005327D01*
X015060Y005265D01*
X014937Y005265D01*
X014875Y005327D01*
X014875Y005450D02*
X014875Y005635D01*
X015122Y005635D01*
X015243Y005635D02*
X015243Y005388D01*
X015367Y005265D01*
X015490Y005388D01*
X015490Y005635D01*
X016175Y005574D02*
X016175Y005327D01*
X016237Y005265D01*
X016360Y005265D01*
X016422Y005327D01*
X016422Y005450D01*
X016298Y005450D01*
X016175Y005574D02*
X016237Y005635D01*
X016360Y005635D01*
X016422Y005574D01*
X016543Y005635D02*
X016790Y005265D01*
X016790Y005635D01*
X016912Y005635D02*
X017097Y005635D01*
X017159Y005574D01*
X017159Y005327D01*
X017097Y005265D01*
X016912Y005265D01*
X016912Y005635D01*
X016543Y005635D02*
X016543Y005265D01*
X017775Y005388D02*
X017898Y005265D01*
X018022Y005388D01*
X018022Y005635D01*
X018143Y005512D02*
X018205Y005512D01*
X018205Y005265D01*
X018143Y005265D02*
X018267Y005265D01*
X018389Y005265D02*
X018389Y005512D01*
X018574Y005512D01*
X018636Y005450D01*
X018636Y005265D01*
X018205Y005635D02*
X018205Y005697D01*
X017775Y005635D02*
X017775Y005388D01*
X019875Y005450D02*
X020122Y005450D01*
X020122Y005512D02*
X020122Y005265D01*
X020243Y005327D02*
X020490Y005574D01*
X020490Y005327D01*
X020428Y005265D01*
X020305Y005265D01*
X020243Y005327D01*
X020243Y005574D01*
X020305Y005635D01*
X020428Y005635D01*
X020490Y005574D01*
X020122Y005512D02*
X019998Y005635D01*
X019875Y005512D01*
X019875Y005265D01*
X020875Y005265D02*
X020875Y005512D01*
X020998Y005635D01*
X021122Y005512D01*
X021122Y005265D01*
X021243Y005265D02*
X021490Y005265D01*
X021367Y005265D02*
X021367Y005635D01*
X021243Y005512D01*
X021122Y005450D02*
X020875Y005450D01*
X021875Y005450D02*
X022122Y005450D01*
X022122Y005512D02*
X022122Y005265D01*
X022243Y005265D02*
X022490Y005512D01*
X022490Y005574D01*
X022428Y005635D01*
X022305Y005635D01*
X022243Y005574D01*
X022122Y005512D02*
X021998Y005635D01*
X021875Y005512D01*
X021875Y005265D01*
X022243Y005265D02*
X022490Y005265D01*
X022875Y005265D02*
X022875Y005512D01*
X022998Y005635D01*
X023122Y005512D01*
X023122Y005265D01*
X023243Y005327D02*
X023305Y005265D01*
X023428Y005265D01*
X023490Y005327D01*
X023490Y005388D01*
X023428Y005450D01*
X023367Y005450D01*
X023428Y005450D02*
X023490Y005512D01*
X023490Y005574D01*
X023428Y005635D01*
X023305Y005635D01*
X023243Y005574D01*
X023122Y005450D02*
X022875Y005450D01*
X023875Y005450D02*
X024122Y005450D01*
X024122Y005512D02*
X024122Y005265D01*
X024243Y005450D02*
X024428Y005635D01*
X024428Y005265D01*
X024490Y005450D02*
X024243Y005450D01*
X024122Y005512D02*
X023998Y005635D01*
X023875Y005512D01*
X023875Y005265D01*
X024875Y005265D02*
X024875Y005512D01*
X024998Y005635D01*
X025122Y005512D01*
X025122Y005265D01*
X025243Y005327D02*
X025305Y005265D01*
X025428Y005265D01*
X025490Y005327D01*
X025490Y005450D01*
X025428Y005512D01*
X025367Y005512D01*
X025243Y005450D01*
X025243Y005635D01*
X025490Y005635D01*
X025875Y005512D02*
X025875Y005265D01*
X025875Y005450D02*
X026122Y005450D01*
X026122Y005512D02*
X026122Y005265D01*
X026243Y005327D02*
X026305Y005265D01*
X026428Y005265D01*
X026490Y005327D01*
X026490Y005388D01*
X026428Y005450D01*
X026243Y005450D01*
X026243Y005327D01*
X026243Y005450D02*
X026367Y005574D01*
X026490Y005635D01*
X026122Y005512D02*
X025998Y005635D01*
X025875Y005512D01*
X025122Y005450D02*
X024875Y005450D01*
X026975Y005450D02*
X027222Y005450D01*
X027222Y005512D02*
X027222Y005265D01*
X027343Y005265D02*
X027343Y005327D01*
X027590Y005574D01*
X027590Y005635D01*
X027343Y005635D01*
X027222Y005512D02*
X027098Y005635D01*
X026975Y005512D01*
X026975Y005265D01*
X028875Y005265D02*
X028875Y005512D01*
X028998Y005635D01*
X029122Y005512D01*
X029122Y005265D01*
X029243Y005327D02*
X029243Y005388D01*
X029305Y005450D01*
X029428Y005450D01*
X029490Y005388D01*
X029490Y005327D01*
X029428Y005265D01*
X029305Y005265D01*
X029243Y005327D01*
X029305Y005450D02*
X029243Y005512D01*
X029243Y005574D01*
X029305Y005635D01*
X029428Y005635D01*
X029490Y005574D01*
X029490Y005512D01*
X029428Y005450D01*
X029122Y005450D02*
X028875Y005450D01*
X029875Y005450D02*
X030122Y005450D01*
X030122Y005512D02*
X030122Y005265D01*
X030243Y005327D02*
X030305Y005265D01*
X030428Y005265D01*
X030490Y005327D01*
X030490Y005574D01*
X030428Y005635D01*
X030305Y005635D01*
X030243Y005574D01*
X030243Y005512D01*
X030305Y005450D01*
X030490Y005450D01*
X030675Y005450D02*
X030922Y005450D01*
X030922Y005512D02*
X030922Y005265D01*
X031043Y005265D02*
X031290Y005265D01*
X031167Y005265D02*
X031167Y005635D01*
X031043Y005512D01*
X030922Y005512D02*
X030798Y005635D01*
X030675Y005512D01*
X030675Y005265D01*
X030122Y005512D02*
X029998Y005635D01*
X029875Y005512D01*
X029875Y005265D01*
X031412Y005327D02*
X031659Y005574D01*
X031659Y005327D01*
X031597Y005265D01*
X031473Y005265D01*
X031412Y005327D01*
X031412Y005574D01*
X031473Y005635D01*
X031597Y005635D01*
X031659Y005574D01*
X032675Y005512D02*
X032675Y005265D01*
X032675Y005450D02*
X032922Y005450D01*
X032922Y005512D02*
X032922Y005265D01*
X033043Y005265D02*
X033290Y005265D01*
X033412Y005265D02*
X033659Y005512D01*
X033659Y005574D01*
X033597Y005635D01*
X033473Y005635D01*
X033412Y005574D01*
X033167Y005635D02*
X033167Y005265D01*
X033412Y005265D02*
X033659Y005265D01*
X033167Y005635D02*
X033043Y005512D01*
X032922Y005512D02*
X032798Y005635D01*
X032675Y005512D01*
X034675Y005512D02*
X034675Y005265D01*
X034675Y005450D02*
X034922Y005450D01*
X034922Y005512D02*
X034922Y005265D01*
X035043Y005265D02*
X035290Y005265D01*
X035167Y005265D02*
X035167Y005635D01*
X035043Y005512D01*
X034922Y005512D02*
X034798Y005635D01*
X034675Y005512D01*
X035412Y005450D02*
X035659Y005450D01*
X035775Y005450D02*
X036022Y005450D01*
X036022Y005512D02*
X036022Y005265D01*
X036143Y005265D02*
X036390Y005265D01*
X036267Y005265D02*
X036267Y005635D01*
X036143Y005512D01*
X036022Y005512D02*
X035898Y005635D01*
X035775Y005512D01*
X035775Y005265D01*
X035597Y005265D02*
X035597Y005635D01*
X035412Y005450D01*
X036512Y005450D02*
X036635Y005512D01*
X036697Y005512D01*
X036759Y005450D01*
X036759Y005327D01*
X036697Y005265D01*
X036573Y005265D01*
X036512Y005327D01*
X036512Y005450D02*
X036512Y005635D01*
X036759Y005635D01*
X037175Y005727D02*
X037175Y005974D01*
X037237Y006035D01*
X037360Y006035D01*
X037422Y005974D01*
X037422Y005850D02*
X037298Y005850D01*
X037422Y005850D02*
X037422Y005727D01*
X037360Y005665D01*
X037237Y005665D01*
X037175Y005727D01*
X037543Y005665D02*
X037543Y006035D01*
X037790Y005665D01*
X037790Y006035D01*
X037912Y006035D02*
X038097Y006035D01*
X038159Y005974D01*
X038159Y005727D01*
X038097Y005665D01*
X037912Y005665D01*
X037912Y006035D01*
X036490Y007465D02*
X036243Y007465D01*
X036490Y007712D01*
X036490Y007774D01*
X036428Y007835D01*
X036305Y007835D01*
X036243Y007774D01*
X036122Y007835D02*
X035875Y007835D01*
X035875Y007650D01*
X035998Y007712D01*
X036060Y007712D01*
X036122Y007650D01*
X036122Y007527D01*
X036060Y007465D01*
X035937Y007465D01*
X035875Y007527D01*
X035937Y008465D02*
X035875Y008527D01*
X035937Y008465D02*
X036060Y008465D01*
X036122Y008527D01*
X036122Y008650D01*
X036060Y008712D01*
X035998Y008712D01*
X035875Y008650D01*
X035875Y008835D01*
X036122Y008835D01*
X036243Y008774D02*
X036305Y008835D01*
X036428Y008835D01*
X036490Y008774D01*
X036243Y008527D01*
X036305Y008465D01*
X036428Y008465D01*
X036490Y008527D01*
X036490Y008774D01*
X036243Y008774D02*
X036243Y008527D01*
X036305Y009465D02*
X036243Y009527D01*
X036243Y009588D01*
X036305Y009650D01*
X036428Y009650D01*
X036490Y009588D01*
X036490Y009527D01*
X036428Y009465D01*
X036305Y009465D01*
X036305Y009650D02*
X036243Y009712D01*
X036243Y009774D01*
X036305Y009835D01*
X036428Y009835D01*
X036490Y009774D01*
X036490Y009712D01*
X036428Y009650D01*
X036122Y009650D02*
X035875Y009650D01*
X036060Y009835D01*
X036060Y009465D01*
X036060Y010465D02*
X036060Y010835D01*
X035875Y010650D01*
X036122Y010650D01*
X036243Y010650D02*
X036428Y010650D01*
X036490Y010588D01*
X036490Y010527D01*
X036428Y010465D01*
X036305Y010465D01*
X036243Y010527D01*
X036243Y010650D01*
X036367Y010774D01*
X036490Y010835D01*
X036428Y011465D02*
X036428Y011835D01*
X036243Y011650D01*
X036490Y011650D01*
X036122Y011650D02*
X035875Y011650D01*
X036060Y011835D01*
X036060Y011465D01*
X036060Y012465D02*
X036060Y012835D01*
X035875Y012650D01*
X036122Y012650D01*
X036243Y012774D02*
X036305Y012835D01*
X036428Y012835D01*
X036490Y012774D01*
X036490Y012712D01*
X036243Y012465D01*
X036490Y012465D01*
X036428Y013465D02*
X036305Y013465D01*
X036243Y013527D01*
X036490Y013774D01*
X036490Y013527D01*
X036428Y013465D01*
X036243Y013527D02*
X036243Y013774D01*
X036305Y013835D01*
X036428Y013835D01*
X036490Y013774D01*
X036122Y013650D02*
X035875Y013650D01*
X036060Y013835D01*
X036060Y013465D01*
X036060Y014465D02*
X035937Y014465D01*
X035875Y014527D01*
X035998Y014650D02*
X036060Y014650D01*
X036122Y014588D01*
X036122Y014527D01*
X036060Y014465D01*
X036060Y014650D02*
X036122Y014712D01*
X036122Y014774D01*
X036060Y014835D01*
X035937Y014835D01*
X035875Y014774D01*
X036243Y014774D02*
X036243Y014712D01*
X036305Y014650D01*
X036428Y014650D01*
X036490Y014588D01*
X036490Y014527D01*
X036428Y014465D01*
X036305Y014465D01*
X036243Y014527D01*
X036243Y014588D01*
X036305Y014650D01*
X036428Y014650D02*
X036490Y014712D01*
X036490Y014774D01*
X036428Y014835D01*
X036305Y014835D01*
X036243Y014774D01*
X030359Y015827D02*
X030297Y015765D01*
X030173Y015765D01*
X030112Y015827D01*
X030112Y016074D01*
X030173Y016135D01*
X030297Y016135D01*
X030359Y016074D01*
X029990Y016074D02*
X029928Y016135D01*
X029805Y016135D01*
X029743Y016074D01*
X029743Y015827D01*
X029805Y015765D01*
X029928Y015765D01*
X029990Y015827D01*
X029622Y015888D02*
X029498Y015765D01*
X029375Y015888D01*
X029375Y016135D01*
X029622Y016135D02*
X029622Y015888D01*
X025283Y020265D02*
X025345Y020326D01*
X025345Y020573D01*
X025283Y020635D01*
X025160Y020635D01*
X025098Y020573D01*
X025098Y020450D01*
X025222Y020450D01*
X025098Y020326D02*
X025160Y020265D01*
X025283Y020265D01*
X024977Y020265D02*
X024730Y020635D01*
X024730Y020265D01*
X024608Y020265D02*
X024423Y020265D01*
X024361Y020326D01*
X024361Y020573D01*
X024423Y020635D01*
X024608Y020635D01*
X024608Y020265D01*
X024977Y020265D02*
X024977Y020635D01*
X022745Y020635D02*
X022498Y020388D01*
X022498Y020326D01*
X022560Y020265D01*
X022683Y020265D01*
X022745Y020326D01*
X022745Y020635D02*
X022498Y020635D01*
X021345Y020573D02*
X021283Y020635D01*
X021160Y020635D01*
X021098Y020573D01*
X021098Y020512D01*
X021160Y020450D01*
X021345Y020450D01*
X021345Y020573D01*
X021345Y020450D02*
X021222Y020326D01*
X021098Y020265D01*
X019945Y020265D02*
X019698Y020265D01*
X019698Y020326D01*
X019945Y020573D01*
X019945Y020635D01*
X020037Y022665D02*
X019975Y022727D01*
X020037Y022665D02*
X020160Y022665D01*
X020222Y022727D01*
X020222Y022850D01*
X020160Y022912D01*
X020098Y022912D01*
X019975Y022850D01*
X019975Y023035D01*
X020222Y023035D01*
X020975Y022850D02*
X021222Y022850D01*
X021160Y022665D02*
X021160Y023035D01*
X020975Y022850D01*
X021975Y022727D02*
X022037Y022665D01*
X022160Y022665D01*
X022222Y022727D01*
X022222Y022788D01*
X022160Y022850D01*
X022098Y022850D01*
X022160Y022850D02*
X022222Y022912D01*
X022222Y022974D01*
X022160Y023035D01*
X022037Y023035D01*
X021975Y022974D01*
X023075Y022974D02*
X023137Y023035D01*
X023260Y023035D01*
X023322Y022974D01*
X023322Y022912D01*
X023075Y022665D01*
X023322Y022665D01*
X023975Y022665D02*
X024222Y022665D01*
X024098Y022665D02*
X024098Y023035D01*
X023975Y022912D01*
X025075Y022974D02*
X025075Y022727D01*
X025322Y022974D01*
X025322Y022727D01*
X025260Y022665D01*
X025137Y022665D01*
X025075Y022727D01*
X025075Y022974D02*
X025137Y023035D01*
X025260Y023035D01*
X025322Y022974D01*
X026775Y022912D02*
X026898Y023035D01*
X026898Y022665D01*
X026775Y022665D02*
X027022Y022665D01*
X027143Y022850D02*
X027390Y022850D01*
X027328Y022665D02*
X027328Y023035D01*
X027143Y022850D01*
X027775Y022912D02*
X027898Y023035D01*
X027898Y022665D01*
X027775Y022665D02*
X028022Y022665D01*
X028143Y022727D02*
X028205Y022665D01*
X028328Y022665D01*
X028390Y022727D01*
X028390Y022850D01*
X028328Y022912D01*
X028267Y022912D01*
X028143Y022850D01*
X028143Y023035D01*
X028390Y023035D01*
X028775Y022912D02*
X028898Y023035D01*
X028898Y022665D01*
X028775Y022665D02*
X029022Y022665D01*
X029143Y022727D02*
X029205Y022665D01*
X029328Y022665D01*
X029390Y022727D01*
X029390Y022788D01*
X029328Y022850D01*
X029143Y022850D01*
X029143Y022727D01*
X029143Y022850D02*
X029267Y022974D01*
X029390Y023035D01*
X029775Y022912D02*
X029898Y023035D01*
X029898Y022665D01*
X029775Y022665D02*
X030022Y022665D01*
X030143Y022665D02*
X030143Y022727D01*
X030390Y022974D01*
X030390Y023035D01*
X030143Y023035D01*
X030875Y022912D02*
X030998Y023035D01*
X030998Y022665D01*
X030875Y022665D02*
X031122Y022665D01*
X031243Y022727D02*
X031243Y022788D01*
X031305Y022850D01*
X031428Y022850D01*
X031490Y022788D01*
X031490Y022727D01*
X031428Y022665D01*
X031305Y022665D01*
X031243Y022727D01*
X031305Y022850D02*
X031243Y022912D01*
X031243Y022974D01*
X031305Y023035D01*
X031428Y023035D01*
X031490Y022974D01*
X031490Y022912D01*
X031428Y022850D01*
X031875Y022912D02*
X031998Y023035D01*
X031998Y022665D01*
X031875Y022665D02*
X032122Y022665D01*
X032243Y022727D02*
X032305Y022665D01*
X032428Y022665D01*
X032490Y022727D01*
X032490Y022974D01*
X032428Y023035D01*
X032305Y023035D01*
X032243Y022974D01*
X032243Y022912D01*
X032305Y022850D01*
X032490Y022850D01*
X032875Y022974D02*
X032937Y023035D01*
X033060Y023035D01*
X033122Y022974D01*
X033122Y022912D01*
X032875Y022665D01*
X033122Y022665D01*
X033243Y022727D02*
X033490Y022974D01*
X033490Y022727D01*
X033428Y022665D01*
X033305Y022665D01*
X033243Y022727D01*
X033243Y022974D01*
X033305Y023035D01*
X033428Y023035D01*
X033490Y022974D01*
X033875Y022974D02*
X033937Y023035D01*
X034060Y023035D01*
X034122Y022974D01*
X034122Y022912D01*
X033875Y022665D01*
X034122Y022665D01*
X034243Y022665D02*
X034490Y022665D01*
X034367Y022665D02*
X034367Y023035D01*
X034243Y022912D01*
X035875Y022974D02*
X035937Y023035D01*
X036060Y023035D01*
X036122Y022974D01*
X036122Y022912D01*
X035875Y022665D01*
X036122Y022665D01*
X036243Y022665D02*
X036490Y022912D01*
X036490Y022974D01*
X036428Y023035D01*
X036305Y023035D01*
X036243Y022974D01*
X036243Y022665D02*
X036490Y022665D01*
X036367Y023465D02*
X036490Y023588D01*
X036490Y023835D01*
X036243Y023835D02*
X036243Y023588D01*
X036367Y023465D01*
X036122Y023527D02*
X036060Y023465D01*
X035937Y023465D01*
X035875Y023527D01*
X035875Y023650D02*
X035998Y023712D01*
X036060Y023712D01*
X036122Y023650D01*
X036122Y023527D01*
X035875Y023650D02*
X035875Y023835D01*
X036122Y023835D01*
X036185Y027265D02*
X036061Y027388D01*
X036061Y027635D01*
X036061Y027450D02*
X036308Y027450D01*
X036308Y027388D02*
X036185Y027265D01*
X036308Y027388D02*
X036308Y027635D01*
X036430Y027573D02*
X036430Y027326D01*
X036492Y027265D01*
X036677Y027265D01*
X036677Y027635D01*
X036492Y027635D01*
X036430Y027573D01*
X036798Y027573D02*
X036860Y027635D01*
X036983Y027635D01*
X037045Y027573D01*
X036983Y027450D02*
X036860Y027450D01*
X036798Y027512D01*
X036798Y027573D01*
X036983Y027450D02*
X037045Y027388D01*
X037045Y027326D01*
X036983Y027265D01*
X036860Y027265D01*
X036798Y027326D01*
X037175Y027350D02*
X037175Y027227D01*
X037236Y027165D01*
X037360Y027288D02*
X037360Y027350D01*
X037422Y027412D01*
X037483Y027412D01*
X037545Y027350D01*
X037545Y027227D01*
X037483Y027165D01*
X037360Y027350D02*
X037298Y027412D01*
X037236Y027412D01*
X037175Y027350D01*
X037483Y027533D02*
X037483Y027595D01*
X037545Y027595D01*
X037545Y027533D01*
X037483Y027533D01*
X037483Y027717D02*
X037545Y027779D01*
X037545Y027903D01*
X037483Y027964D01*
X037422Y027964D01*
X037360Y027903D01*
X037360Y027841D01*
X037360Y027903D02*
X037298Y027964D01*
X037236Y027964D01*
X037175Y027903D01*
X037175Y027779D01*
X037236Y027717D01*
X037661Y027635D02*
X037908Y027635D01*
X037908Y027265D01*
X038030Y027326D02*
X038092Y027265D01*
X038215Y027265D01*
X038277Y027326D01*
X038277Y027573D01*
X038215Y027635D01*
X038092Y027635D01*
X038030Y027573D01*
X038398Y027573D02*
X038460Y027635D01*
X038583Y027635D01*
X038645Y027573D01*
X038583Y027450D02*
X038460Y027450D01*
X038398Y027512D01*
X038398Y027573D01*
X038583Y027450D02*
X038645Y027388D01*
X038645Y027326D01*
X038583Y027265D01*
X038460Y027265D01*
X038398Y027326D01*
X035845Y027326D02*
X035783Y027265D01*
X035660Y027265D01*
X035598Y027326D01*
X035477Y027326D02*
X035477Y027573D01*
X035415Y027635D01*
X035292Y027635D01*
X035230Y027573D01*
X035108Y027635D02*
X034861Y027635D01*
X034745Y027657D02*
X034622Y027780D01*
X034375Y027780D01*
X034183Y027635D02*
X034245Y027573D01*
X034183Y027635D02*
X034060Y027635D01*
X033998Y027573D01*
X033998Y027512D01*
X034060Y027450D01*
X034183Y027450D01*
X034245Y027388D01*
X034245Y027326D01*
X034183Y027265D01*
X034060Y027265D01*
X033998Y027326D01*
X033877Y027265D02*
X033692Y027265D01*
X033630Y027326D01*
X033630Y027573D01*
X033692Y027635D01*
X033877Y027635D01*
X033877Y027265D01*
X033508Y027388D02*
X033385Y027265D01*
X033261Y027388D01*
X033261Y027635D01*
X033261Y027450D02*
X033508Y027450D01*
X033508Y027388D02*
X033508Y027635D01*
X032945Y027635D02*
X032945Y027265D01*
X032760Y027265D01*
X032698Y027326D01*
X032698Y027450D01*
X032760Y027512D01*
X032945Y027512D01*
X032822Y027512D02*
X032698Y027635D01*
X032577Y027635D02*
X032330Y027265D01*
X032208Y027388D02*
X032085Y027265D01*
X032085Y027635D01*
X032208Y027635D02*
X031961Y027635D01*
X032330Y027635D02*
X032577Y027265D01*
X031445Y027265D02*
X031198Y027265D01*
X031077Y027265D02*
X030830Y027635D01*
X030708Y027635D02*
X030461Y027635D01*
X030585Y027635D02*
X030585Y027265D01*
X030708Y027388D01*
X030830Y027265D02*
X031077Y027635D01*
X031322Y027635D02*
X031322Y027265D01*
X030045Y027265D02*
X029860Y027265D01*
X029798Y027326D01*
X029798Y027450D01*
X029860Y027512D01*
X030045Y027512D01*
X030045Y027635D02*
X030045Y027265D01*
X029922Y027512D02*
X029798Y027635D01*
X029677Y027635D02*
X029430Y027265D01*
X029308Y027326D02*
X029247Y027265D01*
X029123Y027265D01*
X029061Y027326D01*
X029061Y027388D01*
X029308Y027635D01*
X029061Y027635D01*
X029430Y027635D02*
X029677Y027265D01*
X028745Y027265D02*
X028498Y027265D01*
X028377Y027265D02*
X028130Y027635D01*
X028008Y027635D02*
X027761Y027388D01*
X027761Y027326D01*
X027823Y027265D01*
X027947Y027265D01*
X028008Y027326D01*
X028130Y027265D02*
X028377Y027635D01*
X028622Y027635D02*
X028622Y027265D01*
X028008Y027635D02*
X027761Y027635D01*
X027245Y027635D02*
X027245Y027265D01*
X027060Y027265D01*
X026998Y027326D01*
X026998Y027450D01*
X027060Y027512D01*
X027245Y027512D01*
X027122Y027512D02*
X026998Y027635D01*
X026877Y027635D02*
X026630Y027265D01*
X026508Y027326D02*
X026447Y027265D01*
X026323Y027265D01*
X026261Y027326D01*
X026261Y027388D01*
X026323Y027450D01*
X026261Y027512D01*
X026261Y027573D01*
X026323Y027635D01*
X026447Y027635D01*
X026508Y027573D01*
X026630Y027635D02*
X026877Y027265D01*
X026385Y027450D02*
X026323Y027450D01*
X025945Y027265D02*
X025698Y027265D01*
X025577Y027265D02*
X025330Y027635D01*
X025208Y027573D02*
X025147Y027635D01*
X025023Y027635D01*
X024961Y027573D01*
X024961Y027512D01*
X025023Y027450D01*
X025085Y027450D01*
X025023Y027450D02*
X024961Y027388D01*
X024961Y027326D01*
X025023Y027265D01*
X025147Y027265D01*
X025208Y027326D01*
X025330Y027265D02*
X025577Y027635D01*
X025822Y027635D02*
X025822Y027265D01*
X024545Y027265D02*
X024360Y027265D01*
X024298Y027326D01*
X024298Y027450D01*
X024360Y027512D01*
X024545Y027512D01*
X024545Y027635D02*
X024545Y027265D01*
X024422Y027512D02*
X024298Y027635D01*
X024177Y027635D02*
X023930Y027265D01*
X023808Y027326D02*
X023747Y027265D01*
X023623Y027265D01*
X023561Y027326D01*
X023808Y027573D01*
X023747Y027635D01*
X023623Y027635D01*
X023561Y027573D01*
X023561Y027326D01*
X023808Y027326D02*
X023808Y027573D01*
X023930Y027635D02*
X024177Y027265D01*
X023045Y027265D02*
X022798Y027265D01*
X022677Y027265D02*
X022430Y027635D01*
X022308Y027573D02*
X022247Y027635D01*
X022123Y027635D01*
X022061Y027573D01*
X022061Y027326D01*
X022308Y027573D01*
X022308Y027326D01*
X022247Y027265D01*
X022123Y027265D01*
X022061Y027326D01*
X022430Y027265D02*
X022677Y027635D01*
X022922Y027635D02*
X022922Y027265D01*
X021545Y027326D02*
X021483Y027265D01*
X021360Y027265D01*
X021298Y027326D01*
X021177Y027265D02*
X021177Y027635D01*
X020930Y027635D01*
X020808Y027635D02*
X020808Y027265D01*
X020747Y027450D02*
X020561Y027635D01*
X020808Y027512D02*
X020561Y027265D01*
X020045Y027388D02*
X019922Y027265D01*
X019798Y027388D01*
X019798Y027635D01*
X019677Y027573D02*
X019615Y027635D01*
X019492Y027635D01*
X019430Y027573D01*
X019430Y027326D02*
X019492Y027265D01*
X019615Y027265D01*
X019677Y027326D01*
X019677Y027573D01*
X019798Y027450D02*
X020045Y027450D01*
X020045Y027388D02*
X020045Y027635D01*
X019308Y027265D02*
X019061Y027265D01*
X019185Y027265D02*
X019185Y027635D01*
X018645Y027635D02*
X018460Y027635D01*
X018398Y027573D01*
X018398Y027326D01*
X018460Y027265D01*
X018645Y027265D01*
X018645Y027635D01*
X018277Y027635D02*
X018277Y027388D01*
X018153Y027265D01*
X018030Y027388D01*
X018030Y027635D01*
X018030Y027450D02*
X018277Y027450D01*
X017908Y027265D02*
X017661Y027265D01*
X017785Y027265D02*
X017785Y027635D01*
X016945Y027573D02*
X016883Y027635D01*
X016760Y027635D01*
X016698Y027573D01*
X016698Y027450D01*
X016760Y027388D01*
X016822Y027388D01*
X016945Y027450D01*
X016945Y027265D01*
X016698Y027265D01*
X016577Y027265D02*
X016577Y027512D01*
X016453Y027635D01*
X016330Y027512D01*
X016330Y027265D01*
X015645Y027326D02*
X015583Y027265D01*
X015460Y027265D01*
X015398Y027326D01*
X015398Y027450D02*
X015522Y027450D01*
X015398Y027450D02*
X015398Y027573D01*
X015460Y027635D01*
X015583Y027635D01*
X015645Y027573D01*
X015645Y027326D01*
X015277Y027265D02*
X015030Y027635D01*
X015030Y027265D01*
X014908Y027265D02*
X014723Y027265D01*
X014661Y027326D01*
X014661Y027573D01*
X014723Y027635D01*
X014908Y027635D01*
X014908Y027265D01*
X015277Y027265D02*
X015277Y027635D01*
X021298Y027573D02*
X021360Y027635D01*
X021483Y027635D01*
X021545Y027573D01*
X021545Y027326D01*
X019222Y023035D02*
X019098Y022974D01*
X018975Y022850D01*
X019160Y022850D01*
X019222Y022788D01*
X019222Y022727D01*
X019160Y022665D01*
X019037Y022665D01*
X018975Y022727D01*
X018975Y022850D01*
X018222Y022974D02*
X017975Y022727D01*
X017975Y022665D01*
X017975Y023035D02*
X018222Y023035D01*
X018222Y022974D01*
X016622Y022974D02*
X016622Y022912D01*
X016560Y022850D01*
X016437Y022850D01*
X016375Y022912D01*
X016375Y022974D01*
X016437Y023035D01*
X016560Y023035D01*
X016622Y022974D01*
X016560Y022850D02*
X016622Y022788D01*
X016622Y022727D01*
X016560Y022665D01*
X016437Y022665D01*
X016375Y022727D01*
X016375Y022788D01*
X016437Y022850D01*
X015622Y022850D02*
X015437Y022850D01*
X015375Y022912D01*
X015375Y022974D01*
X015437Y023035D01*
X015560Y023035D01*
X015622Y022974D01*
X015622Y022727D01*
X015560Y022665D01*
X015437Y022665D01*
X015375Y022727D01*
X014890Y022727D02*
X014890Y022974D01*
X014643Y022727D01*
X014705Y022665D01*
X014828Y022665D01*
X014890Y022727D01*
X014890Y022974D02*
X014828Y023035D01*
X014705Y023035D01*
X014643Y022974D01*
X014643Y022727D01*
X014522Y022665D02*
X014275Y022665D01*
X014398Y022665D02*
X014398Y023035D01*
X014275Y022912D01*
X013890Y022665D02*
X013643Y022665D01*
X013522Y022665D02*
X013275Y022665D01*
X013398Y022665D02*
X013398Y023035D01*
X013275Y022912D01*
X013643Y022912D02*
X013767Y023035D01*
X013767Y022665D01*
X012790Y022665D02*
X012543Y022665D01*
X012790Y022912D01*
X012790Y022974D01*
X012728Y023035D01*
X012605Y023035D01*
X012543Y022974D01*
X012298Y023035D02*
X012298Y022665D01*
X012175Y022665D02*
X012422Y022665D01*
X012175Y022912D02*
X012298Y023035D01*
X011790Y022974D02*
X011790Y022912D01*
X011728Y022850D01*
X011790Y022788D01*
X011790Y022727D01*
X011728Y022665D01*
X011605Y022665D01*
X011543Y022727D01*
X011422Y022665D02*
X011175Y022665D01*
X011298Y022665D02*
X011298Y023035D01*
X011175Y022912D01*
X010959Y022974D02*
X010959Y022727D01*
X010897Y022665D01*
X010712Y022665D01*
X010712Y023035D01*
X010897Y023035D01*
X010959Y022974D01*
X010590Y023035D02*
X010590Y022665D01*
X010343Y023035D01*
X010343Y022665D01*
X010222Y022727D02*
X010222Y022850D01*
X010098Y022850D01*
X009975Y022727D02*
X009975Y022974D01*
X010037Y023035D01*
X010160Y023035D01*
X010222Y022974D01*
X010222Y022727D02*
X010160Y022665D01*
X010037Y022665D01*
X009975Y022727D01*
X009722Y022665D02*
X009722Y022912D01*
X009598Y023035D01*
X009475Y022912D01*
X009475Y022665D01*
X009475Y022850D02*
X009722Y022850D01*
X011543Y022974D02*
X011605Y023035D01*
X011728Y023035D01*
X011790Y022974D01*
X011728Y022850D02*
X011667Y022850D01*
X000860Y007835D02*
X000860Y007588D01*
X000860Y006235D02*
X000860Y005988D01*
X000737Y006112D02*
X000984Y006112D01*
X012938Y005635D02*
X012938Y005265D01*
X012938Y005450D02*
X013062Y005450D01*
X013185Y005635D02*
X012938Y005635D01*
X016675Y001035D02*
X016675Y000850D01*
X016798Y000912D01*
X016860Y000912D01*
X016922Y000850D01*
X016922Y000727D01*
X016860Y000665D01*
X016737Y000665D01*
X016675Y000727D01*
X016675Y001035D02*
X016922Y001035D01*
X017043Y000912D02*
X017167Y000665D01*
X017290Y000912D01*
X019675Y001035D02*
X019675Y000665D01*
X019922Y000665D01*
X020043Y000665D02*
X020167Y000665D01*
X020105Y000665D02*
X020105Y000912D01*
X020043Y000912D01*
X020105Y001035D02*
X020105Y001097D01*
X020289Y000850D02*
X020536Y000850D01*
X021175Y000665D02*
X021422Y000665D01*
X021543Y000665D02*
X021667Y000665D01*
X021605Y000665D02*
X021605Y000912D01*
X021543Y000912D01*
X021605Y001035D02*
X021605Y001097D01*
X021789Y000850D02*
X022036Y000850D01*
X021912Y000727D02*
X021912Y000974D01*
X021175Y001035D02*
X021175Y000665D01*
X022875Y000850D02*
X023122Y000850D01*
X023243Y000727D02*
X023305Y000727D01*
X023305Y000665D01*
X023243Y000665D01*
X023243Y000727D01*
X023427Y000727D02*
X023489Y000665D01*
X023613Y000665D01*
X023674Y000727D01*
X023674Y000850D01*
X023613Y000912D01*
X023551Y000912D01*
X023427Y000850D01*
X023427Y001035D01*
X023674Y001035D01*
X023796Y001035D02*
X023796Y000788D01*
X023919Y000665D01*
X024043Y000788D01*
X024043Y001035D01*
X023060Y001035D02*
X023060Y000665D01*
X022875Y000850D02*
X023060Y001035D01*
X025175Y000974D02*
X025175Y000727D01*
X025237Y000665D01*
X025360Y000665D01*
X025422Y000727D01*
X025422Y000850D01*
X025298Y000850D01*
X025175Y000974D02*
X025237Y001035D01*
X025360Y001035D01*
X025422Y000974D01*
X025543Y001035D02*
X025790Y000665D01*
X025790Y001035D01*
X025912Y001035D02*
X026097Y001035D01*
X026159Y000974D01*
X026159Y000727D01*
X026097Y000665D01*
X025912Y000665D01*
X025912Y001035D01*
X025543Y001035D02*
X025543Y000665D01*
X026475Y001035D02*
X026722Y001035D01*
X026843Y001035D02*
X026843Y000665D01*
X027090Y000665D01*
X027212Y000665D02*
X027212Y001035D01*
X027335Y000912D01*
X027459Y001035D01*
X027459Y000665D01*
X027580Y000665D02*
X027580Y001035D01*
X027765Y001035D01*
X027827Y000974D01*
X027827Y000850D01*
X027765Y000788D01*
X027580Y000788D01*
X027090Y001035D02*
X026843Y001035D01*
X026843Y000850D02*
X026967Y000850D01*
X026598Y000665D02*
X026598Y001035D01*
X028175Y001035D02*
X028175Y000850D01*
X028298Y000912D01*
X028360Y000912D01*
X028422Y000850D01*
X028422Y000727D01*
X028360Y000665D01*
X028237Y000665D01*
X028175Y000727D01*
X028175Y001035D02*
X028422Y001035D01*
X028543Y001035D02*
X028543Y000788D01*
X028667Y000665D01*
X028790Y000788D01*
X028790Y001035D01*
X029775Y000974D02*
X029775Y000727D01*
X029837Y000665D01*
X029960Y000665D01*
X030022Y000727D01*
X030143Y000665D02*
X030143Y001035D01*
X030022Y000974D02*
X029960Y001035D01*
X029837Y001035D01*
X029775Y000974D01*
X030143Y000850D02*
X030390Y000850D01*
X030512Y000912D02*
X030635Y001035D01*
X030635Y000665D01*
X030512Y000665D02*
X030759Y000665D01*
X030390Y000665D02*
X030390Y001035D01*
X031275Y000974D02*
X031275Y000727D01*
X031337Y000665D01*
X031460Y000665D01*
X031522Y000727D01*
X031643Y000665D02*
X031643Y001035D01*
X031522Y000974D02*
X031460Y001035D01*
X031337Y001035D01*
X031275Y000974D01*
X031643Y000850D02*
X031890Y000850D01*
X032012Y000974D02*
X032073Y001035D01*
X032197Y001035D01*
X032259Y000974D01*
X032259Y000912D01*
X032012Y000665D01*
X032259Y000665D01*
X031890Y000665D02*
X031890Y001035D01*
X032775Y000974D02*
X032775Y000727D01*
X032837Y000665D01*
X032960Y000665D01*
X033022Y000727D01*
X033143Y000665D02*
X033143Y001035D01*
X033022Y000974D02*
X032960Y001035D01*
X032837Y001035D01*
X032775Y000974D01*
X033143Y000850D02*
X033390Y000850D01*
X033512Y000727D02*
X033573Y000665D01*
X033697Y000665D01*
X033759Y000727D01*
X033759Y000788D01*
X033697Y000850D01*
X033635Y000850D01*
X033697Y000850D02*
X033759Y000912D01*
X033759Y000974D01*
X033697Y001035D01*
X033573Y001035D01*
X033512Y000974D01*
X033390Y001035D02*
X033390Y000665D01*
X034275Y000665D02*
X034275Y001035D01*
X034398Y000912D01*
X034522Y001035D01*
X034522Y000665D01*
X034643Y000665D02*
X034767Y000665D01*
X034705Y000665D02*
X034705Y001035D01*
X034643Y001035D02*
X034767Y001035D01*
X034889Y000974D02*
X034889Y000912D01*
X034951Y000850D01*
X035074Y000850D01*
X035136Y000788D01*
X035136Y000727D01*
X035074Y000665D01*
X034951Y000665D01*
X034889Y000727D01*
X034889Y000974D02*
X034951Y001035D01*
X035074Y001035D01*
X035136Y000974D01*
X035257Y000974D02*
X035257Y000727D01*
X035319Y000665D01*
X035442Y000665D01*
X035504Y000727D01*
X035504Y000974D01*
X035442Y001035D01*
X035319Y001035D01*
X035257Y000974D01*
X035875Y000974D02*
X035875Y000912D01*
X035937Y000850D01*
X036060Y000850D01*
X036122Y000788D01*
X036122Y000727D01*
X036060Y000665D01*
X035937Y000665D01*
X035875Y000727D01*
X035875Y000974D02*
X035937Y001035D01*
X036060Y001035D01*
X036122Y000974D01*
X036243Y000974D02*
X036243Y000727D01*
X036305Y000665D01*
X036428Y000665D01*
X036490Y000727D01*
X036612Y000788D02*
X036859Y001035D01*
X036612Y001035D02*
X036612Y000665D01*
X036673Y000850D02*
X036859Y000665D01*
X036490Y000974D02*
X036428Y001035D01*
X036305Y001035D01*
X036243Y000974D01*
X037475Y001035D02*
X037475Y000665D01*
X037722Y000665D02*
X037722Y001035D01*
X037598Y000912D01*
X037475Y001035D01*
X037843Y000974D02*
X037843Y000727D01*
X037905Y000665D01*
X038028Y000665D01*
X038090Y000727D01*
X038090Y000974D01*
X038028Y001035D01*
X037905Y001035D01*
X037843Y000974D01*
X038212Y000974D02*
X038212Y000912D01*
X038273Y000850D01*
X038397Y000850D01*
X038459Y000788D01*
X038459Y000727D01*
X038397Y000665D01*
X038273Y000665D01*
X038212Y000727D01*
X038212Y000974D02*
X038273Y001035D01*
X038397Y001035D01*
X038459Y000974D01*
X038580Y001035D02*
X038703Y001035D01*
X038642Y001035D02*
X038642Y000665D01*
X038703Y000665D02*
X038580Y000665D01*
X034683Y027165D02*
X034745Y027227D01*
X034745Y027350D01*
X034683Y027412D01*
X034560Y027412D01*
X034498Y027350D01*
X034498Y027288D01*
X034560Y027165D01*
X034375Y027165D01*
X034375Y027412D01*
X034375Y027533D02*
X034622Y027533D01*
X034745Y027657D01*
X035108Y027635D02*
X035108Y027265D01*
X035230Y027326D02*
X035292Y027265D01*
X035415Y027265D01*
X035477Y027326D01*
X035660Y027450D02*
X035598Y027512D01*
X035598Y027573D01*
X035660Y027635D01*
X035783Y027635D01*
X035845Y027573D01*
X035783Y027450D02*
X035660Y027450D01*
X035783Y027450D02*
X035845Y027388D01*
X035845Y027326D01*
D11*
X022160Y016950D02*
X017160Y016950D01*
X017160Y014650D01*
X014660Y014650D01*
X014660Y011650D01*
X020860Y011650D01*
X022160Y012950D01*
X022160Y016950D01*
X022160Y016859D02*
X017160Y016859D01*
X017160Y016740D02*
X022160Y016740D01*
X022160Y016622D02*
X017160Y016622D01*
X017160Y016503D02*
X022160Y016503D01*
X022160Y016385D02*
X017160Y016385D01*
X017160Y016266D02*
X022160Y016266D01*
X022160Y016148D02*
X017160Y016148D01*
X017160Y016029D02*
X022160Y016029D01*
X022160Y015911D02*
X017160Y015911D01*
X017160Y015792D02*
X022160Y015792D01*
X022160Y015674D02*
X017160Y015674D01*
X017160Y015555D02*
X022160Y015555D01*
X022160Y015437D02*
X017160Y015437D01*
X017160Y015318D02*
X022160Y015318D01*
X022160Y015200D02*
X017160Y015200D01*
X017160Y015081D02*
X022160Y015081D01*
X022160Y014963D02*
X017160Y014963D01*
X017160Y014844D02*
X022160Y014844D01*
X022160Y014726D02*
X017160Y014726D01*
X014660Y014607D02*
X022160Y014607D01*
X022160Y014489D02*
X014660Y014489D01*
X014660Y014370D02*
X022160Y014370D01*
X022160Y014252D02*
X014660Y014252D01*
X014660Y014133D02*
X022160Y014133D01*
X022160Y014015D02*
X014660Y014015D01*
X014660Y013896D02*
X022160Y013896D01*
X022160Y013778D02*
X014660Y013778D01*
X014660Y013659D02*
X022160Y013659D01*
X022160Y013541D02*
X014660Y013541D01*
X014660Y013422D02*
X022160Y013422D01*
X022160Y013304D02*
X014660Y013304D01*
X014660Y013185D02*
X022160Y013185D01*
X022160Y013067D02*
X014660Y013067D01*
X014660Y012948D02*
X022158Y012948D01*
X022040Y012830D02*
X014660Y012830D01*
X014660Y012711D02*
X021921Y012711D01*
X021803Y012593D02*
X014660Y012593D01*
X014660Y012474D02*
X021684Y012474D01*
X021566Y012356D02*
X014660Y012356D01*
X014660Y012237D02*
X021447Y012237D01*
X021329Y012119D02*
X014660Y012119D01*
X014660Y012000D02*
X021210Y012000D01*
X021092Y011882D02*
X014660Y011882D01*
X014660Y011763D02*
X020973Y011763D01*
X032510Y013850D02*
X032510Y005850D01*
X034810Y005850D01*
X034810Y013850D01*
X034060Y013850D01*
X034058Y013811D01*
X034052Y013772D01*
X034043Y013734D01*
X034030Y013697D01*
X034013Y013661D01*
X033993Y013628D01*
X033969Y013596D01*
X033943Y013567D01*
X033914Y013541D01*
X033882Y013517D01*
X033849Y013497D01*
X033813Y013480D01*
X033776Y013467D01*
X033738Y013458D01*
X033699Y013452D01*
X033660Y013450D01*
X033621Y013452D01*
X033582Y013458D01*
X033544Y013467D01*
X033507Y013480D01*
X033471Y013497D01*
X033438Y013517D01*
X033406Y013541D01*
X033377Y013567D01*
X033351Y013596D01*
X033327Y013628D01*
X033307Y013661D01*
X033290Y013697D01*
X033277Y013734D01*
X033268Y013772D01*
X033262Y013811D01*
X033260Y013850D01*
X032510Y013850D01*
X019260Y000950D02*
X019260Y000850D01*
X019260Y000750D01*
X019260Y000850D02*
X017360Y000850D01*
X016560Y000850D02*
X014660Y000850D01*
X014660Y000750D01*
X014660Y000850D02*
X012960Y000850D01*
X011760Y000850D02*
X010060Y000850D01*
X010060Y000750D01*
X010060Y000850D02*
X008460Y000850D01*
X007060Y000850D02*
X005460Y000850D01*
X005460Y000750D01*
X005460Y000850D02*
X005460Y000950D01*
X010060Y000950D02*
X010060Y000850D01*
X014660Y000850D02*
X014660Y000950D01*
D12*
X015760Y006250D02*
X015760Y006550D01*
X015760Y006850D01*
X015960Y006850D02*
X015960Y006550D01*
X015960Y006250D01*
X019760Y010650D02*
X019760Y010950D01*
X019760Y011250D01*
X019960Y011250D02*
X019960Y010950D01*
X019960Y010650D01*
X023560Y006650D02*
X023560Y006350D01*
X023560Y006050D01*
X023760Y006050D02*
X023760Y006350D01*
X023760Y006650D01*
X027160Y006650D02*
X027160Y006350D01*
X027160Y006050D01*
X027360Y006050D02*
X027360Y006350D01*
X027360Y006650D01*
X027360Y011850D02*
X027360Y012150D01*
X027360Y012450D01*
X027160Y012450D02*
X027160Y012150D01*
X027160Y011850D01*
X029460Y013850D02*
X029460Y014150D01*
X029460Y014450D01*
X029660Y014450D02*
X029660Y014150D01*
X029660Y013850D01*
X007640Y024640D02*
X007640Y024840D01*
X007640Y025480D02*
X007640Y025660D01*
X007640Y026440D02*
X007640Y026640D01*
X007640Y027280D02*
X007640Y027460D01*
X005660Y007050D02*
X005360Y007050D01*
X005060Y007050D01*
X005060Y006850D02*
X005360Y006850D01*
X005660Y006850D01*
X002460Y003950D02*
X002460Y003450D01*
X002360Y003450D01*
X002360Y002650D01*
X001860Y002150D01*
X001060Y002150D01*
X000560Y002650D01*
X000560Y003450D01*
X000460Y003450D01*
X000460Y003950D01*
X001160Y003950D01*
X001160Y003450D01*
X001060Y003450D01*
X001060Y002650D01*
X001860Y002650D01*
X001860Y003450D01*
X001760Y003450D01*
X001760Y003950D01*
X002460Y003950D01*
X002460Y003893D02*
X001760Y003893D01*
X001760Y003795D02*
X002460Y003795D01*
X002460Y003696D02*
X001760Y003696D01*
X001760Y003598D02*
X002460Y003598D01*
X002460Y003499D02*
X001760Y003499D01*
X001860Y003401D02*
X002360Y003401D01*
X002360Y003302D02*
X001860Y003302D01*
X001860Y003204D02*
X002360Y003204D01*
X002360Y003105D02*
X001860Y003105D01*
X001860Y003007D02*
X002360Y003007D01*
X002360Y002908D02*
X001860Y002908D01*
X001860Y002810D02*
X002360Y002810D01*
X002360Y002711D02*
X001860Y002711D01*
X002126Y002416D02*
X000794Y002416D01*
X000696Y002514D02*
X002224Y002514D01*
X002323Y002613D02*
X000597Y002613D01*
X000560Y002711D02*
X001060Y002711D01*
X001060Y002810D02*
X000560Y002810D01*
X000560Y002908D02*
X001060Y002908D01*
X001060Y003007D02*
X000560Y003007D01*
X000560Y003105D02*
X001060Y003105D01*
X001060Y003204D02*
X000560Y003204D01*
X000560Y003302D02*
X001060Y003302D01*
X001060Y003401D02*
X000560Y003401D01*
X000460Y003499D02*
X001160Y003499D01*
X001160Y003598D02*
X000460Y003598D01*
X000460Y003696D02*
X001160Y003696D01*
X001160Y003795D02*
X000460Y003795D01*
X000460Y003893D02*
X001160Y003893D01*
X000893Y002317D02*
X002027Y002317D01*
X001929Y002219D02*
X000991Y002219D01*
D13*
X002671Y001548D02*
X002671Y001233D01*
X005427Y001233D01*
X005427Y001548D01*
X002671Y001548D01*
X002671Y003989D01*
X005427Y003989D01*
X005427Y001548D01*
X005454Y001548D02*
X010021Y001548D01*
X010021Y001233D01*
X005454Y001233D01*
X005454Y001548D01*
X005454Y003989D01*
X010021Y003989D01*
X010021Y001548D01*
X010054Y001548D02*
X014621Y001548D01*
X014621Y001233D01*
X010054Y001233D01*
X010054Y001548D01*
X010054Y003989D01*
X014621Y003989D01*
X014621Y001548D01*
X014654Y001548D02*
X019221Y001548D01*
X019221Y001233D01*
X014654Y001233D01*
X014654Y001548D01*
X014654Y003989D01*
X019221Y003989D01*
X019221Y001548D01*
X019271Y001548D02*
X022027Y001548D01*
X022027Y001233D01*
X019271Y001233D01*
X019271Y001548D01*
X019271Y003989D01*
X022027Y003989D01*
X022027Y001548D01*
X022071Y001548D02*
X024827Y001548D01*
X024827Y001233D01*
X022071Y001233D01*
X022071Y001548D01*
X022071Y003989D01*
X024827Y003989D01*
X024827Y001548D01*
X024854Y001548D02*
X029421Y001548D01*
X029421Y001233D01*
X024854Y001233D01*
X024854Y001548D01*
X024854Y003989D01*
X029421Y003989D01*
X029421Y001548D01*
X029454Y001548D02*
X034021Y001548D01*
X034021Y001233D01*
X029454Y001233D01*
X029454Y001548D01*
X029454Y003989D01*
X034021Y003989D01*
X034021Y001548D01*
X034054Y001548D02*
X038621Y001548D01*
X038621Y001233D01*
X034054Y001233D01*
X034054Y001548D01*
X034054Y003989D01*
X038621Y003989D01*
X038621Y001548D01*
X036410Y004150D02*
X035910Y004150D01*
X035660Y004400D01*
X035410Y004150D01*
X034910Y004150D01*
X034660Y004400D01*
X034410Y004150D01*
X033910Y004150D01*
X033660Y004400D01*
X033410Y004150D01*
X032910Y004150D01*
X032660Y004400D01*
X032410Y004150D01*
X031910Y004150D01*
X031660Y004400D01*
X031410Y004150D01*
X030910Y004150D01*
X030660Y004400D01*
X030410Y004150D01*
X029910Y004150D01*
X029660Y004400D01*
X029410Y004150D01*
X028910Y004150D01*
X028660Y004400D01*
X028660Y004900D01*
X028910Y005150D01*
X029410Y005150D01*
X029660Y004900D01*
X029910Y005150D01*
X030410Y005150D01*
X030660Y004900D01*
X030910Y005150D01*
X031410Y005150D01*
X031660Y004900D01*
X031910Y005150D01*
X032410Y005150D01*
X032660Y004900D01*
X032910Y005150D01*
X033410Y005150D01*
X033660Y004900D01*
X033910Y005150D01*
X034410Y005150D01*
X034660Y004900D01*
X034910Y005150D01*
X035410Y005150D01*
X035660Y004900D01*
X035910Y005150D01*
X036410Y005150D01*
X036660Y004900D01*
X036660Y004400D01*
X036410Y004150D01*
X036910Y006150D02*
X037410Y006150D01*
X037660Y006400D01*
X037910Y006150D01*
X038410Y006150D01*
X038660Y006400D01*
X038660Y006900D01*
X038410Y007150D01*
X037910Y007150D01*
X037660Y006900D01*
X037410Y007150D01*
X036910Y007150D01*
X036660Y006900D01*
X036660Y006400D01*
X036910Y006150D01*
X036910Y007150D02*
X036660Y007400D01*
X036660Y007900D01*
X036910Y008150D01*
X036660Y008400D01*
X036660Y008900D01*
X036910Y009150D01*
X036660Y009400D01*
X036660Y009900D01*
X036910Y010150D01*
X036660Y010400D01*
X036660Y010900D01*
X036910Y011150D01*
X036660Y011400D01*
X036660Y011900D01*
X036910Y012150D01*
X036660Y012400D01*
X036660Y012900D01*
X036910Y013150D01*
X036660Y013400D01*
X036660Y013900D01*
X036910Y014150D01*
X036660Y014400D01*
X036660Y014900D01*
X036910Y015150D01*
X037410Y015150D01*
X037660Y014900D01*
X037660Y014400D01*
X037410Y014150D01*
X037660Y013900D01*
X037660Y013400D01*
X037410Y013150D01*
X037660Y012900D01*
X037660Y012400D01*
X037410Y012150D01*
X037660Y011900D01*
X037660Y011400D01*
X037410Y011150D01*
X037660Y010900D01*
X037660Y010400D01*
X037410Y010150D01*
X037660Y009900D01*
X037660Y009400D01*
X037410Y009150D01*
X037660Y008900D01*
X037660Y008400D01*
X037410Y008150D01*
X037660Y007900D01*
X037660Y007400D01*
X037410Y007150D01*
X036910Y007150D01*
X037660Y007400D02*
X037660Y007900D01*
X037910Y008150D01*
X037660Y008400D01*
X037660Y008900D01*
X037910Y009150D01*
X037660Y009400D01*
X037660Y009900D01*
X037910Y010150D01*
X037660Y010400D01*
X037660Y010900D01*
X037910Y011150D01*
X037660Y011400D01*
X037660Y011900D01*
X037910Y012150D01*
X037660Y012400D01*
X037660Y012900D01*
X037910Y013150D01*
X037660Y013400D01*
X037660Y013900D01*
X037910Y014150D01*
X037660Y014400D01*
X037660Y014900D01*
X037910Y015150D01*
X038410Y015150D01*
X038660Y014900D01*
X038660Y014400D01*
X038410Y014150D01*
X038660Y013900D01*
X038660Y013400D01*
X038410Y013150D01*
X038660Y012900D01*
X038660Y012400D01*
X038410Y012150D01*
X038660Y011900D01*
X038660Y011400D01*
X038410Y011150D01*
X038660Y010900D01*
X038660Y010400D01*
X038410Y010150D01*
X038660Y009900D01*
X038660Y009400D01*
X038410Y009150D01*
X038660Y008900D01*
X038660Y008400D01*
X038410Y008150D01*
X038660Y007900D01*
X038660Y007400D01*
X038410Y007150D01*
X037910Y007150D01*
X037660Y007400D01*
X030213Y007840D02*
X030215Y007855D01*
X030221Y007868D01*
X030230Y007880D01*
X030241Y007889D01*
X030255Y007895D01*
X030270Y007897D01*
X030285Y007895D01*
X030298Y007889D01*
X030310Y007880D01*
X030319Y007869D01*
X030325Y007855D01*
X030327Y007840D01*
X030325Y007825D01*
X030319Y007812D01*
X030310Y007800D01*
X030299Y007791D01*
X030285Y007785D01*
X030270Y007783D01*
X030255Y007785D01*
X030242Y007791D01*
X030230Y007800D01*
X030221Y007811D01*
X030215Y007825D01*
X030213Y007840D01*
X027410Y005150D02*
X026910Y005150D01*
X026660Y004900D01*
X026410Y005150D01*
X025910Y005150D01*
X025660Y004900D01*
X025410Y005150D01*
X024910Y005150D01*
X024660Y004900D01*
X024410Y005150D01*
X023910Y005150D01*
X023660Y004900D01*
X023410Y005150D01*
X022910Y005150D01*
X022660Y004900D01*
X022410Y005150D01*
X021910Y005150D01*
X021660Y004900D01*
X021410Y005150D01*
X020910Y005150D01*
X020660Y004900D01*
X020410Y005150D01*
X019910Y005150D01*
X019660Y004900D01*
X019660Y004400D01*
X019910Y004150D01*
X020410Y004150D01*
X020660Y004400D01*
X020910Y004150D01*
X021410Y004150D01*
X021660Y004400D01*
X021910Y004150D01*
X022410Y004150D01*
X022660Y004400D01*
X022910Y004150D01*
X023410Y004150D01*
X023660Y004400D01*
X023910Y004150D01*
X024410Y004150D01*
X024660Y004400D01*
X024910Y004150D01*
X025410Y004150D01*
X025660Y004400D01*
X025910Y004150D01*
X026410Y004150D01*
X026660Y004400D01*
X026910Y004150D01*
X027410Y004150D01*
X027660Y004400D01*
X027660Y004900D01*
X027410Y005150D01*
X018660Y004900D02*
X018660Y004400D01*
X018410Y004150D01*
X017910Y004150D01*
X017660Y004400D01*
X017410Y004150D01*
X016910Y004150D01*
X016660Y004400D01*
X016410Y004150D01*
X015910Y004150D01*
X015660Y004400D01*
X015410Y004150D01*
X014910Y004150D01*
X014660Y004400D01*
X014410Y004150D01*
X013910Y004150D01*
X013660Y004400D01*
X013410Y004150D01*
X012910Y004150D01*
X012660Y004400D01*
X012410Y004150D01*
X011910Y004150D01*
X011660Y004400D01*
X011410Y004150D01*
X010910Y004150D01*
X010660Y004400D01*
X010660Y004900D01*
X010910Y005150D01*
X011410Y005150D01*
X011660Y004900D01*
X011910Y005150D01*
X012410Y005150D01*
X012660Y004900D01*
X012910Y005150D01*
X013410Y005150D01*
X013660Y004900D01*
X013910Y005150D01*
X014410Y005150D01*
X014660Y004900D01*
X014910Y005150D01*
X015410Y005150D01*
X015660Y004900D01*
X015910Y005150D01*
X016410Y005150D01*
X016660Y004900D01*
X016910Y005150D01*
X017410Y005150D01*
X017660Y004900D01*
X017910Y005150D01*
X018410Y005150D01*
X018660Y004900D01*
X014660Y006300D02*
X014410Y006050D01*
X013910Y006050D01*
X013660Y006300D01*
X013410Y006050D01*
X012910Y006050D01*
X012660Y006300D01*
X012660Y006800D01*
X012910Y007050D01*
X013410Y007050D01*
X013660Y006800D01*
X013910Y007050D01*
X014410Y007050D01*
X014660Y006800D01*
X014660Y006300D01*
X008116Y004661D02*
X008116Y009239D01*
X006404Y009239D01*
X006404Y004661D01*
X008116Y004661D01*
X003999Y005583D02*
X001558Y005583D01*
X001558Y008339D01*
X003999Y008339D01*
X003999Y005583D01*
X001558Y005583D02*
X001243Y005583D01*
X001243Y008339D01*
X001558Y008339D01*
X007310Y021650D02*
X007810Y021650D01*
X008060Y021900D01*
X008310Y021650D01*
X008810Y021650D01*
X009060Y021900D01*
X009060Y022400D01*
X008810Y022650D01*
X008310Y022650D01*
X008060Y022400D01*
X007810Y022650D01*
X007310Y022650D01*
X007060Y022400D01*
X007060Y021900D01*
X007310Y021650D01*
X007310Y023150D02*
X007810Y023150D01*
X008060Y023400D01*
X008310Y023150D01*
X008810Y023150D01*
X009060Y023400D01*
X009310Y023150D01*
X009810Y023150D01*
X010060Y023400D01*
X010310Y023150D01*
X010810Y023150D01*
X011060Y023400D01*
X011310Y023150D01*
X011810Y023150D01*
X012060Y023400D01*
X012310Y023150D01*
X012810Y023150D01*
X013060Y023400D01*
X013310Y023150D01*
X013810Y023150D01*
X014060Y023400D01*
X014310Y023150D01*
X014810Y023150D01*
X015060Y023400D01*
X015310Y023150D01*
X015810Y023150D01*
X016060Y023400D01*
X016310Y023150D01*
X016810Y023150D01*
X017060Y023400D01*
X017060Y023900D01*
X016810Y024150D01*
X016310Y024150D01*
X016060Y023900D01*
X015810Y024150D01*
X015310Y024150D01*
X015060Y023900D01*
X014810Y024150D01*
X014310Y024150D01*
X014060Y023900D01*
X013810Y024150D01*
X013310Y024150D01*
X013060Y023900D01*
X012810Y024150D01*
X012310Y024150D01*
X012060Y023900D01*
X011810Y024150D01*
X011310Y024150D01*
X011060Y023900D01*
X010810Y024150D01*
X010310Y024150D01*
X010060Y023900D01*
X009810Y024150D01*
X009310Y024150D01*
X009060Y023900D01*
X008810Y024150D01*
X008310Y024150D01*
X008060Y023900D01*
X007810Y024150D01*
X007310Y024150D01*
X007060Y023900D01*
X007060Y023400D01*
X007310Y023150D01*
X012060Y025300D02*
X012310Y025050D01*
X012810Y025050D01*
X013060Y025300D01*
X013060Y025800D01*
X012810Y026050D01*
X013060Y026300D01*
X013060Y026800D01*
X012810Y027050D01*
X012310Y027050D01*
X012060Y026800D01*
X012060Y026300D01*
X012310Y026050D01*
X012060Y025800D01*
X012060Y025300D01*
X013160Y025300D02*
X013410Y025050D01*
X013910Y025050D01*
X014160Y025300D01*
X014160Y025800D01*
X013910Y026050D01*
X014160Y026300D01*
X014160Y026800D01*
X013910Y027050D01*
X013410Y027050D01*
X013160Y026800D01*
X013160Y026300D01*
X013410Y026050D01*
X013160Y025800D01*
X013160Y025300D01*
X014493Y024311D02*
X014493Y026752D01*
X017249Y026752D01*
X017249Y024311D01*
X014493Y024311D01*
X017299Y024311D02*
X017299Y026752D01*
X021866Y026752D01*
X021866Y024311D01*
X017299Y024311D01*
X017660Y023900D02*
X017910Y024150D01*
X018410Y024150D01*
X018660Y023900D01*
X018910Y024150D01*
X019410Y024150D01*
X019660Y023900D01*
X019910Y024150D01*
X020410Y024150D01*
X020660Y023900D01*
X020910Y024150D01*
X021410Y024150D01*
X021660Y023900D01*
X021910Y024150D01*
X022410Y024150D01*
X022660Y023900D01*
X022910Y024150D01*
X023410Y024150D01*
X023660Y023900D01*
X023910Y024150D01*
X024410Y024150D01*
X024660Y023900D01*
X024910Y024150D01*
X025410Y024150D01*
X025660Y023900D01*
X025660Y023400D01*
X025410Y023150D01*
X024910Y023150D01*
X024660Y023400D01*
X024410Y023150D01*
X023910Y023150D01*
X023660Y023400D01*
X023410Y023150D01*
X022910Y023150D01*
X022660Y023400D01*
X022410Y023150D01*
X021910Y023150D01*
X021660Y023400D01*
X021410Y023150D01*
X020910Y023150D01*
X020660Y023400D01*
X020410Y023150D01*
X019910Y023150D01*
X019660Y023400D01*
X019410Y023150D01*
X018910Y023150D01*
X018660Y023400D01*
X018410Y023150D01*
X017910Y023150D01*
X017660Y023400D01*
X017660Y023900D01*
X017299Y026752D02*
X017299Y027067D01*
X021866Y027067D01*
X021866Y026752D01*
X021893Y026752D02*
X024649Y026752D01*
X024649Y024311D01*
X021893Y024311D01*
X021893Y026752D01*
X021893Y027067D01*
X024649Y027067D01*
X024649Y026752D01*
X024693Y026752D02*
X027449Y026752D01*
X027449Y024311D01*
X024693Y024311D01*
X024693Y026752D01*
X024693Y027067D01*
X027449Y027067D01*
X027449Y026752D01*
X027493Y026752D02*
X030249Y026752D01*
X030249Y024311D01*
X027493Y024311D01*
X027493Y026752D01*
X027493Y027067D01*
X030249Y027067D01*
X030249Y026752D01*
X030293Y026752D02*
X033049Y026752D01*
X033049Y024311D01*
X030293Y024311D01*
X030293Y026752D01*
X030293Y027067D01*
X033049Y027067D01*
X033049Y026752D01*
X033093Y026752D02*
X035849Y026752D01*
X035849Y024311D01*
X033093Y024311D01*
X033093Y026752D01*
X033093Y027067D01*
X035849Y027067D01*
X035849Y026752D01*
X035893Y026752D02*
X038649Y026752D01*
X038649Y024311D01*
X035893Y024311D01*
X035893Y026752D01*
X035893Y027067D01*
X038649Y027067D01*
X038649Y026752D01*
X038410Y024150D02*
X037910Y024150D01*
X037660Y023900D01*
X037410Y024150D01*
X036910Y024150D01*
X036660Y023900D01*
X036660Y023400D01*
X036910Y023150D01*
X037410Y023150D01*
X037660Y023400D01*
X037910Y023150D01*
X038410Y023150D01*
X038660Y023400D01*
X038660Y023900D01*
X038410Y024150D01*
X038410Y023150D02*
X037910Y023150D01*
X037660Y022900D01*
X037410Y023150D01*
X036910Y023150D01*
X036660Y022900D01*
X036660Y022400D01*
X036910Y022150D01*
X036660Y021900D01*
X036660Y021400D01*
X036910Y021150D01*
X036660Y020900D01*
X036660Y020400D01*
X036910Y020150D01*
X036660Y019900D01*
X036660Y019400D01*
X036910Y019150D01*
X036660Y018900D01*
X036660Y018400D01*
X036910Y018150D01*
X036660Y017900D01*
X036660Y017400D01*
X036910Y017150D01*
X036660Y016900D01*
X036660Y016400D01*
X036910Y016150D01*
X036660Y015900D01*
X036660Y015400D01*
X036910Y015150D01*
X037410Y015150D01*
X037660Y015400D01*
X037660Y015900D01*
X037410Y016150D01*
X037660Y016400D01*
X037660Y016900D01*
X037410Y017150D01*
X037660Y017400D01*
X037660Y017900D01*
X037410Y018150D01*
X037660Y018400D01*
X037660Y018900D01*
X037410Y019150D01*
X037660Y019400D01*
X037660Y019900D01*
X037410Y020150D01*
X037660Y020400D01*
X037660Y020900D01*
X037410Y021150D01*
X037660Y021400D01*
X037660Y021900D01*
X037410Y022150D01*
X037660Y022400D01*
X037660Y022900D01*
X037660Y022400D01*
X037910Y022150D01*
X037660Y021900D01*
X037660Y021400D01*
X037910Y021150D01*
X037660Y020900D01*
X037660Y020400D01*
X037910Y020150D01*
X037660Y019900D01*
X037660Y019400D01*
X037910Y019150D01*
X037660Y018900D01*
X037660Y018400D01*
X037910Y018150D01*
X037660Y017900D01*
X037660Y017400D01*
X037910Y017150D01*
X037660Y016900D01*
X037660Y016400D01*
X037910Y016150D01*
X037660Y015900D01*
X037660Y015400D01*
X037910Y015150D01*
X038410Y015150D01*
X038660Y015400D01*
X038660Y015900D01*
X038410Y016150D01*
X038660Y016400D01*
X038660Y016900D01*
X038410Y017150D01*
X038660Y017400D01*
X038660Y017900D01*
X038410Y018150D01*
X038660Y018400D01*
X038660Y018900D01*
X038410Y019150D01*
X038660Y019400D01*
X038660Y019900D01*
X038410Y020150D01*
X038660Y020400D01*
X038660Y020900D01*
X038410Y021150D01*
X038660Y021400D01*
X038660Y021900D01*
X038410Y022150D01*
X038660Y022400D01*
X038660Y022900D01*
X038410Y023150D01*
X034660Y023400D02*
X034410Y023150D01*
X033910Y023150D01*
X033660Y023400D01*
X033410Y023150D01*
X032910Y023150D01*
X032660Y023400D01*
X032410Y023150D01*
X031910Y023150D01*
X031660Y023400D01*
X031410Y023150D01*
X030910Y023150D01*
X030660Y023400D01*
X030410Y023150D01*
X029910Y023150D01*
X029660Y023400D01*
X029410Y023150D01*
X028910Y023150D01*
X028660Y023400D01*
X028410Y023150D01*
X027910Y023150D01*
X027660Y023400D01*
X027410Y023150D01*
X026910Y023150D01*
X026660Y023400D01*
X026660Y023900D01*
X026910Y024150D01*
X027410Y024150D01*
X027660Y023900D01*
X027910Y024150D01*
X028410Y024150D01*
X028660Y023900D01*
X028910Y024150D01*
X029410Y024150D01*
X029660Y023900D01*
X029910Y024150D01*
X030410Y024150D01*
X030660Y023900D01*
X030910Y024150D01*
X031410Y024150D01*
X031660Y023900D01*
X031910Y024150D01*
X032410Y024150D01*
X032660Y023900D01*
X032910Y024150D01*
X033410Y024150D01*
X033660Y023900D01*
X033910Y024150D01*
X034410Y024150D01*
X034660Y023900D01*
X034660Y023400D01*
X026349Y020067D02*
X026349Y019752D01*
X023593Y019752D01*
X023593Y020067D01*
X026349Y020067D01*
X026349Y019752D02*
X026349Y017311D01*
X023593Y017311D01*
X023593Y019752D01*
X023566Y019752D02*
X018999Y019752D01*
X018999Y020067D01*
X023566Y020067D01*
X023566Y019752D01*
X023566Y017311D01*
X018999Y017311D01*
X018999Y019752D01*
X022910Y015750D02*
X023410Y015750D01*
X023660Y015500D01*
X023910Y015750D01*
X024410Y015750D01*
X024660Y015500D01*
X024910Y015750D01*
X025410Y015750D01*
X025660Y015500D01*
X025660Y015000D01*
X025410Y014750D01*
X024910Y014750D01*
X024660Y015000D01*
X024410Y014750D01*
X023910Y014750D01*
X023660Y015000D01*
X023410Y014750D01*
X022910Y014750D01*
X022660Y015000D01*
X022660Y015500D01*
X022910Y015750D01*
X022910Y014650D02*
X023410Y014650D01*
X023660Y014400D01*
X023910Y014650D01*
X024410Y014650D01*
X024660Y014400D01*
X024910Y014650D01*
X025410Y014650D01*
X025660Y014400D01*
X025660Y013900D01*
X025410Y013650D01*
X024910Y013650D01*
X024660Y013900D01*
X024410Y013650D01*
X023910Y013650D01*
X023660Y013900D01*
X023410Y013650D01*
X022910Y013650D01*
X022660Y013900D01*
X022660Y014400D01*
X022910Y014650D01*
X022910Y013550D02*
X023410Y013550D01*
X023660Y013300D01*
X023910Y013550D01*
X024410Y013550D01*
X024660Y013300D01*
X024910Y013550D01*
X025410Y013550D01*
X025660Y013300D01*
X025660Y012800D01*
X025410Y012550D01*
X024910Y012550D01*
X024660Y012800D01*
X024410Y012550D01*
X023910Y012550D01*
X023660Y012800D01*
X023410Y012550D01*
X022910Y012550D01*
X022660Y012800D01*
X022660Y013300D01*
X022910Y013550D01*
X030560Y015650D02*
X030810Y015400D01*
X031310Y015400D01*
X031560Y015650D01*
X031560Y016150D01*
X031810Y016400D01*
X032310Y016400D01*
X032560Y016150D01*
X032560Y015650D01*
X032310Y015400D01*
X031810Y015400D01*
X031560Y015650D01*
X031560Y016150D02*
X031310Y016400D01*
X030810Y016400D01*
X030560Y016150D01*
X030560Y015650D01*
X032560Y015650D02*
X032810Y015400D01*
X033310Y015400D01*
X033560Y015650D01*
X033560Y016150D01*
X033810Y016400D01*
X034310Y016400D01*
X034560Y016150D01*
X034560Y015650D01*
X034310Y015400D01*
X033810Y015400D01*
X033560Y015650D01*
X033560Y016150D02*
X033310Y016400D01*
X032810Y016400D01*
X032560Y016150D01*
X034560Y016150D02*
X034810Y016400D01*
X035310Y016400D01*
X035560Y016150D01*
X035560Y015650D01*
X035310Y015400D01*
X034810Y015400D01*
X034560Y015650D01*
X035560Y015650D02*
X035810Y015400D01*
X036310Y015400D01*
X036560Y015650D01*
X036560Y016150D01*
X036310Y016400D01*
X035810Y016400D01*
X035560Y016150D01*
X017249Y026752D02*
X017249Y027067D01*
X014493Y027067D01*
X014493Y026752D01*
D14*
X010660Y021147D02*
X010660Y011777D01*
X009676Y011777D01*
X009676Y010753D01*
X000778Y010714D01*
X000778Y011147D01*
X000817Y011226D01*
X000778Y011147D02*
X000778Y020793D01*
X000896Y020832D01*
X000778Y020793D02*
X000778Y021147D01*
X010660Y021147D01*
X006482Y023844D02*
X006482Y024744D01*
X006834Y024744D01*
X006834Y025996D01*
X006482Y025996D01*
X006482Y027569D01*
X005760Y027569D01*
X005017Y026684D01*
X002660Y026684D01*
X001760Y027569D01*
X001238Y027569D01*
X001238Y025996D01*
X000886Y025996D01*
X000886Y024704D01*
X001238Y024704D01*
X001238Y023904D01*
X002354Y022728D01*
X005427Y022728D01*
X006482Y023844D01*
X000896Y020832D02*
X001093Y019882D01*
X001245Y018925D01*
X001352Y017961D01*
X001412Y016993D01*
X001427Y016024D01*
X001396Y015055D01*
X001320Y014088D01*
X001198Y013126D01*
X001030Y012172D01*
X000817Y011226D01*
D15*
X002860Y009750D02*
X002860Y008750D01*
X004460Y008750D01*
X004460Y009750D01*
X002860Y009750D01*
X003260Y009500D02*
X003660Y009250D01*
X003660Y009500D01*
X003660Y009250D02*
X003660Y009000D01*
X003660Y009250D02*
X003260Y009000D01*
X003260Y009500D01*
X003060Y009250D02*
X003660Y009250D01*
X003910Y009250D01*
X004960Y007900D02*
X005760Y007900D01*
X005777Y007898D01*
X005794Y007894D01*
X005810Y007887D01*
X005824Y007877D01*
X005837Y007864D01*
X005847Y007850D01*
X005854Y007834D01*
X005858Y007817D01*
X005860Y007800D01*
X005860Y006100D01*
X005858Y006083D01*
X005854Y006066D01*
X005847Y006050D01*
X005837Y006036D01*
X005824Y006023D01*
X005810Y006013D01*
X005794Y006006D01*
X005777Y006002D01*
X005760Y006000D01*
X004960Y006000D01*
X004943Y006002D01*
X004926Y006006D01*
X004910Y006013D01*
X004896Y006023D01*
X004883Y006036D01*
X004873Y006050D01*
X004866Y006066D01*
X004862Y006083D01*
X004860Y006100D01*
X004860Y007800D01*
X004862Y007817D01*
X004866Y007834D01*
X004873Y007850D01*
X004883Y007864D01*
X004896Y007877D01*
X004910Y007887D01*
X004926Y007894D01*
X004943Y007898D01*
X004960Y007900D01*
X005360Y007100D02*
X005360Y007050D01*
X005360Y006850D02*
X005360Y006800D01*
X004460Y005150D02*
X002860Y005150D01*
X002860Y004150D01*
X004460Y004150D01*
X004460Y005150D01*
X003910Y004650D02*
X003660Y004650D01*
X003660Y004900D01*
X003660Y004650D02*
X003660Y004400D01*
X003660Y004650D02*
X003260Y004400D01*
X003260Y004900D01*
X003660Y004650D01*
X003060Y004650D01*
X009210Y005550D02*
X009210Y009550D01*
X009960Y009550D01*
X009962Y009511D01*
X009968Y009472D01*
X009977Y009434D01*
X009990Y009397D01*
X010007Y009361D01*
X010027Y009328D01*
X010051Y009296D01*
X010077Y009267D01*
X010106Y009241D01*
X010138Y009217D01*
X010171Y009197D01*
X010207Y009180D01*
X010244Y009167D01*
X010282Y009158D01*
X010321Y009152D01*
X010360Y009150D01*
X010399Y009152D01*
X010438Y009158D01*
X010476Y009167D01*
X010513Y009180D01*
X010549Y009197D01*
X010582Y009217D01*
X010614Y009241D01*
X010643Y009267D01*
X010669Y009296D01*
X010693Y009328D01*
X010713Y009361D01*
X010730Y009397D01*
X010743Y009434D01*
X010752Y009472D01*
X010758Y009511D01*
X010760Y009550D01*
X011510Y009550D01*
X011510Y005550D01*
X009210Y005550D01*
X013010Y009050D02*
X013110Y009050D01*
X013110Y009150D01*
X013110Y009050D02*
X013210Y009050D01*
X013110Y009050D02*
X013110Y008950D01*
X012660Y008550D02*
X012662Y008613D01*
X012668Y008675D01*
X012678Y008737D01*
X012691Y008799D01*
X012709Y008859D01*
X012730Y008918D01*
X012755Y008976D01*
X012784Y009032D01*
X012816Y009086D01*
X012851Y009138D01*
X012889Y009187D01*
X012931Y009235D01*
X012975Y009279D01*
X013023Y009321D01*
X013072Y009359D01*
X013124Y009394D01*
X013178Y009426D01*
X013234Y009455D01*
X013292Y009480D01*
X013351Y009501D01*
X013411Y009519D01*
X013473Y009532D01*
X013535Y009542D01*
X013597Y009548D01*
X013660Y009550D01*
X013723Y009548D01*
X013785Y009542D01*
X013847Y009532D01*
X013909Y009519D01*
X013969Y009501D01*
X014028Y009480D01*
X014086Y009455D01*
X014142Y009426D01*
X014196Y009394D01*
X014248Y009359D01*
X014297Y009321D01*
X014345Y009279D01*
X014389Y009235D01*
X014431Y009187D01*
X014469Y009138D01*
X014504Y009086D01*
X014536Y009032D01*
X014565Y008976D01*
X014590Y008918D01*
X014611Y008859D01*
X014629Y008799D01*
X014642Y008737D01*
X014652Y008675D01*
X014658Y008613D01*
X014660Y008550D01*
X014658Y008487D01*
X014652Y008425D01*
X014642Y008363D01*
X014629Y008301D01*
X014611Y008241D01*
X014590Y008182D01*
X014565Y008124D01*
X014536Y008068D01*
X014504Y008014D01*
X014469Y007962D01*
X014431Y007913D01*
X014389Y007865D01*
X014345Y007821D01*
X014297Y007779D01*
X014248Y007741D01*
X014196Y007706D01*
X014142Y007674D01*
X014086Y007645D01*
X014028Y007620D01*
X013969Y007599D01*
X013909Y007581D01*
X013847Y007568D01*
X013785Y007558D01*
X013723Y007552D01*
X013660Y007550D01*
X013597Y007552D01*
X013535Y007558D01*
X013473Y007568D01*
X013411Y007581D01*
X013351Y007599D01*
X013292Y007620D01*
X013234Y007645D01*
X013178Y007674D01*
X013124Y007706D01*
X013072Y007741D01*
X013023Y007779D01*
X012975Y007821D01*
X012931Y007865D01*
X012889Y007913D01*
X012851Y007962D01*
X012816Y008014D01*
X012784Y008068D01*
X012755Y008124D01*
X012730Y008182D01*
X012709Y008241D01*
X012691Y008301D01*
X012678Y008363D01*
X012668Y008425D01*
X012662Y008487D01*
X012660Y008550D01*
X011510Y009700D02*
X011360Y009700D01*
X011310Y009750D01*
X009410Y009750D01*
X009360Y009700D01*
X009210Y009700D01*
X009193Y009702D01*
X009176Y009706D01*
X009160Y009713D01*
X009146Y009723D01*
X009133Y009736D01*
X009123Y009750D01*
X009116Y009766D01*
X009112Y009783D01*
X009110Y009800D01*
X009110Y010500D01*
X009112Y010517D01*
X009116Y010534D01*
X009123Y010550D01*
X009133Y010564D01*
X009146Y010577D01*
X009160Y010587D01*
X009176Y010594D01*
X009193Y010598D01*
X009210Y010600D01*
X009360Y010600D01*
X009410Y010550D01*
X011310Y010550D01*
X011360Y010600D01*
X011510Y010600D01*
X011527Y010598D01*
X011544Y010594D01*
X011560Y010587D01*
X011574Y010577D01*
X011587Y010564D01*
X011597Y010550D01*
X011604Y010534D01*
X011608Y010517D01*
X011610Y010500D01*
X011610Y009800D01*
X011608Y009783D01*
X011604Y009766D01*
X011597Y009750D01*
X011587Y009736D01*
X011574Y009723D01*
X011560Y009713D01*
X011544Y009706D01*
X011527Y009702D01*
X011510Y009700D01*
X013210Y010500D02*
X013210Y010650D01*
X013260Y010700D01*
X013260Y012600D01*
X013210Y012650D01*
X013210Y012800D01*
X014060Y012600D02*
X014060Y010700D01*
X014110Y010650D01*
X014110Y010500D01*
X015310Y009150D02*
X015310Y009050D01*
X015410Y009050D01*
X015310Y009050D02*
X015310Y008950D01*
X015310Y009050D02*
X015210Y009050D01*
X014860Y008550D02*
X014862Y008613D01*
X014868Y008675D01*
X014878Y008737D01*
X014891Y008799D01*
X014909Y008859D01*
X014930Y008918D01*
X014955Y008976D01*
X014984Y009032D01*
X015016Y009086D01*
X015051Y009138D01*
X015089Y009187D01*
X015131Y009235D01*
X015175Y009279D01*
X015223Y009321D01*
X015272Y009359D01*
X015324Y009394D01*
X015378Y009426D01*
X015434Y009455D01*
X015492Y009480D01*
X015551Y009501D01*
X015611Y009519D01*
X015673Y009532D01*
X015735Y009542D01*
X015797Y009548D01*
X015860Y009550D01*
X015923Y009548D01*
X015985Y009542D01*
X016047Y009532D01*
X016109Y009519D01*
X016169Y009501D01*
X016228Y009480D01*
X016286Y009455D01*
X016342Y009426D01*
X016396Y009394D01*
X016448Y009359D01*
X016497Y009321D01*
X016545Y009279D01*
X016589Y009235D01*
X016631Y009187D01*
X016669Y009138D01*
X016704Y009086D01*
X016736Y009032D01*
X016765Y008976D01*
X016790Y008918D01*
X016811Y008859D01*
X016829Y008799D01*
X016842Y008737D01*
X016852Y008675D01*
X016858Y008613D01*
X016860Y008550D01*
X016858Y008487D01*
X016852Y008425D01*
X016842Y008363D01*
X016829Y008301D01*
X016811Y008241D01*
X016790Y008182D01*
X016765Y008124D01*
X016736Y008068D01*
X016704Y008014D01*
X016669Y007962D01*
X016631Y007913D01*
X016589Y007865D01*
X016545Y007821D01*
X016497Y007779D01*
X016448Y007741D01*
X016396Y007706D01*
X016342Y007674D01*
X016286Y007645D01*
X016228Y007620D01*
X016169Y007599D01*
X016109Y007581D01*
X016047Y007568D01*
X015985Y007558D01*
X015923Y007552D01*
X015860Y007550D01*
X015797Y007552D01*
X015735Y007558D01*
X015673Y007568D01*
X015611Y007581D01*
X015551Y007599D01*
X015492Y007620D01*
X015434Y007645D01*
X015378Y007674D01*
X015324Y007706D01*
X015272Y007741D01*
X015223Y007779D01*
X015175Y007821D01*
X015131Y007865D01*
X015089Y007913D01*
X015051Y007962D01*
X015016Y008014D01*
X014984Y008068D01*
X014955Y008124D01*
X014930Y008182D01*
X014909Y008241D01*
X014891Y008301D01*
X014878Y008363D01*
X014868Y008425D01*
X014862Y008487D01*
X014860Y008550D01*
X015010Y007050D02*
X016710Y007050D01*
X016727Y007048D01*
X016744Y007044D01*
X016760Y007037D01*
X016774Y007027D01*
X016787Y007014D01*
X016797Y007000D01*
X016804Y006984D01*
X016808Y006967D01*
X016810Y006950D01*
X016810Y006150D01*
X016808Y006133D01*
X016804Y006116D01*
X016797Y006100D01*
X016787Y006086D01*
X016774Y006073D01*
X016760Y006063D01*
X016744Y006056D01*
X016727Y006052D01*
X016710Y006050D01*
X015010Y006050D01*
X014993Y006052D01*
X014976Y006056D01*
X014960Y006063D01*
X014946Y006073D01*
X014933Y006086D01*
X014923Y006100D01*
X014916Y006116D01*
X014912Y006133D01*
X014910Y006150D01*
X014910Y006950D01*
X014912Y006967D01*
X014916Y006984D01*
X014923Y007000D01*
X014933Y007014D01*
X014946Y007027D01*
X014960Y007037D01*
X014976Y007044D01*
X014993Y007048D01*
X015010Y007050D01*
X015710Y006550D02*
X015760Y006550D01*
X015960Y006550D02*
X016010Y006550D01*
X018815Y006550D02*
X018973Y006550D01*
X019035Y006000D02*
X020685Y006000D01*
X020747Y006550D02*
X020905Y006550D01*
X022410Y007200D02*
X022410Y007900D01*
X022412Y007917D01*
X022416Y007934D01*
X022423Y007950D01*
X022433Y007964D01*
X022446Y007977D01*
X022460Y007987D01*
X022476Y007994D01*
X022493Y007998D01*
X022510Y008000D01*
X022660Y008000D01*
X022710Y007950D01*
X024610Y007950D01*
X024660Y008000D01*
X024810Y008000D01*
X024827Y007998D01*
X024844Y007994D01*
X024860Y007987D01*
X024874Y007977D01*
X024887Y007964D01*
X024897Y007950D01*
X024904Y007934D01*
X024908Y007917D01*
X024910Y007900D01*
X024910Y007200D01*
X024908Y007183D01*
X024904Y007166D01*
X024897Y007150D01*
X024887Y007136D01*
X024874Y007123D01*
X024860Y007113D01*
X024844Y007106D01*
X024827Y007102D01*
X024810Y007100D01*
X024660Y007100D01*
X024610Y007150D01*
X022710Y007150D01*
X022660Y007100D01*
X022510Y007100D01*
X022493Y007102D01*
X022476Y007106D01*
X022460Y007113D01*
X022446Y007123D01*
X022433Y007136D01*
X022423Y007150D01*
X022416Y007166D01*
X022412Y007183D01*
X022410Y007200D01*
X022810Y006850D02*
X024510Y006850D01*
X024527Y006848D01*
X024544Y006844D01*
X024560Y006837D01*
X024574Y006827D01*
X024587Y006814D01*
X024597Y006800D01*
X024604Y006784D01*
X024608Y006767D01*
X024610Y006750D01*
X024610Y005950D01*
X024608Y005933D01*
X024604Y005916D01*
X024597Y005900D01*
X024587Y005886D01*
X024574Y005873D01*
X024560Y005863D01*
X024544Y005856D01*
X024527Y005852D01*
X024510Y005850D01*
X022810Y005850D01*
X022793Y005852D01*
X022776Y005856D01*
X022760Y005863D01*
X022746Y005873D01*
X022733Y005886D01*
X022723Y005900D01*
X022716Y005916D01*
X022712Y005933D01*
X022710Y005950D01*
X022710Y006750D01*
X022712Y006767D01*
X022716Y006784D01*
X022723Y006800D01*
X022733Y006814D01*
X022746Y006827D01*
X022760Y006837D01*
X022776Y006844D01*
X022793Y006848D01*
X022810Y006850D01*
X023510Y006350D02*
X023560Y006350D01*
X023760Y006350D02*
X023810Y006350D01*
X026310Y006750D02*
X026310Y005950D01*
X026312Y005933D01*
X026316Y005916D01*
X026323Y005900D01*
X026333Y005886D01*
X026346Y005873D01*
X026360Y005863D01*
X026376Y005856D01*
X026393Y005852D01*
X026410Y005850D01*
X028110Y005850D01*
X028127Y005852D01*
X028144Y005856D01*
X028160Y005863D01*
X028174Y005873D01*
X028187Y005886D01*
X028197Y005900D01*
X028204Y005916D01*
X028208Y005933D01*
X028210Y005950D01*
X028210Y006750D01*
X028208Y006767D01*
X028204Y006784D01*
X028197Y006800D01*
X028187Y006814D01*
X028174Y006827D01*
X028160Y006837D01*
X028144Y006844D01*
X028127Y006848D01*
X028110Y006850D01*
X026410Y006850D01*
X026393Y006848D01*
X026376Y006844D01*
X026360Y006837D01*
X026346Y006827D01*
X026333Y006814D01*
X026323Y006800D01*
X026316Y006784D01*
X026312Y006767D01*
X026310Y006750D01*
X027110Y006350D02*
X027160Y006350D01*
X027360Y006350D02*
X027410Y006350D01*
X028630Y006740D02*
X028630Y008160D01*
X027910Y007550D02*
X027810Y007550D01*
X027810Y007450D01*
X027810Y007550D02*
X027710Y007550D01*
X027810Y007550D02*
X027810Y007650D01*
X026260Y008050D02*
X026262Y008113D01*
X026268Y008175D01*
X026278Y008237D01*
X026291Y008299D01*
X026309Y008359D01*
X026330Y008418D01*
X026355Y008476D01*
X026384Y008532D01*
X026416Y008586D01*
X026451Y008638D01*
X026489Y008687D01*
X026531Y008735D01*
X026575Y008779D01*
X026623Y008821D01*
X026672Y008859D01*
X026724Y008894D01*
X026778Y008926D01*
X026834Y008955D01*
X026892Y008980D01*
X026951Y009001D01*
X027011Y009019D01*
X027073Y009032D01*
X027135Y009042D01*
X027197Y009048D01*
X027260Y009050D01*
X027323Y009048D01*
X027385Y009042D01*
X027447Y009032D01*
X027509Y009019D01*
X027569Y009001D01*
X027628Y008980D01*
X027686Y008955D01*
X027742Y008926D01*
X027796Y008894D01*
X027848Y008859D01*
X027897Y008821D01*
X027945Y008779D01*
X027989Y008735D01*
X028031Y008687D01*
X028069Y008638D01*
X028104Y008586D01*
X028136Y008532D01*
X028165Y008476D01*
X028190Y008418D01*
X028211Y008359D01*
X028229Y008299D01*
X028242Y008237D01*
X028252Y008175D01*
X028258Y008113D01*
X028260Y008050D01*
X028258Y007987D01*
X028252Y007925D01*
X028242Y007863D01*
X028229Y007801D01*
X028211Y007741D01*
X028190Y007682D01*
X028165Y007624D01*
X028136Y007568D01*
X028104Y007514D01*
X028069Y007462D01*
X028031Y007413D01*
X027989Y007365D01*
X027945Y007321D01*
X027897Y007279D01*
X027848Y007241D01*
X027796Y007206D01*
X027742Y007174D01*
X027686Y007145D01*
X027628Y007120D01*
X027569Y007099D01*
X027509Y007081D01*
X027447Y007068D01*
X027385Y007058D01*
X027323Y007052D01*
X027260Y007050D01*
X027197Y007052D01*
X027135Y007058D01*
X027073Y007068D01*
X027011Y007081D01*
X026951Y007099D01*
X026892Y007120D01*
X026834Y007145D01*
X026778Y007174D01*
X026724Y007206D01*
X026672Y007241D01*
X026623Y007279D01*
X026575Y007321D01*
X026531Y007365D01*
X026489Y007413D01*
X026451Y007462D01*
X026416Y007514D01*
X026384Y007568D01*
X026355Y007624D01*
X026330Y007682D01*
X026309Y007741D01*
X026291Y007801D01*
X026278Y007863D01*
X026268Y007925D01*
X026262Y007987D01*
X026260Y008050D01*
X025660Y009200D02*
X025660Y011500D01*
X021660Y011500D01*
X021660Y010750D01*
X021699Y010748D01*
X021738Y010742D01*
X021776Y010733D01*
X021813Y010720D01*
X021849Y010703D01*
X021882Y010683D01*
X021914Y010659D01*
X021943Y010633D01*
X021969Y010604D01*
X021993Y010572D01*
X022013Y010539D01*
X022030Y010503D01*
X022043Y010466D01*
X022052Y010428D01*
X022058Y010389D01*
X022060Y010350D01*
X022058Y010311D01*
X022052Y010272D01*
X022043Y010234D01*
X022030Y010197D01*
X022013Y010161D01*
X021993Y010128D01*
X021969Y010096D01*
X021943Y010067D01*
X021914Y010041D01*
X021882Y010017D01*
X021849Y009997D01*
X021813Y009980D01*
X021776Y009967D01*
X021738Y009958D01*
X021699Y009952D01*
X021660Y009950D01*
X021660Y009200D01*
X025660Y009200D01*
X026260Y010250D02*
X026262Y010313D01*
X026268Y010375D01*
X026278Y010437D01*
X026291Y010499D01*
X026309Y010559D01*
X026330Y010618D01*
X026355Y010676D01*
X026384Y010732D01*
X026416Y010786D01*
X026451Y010838D01*
X026489Y010887D01*
X026531Y010935D01*
X026575Y010979D01*
X026623Y011021D01*
X026672Y011059D01*
X026724Y011094D01*
X026778Y011126D01*
X026834Y011155D01*
X026892Y011180D01*
X026951Y011201D01*
X027011Y011219D01*
X027073Y011232D01*
X027135Y011242D01*
X027197Y011248D01*
X027260Y011250D01*
X027323Y011248D01*
X027385Y011242D01*
X027447Y011232D01*
X027509Y011219D01*
X027569Y011201D01*
X027628Y011180D01*
X027686Y011155D01*
X027742Y011126D01*
X027796Y011094D01*
X027848Y011059D01*
X027897Y011021D01*
X027945Y010979D01*
X027989Y010935D01*
X028031Y010887D01*
X028069Y010838D01*
X028104Y010786D01*
X028136Y010732D01*
X028165Y010676D01*
X028190Y010618D01*
X028211Y010559D01*
X028229Y010499D01*
X028242Y010437D01*
X028252Y010375D01*
X028258Y010313D01*
X028260Y010250D01*
X028258Y010187D01*
X028252Y010125D01*
X028242Y010063D01*
X028229Y010001D01*
X028211Y009941D01*
X028190Y009882D01*
X028165Y009824D01*
X028136Y009768D01*
X028104Y009714D01*
X028069Y009662D01*
X028031Y009613D01*
X027989Y009565D01*
X027945Y009521D01*
X027897Y009479D01*
X027848Y009441D01*
X027796Y009406D01*
X027742Y009374D01*
X027686Y009345D01*
X027628Y009320D01*
X027569Y009299D01*
X027509Y009281D01*
X027447Y009268D01*
X027385Y009258D01*
X027323Y009252D01*
X027260Y009250D01*
X027197Y009252D01*
X027135Y009258D01*
X027073Y009268D01*
X027011Y009281D01*
X026951Y009299D01*
X026892Y009320D01*
X026834Y009345D01*
X026778Y009374D01*
X026724Y009406D01*
X026672Y009441D01*
X026623Y009479D01*
X026575Y009521D01*
X026531Y009565D01*
X026489Y009613D01*
X026451Y009662D01*
X026416Y009714D01*
X026384Y009768D01*
X026355Y009824D01*
X026330Y009882D01*
X026309Y009941D01*
X026291Y010001D01*
X026278Y010063D01*
X026268Y010125D01*
X026262Y010187D01*
X026260Y010250D01*
X026710Y010650D02*
X026710Y010750D01*
X026710Y010850D01*
X026710Y010750D02*
X026810Y010750D01*
X026710Y010750D02*
X026610Y010750D01*
X026410Y011650D02*
X028110Y011650D01*
X028127Y011652D01*
X028144Y011656D01*
X028160Y011663D01*
X028174Y011673D01*
X028187Y011686D01*
X028197Y011700D01*
X028204Y011716D01*
X028208Y011733D01*
X028210Y011750D01*
X028210Y012550D01*
X028208Y012567D01*
X028204Y012584D01*
X028197Y012600D01*
X028187Y012614D01*
X028174Y012627D01*
X028160Y012637D01*
X028144Y012644D01*
X028127Y012648D01*
X028110Y012650D01*
X026410Y012650D01*
X026393Y012648D01*
X026376Y012644D01*
X026360Y012637D01*
X026346Y012627D01*
X026333Y012614D01*
X026323Y012600D01*
X026316Y012584D01*
X026312Y012567D01*
X026310Y012550D01*
X026310Y011750D01*
X026312Y011733D01*
X026316Y011716D01*
X026323Y011700D01*
X026333Y011686D01*
X026346Y011673D01*
X026360Y011663D01*
X026376Y011656D01*
X026393Y011652D01*
X026410Y011650D01*
X027110Y012150D02*
X027160Y012150D01*
X027360Y012150D02*
X027410Y012150D01*
X028710Y013650D02*
X030410Y013650D01*
X030427Y013652D01*
X030444Y013656D01*
X030460Y013663D01*
X030474Y013673D01*
X030487Y013686D01*
X030497Y013700D01*
X030504Y013716D01*
X030508Y013733D01*
X030510Y013750D01*
X030510Y014550D01*
X030508Y014567D01*
X030504Y014584D01*
X030497Y014600D01*
X030487Y014614D01*
X030474Y014627D01*
X030460Y014637D01*
X030444Y014644D01*
X030427Y014648D01*
X030410Y014650D01*
X028710Y014650D01*
X028693Y014648D01*
X028676Y014644D01*
X028660Y014637D01*
X028646Y014627D01*
X028633Y014614D01*
X028623Y014600D01*
X028616Y014584D01*
X028612Y014567D01*
X028610Y014550D01*
X028610Y013750D01*
X028612Y013733D01*
X028616Y013716D01*
X028623Y013700D01*
X028633Y013686D01*
X028646Y013673D01*
X028660Y013663D01*
X028676Y013656D01*
X028693Y013652D01*
X028710Y013650D01*
X029410Y014150D02*
X029460Y014150D01*
X029660Y014150D02*
X029710Y014150D01*
X028560Y012450D02*
X028562Y012513D01*
X028568Y012575D01*
X028578Y012637D01*
X028591Y012699D01*
X028609Y012759D01*
X028630Y012818D01*
X028655Y012876D01*
X028684Y012932D01*
X028716Y012986D01*
X028751Y013038D01*
X028789Y013087D01*
X028831Y013135D01*
X028875Y013179D01*
X028923Y013221D01*
X028972Y013259D01*
X029024Y013294D01*
X029078Y013326D01*
X029134Y013355D01*
X029192Y013380D01*
X029251Y013401D01*
X029311Y013419D01*
X029373Y013432D01*
X029435Y013442D01*
X029497Y013448D01*
X029560Y013450D01*
X029623Y013448D01*
X029685Y013442D01*
X029747Y013432D01*
X029809Y013419D01*
X029869Y013401D01*
X029928Y013380D01*
X029986Y013355D01*
X030042Y013326D01*
X030096Y013294D01*
X030148Y013259D01*
X030197Y013221D01*
X030245Y013179D01*
X030289Y013135D01*
X030331Y013087D01*
X030369Y013038D01*
X030404Y012986D01*
X030436Y012932D01*
X030465Y012876D01*
X030490Y012818D01*
X030511Y012759D01*
X030529Y012699D01*
X030542Y012637D01*
X030552Y012575D01*
X030558Y012513D01*
X030560Y012450D01*
X030558Y012387D01*
X030552Y012325D01*
X030542Y012263D01*
X030529Y012201D01*
X030511Y012141D01*
X030490Y012082D01*
X030465Y012024D01*
X030436Y011968D01*
X030404Y011914D01*
X030369Y011862D01*
X030331Y011813D01*
X030289Y011765D01*
X030245Y011721D01*
X030197Y011679D01*
X030148Y011641D01*
X030096Y011606D01*
X030042Y011574D01*
X029986Y011545D01*
X029928Y011520D01*
X029869Y011499D01*
X029809Y011481D01*
X029747Y011468D01*
X029685Y011458D01*
X029623Y011452D01*
X029560Y011450D01*
X029497Y011452D01*
X029435Y011458D01*
X029373Y011468D01*
X029311Y011481D01*
X029251Y011499D01*
X029192Y011520D01*
X029134Y011545D01*
X029078Y011574D01*
X029024Y011606D01*
X028972Y011641D01*
X028923Y011679D01*
X028875Y011721D01*
X028831Y011765D01*
X028789Y011813D01*
X028751Y011862D01*
X028716Y011914D01*
X028684Y011968D01*
X028655Y012024D01*
X028630Y012082D01*
X028609Y012141D01*
X028591Y012201D01*
X028578Y012263D01*
X028568Y012325D01*
X028562Y012387D01*
X028560Y012450D01*
X030010Y011950D02*
X030110Y011950D01*
X030110Y011850D01*
X030110Y011950D02*
X030110Y012050D01*
X030110Y011950D02*
X030210Y011950D01*
X028560Y010250D02*
X028562Y010313D01*
X028568Y010375D01*
X028578Y010437D01*
X028591Y010499D01*
X028609Y010559D01*
X028630Y010618D01*
X028655Y010676D01*
X028684Y010732D01*
X028716Y010786D01*
X028751Y010838D01*
X028789Y010887D01*
X028831Y010935D01*
X028875Y010979D01*
X028923Y011021D01*
X028972Y011059D01*
X029024Y011094D01*
X029078Y011126D01*
X029134Y011155D01*
X029192Y011180D01*
X029251Y011201D01*
X029311Y011219D01*
X029373Y011232D01*
X029435Y011242D01*
X029497Y011248D01*
X029560Y011250D01*
X029623Y011248D01*
X029685Y011242D01*
X029747Y011232D01*
X029809Y011219D01*
X029869Y011201D01*
X029928Y011180D01*
X029986Y011155D01*
X030042Y011126D01*
X030096Y011094D01*
X030148Y011059D01*
X030197Y011021D01*
X030245Y010979D01*
X030289Y010935D01*
X030331Y010887D01*
X030369Y010838D01*
X030404Y010786D01*
X030436Y010732D01*
X030465Y010676D01*
X030490Y010618D01*
X030511Y010559D01*
X030529Y010499D01*
X030542Y010437D01*
X030552Y010375D01*
X030558Y010313D01*
X030560Y010250D01*
X030558Y010187D01*
X030552Y010125D01*
X030542Y010063D01*
X030529Y010001D01*
X030511Y009941D01*
X030490Y009882D01*
X030465Y009824D01*
X030436Y009768D01*
X030404Y009714D01*
X030369Y009662D01*
X030331Y009613D01*
X030289Y009565D01*
X030245Y009521D01*
X030197Y009479D01*
X030148Y009441D01*
X030096Y009406D01*
X030042Y009374D01*
X029986Y009345D01*
X029928Y009320D01*
X029869Y009299D01*
X029809Y009281D01*
X029747Y009268D01*
X029685Y009258D01*
X029623Y009252D01*
X029560Y009250D01*
X029497Y009252D01*
X029435Y009258D01*
X029373Y009268D01*
X029311Y009281D01*
X029251Y009299D01*
X029192Y009320D01*
X029134Y009345D01*
X029078Y009374D01*
X029024Y009406D01*
X028972Y009441D01*
X028923Y009479D01*
X028875Y009521D01*
X028831Y009565D01*
X028789Y009613D01*
X028751Y009662D01*
X028716Y009714D01*
X028684Y009768D01*
X028655Y009824D01*
X028630Y009882D01*
X028609Y009941D01*
X028591Y010001D01*
X028578Y010063D01*
X028568Y010125D01*
X028562Y010187D01*
X028560Y010250D01*
X030010Y009750D02*
X030110Y009750D01*
X030110Y009650D01*
X030110Y009750D02*
X030110Y009850D01*
X030110Y009750D02*
X030210Y009750D01*
X030490Y008160D02*
X030490Y006740D01*
X032510Y014200D02*
X032660Y014200D01*
X032710Y014250D01*
X034610Y014250D01*
X034660Y014200D01*
X034810Y014200D01*
X034610Y015050D02*
X032710Y015050D01*
X032660Y015100D01*
X032510Y015100D01*
X031760Y016650D02*
X028760Y016650D01*
X028760Y016700D01*
X028760Y017800D01*
X028760Y017850D01*
X031760Y017850D01*
X031777Y017848D01*
X031794Y017844D01*
X031810Y017837D01*
X031824Y017827D01*
X031837Y017814D01*
X031847Y017800D01*
X031854Y017784D01*
X031858Y017767D01*
X031860Y017750D01*
X031860Y016750D01*
X031858Y016733D01*
X031854Y016716D01*
X031847Y016700D01*
X031837Y016686D01*
X031824Y016673D01*
X031810Y016663D01*
X031794Y016656D01*
X031777Y016652D01*
X031760Y016650D01*
X033210Y016700D02*
X033360Y016700D01*
X033410Y016750D01*
X035310Y016750D01*
X035360Y016700D01*
X035510Y016700D01*
X035310Y017550D02*
X033410Y017550D01*
X033360Y017600D01*
X033210Y017600D01*
X033210Y017700D02*
X033360Y017700D01*
X033410Y017750D01*
X035310Y017750D01*
X035360Y017700D01*
X035510Y017700D01*
X035510Y017600D02*
X035360Y017600D01*
X035310Y017550D01*
X035310Y018550D02*
X033410Y018550D01*
X033360Y018600D01*
X033210Y018600D01*
X032910Y019500D02*
X032910Y019650D01*
X032960Y019700D01*
X032960Y021600D01*
X032910Y021650D01*
X032910Y021800D01*
X032810Y021800D02*
X032810Y021650D01*
X032760Y021600D01*
X032760Y019700D01*
X032810Y019650D01*
X032810Y019500D01*
X031960Y019700D02*
X031960Y021600D01*
X031910Y021650D01*
X031910Y021800D01*
X031560Y021600D02*
X031560Y019300D01*
X027560Y019300D01*
X027560Y020050D01*
X027599Y020052D01*
X027638Y020058D01*
X027676Y020067D01*
X027713Y020080D01*
X027749Y020097D01*
X027782Y020117D01*
X027814Y020141D01*
X027843Y020167D01*
X027869Y020196D01*
X027893Y020228D01*
X027913Y020261D01*
X027930Y020297D01*
X027943Y020334D01*
X027952Y020372D01*
X027958Y020411D01*
X027960Y020450D01*
X027958Y020489D01*
X027952Y020528D01*
X027943Y020566D01*
X027930Y020603D01*
X027913Y020639D01*
X027893Y020672D01*
X027869Y020704D01*
X027843Y020733D01*
X027814Y020759D01*
X027782Y020783D01*
X027749Y020803D01*
X027713Y020820D01*
X027676Y020833D01*
X027638Y020842D01*
X027599Y020848D01*
X027560Y020850D01*
X027560Y021600D01*
X031560Y021600D01*
X033760Y021600D02*
X033760Y019700D01*
X033810Y019650D01*
X033810Y019500D01*
X034115Y020050D02*
X034273Y020050D01*
X034335Y020600D02*
X035985Y020600D01*
X036047Y020050D02*
X036205Y020050D01*
X035510Y018600D02*
X035360Y018600D01*
X035310Y018550D01*
X031910Y019500D02*
X031910Y019650D01*
X031960Y019700D01*
X033760Y021600D02*
X033810Y021650D01*
X033810Y021800D01*
X034115Y021950D02*
X034273Y021950D01*
X034335Y022500D02*
X035985Y022500D01*
X036047Y021950D02*
X036205Y021950D01*
X030310Y017550D02*
X030310Y017250D01*
X030510Y017250D01*
X030310Y017250D02*
X030310Y016950D01*
X030160Y016950D02*
X030160Y017550D01*
X030010Y017550D01*
X030010Y016950D01*
X030160Y016950D01*
X029860Y016950D02*
X029860Y017250D01*
X029860Y017550D01*
X029860Y017250D02*
X029660Y017250D01*
X028760Y017800D02*
X028610Y017800D01*
X028610Y016700D01*
X028760Y016700D01*
X034610Y015050D02*
X034660Y015100D01*
X034810Y015100D01*
X020810Y011350D02*
X020810Y010550D01*
X020808Y010533D01*
X020804Y010516D01*
X020797Y010500D01*
X020787Y010486D01*
X020774Y010473D01*
X020760Y010463D01*
X020744Y010456D01*
X020727Y010452D01*
X020710Y010450D01*
X019010Y010450D01*
X018993Y010452D01*
X018976Y010456D01*
X018960Y010463D01*
X018946Y010473D01*
X018933Y010486D01*
X018923Y010500D01*
X018916Y010516D01*
X018912Y010533D01*
X018910Y010550D01*
X018910Y011350D01*
X018912Y011367D01*
X018916Y011384D01*
X018923Y011400D01*
X018933Y011414D01*
X018946Y011427D01*
X018960Y011437D01*
X018976Y011444D01*
X018993Y011448D01*
X019010Y011450D01*
X020710Y011450D01*
X020727Y011448D01*
X020744Y011444D01*
X020760Y011437D01*
X020774Y011427D01*
X020787Y011414D01*
X020797Y011400D01*
X020804Y011384D01*
X020808Y011367D01*
X020810Y011350D01*
X020010Y010950D02*
X019960Y010950D01*
X019760Y010950D02*
X019710Y010950D01*
X018860Y009050D02*
X018862Y009113D01*
X018868Y009175D01*
X018878Y009237D01*
X018891Y009299D01*
X018909Y009359D01*
X018930Y009418D01*
X018955Y009476D01*
X018984Y009532D01*
X019016Y009586D01*
X019051Y009638D01*
X019089Y009687D01*
X019131Y009735D01*
X019175Y009779D01*
X019223Y009821D01*
X019272Y009859D01*
X019324Y009894D01*
X019378Y009926D01*
X019434Y009955D01*
X019492Y009980D01*
X019551Y010001D01*
X019611Y010019D01*
X019673Y010032D01*
X019735Y010042D01*
X019797Y010048D01*
X019860Y010050D01*
X019923Y010048D01*
X019985Y010042D01*
X020047Y010032D01*
X020109Y010019D01*
X020169Y010001D01*
X020228Y009980D01*
X020286Y009955D01*
X020342Y009926D01*
X020396Y009894D01*
X020448Y009859D01*
X020497Y009821D01*
X020545Y009779D01*
X020589Y009735D01*
X020631Y009687D01*
X020669Y009638D01*
X020704Y009586D01*
X020736Y009532D01*
X020765Y009476D01*
X020790Y009418D01*
X020811Y009359D01*
X020829Y009299D01*
X020842Y009237D01*
X020852Y009175D01*
X020858Y009113D01*
X020860Y009050D01*
X020858Y008987D01*
X020852Y008925D01*
X020842Y008863D01*
X020829Y008801D01*
X020811Y008741D01*
X020790Y008682D01*
X020765Y008624D01*
X020736Y008568D01*
X020704Y008514D01*
X020669Y008462D01*
X020631Y008413D01*
X020589Y008365D01*
X020545Y008321D01*
X020497Y008279D01*
X020448Y008241D01*
X020396Y008206D01*
X020342Y008174D01*
X020286Y008145D01*
X020228Y008120D01*
X020169Y008099D01*
X020109Y008081D01*
X020047Y008068D01*
X019985Y008058D01*
X019923Y008052D01*
X019860Y008050D01*
X019797Y008052D01*
X019735Y008058D01*
X019673Y008068D01*
X019611Y008081D01*
X019551Y008099D01*
X019492Y008120D01*
X019434Y008145D01*
X019378Y008174D01*
X019324Y008206D01*
X019272Y008241D01*
X019223Y008279D01*
X019175Y008321D01*
X019131Y008365D01*
X019089Y008413D01*
X019051Y008462D01*
X019016Y008514D01*
X018984Y008568D01*
X018955Y008624D01*
X018930Y008682D01*
X018909Y008741D01*
X018891Y008801D01*
X018878Y008863D01*
X018868Y008925D01*
X018862Y008987D01*
X018860Y009050D01*
X020310Y008550D02*
X020410Y008550D01*
X020410Y008450D01*
X020410Y008550D02*
X020410Y008650D01*
X020410Y008550D02*
X020510Y008550D01*
X014110Y012650D02*
X014060Y012600D01*
X014110Y012650D02*
X014110Y012800D01*
X013410Y015050D02*
X015710Y015050D01*
X015710Y022050D01*
X014960Y022050D01*
X014958Y022011D01*
X014952Y021972D01*
X014943Y021934D01*
X014930Y021897D01*
X014913Y021861D01*
X014893Y021828D01*
X014869Y021796D01*
X014843Y021767D01*
X014814Y021741D01*
X014782Y021717D01*
X014749Y021697D01*
X014713Y021680D01*
X014676Y021667D01*
X014638Y021658D01*
X014599Y021652D01*
X014560Y021650D01*
X014521Y021652D01*
X014482Y021658D01*
X014444Y021667D01*
X014407Y021680D01*
X014371Y021697D01*
X014338Y021717D01*
X014306Y021741D01*
X014277Y021767D01*
X014251Y021796D01*
X014227Y021828D01*
X014207Y021861D01*
X014190Y021897D01*
X014177Y021934D01*
X014168Y021972D01*
X014162Y022011D01*
X014160Y022050D01*
X013410Y022050D01*
X013410Y015050D01*
X017010Y018900D02*
X017010Y019050D01*
X017060Y019100D01*
X017060Y021000D01*
X017010Y021050D01*
X017010Y021200D01*
X017860Y021000D02*
X017860Y019100D01*
X017910Y019050D01*
X017910Y018900D01*
X017860Y021000D02*
X017910Y021050D01*
X017910Y021200D01*
X011810Y024900D02*
X011810Y025050D01*
X011760Y025100D01*
X011760Y027000D01*
X011810Y027050D01*
X011810Y027200D01*
X010960Y027000D02*
X010960Y025100D01*
X010910Y025050D01*
X010910Y024900D01*
X010810Y024900D02*
X010810Y025050D01*
X010760Y025100D01*
X010760Y027000D01*
X010810Y027050D01*
X010810Y027200D01*
X010910Y027200D02*
X010910Y027050D01*
X010960Y027000D01*
X009960Y027000D02*
X009960Y025100D01*
X009910Y025050D01*
X009910Y024900D01*
X009960Y027000D02*
X009910Y027050D01*
X009910Y027200D01*
D16*
X010006Y027324D02*
X010006Y027274D01*
X010005Y027275D02*
X009990Y027272D01*
X009976Y027267D01*
X009963Y027258D01*
X009952Y027247D01*
X009943Y027234D01*
X009938Y027220D01*
X009935Y027205D01*
X009886Y027204D01*
X009885Y027205D01*
X009888Y027226D01*
X009894Y027245D01*
X009903Y027264D01*
X009915Y027281D01*
X009929Y027295D01*
X009946Y027307D01*
X009965Y027316D01*
X009984Y027322D01*
X010005Y027325D01*
X010005Y027316D01*
X009986Y027313D01*
X009968Y027308D01*
X009951Y027300D01*
X009935Y027289D01*
X009921Y027275D01*
X009910Y027259D01*
X009902Y027242D01*
X009897Y027224D01*
X009894Y027205D01*
X009903Y027205D01*
X009906Y027225D01*
X009912Y027243D01*
X009922Y027260D01*
X009934Y027276D01*
X009950Y027288D01*
X009967Y027298D01*
X009985Y027304D01*
X010005Y027307D01*
X010005Y027298D01*
X009987Y027295D01*
X009970Y027290D01*
X009955Y027281D01*
X009941Y027269D01*
X009929Y027255D01*
X009920Y027240D01*
X009915Y027223D01*
X009912Y027205D01*
X009921Y027205D01*
X009924Y027223D01*
X009931Y027241D01*
X009941Y027256D01*
X009954Y027269D01*
X009969Y027279D01*
X009987Y027286D01*
X010005Y027289D01*
X010005Y027280D01*
X009989Y027277D01*
X009973Y027271D01*
X009960Y027262D01*
X009948Y027250D01*
X009939Y027237D01*
X009933Y027221D01*
X009930Y027205D01*
X010834Y027204D02*
X010784Y027204D01*
X010785Y027205D02*
X010782Y027220D01*
X010777Y027234D01*
X010768Y027247D01*
X010757Y027258D01*
X010744Y027267D01*
X010730Y027272D01*
X010715Y027275D01*
X010714Y027324D01*
X010715Y027325D01*
X010736Y027322D01*
X010755Y027316D01*
X010774Y027307D01*
X010791Y027295D01*
X010805Y027281D01*
X010817Y027264D01*
X010826Y027245D01*
X010832Y027226D01*
X010835Y027205D01*
X010826Y027205D01*
X010823Y027224D01*
X010818Y027242D01*
X010810Y027259D01*
X010799Y027275D01*
X010785Y027289D01*
X010769Y027300D01*
X010752Y027308D01*
X010734Y027313D01*
X010715Y027316D01*
X010715Y027307D01*
X010735Y027304D01*
X010753Y027298D01*
X010770Y027288D01*
X010786Y027276D01*
X010798Y027260D01*
X010808Y027243D01*
X010814Y027225D01*
X010817Y027205D01*
X010808Y027205D01*
X010805Y027223D01*
X010800Y027240D01*
X010791Y027255D01*
X010779Y027269D01*
X010765Y027281D01*
X010750Y027290D01*
X010733Y027295D01*
X010715Y027298D01*
X010715Y027289D01*
X010733Y027286D01*
X010751Y027279D01*
X010766Y027269D01*
X010779Y027256D01*
X010789Y027241D01*
X010796Y027223D01*
X010799Y027205D01*
X010790Y027205D01*
X010787Y027221D01*
X010781Y027237D01*
X010772Y027250D01*
X010760Y027262D01*
X010747Y027271D01*
X010731Y027277D01*
X010715Y027280D01*
X011006Y027324D02*
X011006Y027274D01*
X011005Y027275D02*
X010990Y027272D01*
X010976Y027267D01*
X010963Y027258D01*
X010952Y027247D01*
X010943Y027234D01*
X010938Y027220D01*
X010935Y027205D01*
X010886Y027204D01*
X010885Y027205D01*
X010888Y027226D01*
X010894Y027245D01*
X010903Y027264D01*
X010915Y027281D01*
X010929Y027295D01*
X010946Y027307D01*
X010965Y027316D01*
X010984Y027322D01*
X011005Y027325D01*
X011005Y027316D01*
X010986Y027313D01*
X010968Y027308D01*
X010951Y027300D01*
X010935Y027289D01*
X010921Y027275D01*
X010910Y027259D01*
X010902Y027242D01*
X010897Y027224D01*
X010894Y027205D01*
X010903Y027205D01*
X010906Y027225D01*
X010912Y027243D01*
X010922Y027260D01*
X010934Y027276D01*
X010950Y027288D01*
X010967Y027298D01*
X010985Y027304D01*
X011005Y027307D01*
X011005Y027298D01*
X010987Y027295D01*
X010970Y027290D01*
X010955Y027281D01*
X010941Y027269D01*
X010929Y027255D01*
X010920Y027240D01*
X010915Y027223D01*
X010912Y027205D01*
X010921Y027205D01*
X010924Y027223D01*
X010931Y027241D01*
X010941Y027256D01*
X010954Y027269D01*
X010969Y027279D01*
X010987Y027286D01*
X011005Y027289D01*
X011005Y027280D01*
X010989Y027277D01*
X010973Y027271D01*
X010960Y027262D01*
X010948Y027250D01*
X010939Y027237D01*
X010933Y027221D01*
X010930Y027205D01*
X011834Y027204D02*
X011784Y027204D01*
X011785Y027205D02*
X011782Y027220D01*
X011777Y027234D01*
X011768Y027247D01*
X011757Y027258D01*
X011744Y027267D01*
X011730Y027272D01*
X011715Y027275D01*
X011714Y027324D01*
X011715Y027325D01*
X011736Y027322D01*
X011755Y027316D01*
X011774Y027307D01*
X011791Y027295D01*
X011805Y027281D01*
X011817Y027264D01*
X011826Y027245D01*
X011832Y027226D01*
X011835Y027205D01*
X011826Y027205D01*
X011823Y027224D01*
X011818Y027242D01*
X011810Y027259D01*
X011799Y027275D01*
X011785Y027289D01*
X011769Y027300D01*
X011752Y027308D01*
X011734Y027313D01*
X011715Y027316D01*
X011715Y027307D01*
X011735Y027304D01*
X011753Y027298D01*
X011770Y027288D01*
X011786Y027276D01*
X011798Y027260D01*
X011808Y027243D01*
X011814Y027225D01*
X011817Y027205D01*
X011808Y027205D01*
X011805Y027223D01*
X011800Y027240D01*
X011791Y027255D01*
X011779Y027269D01*
X011765Y027281D01*
X011750Y027290D01*
X011733Y027295D01*
X011715Y027298D01*
X011715Y027289D01*
X011733Y027286D01*
X011751Y027279D01*
X011766Y027269D01*
X011779Y027256D01*
X011789Y027241D01*
X011796Y027223D01*
X011799Y027205D01*
X011790Y027205D01*
X011787Y027221D01*
X011781Y027237D01*
X011772Y027250D01*
X011760Y027262D01*
X011747Y027271D01*
X011731Y027277D01*
X011715Y027280D01*
X011714Y024776D02*
X011714Y024826D01*
X011715Y024825D02*
X011730Y024828D01*
X011744Y024833D01*
X011757Y024842D01*
X011768Y024853D01*
X011777Y024866D01*
X011782Y024880D01*
X011785Y024895D01*
X011834Y024896D01*
X011835Y024895D01*
X011832Y024874D01*
X011826Y024855D01*
X011817Y024836D01*
X011805Y024819D01*
X011791Y024805D01*
X011774Y024793D01*
X011755Y024784D01*
X011736Y024778D01*
X011715Y024775D01*
X011715Y024784D01*
X011734Y024787D01*
X011752Y024792D01*
X011769Y024800D01*
X011785Y024811D01*
X011799Y024825D01*
X011810Y024841D01*
X011818Y024858D01*
X011823Y024876D01*
X011826Y024895D01*
X011817Y024895D01*
X011814Y024875D01*
X011808Y024857D01*
X011798Y024840D01*
X011786Y024824D01*
X011770Y024812D01*
X011753Y024802D01*
X011735Y024796D01*
X011715Y024793D01*
X011715Y024802D01*
X011733Y024805D01*
X011750Y024810D01*
X011765Y024819D01*
X011779Y024831D01*
X011791Y024845D01*
X011800Y024860D01*
X011805Y024877D01*
X011808Y024895D01*
X011799Y024895D01*
X011796Y024877D01*
X011789Y024859D01*
X011779Y024844D01*
X011766Y024831D01*
X011751Y024821D01*
X011733Y024814D01*
X011715Y024811D01*
X011715Y024820D01*
X011731Y024823D01*
X011747Y024829D01*
X011760Y024838D01*
X011772Y024850D01*
X011781Y024863D01*
X011787Y024879D01*
X011790Y024895D01*
X010886Y024896D02*
X010936Y024896D01*
X010935Y024895D02*
X010938Y024880D01*
X010943Y024866D01*
X010952Y024853D01*
X010963Y024842D01*
X010976Y024833D01*
X010990Y024828D01*
X011005Y024825D01*
X011006Y024776D01*
X011005Y024775D01*
X010984Y024778D01*
X010965Y024784D01*
X010946Y024793D01*
X010929Y024805D01*
X010915Y024819D01*
X010903Y024836D01*
X010894Y024855D01*
X010888Y024874D01*
X010885Y024895D01*
X010894Y024895D01*
X010897Y024876D01*
X010902Y024858D01*
X010910Y024841D01*
X010921Y024825D01*
X010935Y024811D01*
X010951Y024800D01*
X010968Y024792D01*
X010986Y024787D01*
X011005Y024784D01*
X011005Y024793D01*
X010985Y024796D01*
X010967Y024802D01*
X010950Y024812D01*
X010934Y024824D01*
X010922Y024840D01*
X010912Y024857D01*
X010906Y024875D01*
X010903Y024895D01*
X010912Y024895D01*
X010915Y024877D01*
X010920Y024860D01*
X010929Y024845D01*
X010941Y024831D01*
X010955Y024819D01*
X010970Y024810D01*
X010987Y024805D01*
X011005Y024802D01*
X011005Y024811D01*
X010987Y024814D01*
X010969Y024821D01*
X010954Y024831D01*
X010941Y024844D01*
X010931Y024859D01*
X010924Y024877D01*
X010921Y024895D01*
X010930Y024895D01*
X010933Y024879D01*
X010939Y024863D01*
X010948Y024850D01*
X010960Y024838D01*
X010973Y024829D01*
X010989Y024823D01*
X011005Y024820D01*
X010714Y024776D02*
X010714Y024826D01*
X010715Y024825D02*
X010730Y024828D01*
X010744Y024833D01*
X010757Y024842D01*
X010768Y024853D01*
X010777Y024866D01*
X010782Y024880D01*
X010785Y024895D01*
X010834Y024896D01*
X010835Y024895D01*
X010832Y024874D01*
X010826Y024855D01*
X010817Y024836D01*
X010805Y024819D01*
X010791Y024805D01*
X010774Y024793D01*
X010755Y024784D01*
X010736Y024778D01*
X010715Y024775D01*
X010715Y024784D01*
X010734Y024787D01*
X010752Y024792D01*
X010769Y024800D01*
X010785Y024811D01*
X010799Y024825D01*
X010810Y024841D01*
X010818Y024858D01*
X010823Y024876D01*
X010826Y024895D01*
X010817Y024895D01*
X010814Y024875D01*
X010808Y024857D01*
X010798Y024840D01*
X010786Y024824D01*
X010770Y024812D01*
X010753Y024802D01*
X010735Y024796D01*
X010715Y024793D01*
X010715Y024802D01*
X010733Y024805D01*
X010750Y024810D01*
X010765Y024819D01*
X010779Y024831D01*
X010791Y024845D01*
X010800Y024860D01*
X010805Y024877D01*
X010808Y024895D01*
X010799Y024895D01*
X010796Y024877D01*
X010789Y024859D01*
X010779Y024844D01*
X010766Y024831D01*
X010751Y024821D01*
X010733Y024814D01*
X010715Y024811D01*
X010715Y024820D01*
X010731Y024823D01*
X010747Y024829D01*
X010760Y024838D01*
X010772Y024850D01*
X010781Y024863D01*
X010787Y024879D01*
X010790Y024895D01*
X009886Y024896D02*
X009936Y024896D01*
X009935Y024895D02*
X009938Y024880D01*
X009943Y024866D01*
X009952Y024853D01*
X009963Y024842D01*
X009976Y024833D01*
X009990Y024828D01*
X010005Y024825D01*
X010006Y024776D01*
X010005Y024775D01*
X009984Y024778D01*
X009965Y024784D01*
X009946Y024793D01*
X009929Y024805D01*
X009915Y024819D01*
X009903Y024836D01*
X009894Y024855D01*
X009888Y024874D01*
X009885Y024895D01*
X009894Y024895D01*
X009897Y024876D01*
X009902Y024858D01*
X009910Y024841D01*
X009921Y024825D01*
X009935Y024811D01*
X009951Y024800D01*
X009968Y024792D01*
X009986Y024787D01*
X010005Y024784D01*
X010005Y024793D01*
X009985Y024796D01*
X009967Y024802D01*
X009950Y024812D01*
X009934Y024824D01*
X009922Y024840D01*
X009912Y024857D01*
X009906Y024875D01*
X009903Y024895D01*
X009912Y024895D01*
X009915Y024877D01*
X009920Y024860D01*
X009929Y024845D01*
X009941Y024831D01*
X009955Y024819D01*
X009970Y024810D01*
X009987Y024805D01*
X010005Y024802D01*
X010005Y024811D01*
X009987Y024814D01*
X009969Y024821D01*
X009954Y024831D01*
X009941Y024844D01*
X009931Y024859D01*
X009924Y024877D01*
X009921Y024895D01*
X009930Y024895D01*
X009933Y024879D01*
X009939Y024863D01*
X009948Y024850D01*
X009960Y024838D01*
X009973Y024829D01*
X009989Y024823D01*
X010005Y024820D01*
X008991Y025573D02*
X008913Y025528D01*
X008913Y025529D02*
X008885Y025573D01*
X008854Y025615D01*
X008821Y025655D01*
X008785Y025693D01*
X008746Y025728D01*
X008705Y025760D01*
X008661Y025790D01*
X008616Y025816D01*
X008569Y025839D01*
X008521Y025859D01*
X008471Y025875D01*
X008421Y025888D01*
X008369Y025897D01*
X008317Y025903D01*
X008265Y025905D01*
X008264Y025994D01*
X008265Y025995D01*
X008320Y025993D01*
X008374Y025987D01*
X008429Y025978D01*
X008482Y025965D01*
X008534Y025949D01*
X008586Y025930D01*
X008636Y025907D01*
X008684Y025881D01*
X008731Y025852D01*
X008775Y025820D01*
X008818Y025785D01*
X008858Y025747D01*
X008895Y025707D01*
X008930Y025665D01*
X008962Y025620D01*
X008991Y025574D01*
X008983Y025569D01*
X008955Y025615D01*
X008923Y025659D01*
X008888Y025701D01*
X008851Y025741D01*
X008812Y025778D01*
X008770Y025813D01*
X008726Y025844D01*
X008680Y025873D01*
X008632Y025899D01*
X008582Y025921D01*
X008532Y025941D01*
X008480Y025957D01*
X008427Y025969D01*
X008373Y025978D01*
X008319Y025984D01*
X008265Y025986D01*
X008265Y025977D01*
X008319Y025975D01*
X008372Y025969D01*
X008425Y025960D01*
X008477Y025948D01*
X008529Y025932D01*
X008579Y025913D01*
X008628Y025891D01*
X008675Y025865D01*
X008721Y025837D01*
X008764Y025805D01*
X008806Y025771D01*
X008845Y025735D01*
X008882Y025695D01*
X008916Y025654D01*
X008947Y025610D01*
X008976Y025565D01*
X008968Y025560D01*
X008938Y025608D01*
X008904Y025654D01*
X008868Y025697D01*
X008828Y025738D01*
X008786Y025776D01*
X008742Y025811D01*
X008695Y025843D01*
X008646Y025871D01*
X008595Y025896D01*
X008542Y025918D01*
X008489Y025935D01*
X008434Y025949D01*
X008378Y025959D01*
X008322Y025966D01*
X008265Y025968D01*
X008265Y025959D01*
X008321Y025957D01*
X008377Y025951D01*
X008432Y025941D01*
X008486Y025927D01*
X008539Y025909D01*
X008591Y025888D01*
X008642Y025863D01*
X008690Y025835D01*
X008736Y025804D01*
X008781Y025769D01*
X008822Y025732D01*
X008861Y025691D01*
X008897Y025649D01*
X008930Y025603D01*
X008960Y025556D01*
X008952Y025551D01*
X008923Y025598D01*
X008890Y025643D01*
X008854Y025685D01*
X008816Y025725D01*
X008775Y025762D01*
X008731Y025797D01*
X008685Y025828D01*
X008637Y025855D01*
X008588Y025880D01*
X008536Y025901D01*
X008484Y025918D01*
X008430Y025932D01*
X008375Y025942D01*
X008320Y025948D01*
X008265Y025950D01*
X008265Y025941D01*
X008320Y025939D01*
X008374Y025933D01*
X008428Y025923D01*
X008481Y025909D01*
X008533Y025892D01*
X008584Y025872D01*
X008633Y025847D01*
X008680Y025820D01*
X008726Y025789D01*
X008769Y025756D01*
X008810Y025719D01*
X008848Y025679D01*
X008883Y025637D01*
X008915Y025593D01*
X008944Y025547D01*
X008936Y025542D01*
X008908Y025588D01*
X008876Y025632D01*
X008841Y025673D01*
X008803Y025712D01*
X008763Y025749D01*
X008721Y025782D01*
X008676Y025812D01*
X008629Y025840D01*
X008580Y025863D01*
X008530Y025884D01*
X008479Y025901D01*
X008426Y025914D01*
X008373Y025924D01*
X008319Y025930D01*
X008265Y025932D01*
X008265Y025923D01*
X008318Y025921D01*
X008372Y025915D01*
X008424Y025905D01*
X008476Y025892D01*
X008527Y025875D01*
X008577Y025855D01*
X008625Y025832D01*
X008671Y025805D01*
X008715Y025775D01*
X008757Y025742D01*
X008797Y025706D01*
X008834Y025667D01*
X008869Y025626D01*
X008900Y025583D01*
X008929Y025538D01*
X008921Y025533D01*
X008893Y025578D01*
X008862Y025621D01*
X008828Y025661D01*
X008791Y025699D01*
X008752Y025735D01*
X008710Y025767D01*
X008666Y025797D01*
X008620Y025824D01*
X008573Y025847D01*
X008524Y025867D01*
X008474Y025884D01*
X008422Y025897D01*
X008370Y025906D01*
X008318Y025912D01*
X008265Y025914D01*
X008265Y024306D02*
X008265Y024396D01*
X008265Y024395D02*
X008319Y024397D01*
X008372Y024403D01*
X008425Y024413D01*
X008477Y024427D01*
X008528Y024444D01*
X008577Y024465D01*
X008625Y024489D01*
X008671Y024517D01*
X008715Y024548D01*
X008757Y024582D01*
X008796Y024618D01*
X008833Y024658D01*
X008866Y024700D01*
X008897Y024744D01*
X008924Y024790D01*
X009003Y024748D01*
X008975Y024699D01*
X008943Y024653D01*
X008908Y024608D01*
X008871Y024566D01*
X008830Y024526D01*
X008787Y024490D01*
X008742Y024456D01*
X008695Y024425D01*
X008645Y024398D01*
X008594Y024374D01*
X008542Y024353D01*
X008488Y024336D01*
X008433Y024323D01*
X008378Y024313D01*
X008321Y024307D01*
X008265Y024305D01*
X008265Y024314D01*
X008321Y024316D01*
X008376Y024322D01*
X008431Y024332D01*
X008486Y024345D01*
X008539Y024362D01*
X008591Y024382D01*
X008641Y024406D01*
X008690Y024433D01*
X008737Y024463D01*
X008782Y024497D01*
X008824Y024533D01*
X008864Y024572D01*
X008901Y024614D01*
X008936Y024658D01*
X008967Y024704D01*
X008995Y024752D01*
X008987Y024756D01*
X008959Y024709D01*
X008928Y024663D01*
X008894Y024620D01*
X008858Y024578D01*
X008818Y024540D01*
X008776Y024504D01*
X008732Y024471D01*
X008686Y024441D01*
X008637Y024414D01*
X008587Y024391D01*
X008536Y024370D01*
X008483Y024354D01*
X008430Y024341D01*
X008375Y024331D01*
X008320Y024325D01*
X008265Y024323D01*
X008265Y024332D01*
X008320Y024334D01*
X008374Y024340D01*
X008428Y024349D01*
X008481Y024362D01*
X008533Y024379D01*
X008584Y024399D01*
X008633Y024422D01*
X008681Y024449D01*
X008727Y024478D01*
X008771Y024511D01*
X008812Y024546D01*
X008851Y024585D01*
X008888Y024625D01*
X008921Y024668D01*
X008952Y024714D01*
X008979Y024761D01*
X008971Y024765D01*
X008944Y024718D01*
X008914Y024674D01*
X008881Y024631D01*
X008845Y024591D01*
X008806Y024553D01*
X008765Y024518D01*
X008722Y024486D01*
X008676Y024456D01*
X008629Y024430D01*
X008580Y024407D01*
X008530Y024387D01*
X008478Y024371D01*
X008426Y024358D01*
X008373Y024349D01*
X008319Y024343D01*
X008265Y024341D01*
X008265Y024350D01*
X008318Y024352D01*
X008371Y024358D01*
X008424Y024367D01*
X008476Y024380D01*
X008527Y024396D01*
X008577Y024415D01*
X008625Y024438D01*
X008672Y024464D01*
X008716Y024493D01*
X008759Y024525D01*
X008800Y024560D01*
X008838Y024597D01*
X008874Y024637D01*
X008907Y024679D01*
X008937Y024723D01*
X008964Y024769D01*
X008956Y024773D01*
X008929Y024728D01*
X008899Y024684D01*
X008867Y024643D01*
X008832Y024603D01*
X008794Y024566D01*
X008754Y024532D01*
X008711Y024500D01*
X008667Y024472D01*
X008621Y024446D01*
X008573Y024424D01*
X008524Y024404D01*
X008474Y024388D01*
X008422Y024376D01*
X008370Y024367D01*
X008318Y024361D01*
X008265Y024359D01*
X008265Y024368D01*
X008321Y024370D01*
X008376Y024377D01*
X008431Y024387D01*
X008485Y024401D01*
X008537Y024419D01*
X008589Y024440D01*
X008638Y024466D01*
X008686Y024494D01*
X008732Y024526D01*
X008775Y024561D01*
X008815Y024599D01*
X008853Y024640D01*
X008888Y024684D01*
X008919Y024730D01*
X008948Y024778D01*
X008940Y024782D01*
X008912Y024734D01*
X008881Y024689D01*
X008846Y024646D01*
X008809Y024606D01*
X008769Y024568D01*
X008726Y024533D01*
X008681Y024502D01*
X008634Y024473D01*
X008585Y024449D01*
X008534Y024427D01*
X008482Y024410D01*
X008429Y024396D01*
X008375Y024386D01*
X008320Y024379D01*
X008265Y024377D01*
X008265Y024386D01*
X008319Y024388D01*
X008373Y024394D01*
X008427Y024404D01*
X008479Y024418D01*
X008531Y024436D01*
X008581Y024457D01*
X008630Y024481D01*
X008676Y024509D01*
X008721Y024541D01*
X008763Y024575D01*
X008802Y024612D01*
X008839Y024652D01*
X008873Y024694D01*
X008904Y024739D01*
X008932Y024786D01*
X007615Y024606D02*
X007684Y024663D01*
X007683Y024663D02*
X007720Y024623D01*
X007759Y024585D01*
X007801Y024551D01*
X007845Y024519D01*
X007891Y024491D01*
X007940Y024466D01*
X007990Y024445D01*
X008041Y024427D01*
X008094Y024414D01*
X008147Y024404D01*
X008201Y024397D01*
X008255Y024395D01*
X008256Y024306D01*
X008255Y024305D01*
X008199Y024307D01*
X008143Y024313D01*
X008088Y024323D01*
X008033Y024336D01*
X007980Y024353D01*
X007927Y024373D01*
X007876Y024397D01*
X007827Y024424D01*
X007780Y024455D01*
X007735Y024488D01*
X007692Y024524D01*
X007652Y024563D01*
X007614Y024605D01*
X007621Y024611D01*
X007658Y024570D01*
X007698Y024531D01*
X007740Y024495D01*
X007785Y024462D01*
X007832Y024432D01*
X007880Y024405D01*
X007931Y024382D01*
X007983Y024361D01*
X008036Y024345D01*
X008090Y024332D01*
X008144Y024322D01*
X008199Y024316D01*
X008255Y024314D01*
X008255Y024323D01*
X008200Y024325D01*
X008145Y024331D01*
X008091Y024340D01*
X008038Y024353D01*
X007986Y024370D01*
X007934Y024390D01*
X007885Y024413D01*
X007836Y024440D01*
X007790Y024469D01*
X007746Y024502D01*
X007704Y024538D01*
X007665Y024576D01*
X007628Y024617D01*
X007635Y024622D01*
X007671Y024582D01*
X007710Y024544D01*
X007752Y024509D01*
X007795Y024477D01*
X007841Y024447D01*
X007889Y024421D01*
X007938Y024398D01*
X007988Y024378D01*
X008040Y024362D01*
X008093Y024349D01*
X008147Y024340D01*
X008201Y024334D01*
X008255Y024332D01*
X008255Y024341D01*
X008201Y024343D01*
X008148Y024349D01*
X008095Y024358D01*
X008043Y024371D01*
X007991Y024387D01*
X007941Y024406D01*
X007893Y024429D01*
X007846Y024455D01*
X007800Y024484D01*
X007757Y024516D01*
X007716Y024551D01*
X007678Y024588D01*
X007642Y024628D01*
X007649Y024634D01*
X007684Y024595D01*
X007722Y024558D01*
X007763Y024523D01*
X007806Y024492D01*
X007850Y024463D01*
X007897Y024437D01*
X007945Y024415D01*
X007994Y024395D01*
X008045Y024379D01*
X008097Y024367D01*
X008149Y024358D01*
X008202Y024352D01*
X008255Y024350D01*
X008255Y024359D01*
X008203Y024361D01*
X008150Y024367D01*
X008099Y024376D01*
X008048Y024388D01*
X007997Y024404D01*
X007948Y024423D01*
X007901Y024445D01*
X007855Y024471D01*
X007811Y024499D01*
X007769Y024530D01*
X007728Y024564D01*
X007691Y024601D01*
X007656Y024640D01*
X007662Y024646D01*
X007697Y024607D01*
X007735Y024571D01*
X007774Y024537D01*
X007816Y024506D01*
X007860Y024478D01*
X007905Y024453D01*
X007952Y024431D01*
X008000Y024412D01*
X008050Y024397D01*
X008100Y024384D01*
X008152Y024376D01*
X008203Y024370D01*
X008255Y024368D01*
X008255Y024377D01*
X008204Y024379D01*
X008153Y024384D01*
X008102Y024393D01*
X008052Y024405D01*
X008003Y024421D01*
X007956Y024439D01*
X007909Y024461D01*
X007864Y024486D01*
X007821Y024514D01*
X007780Y024544D01*
X007741Y024577D01*
X007704Y024613D01*
X007669Y024651D01*
X007676Y024657D01*
X007713Y024616D01*
X007753Y024578D01*
X007795Y024544D01*
X007840Y024512D01*
X007887Y024483D01*
X007936Y024458D01*
X007987Y024437D01*
X008038Y024419D01*
X008092Y024405D01*
X008146Y024395D01*
X008200Y024388D01*
X008255Y024386D01*
X008256Y025994D02*
X008256Y025904D01*
X008255Y025905D02*
X008201Y025903D01*
X008148Y025897D01*
X008095Y025887D01*
X008043Y025873D01*
X007992Y025856D01*
X007942Y025835D01*
X007894Y025811D01*
X007848Y025783D01*
X007804Y025752D01*
X007763Y025718D01*
X007723Y025681D01*
X007687Y025642D01*
X007619Y025699D01*
X007618Y025700D01*
X007656Y025741D01*
X007696Y025779D01*
X007739Y025815D01*
X007784Y025848D01*
X007831Y025878D01*
X007879Y025904D01*
X007930Y025928D01*
X007982Y025948D01*
X008035Y025964D01*
X008089Y025978D01*
X008144Y025987D01*
X008199Y025993D01*
X008255Y025995D01*
X008255Y025986D01*
X008200Y025984D01*
X008145Y025978D01*
X008091Y025969D01*
X008037Y025956D01*
X007985Y025939D01*
X007933Y025920D01*
X007883Y025896D01*
X007835Y025870D01*
X007789Y025840D01*
X007744Y025808D01*
X007702Y025773D01*
X007662Y025734D01*
X007625Y025694D01*
X007632Y025688D01*
X007669Y025728D01*
X007708Y025766D01*
X007750Y025801D01*
X007794Y025833D01*
X007840Y025862D01*
X007888Y025888D01*
X007937Y025911D01*
X007988Y025931D01*
X008040Y025947D01*
X008093Y025960D01*
X008146Y025969D01*
X008201Y025975D01*
X008255Y025977D01*
X008255Y025968D01*
X008201Y025966D01*
X008148Y025960D01*
X008095Y025951D01*
X008042Y025938D01*
X007991Y025922D01*
X007940Y025903D01*
X007892Y025880D01*
X007844Y025855D01*
X007799Y025826D01*
X007755Y025794D01*
X007714Y025759D01*
X007675Y025722D01*
X007639Y025682D01*
X007646Y025676D01*
X007682Y025716D01*
X007720Y025753D01*
X007761Y025787D01*
X007804Y025818D01*
X007849Y025847D01*
X007896Y025872D01*
X007944Y025895D01*
X007994Y025914D01*
X008045Y025930D01*
X008096Y025942D01*
X008149Y025951D01*
X008202Y025957D01*
X008255Y025959D01*
X008255Y025950D01*
X008202Y025948D01*
X008150Y025942D01*
X008098Y025933D01*
X008047Y025921D01*
X007997Y025905D01*
X007947Y025886D01*
X007900Y025864D01*
X007853Y025839D01*
X007809Y025811D01*
X007767Y025780D01*
X007726Y025746D01*
X007688Y025709D01*
X007653Y025671D01*
X007659Y025665D01*
X007695Y025703D01*
X007732Y025739D01*
X007772Y025773D01*
X007814Y025803D01*
X007858Y025831D01*
X007904Y025856D01*
X007951Y025878D01*
X008000Y025897D01*
X008049Y025912D01*
X008100Y025925D01*
X008151Y025933D01*
X008203Y025939D01*
X008255Y025941D01*
X008255Y025932D01*
X008199Y025930D01*
X008144Y025923D01*
X008089Y025913D01*
X008035Y025899D01*
X007982Y025881D01*
X007931Y025859D01*
X007881Y025834D01*
X007833Y025805D01*
X007788Y025773D01*
X007745Y025738D01*
X007704Y025700D01*
X007666Y025659D01*
X007673Y025653D01*
X007710Y025694D01*
X007751Y025731D01*
X007793Y025766D01*
X007838Y025798D01*
X007886Y025826D01*
X007935Y025851D01*
X007986Y025873D01*
X008038Y025890D01*
X008091Y025904D01*
X008145Y025914D01*
X008200Y025921D01*
X008255Y025923D01*
X008255Y025914D01*
X008201Y025912D01*
X008147Y025906D01*
X008093Y025896D01*
X008040Y025882D01*
X007989Y025864D01*
X007939Y025843D01*
X007890Y025818D01*
X007843Y025790D01*
X007799Y025759D01*
X007757Y025725D01*
X007717Y025687D01*
X007680Y025647D01*
X008265Y026106D02*
X008265Y026196D01*
X008265Y026195D02*
X008319Y026197D01*
X008372Y026203D01*
X008425Y026213D01*
X008477Y026227D01*
X008528Y026244D01*
X008577Y026265D01*
X008625Y026289D01*
X008671Y026317D01*
X008715Y026348D01*
X008757Y026382D01*
X008796Y026418D01*
X008833Y026458D01*
X008866Y026500D01*
X008897Y026544D01*
X008924Y026590D01*
X009003Y026548D01*
X008975Y026499D01*
X008943Y026453D01*
X008908Y026408D01*
X008871Y026366D01*
X008830Y026326D01*
X008787Y026290D01*
X008742Y026256D01*
X008695Y026225D01*
X008645Y026198D01*
X008594Y026174D01*
X008542Y026153D01*
X008488Y026136D01*
X008433Y026123D01*
X008378Y026113D01*
X008321Y026107D01*
X008265Y026105D01*
X008265Y026114D01*
X008321Y026116D01*
X008376Y026122D01*
X008431Y026132D01*
X008486Y026145D01*
X008539Y026162D01*
X008591Y026182D01*
X008641Y026206D01*
X008690Y026233D01*
X008737Y026263D01*
X008782Y026297D01*
X008824Y026333D01*
X008864Y026372D01*
X008901Y026414D01*
X008936Y026458D01*
X008967Y026504D01*
X008995Y026552D01*
X008987Y026556D01*
X008959Y026509D01*
X008928Y026463D01*
X008894Y026420D01*
X008858Y026378D01*
X008818Y026340D01*
X008776Y026304D01*
X008732Y026271D01*
X008686Y026241D01*
X008637Y026214D01*
X008587Y026191D01*
X008536Y026170D01*
X008483Y026154D01*
X008430Y026141D01*
X008375Y026131D01*
X008320Y026125D01*
X008265Y026123D01*
X008265Y026132D01*
X008320Y026134D01*
X008374Y026140D01*
X008428Y026149D01*
X008481Y026162D01*
X008533Y026179D01*
X008584Y026199D01*
X008633Y026222D01*
X008681Y026249D01*
X008727Y026278D01*
X008771Y026311D01*
X008812Y026346D01*
X008851Y026385D01*
X008888Y026425D01*
X008921Y026468D01*
X008952Y026514D01*
X008979Y026561D01*
X008971Y026565D01*
X008944Y026518D01*
X008914Y026474D01*
X008881Y026431D01*
X008845Y026391D01*
X008806Y026353D01*
X008765Y026318D01*
X008722Y026286D01*
X008676Y026256D01*
X008629Y026230D01*
X008580Y026207D01*
X008530Y026187D01*
X008478Y026171D01*
X008426Y026158D01*
X008373Y026149D01*
X008319Y026143D01*
X008265Y026141D01*
X008265Y026150D01*
X008318Y026152D01*
X008371Y026158D01*
X008424Y026167D01*
X008476Y026180D01*
X008527Y026196D01*
X008577Y026215D01*
X008625Y026238D01*
X008672Y026264D01*
X008716Y026293D01*
X008759Y026325D01*
X008800Y026360D01*
X008838Y026397D01*
X008874Y026437D01*
X008907Y026479D01*
X008937Y026523D01*
X008964Y026569D01*
X008956Y026573D01*
X008929Y026528D01*
X008899Y026484D01*
X008867Y026443D01*
X008832Y026403D01*
X008794Y026366D01*
X008754Y026332D01*
X008711Y026300D01*
X008667Y026272D01*
X008621Y026246D01*
X008573Y026224D01*
X008524Y026204D01*
X008474Y026188D01*
X008422Y026176D01*
X008370Y026167D01*
X008318Y026161D01*
X008265Y026159D01*
X008265Y026168D01*
X008321Y026170D01*
X008376Y026177D01*
X008431Y026187D01*
X008485Y026201D01*
X008537Y026219D01*
X008589Y026240D01*
X008638Y026266D01*
X008686Y026294D01*
X008732Y026326D01*
X008775Y026361D01*
X008815Y026399D01*
X008853Y026440D01*
X008888Y026484D01*
X008919Y026530D01*
X008948Y026578D01*
X008940Y026582D01*
X008912Y026534D01*
X008881Y026489D01*
X008846Y026446D01*
X008809Y026406D01*
X008769Y026368D01*
X008726Y026333D01*
X008681Y026302D01*
X008634Y026273D01*
X008585Y026249D01*
X008534Y026227D01*
X008482Y026210D01*
X008429Y026196D01*
X008375Y026186D01*
X008320Y026179D01*
X008265Y026177D01*
X008265Y026186D01*
X008319Y026188D01*
X008373Y026194D01*
X008427Y026204D01*
X008479Y026218D01*
X008531Y026236D01*
X008581Y026257D01*
X008630Y026281D01*
X008676Y026309D01*
X008721Y026341D01*
X008763Y026375D01*
X008802Y026412D01*
X008839Y026452D01*
X008873Y026494D01*
X008904Y026539D01*
X008932Y026586D01*
X008991Y027373D02*
X008913Y027328D01*
X008913Y027329D02*
X008885Y027373D01*
X008854Y027415D01*
X008821Y027455D01*
X008785Y027493D01*
X008746Y027528D01*
X008705Y027560D01*
X008661Y027590D01*
X008616Y027616D01*
X008569Y027639D01*
X008521Y027659D01*
X008471Y027675D01*
X008421Y027688D01*
X008369Y027697D01*
X008317Y027703D01*
X008265Y027705D01*
X008264Y027794D01*
X008265Y027795D01*
X008320Y027793D01*
X008374Y027787D01*
X008429Y027778D01*
X008482Y027765D01*
X008534Y027749D01*
X008586Y027730D01*
X008636Y027707D01*
X008684Y027681D01*
X008731Y027652D01*
X008775Y027620D01*
X008818Y027585D01*
X008858Y027547D01*
X008895Y027507D01*
X008930Y027465D01*
X008962Y027420D01*
X008991Y027374D01*
X008983Y027369D01*
X008955Y027415D01*
X008923Y027459D01*
X008888Y027501D01*
X008851Y027541D01*
X008812Y027578D01*
X008770Y027613D01*
X008726Y027644D01*
X008680Y027673D01*
X008632Y027699D01*
X008582Y027721D01*
X008532Y027741D01*
X008480Y027757D01*
X008427Y027769D01*
X008373Y027778D01*
X008319Y027784D01*
X008265Y027786D01*
X008265Y027777D01*
X008319Y027775D01*
X008372Y027769D01*
X008425Y027760D01*
X008477Y027748D01*
X008529Y027732D01*
X008579Y027713D01*
X008628Y027691D01*
X008675Y027665D01*
X008721Y027637D01*
X008764Y027605D01*
X008806Y027571D01*
X008845Y027535D01*
X008882Y027495D01*
X008916Y027454D01*
X008947Y027410D01*
X008976Y027365D01*
X008968Y027360D01*
X008938Y027408D01*
X008904Y027454D01*
X008868Y027497D01*
X008828Y027538D01*
X008786Y027576D01*
X008742Y027611D01*
X008695Y027643D01*
X008646Y027671D01*
X008595Y027696D01*
X008542Y027718D01*
X008489Y027735D01*
X008434Y027749D01*
X008378Y027759D01*
X008322Y027766D01*
X008265Y027768D01*
X008265Y027759D01*
X008321Y027757D01*
X008377Y027751D01*
X008432Y027741D01*
X008486Y027727D01*
X008539Y027709D01*
X008591Y027688D01*
X008642Y027663D01*
X008690Y027635D01*
X008736Y027604D01*
X008781Y027569D01*
X008822Y027532D01*
X008861Y027491D01*
X008897Y027449D01*
X008930Y027403D01*
X008960Y027356D01*
X008952Y027351D01*
X008923Y027398D01*
X008890Y027443D01*
X008854Y027485D01*
X008816Y027525D01*
X008775Y027562D01*
X008731Y027597D01*
X008685Y027628D01*
X008637Y027655D01*
X008588Y027680D01*
X008536Y027701D01*
X008484Y027718D01*
X008430Y027732D01*
X008375Y027742D01*
X008320Y027748D01*
X008265Y027750D01*
X008265Y027741D01*
X008320Y027739D01*
X008374Y027733D01*
X008428Y027723D01*
X008481Y027709D01*
X008533Y027692D01*
X008584Y027672D01*
X008633Y027647D01*
X008680Y027620D01*
X008726Y027589D01*
X008769Y027556D01*
X008810Y027519D01*
X008848Y027479D01*
X008883Y027437D01*
X008915Y027393D01*
X008944Y027347D01*
X008936Y027342D01*
X008908Y027388D01*
X008876Y027432D01*
X008841Y027473D01*
X008803Y027512D01*
X008763Y027549D01*
X008721Y027582D01*
X008676Y027612D01*
X008629Y027640D01*
X008580Y027663D01*
X008530Y027684D01*
X008479Y027701D01*
X008426Y027714D01*
X008373Y027724D01*
X008319Y027730D01*
X008265Y027732D01*
X008265Y027723D01*
X008318Y027721D01*
X008372Y027715D01*
X008424Y027705D01*
X008476Y027692D01*
X008527Y027675D01*
X008577Y027655D01*
X008625Y027632D01*
X008671Y027605D01*
X008715Y027575D01*
X008757Y027542D01*
X008797Y027506D01*
X008834Y027467D01*
X008869Y027426D01*
X008900Y027383D01*
X008929Y027338D01*
X008921Y027333D01*
X008893Y027378D01*
X008862Y027421D01*
X008828Y027461D01*
X008791Y027499D01*
X008752Y027535D01*
X008710Y027567D01*
X008666Y027597D01*
X008620Y027624D01*
X008573Y027647D01*
X008524Y027667D01*
X008474Y027684D01*
X008422Y027697D01*
X008370Y027706D01*
X008318Y027712D01*
X008265Y027714D01*
X008256Y027794D02*
X008256Y027704D01*
X008255Y027705D02*
X008201Y027703D01*
X008148Y027697D01*
X008095Y027687D01*
X008043Y027673D01*
X007992Y027656D01*
X007942Y027635D01*
X007894Y027611D01*
X007848Y027583D01*
X007804Y027552D01*
X007763Y027518D01*
X007723Y027481D01*
X007687Y027442D01*
X007619Y027499D01*
X007618Y027500D01*
X007656Y027541D01*
X007696Y027579D01*
X007739Y027615D01*
X007784Y027648D01*
X007831Y027678D01*
X007879Y027704D01*
X007930Y027728D01*
X007982Y027748D01*
X008035Y027764D01*
X008089Y027778D01*
X008144Y027787D01*
X008199Y027793D01*
X008255Y027795D01*
X008255Y027786D01*
X008200Y027784D01*
X008145Y027778D01*
X008091Y027769D01*
X008037Y027756D01*
X007985Y027739D01*
X007933Y027720D01*
X007883Y027696D01*
X007835Y027670D01*
X007789Y027640D01*
X007744Y027608D01*
X007702Y027573D01*
X007662Y027534D01*
X007625Y027494D01*
X007632Y027488D01*
X007669Y027528D01*
X007708Y027566D01*
X007750Y027601D01*
X007794Y027633D01*
X007840Y027662D01*
X007888Y027688D01*
X007937Y027711D01*
X007988Y027731D01*
X008040Y027747D01*
X008093Y027760D01*
X008146Y027769D01*
X008201Y027775D01*
X008255Y027777D01*
X008255Y027768D01*
X008201Y027766D01*
X008148Y027760D01*
X008095Y027751D01*
X008042Y027738D01*
X007991Y027722D01*
X007940Y027703D01*
X007892Y027680D01*
X007844Y027655D01*
X007799Y027626D01*
X007755Y027594D01*
X007714Y027559D01*
X007675Y027522D01*
X007639Y027482D01*
X007646Y027476D01*
X007682Y027516D01*
X007720Y027553D01*
X007761Y027587D01*
X007804Y027618D01*
X007849Y027647D01*
X007896Y027672D01*
X007944Y027695D01*
X007994Y027714D01*
X008045Y027730D01*
X008096Y027742D01*
X008149Y027751D01*
X008202Y027757D01*
X008255Y027759D01*
X008255Y027750D01*
X008202Y027748D01*
X008150Y027742D01*
X008098Y027733D01*
X008047Y027721D01*
X007997Y027705D01*
X007947Y027686D01*
X007900Y027664D01*
X007853Y027639D01*
X007809Y027611D01*
X007767Y027580D01*
X007726Y027546D01*
X007688Y027509D01*
X007653Y027471D01*
X007659Y027465D01*
X007695Y027503D01*
X007732Y027539D01*
X007772Y027573D01*
X007814Y027603D01*
X007858Y027631D01*
X007904Y027656D01*
X007951Y027678D01*
X008000Y027697D01*
X008049Y027712D01*
X008100Y027725D01*
X008151Y027733D01*
X008203Y027739D01*
X008255Y027741D01*
X008255Y027732D01*
X008199Y027730D01*
X008144Y027723D01*
X008089Y027713D01*
X008035Y027699D01*
X007982Y027681D01*
X007931Y027659D01*
X007881Y027634D01*
X007833Y027605D01*
X007788Y027573D01*
X007745Y027538D01*
X007704Y027500D01*
X007666Y027459D01*
X007673Y027453D01*
X007710Y027494D01*
X007751Y027531D01*
X007793Y027566D01*
X007838Y027598D01*
X007886Y027626D01*
X007935Y027651D01*
X007986Y027673D01*
X008038Y027690D01*
X008091Y027704D01*
X008145Y027714D01*
X008200Y027721D01*
X008255Y027723D01*
X008255Y027714D01*
X008201Y027712D01*
X008147Y027706D01*
X008093Y027696D01*
X008040Y027682D01*
X007989Y027664D01*
X007939Y027643D01*
X007890Y027618D01*
X007843Y027590D01*
X007799Y027559D01*
X007757Y027525D01*
X007717Y027487D01*
X007680Y027447D01*
X007615Y026406D02*
X007684Y026463D01*
X007683Y026463D02*
X007720Y026423D01*
X007759Y026385D01*
X007801Y026351D01*
X007845Y026319D01*
X007891Y026291D01*
X007940Y026266D01*
X007990Y026245D01*
X008041Y026227D01*
X008094Y026214D01*
X008147Y026204D01*
X008201Y026197D01*
X008255Y026195D01*
X008256Y026106D01*
X008255Y026105D01*
X008199Y026107D01*
X008143Y026113D01*
X008088Y026123D01*
X008033Y026136D01*
X007980Y026153D01*
X007927Y026173D01*
X007876Y026197D01*
X007827Y026224D01*
X007780Y026255D01*
X007735Y026288D01*
X007692Y026324D01*
X007652Y026363D01*
X007614Y026405D01*
X007621Y026411D01*
X007658Y026370D01*
X007698Y026331D01*
X007740Y026295D01*
X007785Y026262D01*
X007832Y026232D01*
X007880Y026205D01*
X007931Y026182D01*
X007983Y026161D01*
X008036Y026145D01*
X008090Y026132D01*
X008144Y026122D01*
X008199Y026116D01*
X008255Y026114D01*
X008255Y026123D01*
X008200Y026125D01*
X008145Y026131D01*
X008091Y026140D01*
X008038Y026153D01*
X007986Y026170D01*
X007934Y026190D01*
X007885Y026213D01*
X007836Y026240D01*
X007790Y026269D01*
X007746Y026302D01*
X007704Y026338D01*
X007665Y026376D01*
X007628Y026417D01*
X007635Y026422D01*
X007671Y026382D01*
X007710Y026344D01*
X007752Y026309D01*
X007795Y026277D01*
X007841Y026247D01*
X007889Y026221D01*
X007938Y026198D01*
X007988Y026178D01*
X008040Y026162D01*
X008093Y026149D01*
X008147Y026140D01*
X008201Y026134D01*
X008255Y026132D01*
X008255Y026141D01*
X008201Y026143D01*
X008148Y026149D01*
X008095Y026158D01*
X008043Y026171D01*
X007991Y026187D01*
X007941Y026206D01*
X007893Y026229D01*
X007846Y026255D01*
X007800Y026284D01*
X007757Y026316D01*
X007716Y026351D01*
X007678Y026388D01*
X007642Y026428D01*
X007649Y026434D01*
X007684Y026395D01*
X007722Y026358D01*
X007763Y026323D01*
X007806Y026292D01*
X007850Y026263D01*
X007897Y026237D01*
X007945Y026215D01*
X007994Y026195D01*
X008045Y026179D01*
X008097Y026167D01*
X008149Y026158D01*
X008202Y026152D01*
X008255Y026150D01*
X008255Y026159D01*
X008203Y026161D01*
X008150Y026167D01*
X008099Y026176D01*
X008048Y026188D01*
X007997Y026204D01*
X007948Y026223D01*
X007901Y026245D01*
X007855Y026271D01*
X007811Y026299D01*
X007769Y026330D01*
X007728Y026364D01*
X007691Y026401D01*
X007656Y026440D01*
X007662Y026446D01*
X007697Y026407D01*
X007735Y026371D01*
X007774Y026337D01*
X007816Y026306D01*
X007860Y026278D01*
X007905Y026253D01*
X007952Y026231D01*
X008000Y026212D01*
X008050Y026197D01*
X008100Y026184D01*
X008152Y026176D01*
X008203Y026170D01*
X008255Y026168D01*
X008255Y026177D01*
X008204Y026179D01*
X008153Y026184D01*
X008102Y026193D01*
X008052Y026205D01*
X008003Y026221D01*
X007956Y026239D01*
X007909Y026261D01*
X007864Y026286D01*
X007821Y026314D01*
X007780Y026344D01*
X007741Y026377D01*
X007704Y026413D01*
X007669Y026451D01*
X007676Y026457D01*
X007713Y026416D01*
X007753Y026378D01*
X007795Y026344D01*
X007840Y026312D01*
X007887Y026283D01*
X007936Y026258D01*
X007987Y026237D01*
X008038Y026219D01*
X008092Y026205D01*
X008146Y026195D01*
X008200Y026188D01*
X008255Y026186D01*
X017106Y021324D02*
X017106Y021274D01*
X017105Y021275D02*
X017090Y021272D01*
X017076Y021267D01*
X017063Y021258D01*
X017052Y021247D01*
X017043Y021234D01*
X017038Y021220D01*
X017035Y021205D01*
X016986Y021204D01*
X016985Y021205D01*
X016988Y021226D01*
X016994Y021245D01*
X017003Y021264D01*
X017015Y021281D01*
X017029Y021295D01*
X017046Y021307D01*
X017065Y021316D01*
X017084Y021322D01*
X017105Y021325D01*
X017105Y021316D01*
X017086Y021313D01*
X017068Y021308D01*
X017051Y021300D01*
X017035Y021289D01*
X017021Y021275D01*
X017010Y021259D01*
X017002Y021242D01*
X016997Y021224D01*
X016994Y021205D01*
X017003Y021205D01*
X017006Y021225D01*
X017012Y021243D01*
X017022Y021260D01*
X017034Y021276D01*
X017050Y021288D01*
X017067Y021298D01*
X017085Y021304D01*
X017105Y021307D01*
X017105Y021298D01*
X017087Y021295D01*
X017070Y021290D01*
X017055Y021281D01*
X017041Y021269D01*
X017029Y021255D01*
X017020Y021240D01*
X017015Y021223D01*
X017012Y021205D01*
X017021Y021205D01*
X017024Y021223D01*
X017031Y021241D01*
X017041Y021256D01*
X017054Y021269D01*
X017069Y021279D01*
X017087Y021286D01*
X017105Y021289D01*
X017105Y021280D01*
X017089Y021277D01*
X017073Y021271D01*
X017060Y021262D01*
X017048Y021250D01*
X017039Y021237D01*
X017033Y021221D01*
X017030Y021205D01*
X017934Y021204D02*
X017884Y021204D01*
X017885Y021205D02*
X017882Y021220D01*
X017877Y021234D01*
X017868Y021247D01*
X017857Y021258D01*
X017844Y021267D01*
X017830Y021272D01*
X017815Y021275D01*
X017814Y021324D01*
X017815Y021325D01*
X017836Y021322D01*
X017855Y021316D01*
X017874Y021307D01*
X017891Y021295D01*
X017905Y021281D01*
X017917Y021264D01*
X017926Y021245D01*
X017932Y021226D01*
X017935Y021205D01*
X017926Y021205D01*
X017923Y021224D01*
X017918Y021242D01*
X017910Y021259D01*
X017899Y021275D01*
X017885Y021289D01*
X017869Y021300D01*
X017852Y021308D01*
X017834Y021313D01*
X017815Y021316D01*
X017815Y021307D01*
X017835Y021304D01*
X017853Y021298D01*
X017870Y021288D01*
X017886Y021276D01*
X017898Y021260D01*
X017908Y021243D01*
X017914Y021225D01*
X017917Y021205D01*
X017908Y021205D01*
X017905Y021223D01*
X017900Y021240D01*
X017891Y021255D01*
X017879Y021269D01*
X017865Y021281D01*
X017850Y021290D01*
X017833Y021295D01*
X017815Y021298D01*
X017815Y021289D01*
X017833Y021286D01*
X017851Y021279D01*
X017866Y021269D01*
X017879Y021256D01*
X017889Y021241D01*
X017896Y021223D01*
X017899Y021205D01*
X017890Y021205D01*
X017887Y021221D01*
X017881Y021237D01*
X017872Y021250D01*
X017860Y021262D01*
X017847Y021271D01*
X017831Y021277D01*
X017815Y021280D01*
X017814Y018776D02*
X017814Y018826D01*
X017815Y018825D02*
X017830Y018828D01*
X017844Y018833D01*
X017857Y018842D01*
X017868Y018853D01*
X017877Y018866D01*
X017882Y018880D01*
X017885Y018895D01*
X017934Y018896D01*
X017935Y018895D01*
X017932Y018874D01*
X017926Y018855D01*
X017917Y018836D01*
X017905Y018819D01*
X017891Y018805D01*
X017874Y018793D01*
X017855Y018784D01*
X017836Y018778D01*
X017815Y018775D01*
X017815Y018784D01*
X017834Y018787D01*
X017852Y018792D01*
X017869Y018800D01*
X017885Y018811D01*
X017899Y018825D01*
X017910Y018841D01*
X017918Y018858D01*
X017923Y018876D01*
X017926Y018895D01*
X017917Y018895D01*
X017914Y018875D01*
X017908Y018857D01*
X017898Y018840D01*
X017886Y018824D01*
X017870Y018812D01*
X017853Y018802D01*
X017835Y018796D01*
X017815Y018793D01*
X017815Y018802D01*
X017833Y018805D01*
X017850Y018810D01*
X017865Y018819D01*
X017879Y018831D01*
X017891Y018845D01*
X017900Y018860D01*
X017905Y018877D01*
X017908Y018895D01*
X017899Y018895D01*
X017896Y018877D01*
X017889Y018859D01*
X017879Y018844D01*
X017866Y018831D01*
X017851Y018821D01*
X017833Y018814D01*
X017815Y018811D01*
X017815Y018820D01*
X017831Y018823D01*
X017847Y018829D01*
X017860Y018838D01*
X017872Y018850D01*
X017881Y018863D01*
X017887Y018879D01*
X017890Y018895D01*
X016986Y018896D02*
X017036Y018896D01*
X017035Y018895D02*
X017038Y018880D01*
X017043Y018866D01*
X017052Y018853D01*
X017063Y018842D01*
X017076Y018833D01*
X017090Y018828D01*
X017105Y018825D01*
X017106Y018776D01*
X017105Y018775D01*
X017084Y018778D01*
X017065Y018784D01*
X017046Y018793D01*
X017029Y018805D01*
X017015Y018819D01*
X017003Y018836D01*
X016994Y018855D01*
X016988Y018874D01*
X016985Y018895D01*
X016994Y018895D01*
X016997Y018876D01*
X017002Y018858D01*
X017010Y018841D01*
X017021Y018825D01*
X017035Y018811D01*
X017051Y018800D01*
X017068Y018792D01*
X017086Y018787D01*
X017105Y018784D01*
X017105Y018793D01*
X017085Y018796D01*
X017067Y018802D01*
X017050Y018812D01*
X017034Y018824D01*
X017022Y018840D01*
X017012Y018857D01*
X017006Y018875D01*
X017003Y018895D01*
X017012Y018895D01*
X017015Y018877D01*
X017020Y018860D01*
X017029Y018845D01*
X017041Y018831D01*
X017055Y018819D01*
X017070Y018810D01*
X017087Y018805D01*
X017105Y018802D01*
X017105Y018811D01*
X017087Y018814D01*
X017069Y018821D01*
X017054Y018831D01*
X017041Y018844D01*
X017031Y018859D01*
X017024Y018877D01*
X017021Y018895D01*
X017030Y018895D01*
X017033Y018879D01*
X017039Y018863D01*
X017048Y018850D01*
X017060Y018838D01*
X017073Y018829D01*
X017089Y018823D01*
X017105Y018820D01*
X014134Y012804D02*
X014084Y012804D01*
X014085Y012805D02*
X014082Y012820D01*
X014077Y012834D01*
X014068Y012847D01*
X014057Y012858D01*
X014044Y012867D01*
X014030Y012872D01*
X014015Y012875D01*
X014014Y012924D01*
X014015Y012925D01*
X014036Y012922D01*
X014055Y012916D01*
X014074Y012907D01*
X014091Y012895D01*
X014105Y012881D01*
X014117Y012864D01*
X014126Y012845D01*
X014132Y012826D01*
X014135Y012805D01*
X014126Y012805D01*
X014123Y012824D01*
X014118Y012842D01*
X014110Y012859D01*
X014099Y012875D01*
X014085Y012889D01*
X014069Y012900D01*
X014052Y012908D01*
X014034Y012913D01*
X014015Y012916D01*
X014015Y012907D01*
X014035Y012904D01*
X014053Y012898D01*
X014070Y012888D01*
X014086Y012876D01*
X014098Y012860D01*
X014108Y012843D01*
X014114Y012825D01*
X014117Y012805D01*
X014108Y012805D01*
X014105Y012823D01*
X014100Y012840D01*
X014091Y012855D01*
X014079Y012869D01*
X014065Y012881D01*
X014050Y012890D01*
X014033Y012895D01*
X014015Y012898D01*
X014015Y012889D01*
X014033Y012886D01*
X014051Y012879D01*
X014066Y012869D01*
X014079Y012856D01*
X014089Y012841D01*
X014096Y012823D01*
X014099Y012805D01*
X014090Y012805D01*
X014087Y012821D01*
X014081Y012837D01*
X014072Y012850D01*
X014060Y012862D01*
X014047Y012871D01*
X014031Y012877D01*
X014015Y012880D01*
X013306Y012924D02*
X013306Y012874D01*
X013305Y012875D02*
X013290Y012872D01*
X013276Y012867D01*
X013263Y012858D01*
X013252Y012847D01*
X013243Y012834D01*
X013238Y012820D01*
X013235Y012805D01*
X013186Y012804D01*
X013185Y012805D01*
X013188Y012826D01*
X013194Y012845D01*
X013203Y012864D01*
X013215Y012881D01*
X013229Y012895D01*
X013246Y012907D01*
X013265Y012916D01*
X013284Y012922D01*
X013305Y012925D01*
X013305Y012916D01*
X013286Y012913D01*
X013268Y012908D01*
X013251Y012900D01*
X013235Y012889D01*
X013221Y012875D01*
X013210Y012859D01*
X013202Y012842D01*
X013197Y012824D01*
X013194Y012805D01*
X013203Y012805D01*
X013206Y012825D01*
X013212Y012843D01*
X013222Y012860D01*
X013234Y012876D01*
X013250Y012888D01*
X013267Y012898D01*
X013285Y012904D01*
X013305Y012907D01*
X013305Y012898D01*
X013287Y012895D01*
X013270Y012890D01*
X013255Y012881D01*
X013241Y012869D01*
X013229Y012855D01*
X013220Y012840D01*
X013215Y012823D01*
X013212Y012805D01*
X013221Y012805D01*
X013224Y012823D01*
X013231Y012841D01*
X013241Y012856D01*
X013254Y012869D01*
X013269Y012879D01*
X013287Y012886D01*
X013305Y012889D01*
X013305Y012880D01*
X013289Y012877D01*
X013273Y012871D01*
X013260Y012862D01*
X013248Y012850D01*
X013239Y012837D01*
X013233Y012821D01*
X013230Y012805D01*
X013186Y010496D02*
X013236Y010496D01*
X013235Y010495D02*
X013238Y010480D01*
X013243Y010466D01*
X013252Y010453D01*
X013263Y010442D01*
X013276Y010433D01*
X013290Y010428D01*
X013305Y010425D01*
X013306Y010376D01*
X013305Y010375D01*
X013284Y010378D01*
X013265Y010384D01*
X013246Y010393D01*
X013229Y010405D01*
X013215Y010419D01*
X013203Y010436D01*
X013194Y010455D01*
X013188Y010474D01*
X013185Y010495D01*
X013194Y010495D01*
X013197Y010476D01*
X013202Y010458D01*
X013210Y010441D01*
X013221Y010425D01*
X013235Y010411D01*
X013251Y010400D01*
X013268Y010392D01*
X013286Y010387D01*
X013305Y010384D01*
X013305Y010393D01*
X013285Y010396D01*
X013267Y010402D01*
X013250Y010412D01*
X013234Y010424D01*
X013222Y010440D01*
X013212Y010457D01*
X013206Y010475D01*
X013203Y010495D01*
X013212Y010495D01*
X013215Y010477D01*
X013220Y010460D01*
X013229Y010445D01*
X013241Y010431D01*
X013255Y010419D01*
X013270Y010410D01*
X013287Y010405D01*
X013305Y010402D01*
X013305Y010411D01*
X013287Y010414D01*
X013269Y010421D01*
X013254Y010431D01*
X013241Y010444D01*
X013231Y010459D01*
X013224Y010477D01*
X013221Y010495D01*
X013230Y010495D01*
X013233Y010479D01*
X013239Y010463D01*
X013248Y010450D01*
X013260Y010438D01*
X013273Y010429D01*
X013289Y010423D01*
X013305Y010420D01*
X014014Y010376D02*
X014014Y010426D01*
X014015Y010425D02*
X014030Y010428D01*
X014044Y010433D01*
X014057Y010442D01*
X014068Y010453D01*
X014077Y010466D01*
X014082Y010480D01*
X014085Y010495D01*
X014134Y010496D01*
X014135Y010495D01*
X014132Y010474D01*
X014126Y010455D01*
X014117Y010436D01*
X014105Y010419D01*
X014091Y010405D01*
X014074Y010393D01*
X014055Y010384D01*
X014036Y010378D01*
X014015Y010375D01*
X014015Y010384D01*
X014034Y010387D01*
X014052Y010392D01*
X014069Y010400D01*
X014085Y010411D01*
X014099Y010425D01*
X014110Y010441D01*
X014118Y010458D01*
X014123Y010476D01*
X014126Y010495D01*
X014117Y010495D01*
X014114Y010475D01*
X014108Y010457D01*
X014098Y010440D01*
X014086Y010424D01*
X014070Y010412D01*
X014053Y010402D01*
X014035Y010396D01*
X014015Y010393D01*
X014015Y010402D01*
X014033Y010405D01*
X014050Y010410D01*
X014065Y010419D01*
X014079Y010431D01*
X014091Y010445D01*
X014100Y010460D01*
X014105Y010477D01*
X014108Y010495D01*
X014099Y010495D01*
X014096Y010477D01*
X014089Y010459D01*
X014079Y010444D01*
X014066Y010431D01*
X014051Y010421D01*
X014033Y010414D01*
X014015Y010411D01*
X014015Y010420D01*
X014031Y010423D01*
X014047Y010429D01*
X014060Y010438D01*
X014072Y010450D01*
X014081Y010463D01*
X014087Y010479D01*
X014090Y010495D01*
X019539Y007675D02*
X019554Y007627D01*
X019553Y007628D02*
X019495Y007608D01*
X019438Y007584D01*
X019382Y007557D01*
X019328Y007526D01*
X019277Y007493D01*
X019227Y007456D01*
X019179Y007416D01*
X019134Y007374D01*
X019092Y007329D01*
X019053Y007281D01*
X019016Y007232D01*
X018983Y007180D01*
X018952Y007126D01*
X018925Y007070D01*
X018902Y007013D01*
X018881Y006955D01*
X018865Y006895D01*
X018852Y006835D01*
X018843Y006774D01*
X018837Y006712D01*
X018835Y006651D01*
X018837Y006589D01*
X018842Y006527D01*
X018852Y006466D01*
X018865Y006406D01*
X018881Y006346D01*
X018901Y006288D01*
X018925Y006231D01*
X018952Y006175D01*
X018982Y006121D01*
X019015Y006069D01*
X019052Y006019D01*
X019013Y005989D01*
X019013Y005988D01*
X018974Y006041D01*
X018939Y006095D01*
X018907Y006152D01*
X018879Y006210D01*
X018854Y006270D01*
X018833Y006331D01*
X018816Y006394D01*
X018802Y006457D01*
X018793Y006521D01*
X018787Y006586D01*
X018785Y006651D01*
X018787Y006715D01*
X018793Y006780D01*
X018803Y006844D01*
X018816Y006907D01*
X018834Y006970D01*
X018855Y007031D01*
X018880Y007091D01*
X018908Y007149D01*
X018940Y007206D01*
X018975Y007260D01*
X019013Y007312D01*
X019055Y007362D01*
X019099Y007409D01*
X019146Y007454D01*
X019196Y007495D01*
X019248Y007534D01*
X019303Y007569D01*
X019359Y007601D01*
X019417Y007630D01*
X019477Y007654D01*
X019538Y007676D01*
X019541Y007667D01*
X019480Y007646D01*
X019421Y007621D01*
X019363Y007593D01*
X019307Y007561D01*
X019253Y007527D01*
X019202Y007488D01*
X019152Y007447D01*
X019105Y007403D01*
X019061Y007356D01*
X019020Y007307D01*
X018982Y007255D01*
X018947Y007201D01*
X018916Y007145D01*
X018888Y007087D01*
X018863Y007028D01*
X018842Y006967D01*
X018825Y006905D01*
X018811Y006842D01*
X018802Y006779D01*
X018796Y006715D01*
X018794Y006651D01*
X018796Y006586D01*
X018802Y006522D01*
X018811Y006459D01*
X018825Y006396D01*
X018842Y006334D01*
X018863Y006273D01*
X018887Y006214D01*
X018915Y006156D01*
X018947Y006100D01*
X018982Y006046D01*
X019020Y005994D01*
X019027Y006000D01*
X018989Y006051D01*
X018955Y006105D01*
X018923Y006160D01*
X018896Y006217D01*
X018871Y006276D01*
X018851Y006337D01*
X018833Y006398D01*
X018820Y006460D01*
X018811Y006523D01*
X018805Y006587D01*
X018803Y006651D01*
X018805Y006714D01*
X018811Y006778D01*
X018820Y006841D01*
X018834Y006903D01*
X018851Y006964D01*
X018872Y007025D01*
X018896Y007084D01*
X018924Y007141D01*
X018955Y007196D01*
X018990Y007250D01*
X019027Y007301D01*
X019068Y007350D01*
X019112Y007397D01*
X019158Y007440D01*
X019207Y007481D01*
X019258Y007519D01*
X019312Y007554D01*
X019367Y007585D01*
X019425Y007613D01*
X019483Y007638D01*
X019544Y007659D01*
X019546Y007650D01*
X019487Y007629D01*
X019428Y007605D01*
X019371Y007577D01*
X019316Y007546D01*
X019263Y007512D01*
X019213Y007474D01*
X019164Y007434D01*
X019118Y007390D01*
X019075Y007344D01*
X019035Y007296D01*
X018997Y007245D01*
X018963Y007192D01*
X018932Y007137D01*
X018904Y007080D01*
X018880Y007021D01*
X018859Y006962D01*
X018842Y006901D01*
X018829Y006839D01*
X018820Y006777D01*
X018814Y006714D01*
X018812Y006651D01*
X018814Y006587D01*
X018820Y006524D01*
X018829Y006462D01*
X018842Y006400D01*
X018859Y006339D01*
X018880Y006280D01*
X018904Y006221D01*
X018931Y006164D01*
X018962Y006109D01*
X018996Y006056D01*
X019034Y006005D01*
X019041Y006011D01*
X019004Y006061D01*
X018970Y006114D01*
X018939Y006169D01*
X018912Y006225D01*
X018888Y006283D01*
X018868Y006342D01*
X018851Y006402D01*
X018838Y006464D01*
X018828Y006526D01*
X018823Y006588D01*
X018821Y006651D01*
X018823Y006713D01*
X018829Y006776D01*
X018838Y006837D01*
X018851Y006899D01*
X018868Y006959D01*
X018888Y007018D01*
X018912Y007076D01*
X018940Y007132D01*
X018971Y007187D01*
X019005Y007240D01*
X019042Y007290D01*
X019082Y007338D01*
X019125Y007384D01*
X019170Y007427D01*
X019218Y007467D01*
X019269Y007504D01*
X019321Y007538D01*
X019376Y007569D01*
X019432Y007597D01*
X019490Y007621D01*
X019549Y007641D01*
X019552Y007633D01*
X019493Y007612D01*
X019436Y007588D01*
X019380Y007561D01*
X019326Y007531D01*
X019274Y007497D01*
X019224Y007460D01*
X019176Y007420D01*
X019131Y007378D01*
X019088Y007332D01*
X019049Y007285D01*
X019012Y007235D01*
X018978Y007182D01*
X018948Y007128D01*
X018921Y007072D01*
X018897Y007015D01*
X018877Y006956D01*
X018860Y006897D01*
X018847Y006836D01*
X018838Y006774D01*
X018832Y006713D01*
X018830Y006651D01*
X018832Y006589D01*
X018837Y006527D01*
X018847Y006465D01*
X018860Y006405D01*
X018876Y006345D01*
X018896Y006286D01*
X018920Y006229D01*
X018947Y006173D01*
X018978Y006119D01*
X019011Y006066D01*
X019048Y006016D01*
X020707Y005989D02*
X020668Y006020D01*
X020668Y006019D02*
X020705Y006069D01*
X020738Y006121D01*
X020768Y006175D01*
X020795Y006231D01*
X020819Y006288D01*
X020839Y006346D01*
X020855Y006406D01*
X020868Y006466D01*
X020878Y006527D01*
X020883Y006589D01*
X020885Y006651D01*
X020883Y006712D01*
X020877Y006774D01*
X020868Y006835D01*
X020855Y006895D01*
X020839Y006955D01*
X020818Y007013D01*
X020795Y007070D01*
X020768Y007126D01*
X020737Y007180D01*
X020704Y007232D01*
X020667Y007281D01*
X020628Y007329D01*
X020586Y007374D01*
X020541Y007416D01*
X020493Y007456D01*
X020443Y007493D01*
X020392Y007526D01*
X020338Y007557D01*
X020282Y007584D01*
X020225Y007608D01*
X020167Y007628D01*
X020181Y007675D01*
X020182Y007676D01*
X020243Y007654D01*
X020303Y007630D01*
X020361Y007601D01*
X020417Y007569D01*
X020472Y007534D01*
X020524Y007495D01*
X020574Y007454D01*
X020621Y007409D01*
X020665Y007362D01*
X020707Y007312D01*
X020745Y007260D01*
X020780Y007206D01*
X020812Y007149D01*
X020840Y007091D01*
X020865Y007031D01*
X020886Y006970D01*
X020904Y006907D01*
X020917Y006844D01*
X020927Y006780D01*
X020933Y006715D01*
X020935Y006651D01*
X020933Y006586D01*
X020927Y006521D01*
X020918Y006457D01*
X020904Y006394D01*
X020887Y006331D01*
X020866Y006270D01*
X020841Y006210D01*
X020813Y006152D01*
X020781Y006095D01*
X020746Y006041D01*
X020707Y005988D01*
X020700Y005994D01*
X020738Y006046D01*
X020773Y006100D01*
X020805Y006156D01*
X020833Y006214D01*
X020857Y006273D01*
X020878Y006334D01*
X020895Y006396D01*
X020909Y006459D01*
X020918Y006522D01*
X020924Y006586D01*
X020926Y006651D01*
X020924Y006715D01*
X020918Y006779D01*
X020909Y006842D01*
X020895Y006905D01*
X020878Y006967D01*
X020857Y007028D01*
X020832Y007087D01*
X020804Y007145D01*
X020773Y007201D01*
X020738Y007255D01*
X020700Y007307D01*
X020659Y007356D01*
X020615Y007403D01*
X020568Y007447D01*
X020518Y007488D01*
X020467Y007526D01*
X020413Y007561D01*
X020357Y007593D01*
X020299Y007621D01*
X020240Y007646D01*
X020179Y007667D01*
X020176Y007659D01*
X020237Y007638D01*
X020295Y007613D01*
X020353Y007585D01*
X020408Y007554D01*
X020462Y007519D01*
X020513Y007481D01*
X020562Y007440D01*
X020608Y007397D01*
X020652Y007350D01*
X020693Y007301D01*
X020730Y007250D01*
X020765Y007196D01*
X020796Y007141D01*
X020824Y007084D01*
X020848Y007025D01*
X020869Y006964D01*
X020886Y006903D01*
X020900Y006841D01*
X020909Y006778D01*
X020915Y006714D01*
X020917Y006651D01*
X020915Y006587D01*
X020909Y006523D01*
X020900Y006460D01*
X020887Y006398D01*
X020869Y006337D01*
X020849Y006276D01*
X020824Y006217D01*
X020797Y006160D01*
X020765Y006105D01*
X020731Y006051D01*
X020693Y006000D01*
X020686Y006005D01*
X020723Y006056D01*
X020758Y006109D01*
X020789Y006164D01*
X020816Y006221D01*
X020840Y006280D01*
X020861Y006339D01*
X020878Y006400D01*
X020891Y006462D01*
X020900Y006524D01*
X020906Y006587D01*
X020908Y006651D01*
X020906Y006714D01*
X020900Y006777D01*
X020891Y006839D01*
X020878Y006901D01*
X020861Y006962D01*
X020840Y007021D01*
X020816Y007080D01*
X020788Y007137D01*
X020757Y007192D01*
X020723Y007245D01*
X020685Y007296D01*
X020645Y007344D01*
X020602Y007390D01*
X020556Y007434D01*
X020507Y007474D01*
X020457Y007512D01*
X020404Y007546D01*
X020349Y007577D01*
X020292Y007605D01*
X020233Y007629D01*
X020174Y007650D01*
X020171Y007641D01*
X020230Y007621D01*
X020288Y007597D01*
X020344Y007569D01*
X020399Y007538D01*
X020451Y007504D01*
X020502Y007467D01*
X020550Y007427D01*
X020595Y007384D01*
X020638Y007338D01*
X020678Y007290D01*
X020715Y007240D01*
X020749Y007187D01*
X020780Y007132D01*
X020808Y007076D01*
X020832Y007018D01*
X020852Y006959D01*
X020869Y006899D01*
X020882Y006837D01*
X020891Y006776D01*
X020897Y006713D01*
X020899Y006651D01*
X020897Y006588D01*
X020892Y006526D01*
X020882Y006464D01*
X020869Y006402D01*
X020852Y006342D01*
X020832Y006283D01*
X020808Y006225D01*
X020781Y006169D01*
X020750Y006114D01*
X020716Y006061D01*
X020679Y006011D01*
X020672Y006016D01*
X020709Y006066D01*
X020742Y006119D01*
X020773Y006173D01*
X020800Y006229D01*
X020824Y006286D01*
X020844Y006345D01*
X020860Y006405D01*
X020873Y006465D01*
X020883Y006527D01*
X020888Y006588D01*
X020890Y006651D01*
X020888Y006713D01*
X020882Y006774D01*
X020873Y006836D01*
X020860Y006897D01*
X020843Y006956D01*
X020823Y007015D01*
X020799Y007072D01*
X020772Y007128D01*
X020742Y007182D01*
X020708Y007235D01*
X020671Y007285D01*
X020632Y007332D01*
X020589Y007378D01*
X020544Y007420D01*
X020496Y007460D01*
X020446Y007497D01*
X020394Y007531D01*
X020340Y007561D01*
X020284Y007588D01*
X020227Y007612D01*
X020168Y007633D01*
X032386Y014296D02*
X032436Y014296D01*
X032435Y014295D02*
X032438Y014280D01*
X032443Y014266D01*
X032452Y014253D01*
X032463Y014242D01*
X032476Y014233D01*
X032490Y014228D01*
X032505Y014225D01*
X032506Y014176D01*
X032505Y014175D01*
X032484Y014178D01*
X032465Y014184D01*
X032446Y014193D01*
X032429Y014205D01*
X032415Y014219D01*
X032403Y014236D01*
X032394Y014255D01*
X032388Y014274D01*
X032385Y014295D01*
X032394Y014295D01*
X032397Y014276D01*
X032402Y014258D01*
X032410Y014241D01*
X032421Y014225D01*
X032435Y014211D01*
X032451Y014200D01*
X032468Y014192D01*
X032486Y014187D01*
X032505Y014184D01*
X032505Y014193D01*
X032485Y014196D01*
X032467Y014202D01*
X032450Y014212D01*
X032434Y014224D01*
X032422Y014240D01*
X032412Y014257D01*
X032406Y014275D01*
X032403Y014295D01*
X032412Y014295D01*
X032415Y014277D01*
X032420Y014260D01*
X032429Y014245D01*
X032441Y014231D01*
X032455Y014219D01*
X032470Y014210D01*
X032487Y014205D01*
X032505Y014202D01*
X032505Y014211D01*
X032487Y014214D01*
X032469Y014221D01*
X032454Y014231D01*
X032441Y014244D01*
X032431Y014259D01*
X032424Y014277D01*
X032421Y014295D01*
X032430Y014295D01*
X032433Y014279D01*
X032439Y014263D01*
X032448Y014250D01*
X032460Y014238D01*
X032473Y014229D01*
X032489Y014223D01*
X032505Y014220D01*
X032506Y015124D02*
X032506Y015074D01*
X032505Y015075D02*
X032490Y015072D01*
X032476Y015067D01*
X032463Y015058D01*
X032452Y015047D01*
X032443Y015034D01*
X032438Y015020D01*
X032435Y015005D01*
X032386Y015004D01*
X032385Y015005D01*
X032388Y015026D01*
X032394Y015045D01*
X032403Y015064D01*
X032415Y015081D01*
X032429Y015095D01*
X032446Y015107D01*
X032465Y015116D01*
X032484Y015122D01*
X032505Y015125D01*
X032505Y015116D01*
X032486Y015113D01*
X032468Y015108D01*
X032451Y015100D01*
X032435Y015089D01*
X032421Y015075D01*
X032410Y015059D01*
X032402Y015042D01*
X032397Y015024D01*
X032394Y015005D01*
X032403Y015005D01*
X032406Y015025D01*
X032412Y015043D01*
X032422Y015060D01*
X032434Y015076D01*
X032450Y015088D01*
X032467Y015098D01*
X032485Y015104D01*
X032505Y015107D01*
X032505Y015098D01*
X032487Y015095D01*
X032470Y015090D01*
X032455Y015081D01*
X032441Y015069D01*
X032429Y015055D01*
X032420Y015040D01*
X032415Y015023D01*
X032412Y015005D01*
X032421Y015005D01*
X032424Y015023D01*
X032431Y015041D01*
X032441Y015056D01*
X032454Y015069D01*
X032469Y015079D01*
X032487Y015086D01*
X032505Y015089D01*
X032505Y015080D01*
X032489Y015077D01*
X032473Y015071D01*
X032460Y015062D01*
X032448Y015050D01*
X032439Y015037D01*
X032433Y015021D01*
X032430Y015005D01*
X033086Y016796D02*
X033136Y016796D01*
X033135Y016795D02*
X033138Y016780D01*
X033143Y016766D01*
X033152Y016753D01*
X033163Y016742D01*
X033176Y016733D01*
X033190Y016728D01*
X033205Y016725D01*
X033206Y016676D01*
X033205Y016675D01*
X033184Y016678D01*
X033165Y016684D01*
X033146Y016693D01*
X033129Y016705D01*
X033115Y016719D01*
X033103Y016736D01*
X033094Y016755D01*
X033088Y016774D01*
X033085Y016795D01*
X033094Y016795D01*
X033097Y016776D01*
X033102Y016758D01*
X033110Y016741D01*
X033121Y016725D01*
X033135Y016711D01*
X033151Y016700D01*
X033168Y016692D01*
X033186Y016687D01*
X033205Y016684D01*
X033205Y016693D01*
X033185Y016696D01*
X033167Y016702D01*
X033150Y016712D01*
X033134Y016724D01*
X033122Y016740D01*
X033112Y016757D01*
X033106Y016775D01*
X033103Y016795D01*
X033112Y016795D01*
X033115Y016777D01*
X033120Y016760D01*
X033129Y016745D01*
X033141Y016731D01*
X033155Y016719D01*
X033170Y016710D01*
X033187Y016705D01*
X033205Y016702D01*
X033205Y016711D01*
X033187Y016714D01*
X033169Y016721D01*
X033154Y016731D01*
X033141Y016744D01*
X033131Y016759D01*
X033124Y016777D01*
X033121Y016795D01*
X033130Y016795D01*
X033133Y016779D01*
X033139Y016763D01*
X033148Y016750D01*
X033160Y016738D01*
X033173Y016729D01*
X033189Y016723D01*
X033205Y016720D01*
X033206Y017624D02*
X033206Y017574D01*
X033205Y017575D02*
X033190Y017572D01*
X033176Y017567D01*
X033163Y017558D01*
X033152Y017547D01*
X033143Y017534D01*
X033138Y017520D01*
X033135Y017505D01*
X033086Y017504D01*
X033085Y017505D01*
X033088Y017526D01*
X033094Y017545D01*
X033103Y017564D01*
X033115Y017581D01*
X033129Y017595D01*
X033146Y017607D01*
X033165Y017616D01*
X033184Y017622D01*
X033205Y017625D01*
X033205Y017616D01*
X033186Y017613D01*
X033168Y017608D01*
X033151Y017600D01*
X033135Y017589D01*
X033121Y017575D01*
X033110Y017559D01*
X033102Y017542D01*
X033097Y017524D01*
X033094Y017505D01*
X033103Y017505D01*
X033106Y017525D01*
X033112Y017543D01*
X033122Y017560D01*
X033134Y017576D01*
X033150Y017588D01*
X033167Y017598D01*
X033185Y017604D01*
X033205Y017607D01*
X033205Y017598D01*
X033187Y017595D01*
X033170Y017590D01*
X033155Y017581D01*
X033141Y017569D01*
X033129Y017555D01*
X033120Y017540D01*
X033115Y017523D01*
X033112Y017505D01*
X033121Y017505D01*
X033124Y017523D01*
X033131Y017541D01*
X033141Y017556D01*
X033154Y017569D01*
X033169Y017579D01*
X033187Y017586D01*
X033205Y017589D01*
X033205Y017580D01*
X033189Y017577D01*
X033173Y017571D01*
X033160Y017562D01*
X033148Y017550D01*
X033139Y017537D01*
X033133Y017521D01*
X033130Y017505D01*
X033086Y017796D02*
X033136Y017796D01*
X033135Y017795D02*
X033138Y017780D01*
X033143Y017766D01*
X033152Y017753D01*
X033163Y017742D01*
X033176Y017733D01*
X033190Y017728D01*
X033205Y017725D01*
X033206Y017676D01*
X033205Y017675D01*
X033184Y017678D01*
X033165Y017684D01*
X033146Y017693D01*
X033129Y017705D01*
X033115Y017719D01*
X033103Y017736D01*
X033094Y017755D01*
X033088Y017774D01*
X033085Y017795D01*
X033094Y017795D01*
X033097Y017776D01*
X033102Y017758D01*
X033110Y017741D01*
X033121Y017725D01*
X033135Y017711D01*
X033151Y017700D01*
X033168Y017692D01*
X033186Y017687D01*
X033205Y017684D01*
X033205Y017693D01*
X033185Y017696D01*
X033167Y017702D01*
X033150Y017712D01*
X033134Y017724D01*
X033122Y017740D01*
X033112Y017757D01*
X033106Y017775D01*
X033103Y017795D01*
X033112Y017795D01*
X033115Y017777D01*
X033120Y017760D01*
X033129Y017745D01*
X033141Y017731D01*
X033155Y017719D01*
X033170Y017710D01*
X033187Y017705D01*
X033205Y017702D01*
X033205Y017711D01*
X033187Y017714D01*
X033169Y017721D01*
X033154Y017731D01*
X033141Y017744D01*
X033131Y017759D01*
X033124Y017777D01*
X033121Y017795D01*
X033130Y017795D01*
X033133Y017779D01*
X033139Y017763D01*
X033148Y017750D01*
X033160Y017738D01*
X033173Y017729D01*
X033189Y017723D01*
X033205Y017720D01*
X033206Y018624D02*
X033206Y018574D01*
X033205Y018575D02*
X033190Y018572D01*
X033176Y018567D01*
X033163Y018558D01*
X033152Y018547D01*
X033143Y018534D01*
X033138Y018520D01*
X033135Y018505D01*
X033086Y018504D01*
X033085Y018505D01*
X033088Y018526D01*
X033094Y018545D01*
X033103Y018564D01*
X033115Y018581D01*
X033129Y018595D01*
X033146Y018607D01*
X033165Y018616D01*
X033184Y018622D01*
X033205Y018625D01*
X033205Y018616D01*
X033186Y018613D01*
X033168Y018608D01*
X033151Y018600D01*
X033135Y018589D01*
X033121Y018575D01*
X033110Y018559D01*
X033102Y018542D01*
X033097Y018524D01*
X033094Y018505D01*
X033103Y018505D01*
X033106Y018525D01*
X033112Y018543D01*
X033122Y018560D01*
X033134Y018576D01*
X033150Y018588D01*
X033167Y018598D01*
X033185Y018604D01*
X033205Y018607D01*
X033205Y018598D01*
X033187Y018595D01*
X033170Y018590D01*
X033155Y018581D01*
X033141Y018569D01*
X033129Y018555D01*
X033120Y018540D01*
X033115Y018523D01*
X033112Y018505D01*
X033121Y018505D01*
X033124Y018523D01*
X033131Y018541D01*
X033141Y018556D01*
X033154Y018569D01*
X033169Y018579D01*
X033187Y018586D01*
X033205Y018589D01*
X033205Y018580D01*
X033189Y018577D01*
X033173Y018571D01*
X033160Y018562D01*
X033148Y018550D01*
X033139Y018537D01*
X033133Y018521D01*
X033130Y018505D01*
X032886Y019496D02*
X032936Y019496D01*
X032935Y019495D02*
X032938Y019480D01*
X032943Y019466D01*
X032952Y019453D01*
X032963Y019442D01*
X032976Y019433D01*
X032990Y019428D01*
X033005Y019425D01*
X033006Y019376D01*
X033005Y019375D01*
X032984Y019378D01*
X032965Y019384D01*
X032946Y019393D01*
X032929Y019405D01*
X032915Y019419D01*
X032903Y019436D01*
X032894Y019455D01*
X032888Y019474D01*
X032885Y019495D01*
X032894Y019495D01*
X032897Y019476D01*
X032902Y019458D01*
X032910Y019441D01*
X032921Y019425D01*
X032935Y019411D01*
X032951Y019400D01*
X032968Y019392D01*
X032986Y019387D01*
X033005Y019384D01*
X033005Y019393D01*
X032985Y019396D01*
X032967Y019402D01*
X032950Y019412D01*
X032934Y019424D01*
X032922Y019440D01*
X032912Y019457D01*
X032906Y019475D01*
X032903Y019495D01*
X032912Y019495D01*
X032915Y019477D01*
X032920Y019460D01*
X032929Y019445D01*
X032941Y019431D01*
X032955Y019419D01*
X032970Y019410D01*
X032987Y019405D01*
X033005Y019402D01*
X033005Y019411D01*
X032987Y019414D01*
X032969Y019421D01*
X032954Y019431D01*
X032941Y019444D01*
X032931Y019459D01*
X032924Y019477D01*
X032921Y019495D01*
X032930Y019495D01*
X032933Y019479D01*
X032939Y019463D01*
X032948Y019450D01*
X032960Y019438D01*
X032973Y019429D01*
X032989Y019423D01*
X033005Y019420D01*
X032714Y019376D02*
X032714Y019426D01*
X032715Y019425D02*
X032730Y019428D01*
X032744Y019433D01*
X032757Y019442D01*
X032768Y019453D01*
X032777Y019466D01*
X032782Y019480D01*
X032785Y019495D01*
X032834Y019496D01*
X032835Y019495D01*
X032832Y019474D01*
X032826Y019455D01*
X032817Y019436D01*
X032805Y019419D01*
X032791Y019405D01*
X032774Y019393D01*
X032755Y019384D01*
X032736Y019378D01*
X032715Y019375D01*
X032715Y019384D01*
X032734Y019387D01*
X032752Y019392D01*
X032769Y019400D01*
X032785Y019411D01*
X032799Y019425D01*
X032810Y019441D01*
X032818Y019458D01*
X032823Y019476D01*
X032826Y019495D01*
X032817Y019495D01*
X032814Y019475D01*
X032808Y019457D01*
X032798Y019440D01*
X032786Y019424D01*
X032770Y019412D01*
X032753Y019402D01*
X032735Y019396D01*
X032715Y019393D01*
X032715Y019402D01*
X032733Y019405D01*
X032750Y019410D01*
X032765Y019419D01*
X032779Y019431D01*
X032791Y019445D01*
X032800Y019460D01*
X032805Y019477D01*
X032808Y019495D01*
X032799Y019495D01*
X032796Y019477D01*
X032789Y019459D01*
X032779Y019444D01*
X032766Y019431D01*
X032751Y019421D01*
X032733Y019414D01*
X032715Y019411D01*
X032715Y019420D01*
X032731Y019423D01*
X032747Y019429D01*
X032760Y019438D01*
X032772Y019450D01*
X032781Y019463D01*
X032787Y019479D01*
X032790Y019495D01*
X031886Y019496D02*
X031936Y019496D01*
X031935Y019495D02*
X031938Y019480D01*
X031943Y019466D01*
X031952Y019453D01*
X031963Y019442D01*
X031976Y019433D01*
X031990Y019428D01*
X032005Y019425D01*
X032006Y019376D01*
X032005Y019375D01*
X031984Y019378D01*
X031965Y019384D01*
X031946Y019393D01*
X031929Y019405D01*
X031915Y019419D01*
X031903Y019436D01*
X031894Y019455D01*
X031888Y019474D01*
X031885Y019495D01*
X031894Y019495D01*
X031897Y019476D01*
X031902Y019458D01*
X031910Y019441D01*
X031921Y019425D01*
X031935Y019411D01*
X031951Y019400D01*
X031968Y019392D01*
X031986Y019387D01*
X032005Y019384D01*
X032005Y019393D01*
X031985Y019396D01*
X031967Y019402D01*
X031950Y019412D01*
X031934Y019424D01*
X031922Y019440D01*
X031912Y019457D01*
X031906Y019475D01*
X031903Y019495D01*
X031912Y019495D01*
X031915Y019477D01*
X031920Y019460D01*
X031929Y019445D01*
X031941Y019431D01*
X031955Y019419D01*
X031970Y019410D01*
X031987Y019405D01*
X032005Y019402D01*
X032005Y019411D01*
X031987Y019414D01*
X031969Y019421D01*
X031954Y019431D01*
X031941Y019444D01*
X031931Y019459D01*
X031924Y019477D01*
X031921Y019495D01*
X031930Y019495D01*
X031933Y019479D01*
X031939Y019463D01*
X031948Y019450D01*
X031960Y019438D01*
X031973Y019429D01*
X031989Y019423D01*
X032005Y019420D01*
X033714Y019376D02*
X033714Y019426D01*
X033715Y019425D02*
X033730Y019428D01*
X033744Y019433D01*
X033757Y019442D01*
X033768Y019453D01*
X033777Y019466D01*
X033782Y019480D01*
X033785Y019495D01*
X033834Y019496D01*
X033835Y019495D01*
X033832Y019474D01*
X033826Y019455D01*
X033817Y019436D01*
X033805Y019419D01*
X033791Y019405D01*
X033774Y019393D01*
X033755Y019384D01*
X033736Y019378D01*
X033715Y019375D01*
X033715Y019384D01*
X033734Y019387D01*
X033752Y019392D01*
X033769Y019400D01*
X033785Y019411D01*
X033799Y019425D01*
X033810Y019441D01*
X033818Y019458D01*
X033823Y019476D01*
X033826Y019495D01*
X033817Y019495D01*
X033814Y019475D01*
X033808Y019457D01*
X033798Y019440D01*
X033786Y019424D01*
X033770Y019412D01*
X033753Y019402D01*
X033735Y019396D01*
X033715Y019393D01*
X033715Y019402D01*
X033733Y019405D01*
X033750Y019410D01*
X033765Y019419D01*
X033779Y019431D01*
X033791Y019445D01*
X033800Y019460D01*
X033805Y019477D01*
X033808Y019495D01*
X033799Y019495D01*
X033796Y019477D01*
X033789Y019459D01*
X033779Y019444D01*
X033766Y019431D01*
X033751Y019421D01*
X033733Y019414D01*
X033715Y019411D01*
X033715Y019420D01*
X033731Y019423D01*
X033747Y019429D01*
X033760Y019438D01*
X033772Y019450D01*
X033781Y019463D01*
X033787Y019479D01*
X033790Y019495D01*
X034313Y020611D02*
X034352Y020580D01*
X034352Y020581D02*
X034315Y020531D01*
X034282Y020479D01*
X034252Y020425D01*
X034225Y020369D01*
X034201Y020312D01*
X034181Y020254D01*
X034165Y020194D01*
X034152Y020134D01*
X034142Y020073D01*
X034137Y020011D01*
X034135Y019949D01*
X034137Y019888D01*
X034143Y019826D01*
X034152Y019765D01*
X034165Y019705D01*
X034181Y019645D01*
X034202Y019587D01*
X034225Y019530D01*
X034252Y019474D01*
X034283Y019420D01*
X034316Y019368D01*
X034353Y019319D01*
X034392Y019271D01*
X034434Y019226D01*
X034479Y019184D01*
X034527Y019144D01*
X034577Y019107D01*
X034628Y019074D01*
X034682Y019043D01*
X034738Y019016D01*
X034795Y018992D01*
X034853Y018972D01*
X034839Y018925D01*
X034838Y018924D01*
X034777Y018946D01*
X034717Y018970D01*
X034659Y018999D01*
X034603Y019031D01*
X034548Y019066D01*
X034496Y019105D01*
X034446Y019146D01*
X034399Y019191D01*
X034355Y019238D01*
X034313Y019288D01*
X034275Y019340D01*
X034240Y019394D01*
X034208Y019451D01*
X034180Y019509D01*
X034155Y019569D01*
X034134Y019630D01*
X034116Y019693D01*
X034103Y019756D01*
X034093Y019820D01*
X034087Y019885D01*
X034085Y019949D01*
X034087Y020014D01*
X034093Y020079D01*
X034102Y020143D01*
X034116Y020206D01*
X034133Y020269D01*
X034154Y020330D01*
X034179Y020390D01*
X034207Y020448D01*
X034239Y020505D01*
X034274Y020559D01*
X034313Y020612D01*
X034320Y020606D01*
X034282Y020554D01*
X034247Y020500D01*
X034215Y020444D01*
X034187Y020386D01*
X034163Y020327D01*
X034142Y020266D01*
X034125Y020204D01*
X034111Y020141D01*
X034102Y020078D01*
X034096Y020014D01*
X034094Y019949D01*
X034096Y019885D01*
X034102Y019821D01*
X034111Y019758D01*
X034125Y019695D01*
X034142Y019633D01*
X034163Y019572D01*
X034188Y019513D01*
X034216Y019455D01*
X034247Y019399D01*
X034282Y019345D01*
X034320Y019293D01*
X034361Y019244D01*
X034405Y019197D01*
X034452Y019153D01*
X034502Y019112D01*
X034553Y019074D01*
X034607Y019039D01*
X034663Y019007D01*
X034721Y018979D01*
X034780Y018954D01*
X034841Y018933D01*
X034844Y018941D01*
X034783Y018962D01*
X034725Y018987D01*
X034667Y019015D01*
X034612Y019046D01*
X034558Y019081D01*
X034507Y019119D01*
X034458Y019160D01*
X034412Y019203D01*
X034368Y019250D01*
X034327Y019299D01*
X034290Y019350D01*
X034255Y019404D01*
X034224Y019459D01*
X034196Y019516D01*
X034172Y019575D01*
X034151Y019636D01*
X034134Y019697D01*
X034120Y019759D01*
X034111Y019822D01*
X034105Y019886D01*
X034103Y019949D01*
X034105Y020013D01*
X034111Y020077D01*
X034120Y020140D01*
X034133Y020202D01*
X034151Y020263D01*
X034171Y020324D01*
X034196Y020383D01*
X034223Y020440D01*
X034255Y020495D01*
X034289Y020549D01*
X034327Y020600D01*
X034334Y020595D01*
X034297Y020544D01*
X034262Y020491D01*
X034231Y020436D01*
X034204Y020379D01*
X034180Y020320D01*
X034159Y020261D01*
X034142Y020200D01*
X034129Y020138D01*
X034120Y020076D01*
X034114Y020013D01*
X034112Y019949D01*
X034114Y019886D01*
X034120Y019823D01*
X034129Y019761D01*
X034142Y019699D01*
X034159Y019638D01*
X034180Y019579D01*
X034204Y019520D01*
X034232Y019463D01*
X034263Y019408D01*
X034297Y019355D01*
X034335Y019304D01*
X034375Y019256D01*
X034418Y019210D01*
X034464Y019166D01*
X034513Y019126D01*
X034563Y019088D01*
X034616Y019054D01*
X034671Y019023D01*
X034728Y018995D01*
X034787Y018971D01*
X034846Y018950D01*
X034849Y018959D01*
X034790Y018979D01*
X034732Y019003D01*
X034676Y019031D01*
X034621Y019062D01*
X034569Y019096D01*
X034518Y019133D01*
X034470Y019173D01*
X034425Y019216D01*
X034382Y019262D01*
X034342Y019310D01*
X034305Y019360D01*
X034271Y019413D01*
X034240Y019468D01*
X034212Y019524D01*
X034188Y019582D01*
X034168Y019641D01*
X034151Y019701D01*
X034138Y019763D01*
X034129Y019824D01*
X034123Y019887D01*
X034121Y019949D01*
X034123Y020012D01*
X034128Y020074D01*
X034138Y020136D01*
X034151Y020198D01*
X034168Y020258D01*
X034188Y020317D01*
X034212Y020375D01*
X034239Y020431D01*
X034270Y020486D01*
X034304Y020539D01*
X034341Y020589D01*
X034348Y020584D01*
X034311Y020534D01*
X034278Y020481D01*
X034247Y020427D01*
X034220Y020371D01*
X034196Y020314D01*
X034176Y020255D01*
X034160Y020195D01*
X034147Y020135D01*
X034137Y020073D01*
X034132Y020012D01*
X034130Y019949D01*
X034132Y019887D01*
X034138Y019826D01*
X034147Y019764D01*
X034160Y019703D01*
X034177Y019644D01*
X034197Y019585D01*
X034221Y019528D01*
X034248Y019472D01*
X034278Y019418D01*
X034312Y019365D01*
X034349Y019315D01*
X034388Y019268D01*
X034431Y019222D01*
X034476Y019180D01*
X034524Y019140D01*
X034574Y019103D01*
X034626Y019069D01*
X034680Y019039D01*
X034736Y019012D01*
X034793Y018988D01*
X034852Y018967D01*
X035634Y018504D02*
X035584Y018504D01*
X035585Y018505D02*
X035582Y018520D01*
X035577Y018534D01*
X035568Y018547D01*
X035557Y018558D01*
X035544Y018567D01*
X035530Y018572D01*
X035515Y018575D01*
X035514Y018624D01*
X035515Y018625D01*
X035536Y018622D01*
X035555Y018616D01*
X035574Y018607D01*
X035591Y018595D01*
X035605Y018581D01*
X035617Y018564D01*
X035626Y018545D01*
X035632Y018526D01*
X035635Y018505D01*
X035626Y018505D01*
X035623Y018524D01*
X035618Y018542D01*
X035610Y018559D01*
X035599Y018575D01*
X035585Y018589D01*
X035569Y018600D01*
X035552Y018608D01*
X035534Y018613D01*
X035515Y018616D01*
X035515Y018607D01*
X035535Y018604D01*
X035553Y018598D01*
X035570Y018588D01*
X035586Y018576D01*
X035598Y018560D01*
X035608Y018543D01*
X035614Y018525D01*
X035617Y018505D01*
X035608Y018505D01*
X035605Y018523D01*
X035600Y018540D01*
X035591Y018555D01*
X035579Y018569D01*
X035565Y018581D01*
X035550Y018590D01*
X035533Y018595D01*
X035515Y018598D01*
X035515Y018589D01*
X035533Y018586D01*
X035551Y018579D01*
X035566Y018569D01*
X035579Y018556D01*
X035589Y018541D01*
X035596Y018523D01*
X035599Y018505D01*
X035590Y018505D01*
X035587Y018521D01*
X035581Y018537D01*
X035572Y018550D01*
X035560Y018562D01*
X035547Y018571D01*
X035531Y018577D01*
X035515Y018580D01*
X035514Y017676D02*
X035514Y017726D01*
X035515Y017725D02*
X035530Y017728D01*
X035544Y017733D01*
X035557Y017742D01*
X035568Y017753D01*
X035577Y017766D01*
X035582Y017780D01*
X035585Y017795D01*
X035634Y017796D01*
X035635Y017795D01*
X035632Y017774D01*
X035626Y017755D01*
X035617Y017736D01*
X035605Y017719D01*
X035591Y017705D01*
X035574Y017693D01*
X035555Y017684D01*
X035536Y017678D01*
X035515Y017675D01*
X035515Y017684D01*
X035534Y017687D01*
X035552Y017692D01*
X035569Y017700D01*
X035585Y017711D01*
X035599Y017725D01*
X035610Y017741D01*
X035618Y017758D01*
X035623Y017776D01*
X035626Y017795D01*
X035617Y017795D01*
X035614Y017775D01*
X035608Y017757D01*
X035598Y017740D01*
X035586Y017724D01*
X035570Y017712D01*
X035553Y017702D01*
X035535Y017696D01*
X035515Y017693D01*
X035515Y017702D01*
X035533Y017705D01*
X035550Y017710D01*
X035565Y017719D01*
X035579Y017731D01*
X035591Y017745D01*
X035600Y017760D01*
X035605Y017777D01*
X035608Y017795D01*
X035599Y017795D01*
X035596Y017777D01*
X035589Y017759D01*
X035579Y017744D01*
X035566Y017731D01*
X035551Y017721D01*
X035533Y017714D01*
X035515Y017711D01*
X035515Y017720D01*
X035531Y017723D01*
X035547Y017729D01*
X035560Y017738D01*
X035572Y017750D01*
X035581Y017763D01*
X035587Y017779D01*
X035590Y017795D01*
X035634Y017504D02*
X035584Y017504D01*
X035585Y017505D02*
X035582Y017520D01*
X035577Y017534D01*
X035568Y017547D01*
X035557Y017558D01*
X035544Y017567D01*
X035530Y017572D01*
X035515Y017575D01*
X035514Y017624D01*
X035515Y017625D01*
X035536Y017622D01*
X035555Y017616D01*
X035574Y017607D01*
X035591Y017595D01*
X035605Y017581D01*
X035617Y017564D01*
X035626Y017545D01*
X035632Y017526D01*
X035635Y017505D01*
X035626Y017505D01*
X035623Y017524D01*
X035618Y017542D01*
X035610Y017559D01*
X035599Y017575D01*
X035585Y017589D01*
X035569Y017600D01*
X035552Y017608D01*
X035534Y017613D01*
X035515Y017616D01*
X035515Y017607D01*
X035535Y017604D01*
X035553Y017598D01*
X035570Y017588D01*
X035586Y017576D01*
X035598Y017560D01*
X035608Y017543D01*
X035614Y017525D01*
X035617Y017505D01*
X035608Y017505D01*
X035605Y017523D01*
X035600Y017540D01*
X035591Y017555D01*
X035579Y017569D01*
X035565Y017581D01*
X035550Y017590D01*
X035533Y017595D01*
X035515Y017598D01*
X035515Y017589D01*
X035533Y017586D01*
X035551Y017579D01*
X035566Y017569D01*
X035579Y017556D01*
X035589Y017541D01*
X035596Y017523D01*
X035599Y017505D01*
X035590Y017505D01*
X035587Y017521D01*
X035581Y017537D01*
X035572Y017550D01*
X035560Y017562D01*
X035547Y017571D01*
X035531Y017577D01*
X035515Y017580D01*
X035514Y016676D02*
X035514Y016726D01*
X035515Y016725D02*
X035530Y016728D01*
X035544Y016733D01*
X035557Y016742D01*
X035568Y016753D01*
X035577Y016766D01*
X035582Y016780D01*
X035585Y016795D01*
X035634Y016796D01*
X035635Y016795D01*
X035632Y016774D01*
X035626Y016755D01*
X035617Y016736D01*
X035605Y016719D01*
X035591Y016705D01*
X035574Y016693D01*
X035555Y016684D01*
X035536Y016678D01*
X035515Y016675D01*
X035515Y016684D01*
X035534Y016687D01*
X035552Y016692D01*
X035569Y016700D01*
X035585Y016711D01*
X035599Y016725D01*
X035610Y016741D01*
X035618Y016758D01*
X035623Y016776D01*
X035626Y016795D01*
X035617Y016795D01*
X035614Y016775D01*
X035608Y016757D01*
X035598Y016740D01*
X035586Y016724D01*
X035570Y016712D01*
X035553Y016702D01*
X035535Y016696D01*
X035515Y016693D01*
X035515Y016702D01*
X035533Y016705D01*
X035550Y016710D01*
X035565Y016719D01*
X035579Y016731D01*
X035591Y016745D01*
X035600Y016760D01*
X035605Y016777D01*
X035608Y016795D01*
X035599Y016795D01*
X035596Y016777D01*
X035589Y016759D01*
X035579Y016744D01*
X035566Y016731D01*
X035551Y016721D01*
X035533Y016714D01*
X035515Y016711D01*
X035515Y016720D01*
X035531Y016723D01*
X035547Y016729D01*
X035560Y016738D01*
X035572Y016750D01*
X035581Y016763D01*
X035587Y016779D01*
X035590Y016795D01*
X034934Y015004D02*
X034884Y015004D01*
X034885Y015005D02*
X034882Y015020D01*
X034877Y015034D01*
X034868Y015047D01*
X034857Y015058D01*
X034844Y015067D01*
X034830Y015072D01*
X034815Y015075D01*
X034814Y015124D01*
X034815Y015125D01*
X034836Y015122D01*
X034855Y015116D01*
X034874Y015107D01*
X034891Y015095D01*
X034905Y015081D01*
X034917Y015064D01*
X034926Y015045D01*
X034932Y015026D01*
X034935Y015005D01*
X034926Y015005D01*
X034923Y015024D01*
X034918Y015042D01*
X034910Y015059D01*
X034899Y015075D01*
X034885Y015089D01*
X034869Y015100D01*
X034852Y015108D01*
X034834Y015113D01*
X034815Y015116D01*
X034815Y015107D01*
X034835Y015104D01*
X034853Y015098D01*
X034870Y015088D01*
X034886Y015076D01*
X034898Y015060D01*
X034908Y015043D01*
X034914Y015025D01*
X034917Y015005D01*
X034908Y015005D01*
X034905Y015023D01*
X034900Y015040D01*
X034891Y015055D01*
X034879Y015069D01*
X034865Y015081D01*
X034850Y015090D01*
X034833Y015095D01*
X034815Y015098D01*
X034815Y015089D01*
X034833Y015086D01*
X034851Y015079D01*
X034866Y015069D01*
X034879Y015056D01*
X034889Y015041D01*
X034896Y015023D01*
X034899Y015005D01*
X034890Y015005D01*
X034887Y015021D01*
X034881Y015037D01*
X034872Y015050D01*
X034860Y015062D01*
X034847Y015071D01*
X034831Y015077D01*
X034815Y015080D01*
X034814Y014176D02*
X034814Y014226D01*
X034815Y014225D02*
X034830Y014228D01*
X034844Y014233D01*
X034857Y014242D01*
X034868Y014253D01*
X034877Y014266D01*
X034882Y014280D01*
X034885Y014295D01*
X034934Y014296D01*
X034935Y014295D01*
X034932Y014274D01*
X034926Y014255D01*
X034917Y014236D01*
X034905Y014219D01*
X034891Y014205D01*
X034874Y014193D01*
X034855Y014184D01*
X034836Y014178D01*
X034815Y014175D01*
X034815Y014184D01*
X034834Y014187D01*
X034852Y014192D01*
X034869Y014200D01*
X034885Y014211D01*
X034899Y014225D01*
X034910Y014241D01*
X034918Y014258D01*
X034923Y014276D01*
X034926Y014295D01*
X034917Y014295D01*
X034914Y014275D01*
X034908Y014257D01*
X034898Y014240D01*
X034886Y014224D01*
X034870Y014212D01*
X034853Y014202D01*
X034835Y014196D01*
X034815Y014193D01*
X034815Y014202D01*
X034833Y014205D01*
X034850Y014210D01*
X034865Y014219D01*
X034879Y014231D01*
X034891Y014245D01*
X034900Y014260D01*
X034905Y014277D01*
X034908Y014295D01*
X034899Y014295D01*
X034896Y014277D01*
X034889Y014259D01*
X034879Y014244D01*
X034866Y014231D01*
X034851Y014221D01*
X034833Y014214D01*
X034815Y014211D01*
X034815Y014220D01*
X034831Y014223D01*
X034847Y014229D01*
X034860Y014238D01*
X034872Y014250D01*
X034881Y014263D01*
X034887Y014279D01*
X034890Y014295D01*
X035481Y018925D02*
X035466Y018973D01*
X035467Y018972D02*
X035525Y018992D01*
X035582Y019016D01*
X035638Y019043D01*
X035692Y019074D01*
X035743Y019107D01*
X035793Y019144D01*
X035841Y019184D01*
X035886Y019226D01*
X035928Y019271D01*
X035967Y019319D01*
X036004Y019368D01*
X036037Y019420D01*
X036068Y019474D01*
X036095Y019530D01*
X036118Y019587D01*
X036139Y019645D01*
X036155Y019705D01*
X036168Y019765D01*
X036177Y019826D01*
X036183Y019888D01*
X036185Y019949D01*
X036183Y020011D01*
X036178Y020073D01*
X036168Y020134D01*
X036155Y020194D01*
X036139Y020254D01*
X036119Y020312D01*
X036095Y020369D01*
X036068Y020425D01*
X036038Y020479D01*
X036005Y020531D01*
X035968Y020581D01*
X036007Y020611D01*
X036007Y020612D01*
X036046Y020559D01*
X036081Y020505D01*
X036113Y020448D01*
X036141Y020390D01*
X036166Y020330D01*
X036187Y020269D01*
X036204Y020206D01*
X036218Y020143D01*
X036227Y020079D01*
X036233Y020014D01*
X036235Y019949D01*
X036233Y019885D01*
X036227Y019820D01*
X036217Y019756D01*
X036204Y019693D01*
X036186Y019630D01*
X036165Y019569D01*
X036140Y019509D01*
X036112Y019451D01*
X036080Y019394D01*
X036045Y019340D01*
X036007Y019288D01*
X035965Y019238D01*
X035921Y019191D01*
X035874Y019146D01*
X035824Y019105D01*
X035772Y019066D01*
X035717Y019031D01*
X035661Y018999D01*
X035603Y018970D01*
X035543Y018946D01*
X035482Y018924D01*
X035479Y018933D01*
X035540Y018954D01*
X035599Y018979D01*
X035657Y019007D01*
X035713Y019039D01*
X035767Y019073D01*
X035818Y019112D01*
X035868Y019153D01*
X035915Y019197D01*
X035959Y019244D01*
X036000Y019293D01*
X036038Y019345D01*
X036073Y019399D01*
X036104Y019455D01*
X036132Y019513D01*
X036157Y019572D01*
X036178Y019633D01*
X036195Y019695D01*
X036209Y019758D01*
X036218Y019821D01*
X036224Y019885D01*
X036226Y019949D01*
X036224Y020014D01*
X036218Y020078D01*
X036209Y020141D01*
X036195Y020204D01*
X036178Y020266D01*
X036157Y020327D01*
X036133Y020386D01*
X036105Y020444D01*
X036073Y020500D01*
X036038Y020554D01*
X036000Y020606D01*
X035993Y020600D01*
X036031Y020549D01*
X036065Y020495D01*
X036097Y020440D01*
X036124Y020383D01*
X036149Y020324D01*
X036169Y020263D01*
X036187Y020202D01*
X036200Y020140D01*
X036209Y020077D01*
X036215Y020013D01*
X036217Y019949D01*
X036215Y019886D01*
X036209Y019822D01*
X036200Y019759D01*
X036186Y019697D01*
X036169Y019636D01*
X036148Y019575D01*
X036124Y019516D01*
X036096Y019459D01*
X036065Y019404D01*
X036030Y019350D01*
X035993Y019299D01*
X035952Y019250D01*
X035908Y019203D01*
X035862Y019160D01*
X035813Y019119D01*
X035762Y019081D01*
X035708Y019046D01*
X035653Y019015D01*
X035595Y018987D01*
X035537Y018962D01*
X035476Y018941D01*
X035474Y018950D01*
X035533Y018971D01*
X035592Y018995D01*
X035649Y019023D01*
X035704Y019054D01*
X035757Y019088D01*
X035807Y019126D01*
X035856Y019166D01*
X035902Y019210D01*
X035945Y019256D01*
X035985Y019304D01*
X036023Y019355D01*
X036057Y019408D01*
X036088Y019463D01*
X036116Y019520D01*
X036140Y019579D01*
X036161Y019638D01*
X036178Y019699D01*
X036191Y019761D01*
X036200Y019823D01*
X036206Y019886D01*
X036208Y019949D01*
X036206Y020013D01*
X036200Y020076D01*
X036191Y020138D01*
X036178Y020200D01*
X036161Y020261D01*
X036140Y020320D01*
X036116Y020379D01*
X036089Y020436D01*
X036058Y020491D01*
X036024Y020544D01*
X035986Y020595D01*
X035979Y020589D01*
X036016Y020539D01*
X036050Y020486D01*
X036081Y020431D01*
X036108Y020375D01*
X036132Y020317D01*
X036152Y020258D01*
X036169Y020198D01*
X036182Y020136D01*
X036192Y020074D01*
X036197Y020012D01*
X036199Y019949D01*
X036197Y019887D01*
X036191Y019824D01*
X036182Y019763D01*
X036169Y019701D01*
X036152Y019641D01*
X036132Y019582D01*
X036108Y019524D01*
X036080Y019468D01*
X036049Y019413D01*
X036015Y019360D01*
X035978Y019310D01*
X035938Y019262D01*
X035895Y019216D01*
X035850Y019173D01*
X035802Y019133D01*
X035751Y019096D01*
X035699Y019062D01*
X035644Y019031D01*
X035588Y019003D01*
X035530Y018979D01*
X035471Y018959D01*
X035468Y018967D01*
X035527Y018988D01*
X035584Y019012D01*
X035640Y019039D01*
X035694Y019069D01*
X035746Y019103D01*
X035796Y019140D01*
X035844Y019180D01*
X035889Y019222D01*
X035932Y019268D01*
X035971Y019315D01*
X036008Y019365D01*
X036042Y019418D01*
X036072Y019472D01*
X036099Y019528D01*
X036123Y019585D01*
X036143Y019644D01*
X036160Y019703D01*
X036173Y019764D01*
X036182Y019826D01*
X036188Y019887D01*
X036190Y019949D01*
X036188Y020011D01*
X036183Y020073D01*
X036173Y020135D01*
X036160Y020195D01*
X036144Y020255D01*
X036124Y020314D01*
X036100Y020371D01*
X036073Y020427D01*
X036042Y020481D01*
X036009Y020534D01*
X035972Y020584D01*
X035481Y020825D02*
X035466Y020873D01*
X035467Y020872D02*
X035525Y020892D01*
X035582Y020916D01*
X035638Y020943D01*
X035692Y020974D01*
X035743Y021007D01*
X035793Y021044D01*
X035841Y021084D01*
X035886Y021126D01*
X035928Y021171D01*
X035967Y021219D01*
X036004Y021268D01*
X036037Y021320D01*
X036068Y021374D01*
X036095Y021430D01*
X036118Y021487D01*
X036139Y021545D01*
X036155Y021605D01*
X036168Y021665D01*
X036177Y021726D01*
X036183Y021788D01*
X036185Y021849D01*
X036183Y021911D01*
X036178Y021973D01*
X036168Y022034D01*
X036155Y022094D01*
X036139Y022154D01*
X036119Y022212D01*
X036095Y022269D01*
X036068Y022325D01*
X036038Y022379D01*
X036005Y022431D01*
X035968Y022481D01*
X036007Y022511D01*
X036007Y022512D01*
X036046Y022459D01*
X036081Y022405D01*
X036113Y022348D01*
X036141Y022290D01*
X036166Y022230D01*
X036187Y022169D01*
X036204Y022106D01*
X036218Y022043D01*
X036227Y021979D01*
X036233Y021914D01*
X036235Y021849D01*
X036233Y021785D01*
X036227Y021720D01*
X036217Y021656D01*
X036204Y021593D01*
X036186Y021530D01*
X036165Y021469D01*
X036140Y021409D01*
X036112Y021351D01*
X036080Y021294D01*
X036045Y021240D01*
X036007Y021188D01*
X035965Y021138D01*
X035921Y021091D01*
X035874Y021046D01*
X035824Y021005D01*
X035772Y020966D01*
X035717Y020931D01*
X035661Y020899D01*
X035603Y020870D01*
X035543Y020846D01*
X035482Y020824D01*
X035479Y020833D01*
X035540Y020854D01*
X035599Y020879D01*
X035657Y020907D01*
X035713Y020939D01*
X035767Y020973D01*
X035818Y021012D01*
X035868Y021053D01*
X035915Y021097D01*
X035959Y021144D01*
X036000Y021193D01*
X036038Y021245D01*
X036073Y021299D01*
X036104Y021355D01*
X036132Y021413D01*
X036157Y021472D01*
X036178Y021533D01*
X036195Y021595D01*
X036209Y021658D01*
X036218Y021721D01*
X036224Y021785D01*
X036226Y021849D01*
X036224Y021914D01*
X036218Y021978D01*
X036209Y022041D01*
X036195Y022104D01*
X036178Y022166D01*
X036157Y022227D01*
X036133Y022286D01*
X036105Y022344D01*
X036073Y022400D01*
X036038Y022454D01*
X036000Y022506D01*
X035993Y022500D01*
X036031Y022449D01*
X036065Y022395D01*
X036097Y022340D01*
X036124Y022283D01*
X036149Y022224D01*
X036169Y022163D01*
X036187Y022102D01*
X036200Y022040D01*
X036209Y021977D01*
X036215Y021913D01*
X036217Y021849D01*
X036215Y021786D01*
X036209Y021722D01*
X036200Y021659D01*
X036186Y021597D01*
X036169Y021536D01*
X036148Y021475D01*
X036124Y021416D01*
X036096Y021359D01*
X036065Y021304D01*
X036030Y021250D01*
X035993Y021199D01*
X035952Y021150D01*
X035908Y021103D01*
X035862Y021060D01*
X035813Y021019D01*
X035762Y020981D01*
X035708Y020946D01*
X035653Y020915D01*
X035595Y020887D01*
X035537Y020862D01*
X035476Y020841D01*
X035474Y020850D01*
X035533Y020871D01*
X035592Y020895D01*
X035649Y020923D01*
X035704Y020954D01*
X035757Y020988D01*
X035807Y021026D01*
X035856Y021066D01*
X035902Y021110D01*
X035945Y021156D01*
X035985Y021204D01*
X036023Y021255D01*
X036057Y021308D01*
X036088Y021363D01*
X036116Y021420D01*
X036140Y021479D01*
X036161Y021538D01*
X036178Y021599D01*
X036191Y021661D01*
X036200Y021723D01*
X036206Y021786D01*
X036208Y021849D01*
X036206Y021913D01*
X036200Y021976D01*
X036191Y022038D01*
X036178Y022100D01*
X036161Y022161D01*
X036140Y022220D01*
X036116Y022279D01*
X036089Y022336D01*
X036058Y022391D01*
X036024Y022444D01*
X035986Y022495D01*
X035979Y022489D01*
X036016Y022439D01*
X036050Y022386D01*
X036081Y022331D01*
X036108Y022275D01*
X036132Y022217D01*
X036152Y022158D01*
X036169Y022098D01*
X036182Y022036D01*
X036192Y021974D01*
X036197Y021912D01*
X036199Y021849D01*
X036197Y021787D01*
X036191Y021724D01*
X036182Y021663D01*
X036169Y021601D01*
X036152Y021541D01*
X036132Y021482D01*
X036108Y021424D01*
X036080Y021368D01*
X036049Y021313D01*
X036015Y021260D01*
X035978Y021210D01*
X035938Y021162D01*
X035895Y021116D01*
X035850Y021073D01*
X035802Y021033D01*
X035751Y020996D01*
X035699Y020962D01*
X035644Y020931D01*
X035588Y020903D01*
X035530Y020879D01*
X035471Y020859D01*
X035468Y020867D01*
X035527Y020888D01*
X035584Y020912D01*
X035640Y020939D01*
X035694Y020969D01*
X035746Y021003D01*
X035796Y021040D01*
X035844Y021080D01*
X035889Y021122D01*
X035932Y021168D01*
X035971Y021215D01*
X036008Y021265D01*
X036042Y021318D01*
X036072Y021372D01*
X036099Y021428D01*
X036123Y021485D01*
X036143Y021544D01*
X036160Y021603D01*
X036173Y021664D01*
X036182Y021726D01*
X036188Y021787D01*
X036190Y021849D01*
X036188Y021911D01*
X036183Y021973D01*
X036173Y022035D01*
X036160Y022095D01*
X036144Y022155D01*
X036124Y022214D01*
X036100Y022271D01*
X036073Y022327D01*
X036042Y022381D01*
X036009Y022434D01*
X035972Y022484D01*
X034313Y022511D02*
X034352Y022480D01*
X034352Y022481D02*
X034315Y022431D01*
X034282Y022379D01*
X034252Y022325D01*
X034225Y022269D01*
X034201Y022212D01*
X034181Y022154D01*
X034165Y022094D01*
X034152Y022034D01*
X034142Y021973D01*
X034137Y021911D01*
X034135Y021849D01*
X034137Y021788D01*
X034143Y021726D01*
X034152Y021665D01*
X034165Y021605D01*
X034181Y021545D01*
X034202Y021487D01*
X034225Y021430D01*
X034252Y021374D01*
X034283Y021320D01*
X034316Y021268D01*
X034353Y021219D01*
X034392Y021171D01*
X034434Y021126D01*
X034479Y021084D01*
X034527Y021044D01*
X034577Y021007D01*
X034628Y020974D01*
X034682Y020943D01*
X034738Y020916D01*
X034795Y020892D01*
X034853Y020872D01*
X034839Y020825D01*
X034838Y020824D01*
X034777Y020846D01*
X034717Y020870D01*
X034659Y020899D01*
X034603Y020931D01*
X034548Y020966D01*
X034496Y021005D01*
X034446Y021046D01*
X034399Y021091D01*
X034355Y021138D01*
X034313Y021188D01*
X034275Y021240D01*
X034240Y021294D01*
X034208Y021351D01*
X034180Y021409D01*
X034155Y021469D01*
X034134Y021530D01*
X034116Y021593D01*
X034103Y021656D01*
X034093Y021720D01*
X034087Y021785D01*
X034085Y021849D01*
X034087Y021914D01*
X034093Y021979D01*
X034102Y022043D01*
X034116Y022106D01*
X034133Y022169D01*
X034154Y022230D01*
X034179Y022290D01*
X034207Y022348D01*
X034239Y022405D01*
X034274Y022459D01*
X034313Y022512D01*
X034320Y022506D01*
X034282Y022454D01*
X034247Y022400D01*
X034215Y022344D01*
X034187Y022286D01*
X034163Y022227D01*
X034142Y022166D01*
X034125Y022104D01*
X034111Y022041D01*
X034102Y021978D01*
X034096Y021914D01*
X034094Y021849D01*
X034096Y021785D01*
X034102Y021721D01*
X034111Y021658D01*
X034125Y021595D01*
X034142Y021533D01*
X034163Y021472D01*
X034188Y021413D01*
X034216Y021355D01*
X034247Y021299D01*
X034282Y021245D01*
X034320Y021193D01*
X034361Y021144D01*
X034405Y021097D01*
X034452Y021053D01*
X034502Y021012D01*
X034553Y020974D01*
X034607Y020939D01*
X034663Y020907D01*
X034721Y020879D01*
X034780Y020854D01*
X034841Y020833D01*
X034844Y020841D01*
X034783Y020862D01*
X034725Y020887D01*
X034667Y020915D01*
X034612Y020946D01*
X034558Y020981D01*
X034507Y021019D01*
X034458Y021060D01*
X034412Y021103D01*
X034368Y021150D01*
X034327Y021199D01*
X034290Y021250D01*
X034255Y021304D01*
X034224Y021359D01*
X034196Y021416D01*
X034172Y021475D01*
X034151Y021536D01*
X034134Y021597D01*
X034120Y021659D01*
X034111Y021722D01*
X034105Y021786D01*
X034103Y021849D01*
X034105Y021913D01*
X034111Y021977D01*
X034120Y022040D01*
X034133Y022102D01*
X034151Y022163D01*
X034171Y022224D01*
X034196Y022283D01*
X034223Y022340D01*
X034255Y022395D01*
X034289Y022449D01*
X034327Y022500D01*
X034334Y022495D01*
X034297Y022444D01*
X034262Y022391D01*
X034231Y022336D01*
X034204Y022279D01*
X034180Y022220D01*
X034159Y022161D01*
X034142Y022100D01*
X034129Y022038D01*
X034120Y021976D01*
X034114Y021913D01*
X034112Y021849D01*
X034114Y021786D01*
X034120Y021723D01*
X034129Y021661D01*
X034142Y021599D01*
X034159Y021538D01*
X034180Y021479D01*
X034204Y021420D01*
X034232Y021363D01*
X034263Y021308D01*
X034297Y021255D01*
X034335Y021204D01*
X034375Y021156D01*
X034418Y021110D01*
X034464Y021066D01*
X034513Y021026D01*
X034563Y020988D01*
X034616Y020954D01*
X034671Y020923D01*
X034728Y020895D01*
X034787Y020871D01*
X034846Y020850D01*
X034849Y020859D01*
X034790Y020879D01*
X034732Y020903D01*
X034676Y020931D01*
X034621Y020962D01*
X034569Y020996D01*
X034518Y021033D01*
X034470Y021073D01*
X034425Y021116D01*
X034382Y021162D01*
X034342Y021210D01*
X034305Y021260D01*
X034271Y021313D01*
X034240Y021368D01*
X034212Y021424D01*
X034188Y021482D01*
X034168Y021541D01*
X034151Y021601D01*
X034138Y021663D01*
X034129Y021724D01*
X034123Y021787D01*
X034121Y021849D01*
X034123Y021912D01*
X034128Y021974D01*
X034138Y022036D01*
X034151Y022098D01*
X034168Y022158D01*
X034188Y022217D01*
X034212Y022275D01*
X034239Y022331D01*
X034270Y022386D01*
X034304Y022439D01*
X034341Y022489D01*
X034348Y022484D01*
X034311Y022434D01*
X034278Y022381D01*
X034247Y022327D01*
X034220Y022271D01*
X034196Y022214D01*
X034176Y022155D01*
X034160Y022095D01*
X034147Y022035D01*
X034137Y021973D01*
X034132Y021912D01*
X034130Y021849D01*
X034132Y021787D01*
X034138Y021726D01*
X034147Y021664D01*
X034160Y021603D01*
X034177Y021544D01*
X034197Y021485D01*
X034221Y021428D01*
X034248Y021372D01*
X034278Y021318D01*
X034312Y021265D01*
X034349Y021215D01*
X034388Y021168D01*
X034431Y021122D01*
X034476Y021080D01*
X034524Y021040D01*
X034574Y021003D01*
X034626Y020969D01*
X034680Y020939D01*
X034736Y020912D01*
X034793Y020888D01*
X034852Y020867D01*
X033834Y021804D02*
X033784Y021804D01*
X033785Y021805D02*
X033782Y021820D01*
X033777Y021834D01*
X033768Y021847D01*
X033757Y021858D01*
X033744Y021867D01*
X033730Y021872D01*
X033715Y021875D01*
X033714Y021924D01*
X033715Y021925D01*
X033736Y021922D01*
X033755Y021916D01*
X033774Y021907D01*
X033791Y021895D01*
X033805Y021881D01*
X033817Y021864D01*
X033826Y021845D01*
X033832Y021826D01*
X033835Y021805D01*
X033826Y021805D01*
X033823Y021824D01*
X033818Y021842D01*
X033810Y021859D01*
X033799Y021875D01*
X033785Y021889D01*
X033769Y021900D01*
X033752Y021908D01*
X033734Y021913D01*
X033715Y021916D01*
X033715Y021907D01*
X033735Y021904D01*
X033753Y021898D01*
X033770Y021888D01*
X033786Y021876D01*
X033798Y021860D01*
X033808Y021843D01*
X033814Y021825D01*
X033817Y021805D01*
X033808Y021805D01*
X033805Y021823D01*
X033800Y021840D01*
X033791Y021855D01*
X033779Y021869D01*
X033765Y021881D01*
X033750Y021890D01*
X033733Y021895D01*
X033715Y021898D01*
X033715Y021889D01*
X033733Y021886D01*
X033751Y021879D01*
X033766Y021869D01*
X033779Y021856D01*
X033789Y021841D01*
X033796Y021823D01*
X033799Y021805D01*
X033790Y021805D01*
X033787Y021821D01*
X033781Y021837D01*
X033772Y021850D01*
X033760Y021862D01*
X033747Y021871D01*
X033731Y021877D01*
X033715Y021880D01*
X033006Y021924D02*
X033006Y021874D01*
X033005Y021875D02*
X032990Y021872D01*
X032976Y021867D01*
X032963Y021858D01*
X032952Y021847D01*
X032943Y021834D01*
X032938Y021820D01*
X032935Y021805D01*
X032886Y021804D01*
X032885Y021805D01*
X032888Y021826D01*
X032894Y021845D01*
X032903Y021864D01*
X032915Y021881D01*
X032929Y021895D01*
X032946Y021907D01*
X032965Y021916D01*
X032984Y021922D01*
X033005Y021925D01*
X033005Y021916D01*
X032986Y021913D01*
X032968Y021908D01*
X032951Y021900D01*
X032935Y021889D01*
X032921Y021875D01*
X032910Y021859D01*
X032902Y021842D01*
X032897Y021824D01*
X032894Y021805D01*
X032903Y021805D01*
X032906Y021825D01*
X032912Y021843D01*
X032922Y021860D01*
X032934Y021876D01*
X032950Y021888D01*
X032967Y021898D01*
X032985Y021904D01*
X033005Y021907D01*
X033005Y021898D01*
X032987Y021895D01*
X032970Y021890D01*
X032955Y021881D01*
X032941Y021869D01*
X032929Y021855D01*
X032920Y021840D01*
X032915Y021823D01*
X032912Y021805D01*
X032921Y021805D01*
X032924Y021823D01*
X032931Y021841D01*
X032941Y021856D01*
X032954Y021869D01*
X032969Y021879D01*
X032987Y021886D01*
X033005Y021889D01*
X033005Y021880D01*
X032989Y021877D01*
X032973Y021871D01*
X032960Y021862D01*
X032948Y021850D01*
X032939Y021837D01*
X032933Y021821D01*
X032930Y021805D01*
X032834Y021804D02*
X032784Y021804D01*
X032785Y021805D02*
X032782Y021820D01*
X032777Y021834D01*
X032768Y021847D01*
X032757Y021858D01*
X032744Y021867D01*
X032730Y021872D01*
X032715Y021875D01*
X032714Y021924D01*
X032715Y021925D01*
X032736Y021922D01*
X032755Y021916D01*
X032774Y021907D01*
X032791Y021895D01*
X032805Y021881D01*
X032817Y021864D01*
X032826Y021845D01*
X032832Y021826D01*
X032835Y021805D01*
X032826Y021805D01*
X032823Y021824D01*
X032818Y021842D01*
X032810Y021859D01*
X032799Y021875D01*
X032785Y021889D01*
X032769Y021900D01*
X032752Y021908D01*
X032734Y021913D01*
X032715Y021916D01*
X032715Y021907D01*
X032735Y021904D01*
X032753Y021898D01*
X032770Y021888D01*
X032786Y021876D01*
X032798Y021860D01*
X032808Y021843D01*
X032814Y021825D01*
X032817Y021805D01*
X032808Y021805D01*
X032805Y021823D01*
X032800Y021840D01*
X032791Y021855D01*
X032779Y021869D01*
X032765Y021881D01*
X032750Y021890D01*
X032733Y021895D01*
X032715Y021898D01*
X032715Y021889D01*
X032733Y021886D01*
X032751Y021879D01*
X032766Y021869D01*
X032779Y021856D01*
X032789Y021841D01*
X032796Y021823D01*
X032799Y021805D01*
X032790Y021805D01*
X032787Y021821D01*
X032781Y021837D01*
X032772Y021850D01*
X032760Y021862D01*
X032747Y021871D01*
X032731Y021877D01*
X032715Y021880D01*
X032006Y021924D02*
X032006Y021874D01*
X032005Y021875D02*
X031990Y021872D01*
X031976Y021867D01*
X031963Y021858D01*
X031952Y021847D01*
X031943Y021834D01*
X031938Y021820D01*
X031935Y021805D01*
X031886Y021804D01*
X031885Y021805D01*
X031888Y021826D01*
X031894Y021845D01*
X031903Y021864D01*
X031915Y021881D01*
X031929Y021895D01*
X031946Y021907D01*
X031965Y021916D01*
X031984Y021922D01*
X032005Y021925D01*
X032005Y021916D01*
X031986Y021913D01*
X031968Y021908D01*
X031951Y021900D01*
X031935Y021889D01*
X031921Y021875D01*
X031910Y021859D01*
X031902Y021842D01*
X031897Y021824D01*
X031894Y021805D01*
X031903Y021805D01*
X031906Y021825D01*
X031912Y021843D01*
X031922Y021860D01*
X031934Y021876D01*
X031950Y021888D01*
X031967Y021898D01*
X031985Y021904D01*
X032005Y021907D01*
X032005Y021898D01*
X031987Y021895D01*
X031970Y021890D01*
X031955Y021881D01*
X031941Y021869D01*
X031929Y021855D01*
X031920Y021840D01*
X031915Y021823D01*
X031912Y021805D01*
X031921Y021805D01*
X031924Y021823D01*
X031931Y021841D01*
X031941Y021856D01*
X031954Y021869D01*
X031969Y021879D01*
X031987Y021886D01*
X032005Y021889D01*
X032005Y021880D01*
X031989Y021877D01*
X031973Y021871D01*
X031960Y021862D01*
X031948Y021850D01*
X031939Y021837D01*
X031933Y021821D01*
X031930Y021805D01*
D17*
X028410Y017450D02*
X028260Y017450D01*
X028240Y017470D01*
X028260Y017050D02*
X028240Y017030D01*
X028260Y017050D02*
X028360Y017050D01*
D18*
X028475Y017050D03*
X028475Y017450D03*
D19*
X025080Y007550D03*
X022240Y007550D03*
X011780Y010150D03*
X008940Y010150D03*
D20*
X004210Y009250D03*
X004210Y004650D03*
D21*
X004835Y004650D03*
X002485Y004650D03*
X002485Y009250D03*
X004835Y009250D03*
M02*
