G75*
G70*
%OFA0B0*%
%FSLAX24Y24*%
%IPPOS*%
%LPD*%
%AMOC8*
5,1,8,0,0,1.08239X$1,22.5*
%
%ADD10C,0.0100*%
%ADD11C,0.0740*%
%ADD12R,0.0740X0.0740*%
%ADD13R,0.1102X0.0787*%
%ADD14R,0.1575X0.0276*%
%ADD15R,0.1575X0.0472*%
%ADD16C,0.0000*%
%ADD17C,0.0520*%
%ADD18OC8,0.0520*%
%ADD19C,0.0660*%
%ADD20R,0.1560X0.1560*%
%ADD21C,0.1250*%
%ADD22R,0.0800X0.0800*%
%ADD23C,0.0800*%
%ADD24OC8,0.0660*%
%ADD25OC8,0.0630*%
%ADD26C,0.0630*%
%ADD27R,0.0240X0.0870*%
%ADD28C,0.0760*%
%ADD29C,0.0120*%
%ADD30C,0.0320*%
D10*
X000160Y000150D02*
X039160Y000150D01*
X039160Y028150D01*
X000160Y028150D01*
X000160Y000150D01*
X011014Y013233D02*
X012343Y013233D01*
X012460Y013350D01*
X012460Y014850D01*
X012560Y014950D01*
X015960Y014950D01*
X016060Y015050D01*
X016060Y015550D01*
X016060Y016550D02*
X017360Y016550D01*
X017460Y016650D01*
X017460Y018550D01*
X016060Y020550D02*
X014760Y020550D01*
X014660Y020450D01*
X014660Y017150D01*
X014560Y017050D01*
X012460Y017050D01*
X011596Y016186D01*
X011014Y016186D01*
X011035Y017150D02*
X011014Y017170D01*
X011035Y017150D02*
X012060Y017150D01*
X012160Y017250D01*
X012160Y018650D01*
X013060Y019550D01*
X012260Y019250D02*
X012260Y021850D01*
X012560Y022150D01*
X012560Y023600D01*
X012760Y024350D02*
X012560Y024550D01*
X012560Y025480D01*
X013660Y025480D02*
X013660Y024850D01*
X013860Y024650D01*
X016460Y024650D01*
X016560Y024550D01*
X016560Y023600D01*
X015560Y023700D02*
X015560Y024250D01*
X015460Y024350D01*
X012760Y024350D01*
X013560Y023700D02*
X013560Y022150D01*
X013860Y021850D01*
X013860Y017650D01*
X013760Y017550D01*
X013060Y017550D01*
X013060Y016550D02*
X012260Y016550D01*
X012160Y016450D01*
X012160Y014350D01*
X012028Y014218D01*
X011014Y014218D01*
X011014Y019139D02*
X012149Y019139D01*
X012260Y019250D01*
X011014Y020281D02*
X010291Y020281D01*
X009660Y019650D01*
X007660Y019650D01*
X007560Y019750D01*
X007560Y022080D01*
X007490Y022150D01*
X008630Y022150D02*
X011060Y022150D01*
X011160Y022050D01*
X011160Y020899D01*
X011014Y020753D01*
X011360Y024550D02*
X011360Y025420D01*
X012560Y026620D01*
X012160Y027250D02*
X010360Y025450D01*
X010360Y024550D01*
X009760Y025150D02*
X008760Y025150D01*
X009760Y025150D02*
X009860Y025250D01*
X009860Y026050D01*
X011360Y027550D01*
X012160Y027250D02*
X013560Y027250D01*
X013660Y027150D01*
X013660Y026620D01*
X010360Y027550D02*
X009760Y026950D01*
X008760Y026950D01*
X016060Y021550D02*
X016060Y020550D01*
X020084Y023700D02*
X018134Y025650D01*
X019582Y025650D02*
X021160Y024072D01*
X021160Y023600D01*
X022160Y023700D02*
X022160Y024520D01*
X021030Y025650D01*
X022512Y025650D02*
X024160Y024002D01*
X024160Y023700D01*
X025160Y023600D02*
X025160Y024520D01*
X024030Y025650D01*
X025312Y025650D02*
X027160Y023802D01*
X027160Y023700D01*
X028160Y023600D02*
X028160Y024320D01*
X026830Y025650D01*
X028112Y025650D02*
X029160Y024602D01*
X029160Y023700D01*
X030160Y023600D02*
X030160Y025120D01*
X029630Y025650D01*
X030912Y025650D02*
X031160Y025402D01*
X031160Y023700D01*
X032160Y023600D02*
X032160Y025380D01*
X032430Y025650D01*
X033160Y025098D02*
X033712Y025650D01*
X033160Y025098D02*
X033160Y023700D01*
X034160Y023600D02*
X034160Y024580D01*
X035230Y025650D01*
X033360Y022150D02*
X033360Y021050D01*
X033360Y020150D01*
X033560Y019950D01*
X034310Y019950D01*
X035160Y019950D02*
X035160Y019150D01*
X034160Y018150D01*
X032860Y018150D01*
X032860Y017150D01*
X035060Y017950D02*
X035060Y015950D01*
X036060Y015850D02*
X036060Y016950D01*
X035860Y017150D01*
X036560Y017850D01*
X036560Y021300D01*
X036010Y021850D01*
X035160Y021850D02*
X035160Y019950D01*
X035860Y019800D02*
X036010Y019950D01*
X035860Y019800D02*
X035860Y018150D01*
X035260Y018150D01*
X035060Y017950D01*
X033360Y019150D02*
X032360Y019150D01*
X032360Y020250D01*
X032160Y020450D01*
X028260Y020450D01*
X028060Y020650D01*
X028060Y021950D01*
X030060Y021950D02*
X030060Y020950D01*
X030160Y020850D01*
X033160Y020850D01*
X033360Y021050D01*
X032360Y021350D02*
X032360Y022150D01*
X032360Y021350D02*
X032160Y021150D01*
X031160Y021150D01*
X031060Y021250D01*
X031060Y021950D01*
X029060Y018950D02*
X029060Y016950D01*
X028860Y016750D01*
X027960Y016750D01*
X027960Y017750D02*
X028060Y017850D01*
X028060Y018950D01*
X032160Y014650D02*
X032160Y013350D01*
X032960Y013350D01*
X033060Y013250D01*
X033060Y007450D01*
X032960Y007350D01*
X032160Y007350D01*
X031160Y007550D02*
X031060Y007450D01*
X029260Y007050D02*
X029260Y006470D01*
X029310Y006420D01*
X028810Y006420D02*
X028740Y006350D01*
X027760Y006350D01*
X027860Y007150D02*
X029160Y007150D01*
X029260Y007050D01*
X027860Y007150D02*
X027760Y007250D01*
X027760Y008050D01*
X028640Y008650D02*
X028810Y008480D01*
X028860Y008430D01*
X026860Y008650D02*
X026760Y008550D01*
X025660Y007550D02*
X023260Y007550D01*
X023160Y007650D01*
X023160Y008850D01*
X022160Y008850D02*
X021660Y008350D01*
X021660Y007550D01*
X021660Y006450D01*
X021760Y006350D01*
X023160Y006350D01*
X024160Y006350D02*
X025460Y006350D01*
X025660Y006550D01*
X025660Y007550D01*
X025660Y006550D02*
X025660Y005350D01*
X025560Y005250D01*
X019660Y005250D01*
X019560Y005150D01*
X019560Y004350D01*
X019860Y004050D01*
X019860Y002680D01*
X019890Y002650D01*
X027138Y002650D02*
X027138Y002928D01*
X028560Y004350D01*
X028560Y005050D01*
X028760Y005250D01*
X033460Y005250D01*
X033660Y005450D01*
X033660Y014450D01*
X033860Y014650D01*
X035160Y014650D01*
X037210Y014650D01*
X036160Y009350D02*
X035160Y009350D01*
X036160Y009350D02*
X036260Y009250D01*
X036260Y008450D01*
X036260Y006250D01*
X036760Y005750D01*
X038160Y005750D01*
X038260Y005650D01*
X038260Y004050D01*
X037060Y004050D01*
X036660Y003650D01*
X035890Y003650D01*
X034890Y002650D01*
X036338Y002650D02*
X037438Y003750D01*
X038460Y003750D01*
X038560Y003850D01*
X038560Y005950D01*
X038460Y006050D01*
X036860Y006050D01*
X036560Y006350D01*
X036560Y007550D01*
X036660Y007650D01*
X037110Y007650D01*
X037160Y007650D01*
X036260Y008450D02*
X036460Y008650D01*
X037210Y008650D01*
X038210Y008650D02*
X038860Y008000D01*
X038860Y003550D01*
X038760Y003450D01*
X037860Y003450D01*
X037786Y003376D01*
X037786Y002650D01*
X025160Y011850D02*
X025160Y013000D01*
X024160Y013100D02*
X024160Y011850D01*
X023160Y011850D02*
X023160Y013000D01*
X020160Y023700D02*
X020084Y023700D01*
D11*
X020160Y023700D03*
X019160Y023600D03*
X021160Y023600D03*
X022160Y023700D03*
X023160Y023600D03*
X024160Y023700D03*
X025160Y023600D03*
X028160Y023600D03*
X029160Y023700D03*
X030160Y023600D03*
X031160Y023700D03*
X032160Y023600D03*
X033160Y023700D03*
X034160Y023600D03*
X037090Y023650D03*
X038230Y023650D03*
X038110Y021650D03*
X037110Y021650D03*
X037210Y020650D03*
X038210Y020650D03*
X038110Y019650D03*
X037110Y019650D03*
X037210Y018650D03*
X038210Y018650D03*
X038110Y017650D03*
X037110Y017650D03*
X037210Y016650D03*
X038210Y016650D03*
X038110Y015650D03*
X037110Y015650D03*
X036060Y015850D03*
X035060Y015950D03*
X034060Y015850D03*
X033060Y015950D03*
X032060Y015850D03*
X031060Y015950D03*
X025160Y015200D03*
X024160Y015300D03*
X023160Y015200D03*
X023160Y014100D03*
X024160Y014200D03*
X025160Y014100D03*
X024160Y013100D03*
X023160Y013000D03*
X025160Y013000D03*
X024160Y004700D03*
X023160Y004600D03*
X022160Y004700D03*
X021160Y004600D03*
X018160Y004600D03*
X017160Y004700D03*
X016160Y004600D03*
X015160Y004700D03*
X014160Y004600D03*
X013160Y004700D03*
X012160Y004600D03*
X013090Y006550D03*
X014230Y006550D03*
X007260Y006950D03*
X007260Y005950D03*
X007260Y007950D03*
X025160Y004600D03*
X026160Y004700D03*
X027160Y004600D03*
X030160Y004600D03*
X031160Y004700D03*
X032160Y004600D03*
X033160Y004700D03*
X034160Y004600D03*
X035160Y004700D03*
X036160Y004600D03*
X037090Y006650D03*
X038230Y006650D03*
X038110Y007650D03*
X037110Y007650D03*
X037210Y008650D03*
X038210Y008650D03*
X038110Y009650D03*
X037110Y009650D03*
X037210Y010650D03*
X038210Y010650D03*
X038110Y011650D03*
X037110Y011650D03*
X037210Y012650D03*
X038210Y012650D03*
X038110Y013650D03*
X037110Y013650D03*
X016560Y023600D03*
X015560Y023700D03*
X014560Y023600D03*
X013560Y023700D03*
X012560Y023600D03*
X011560Y023700D03*
X010560Y023600D03*
X009560Y023700D03*
X008560Y023600D03*
X007560Y023700D03*
X007760Y025150D03*
X008760Y025150D03*
X008760Y026950D03*
X007760Y026950D03*
X012560Y026620D03*
X013660Y026620D03*
X013660Y025480D03*
X012560Y025480D03*
X008630Y022150D03*
X007490Y022150D03*
D12*
X018160Y023700D03*
X027160Y023700D03*
X037210Y022650D03*
X038210Y022650D03*
X038210Y014650D03*
X037210Y014650D03*
X029160Y004700D03*
X020160Y004700D03*
X011160Y004700D03*
D13*
X010306Y011344D03*
X002077Y010399D03*
X002077Y021383D03*
X010266Y021422D03*
D14*
X011014Y020753D03*
X011014Y020281D03*
X011014Y019769D03*
D15*
X011014Y019139D03*
X011014Y018155D03*
X011014Y017170D03*
X011014Y016186D03*
X011014Y015202D03*
X011014Y014218D03*
X011014Y013233D03*
X011014Y012249D03*
D16*
X009518Y012210D02*
X009520Y012245D01*
X009526Y012280D01*
X009536Y012314D01*
X009549Y012347D01*
X009566Y012378D01*
X009587Y012406D01*
X009610Y012433D01*
X009637Y012456D01*
X009665Y012477D01*
X009696Y012494D01*
X009729Y012507D01*
X009763Y012517D01*
X009798Y012523D01*
X009833Y012525D01*
X009868Y012523D01*
X009903Y012517D01*
X009937Y012507D01*
X009970Y012494D01*
X010001Y012477D01*
X010029Y012456D01*
X010056Y012433D01*
X010079Y012406D01*
X010100Y012378D01*
X010117Y012347D01*
X010130Y012314D01*
X010140Y012280D01*
X010146Y012245D01*
X010148Y012210D01*
X010146Y012175D01*
X010140Y012140D01*
X010130Y012106D01*
X010117Y012073D01*
X010100Y012042D01*
X010079Y012014D01*
X010056Y011987D01*
X010029Y011964D01*
X010001Y011943D01*
X009970Y011926D01*
X009937Y011913D01*
X009903Y011903D01*
X009868Y011897D01*
X009833Y011895D01*
X009798Y011897D01*
X009763Y011903D01*
X009729Y011913D01*
X009696Y011926D01*
X009665Y011943D01*
X009637Y011964D01*
X009610Y011987D01*
X009587Y012014D01*
X009566Y012042D01*
X009549Y012073D01*
X009536Y012106D01*
X009526Y012140D01*
X009520Y012175D01*
X009518Y012210D01*
X009616Y020517D02*
X009618Y020546D01*
X009624Y020574D01*
X009633Y020602D01*
X009646Y020628D01*
X009663Y020651D01*
X009682Y020673D01*
X009704Y020692D01*
X009729Y020707D01*
X009755Y020720D01*
X009783Y020728D01*
X009811Y020733D01*
X009840Y020734D01*
X009869Y020731D01*
X009897Y020724D01*
X009924Y020714D01*
X009950Y020700D01*
X009973Y020683D01*
X009994Y020663D01*
X010012Y020640D01*
X010027Y020615D01*
X010038Y020588D01*
X010046Y020560D01*
X010050Y020531D01*
X010050Y020503D01*
X010046Y020474D01*
X010038Y020446D01*
X010027Y020419D01*
X010012Y020394D01*
X009994Y020371D01*
X009973Y020351D01*
X009950Y020334D01*
X009924Y020320D01*
X009897Y020310D01*
X009869Y020303D01*
X009840Y020300D01*
X009811Y020301D01*
X009783Y020306D01*
X009755Y020314D01*
X009729Y020327D01*
X009704Y020342D01*
X009682Y020361D01*
X009663Y020383D01*
X009646Y020406D01*
X009633Y020432D01*
X009624Y020460D01*
X009618Y020488D01*
X009616Y020517D01*
D17*
X012800Y020550D02*
X013320Y020550D01*
X013320Y019550D02*
X012800Y019550D01*
X012800Y018550D02*
X013320Y018550D01*
X013320Y017550D02*
X012800Y017550D01*
X012800Y016550D02*
X013320Y016550D01*
X013320Y015550D02*
X012800Y015550D01*
X015800Y015550D02*
X016320Y015550D01*
X016320Y016550D02*
X015800Y016550D01*
X015800Y017550D02*
X016320Y017550D01*
X016320Y018550D02*
X015800Y018550D01*
X015800Y019550D02*
X016320Y019550D01*
X016320Y020550D02*
X015800Y020550D01*
X015800Y021550D02*
X016320Y021550D01*
X013320Y021550D02*
X012800Y021550D01*
X022160Y012110D02*
X022160Y011590D01*
X023160Y011590D02*
X023160Y012110D01*
X024160Y012110D02*
X024160Y011590D01*
X025160Y011590D02*
X025160Y012110D01*
X025160Y009110D02*
X025160Y008590D01*
X024160Y008590D02*
X024160Y009110D01*
X023160Y009110D02*
X023160Y008590D01*
X022160Y008590D02*
X022160Y009110D01*
X031900Y009350D02*
X032420Y009350D01*
X032420Y008350D02*
X031900Y008350D01*
X031900Y007350D02*
X032420Y007350D01*
X032420Y006350D02*
X031900Y006350D01*
X034900Y006350D02*
X035420Y006350D01*
X035420Y007350D02*
X034900Y007350D01*
X034900Y008350D02*
X035420Y008350D01*
X035420Y009350D02*
X034900Y009350D01*
X034900Y010350D02*
X035420Y010350D01*
X035420Y011350D02*
X034900Y011350D01*
X034900Y012350D02*
X035420Y012350D01*
X035420Y013350D02*
X034900Y013350D01*
X032420Y013350D02*
X031900Y013350D01*
X031900Y012350D02*
X032420Y012350D01*
X032420Y011350D02*
X031900Y011350D01*
X031900Y010350D02*
X032420Y010350D01*
X031060Y018690D02*
X031060Y019210D01*
X030060Y019210D02*
X030060Y018690D01*
X029060Y018690D02*
X029060Y019210D01*
X028060Y019210D02*
X028060Y018690D01*
X028060Y021690D02*
X028060Y022210D01*
X029060Y022210D02*
X029060Y021690D01*
X030060Y021690D02*
X030060Y022210D01*
X031060Y022210D02*
X031060Y021690D01*
X012120Y009050D02*
X011600Y009050D01*
X011600Y008050D02*
X012120Y008050D01*
X012120Y007050D02*
X011600Y007050D01*
X011600Y006050D02*
X012120Y006050D01*
X009120Y006050D02*
X008600Y006050D01*
X008600Y007050D02*
X009120Y007050D01*
X009120Y008050D02*
X008600Y008050D01*
X008600Y009050D02*
X009120Y009050D01*
D18*
X013660Y010150D03*
X013660Y013150D03*
X017460Y018550D03*
X017460Y021550D03*
X011360Y024550D03*
X010360Y024550D03*
X010360Y027550D03*
X011360Y027550D03*
X032360Y022150D03*
X033360Y022150D03*
X033360Y019150D03*
X032360Y019150D03*
X032860Y018150D03*
X032860Y017150D03*
X032160Y014650D03*
X035160Y014650D03*
X035860Y017150D03*
X035860Y018150D03*
D19*
X027960Y017750D03*
X027960Y016750D03*
D20*
X003860Y025350D03*
D21*
X001260Y025350D03*
X006460Y025350D03*
D22*
X016630Y025650D03*
X021030Y025650D03*
X024030Y025650D03*
X026830Y025650D03*
X029630Y025650D03*
X032430Y025650D03*
X035230Y025650D03*
X038030Y025650D03*
X025730Y018650D03*
X022730Y018650D03*
X002660Y007720D03*
X003290Y002650D03*
X006290Y002650D03*
X010890Y002650D03*
X015490Y002650D03*
X019890Y002650D03*
X022690Y002650D03*
X025690Y002650D03*
X030290Y002650D03*
X034890Y002650D03*
D23*
X036338Y002650D03*
X037786Y002650D03*
X033186Y002650D03*
X031738Y002650D03*
X028586Y002650D03*
X027138Y002650D03*
X024208Y002650D03*
X021408Y002650D03*
X018386Y002650D03*
X016938Y002650D03*
X013786Y002650D03*
X012338Y002650D03*
X009186Y002650D03*
X007738Y002650D03*
X004808Y002650D03*
X002660Y006202D03*
X019834Y018650D03*
X021282Y018650D03*
X024212Y018650D03*
X025312Y025650D03*
X022512Y025650D03*
X019582Y025650D03*
X018134Y025650D03*
X015112Y025650D03*
X028112Y025650D03*
X030912Y025650D03*
X033712Y025650D03*
X036512Y025650D03*
D24*
X036010Y021850D03*
X035160Y021850D03*
X034310Y021850D03*
X034310Y019950D03*
X035160Y019950D03*
X036010Y019950D03*
X030060Y014150D03*
X029060Y014150D03*
X027760Y012150D03*
X026760Y012150D03*
X025660Y007550D03*
X026760Y006350D03*
X027760Y006350D03*
X024160Y006350D03*
X023160Y006350D03*
X021660Y007550D03*
X020710Y006650D03*
X019860Y006650D03*
X019010Y006650D03*
X016360Y006550D03*
X015360Y006550D03*
X012360Y010150D03*
X008360Y010150D03*
X005360Y007450D03*
X005360Y006450D03*
X019360Y010950D03*
X020360Y010950D03*
D25*
X019360Y009050D03*
X016360Y008550D03*
X014160Y008550D03*
X026760Y008050D03*
X027760Y010250D03*
X029060Y010250D03*
X029060Y012450D03*
D26*
X030060Y012450D03*
X030060Y010250D03*
X027760Y008050D03*
X026760Y010250D03*
X020360Y009050D03*
X015360Y008550D03*
X013160Y008550D03*
D27*
X028810Y008480D03*
X029310Y008480D03*
X029810Y008480D03*
X030310Y008480D03*
X030310Y006420D03*
X029810Y006420D03*
X029310Y006420D03*
X028810Y006420D03*
D28*
X005660Y004650D03*
X001660Y004650D03*
X001660Y009250D03*
X005660Y009250D03*
D29*
X007960Y009750D02*
X007960Y008650D01*
X008560Y008050D01*
X008860Y008050D01*
X007960Y009750D02*
X008360Y010150D01*
X009266Y011344D02*
X009160Y011450D01*
X009160Y015054D01*
X009308Y015202D01*
X009160Y015350D01*
X009160Y018050D01*
X009260Y018150D01*
X011160Y018150D01*
X011155Y018155D01*
X011014Y018155D01*
X011010Y018150D01*
X003660Y018150D01*
X002060Y019750D01*
X002060Y021366D01*
X002077Y021383D01*
X003860Y023166D01*
X003860Y025150D01*
X005660Y026950D01*
X007760Y026950D01*
X007760Y025150D01*
X007760Y024350D01*
X007860Y024250D01*
X009910Y024250D01*
X010560Y023600D01*
X016630Y025650D02*
X017560Y024720D01*
X017560Y023350D01*
X017860Y023050D01*
X017560Y023050D01*
X017460Y022950D01*
X017460Y021550D01*
X017860Y023050D02*
X027360Y023050D01*
X027460Y022950D01*
X027460Y022050D01*
X027560Y021950D01*
X028060Y021950D01*
X028060Y022550D01*
X028260Y022750D01*
X036360Y022750D01*
X036560Y022950D01*
X036560Y023550D01*
X036660Y023650D01*
X037090Y023650D01*
X032060Y017950D02*
X031060Y018950D01*
X032060Y017950D02*
X032060Y015850D01*
X032060Y014750D02*
X032160Y014650D01*
X032060Y014750D02*
X029660Y014750D01*
X030060Y014350D01*
X030060Y014150D01*
X030060Y012450D01*
X030060Y010250D01*
X029810Y010000D01*
X029810Y008480D01*
X028860Y008430D02*
X028860Y007550D01*
X028960Y007450D01*
X031060Y007450D01*
X031160Y007550D02*
X031160Y008250D01*
X031260Y008350D01*
X032160Y008350D01*
X032160Y006350D02*
X032160Y005650D01*
X032060Y005550D01*
X029360Y005550D01*
X029310Y005600D01*
X029310Y005650D01*
X029210Y005550D01*
X027860Y005550D01*
X027760Y005450D01*
X027760Y004350D01*
X027460Y004050D01*
X025608Y004050D01*
X024208Y002650D01*
X022690Y002650D01*
X018386Y002650D02*
X018360Y002624D01*
X018360Y001750D01*
X018460Y001650D01*
X028460Y001650D01*
X028586Y001776D01*
X028586Y002650D01*
X029310Y005650D02*
X029310Y006420D01*
X028810Y008480D02*
X028810Y010000D01*
X029060Y010250D01*
X027760Y010250D01*
X026760Y010250D02*
X022860Y010250D01*
X022160Y010950D01*
X022160Y011850D01*
X022160Y012450D01*
X022560Y012850D01*
X022560Y015550D01*
X022860Y015850D01*
X025460Y015850D01*
X025760Y015550D01*
X025760Y014850D01*
X025860Y014750D01*
X029660Y014750D01*
X029060Y014150D02*
X029060Y012450D01*
X028060Y012450D01*
X027760Y012150D01*
X026760Y012150D02*
X026760Y010250D01*
X026660Y008850D02*
X025160Y008850D01*
X024160Y008850D01*
X026660Y008850D02*
X026860Y008650D01*
X028640Y008650D01*
X029060Y010250D02*
X029060Y012450D01*
X026760Y008550D02*
X026760Y008050D01*
X026760Y006350D01*
X022160Y011850D02*
X018860Y011850D01*
X018660Y011650D01*
X018660Y010150D01*
X018360Y009850D01*
X015560Y009850D01*
X015360Y009650D01*
X015360Y008550D01*
X014160Y008550D02*
X013660Y009050D01*
X013660Y010150D01*
X012360Y010150D02*
X012360Y009550D01*
X011860Y009050D01*
X013160Y011350D02*
X010066Y011350D01*
X010060Y011344D02*
X009266Y011344D01*
X010060Y011344D02*
X010306Y011344D01*
X013160Y011350D02*
X013660Y011850D01*
X013660Y013150D01*
X011014Y015202D02*
X009308Y015202D01*
X013060Y015550D02*
X015060Y015550D01*
X015160Y015650D01*
X015160Y015950D01*
X015260Y016050D01*
X018060Y016050D01*
X018160Y016150D01*
X018160Y017350D01*
X018260Y017450D01*
X024160Y017450D01*
X024260Y017550D01*
X024260Y018602D01*
X025682Y018602D01*
X025730Y018650D01*
X024260Y018602D02*
X024212Y018650D01*
X016060Y017550D02*
X015260Y017550D01*
X015160Y017450D01*
X015160Y015950D01*
X003860Y025150D02*
X003860Y025350D01*
D30*
X010066Y011350D02*
X010060Y011344D01*
X008860Y009050D02*
X011660Y009050D01*
X011860Y009050D01*
X012660Y009050D01*
X013160Y008550D01*
X012460Y008050D02*
X012960Y007550D01*
X012960Y006680D01*
X013090Y006550D01*
X014230Y006550D02*
X015360Y006550D01*
X015360Y004900D01*
X015160Y004700D01*
X015160Y002980D01*
X015490Y002650D01*
X016938Y002650D01*
X018386Y002650D01*
X019060Y003324D01*
X019060Y005450D01*
X019860Y006250D01*
X019860Y006650D01*
X020710Y006650D02*
X020710Y008700D01*
X020360Y009050D01*
X020360Y010950D01*
X019360Y010950D02*
X019360Y009050D01*
X019010Y008700D01*
X019010Y006650D01*
X017160Y004800D01*
X017160Y004700D01*
X016360Y004800D02*
X016160Y004600D01*
X016360Y004800D02*
X016360Y006550D01*
X016360Y008550D01*
X015360Y008550D02*
X015360Y006550D01*
X014160Y004600D02*
X013110Y003550D01*
X010086Y003550D01*
X009186Y002650D01*
X007738Y002650D01*
X006290Y002650D01*
X004808Y002650D02*
X004808Y003798D01*
X005660Y004650D01*
X005960Y004650D01*
X007260Y005950D01*
X006760Y006450D02*
X005360Y006450D01*
X006760Y006450D02*
X007260Y006950D01*
X007460Y006950D01*
X007960Y006450D01*
X007960Y005650D01*
X008260Y005350D01*
X011160Y005350D01*
X011860Y006050D01*
X011860Y007050D01*
X011860Y008050D02*
X012460Y008050D01*
X011860Y008050D02*
X011860Y009050D01*
X008860Y007050D02*
X008860Y006050D01*
X010890Y002650D02*
X010960Y002580D01*
X010960Y001950D01*
X010760Y001750D01*
X003460Y001750D01*
X003290Y001920D01*
X003290Y002650D01*
X001660Y004650D02*
X001660Y005202D01*
X002660Y006202D01*
X002660Y006250D01*
X005660Y009250D01*
X002660Y007720D02*
X001660Y008720D01*
X001660Y009250D01*
X037090Y006650D02*
X038230Y006650D01*
X038230Y023650D02*
X037090Y023650D01*
M02*
