G75*
G70*
%OFA0B0*%
%FSLAX24Y24*%
%IPPOS*%
%LPD*%
%AMOC8*
5,1,8,0,0,1.08239X$1,22.5*
%
%ADD10C,0.0740*%
%ADD11R,0.0740X0.0740*%
%ADD12C,0.0520*%
%ADD13OC8,0.0520*%
%ADD14C,0.0660*%
%ADD15R,0.1560X0.1560*%
%ADD16C,0.1250*%
%ADD17R,0.0800X0.0800*%
%ADD18C,0.0800*%
%ADD19OC8,0.0660*%
%ADD20OC8,0.0630*%
%ADD21C,0.0630*%
%ADD22C,0.0760*%
%ADD23C,0.0120*%
%ADD24C,0.0100*%
%ADD25C,0.0320*%
D10*
X007260Y005950D03*
X007260Y006950D03*
X007260Y007950D03*
X012160Y004600D03*
X013160Y004700D03*
X014160Y004600D03*
X015160Y004700D03*
X016160Y004600D03*
X017160Y004700D03*
X018160Y004600D03*
X021160Y004600D03*
X022160Y004700D03*
X023160Y004600D03*
X024160Y004700D03*
X025160Y004600D03*
X026160Y004700D03*
X027160Y004600D03*
X030160Y004600D03*
X031160Y004700D03*
X032160Y004600D03*
X033160Y004700D03*
X034160Y004600D03*
X035160Y004700D03*
X036160Y004600D03*
X037090Y006650D03*
X038230Y006650D03*
X038110Y007650D03*
X037110Y007650D03*
X037210Y008650D03*
X038210Y008650D03*
X038110Y009650D03*
X037110Y009650D03*
X037210Y010650D03*
X038210Y010650D03*
X038110Y011650D03*
X037110Y011650D03*
X037210Y012650D03*
X038210Y012650D03*
X038110Y013650D03*
X037110Y013650D03*
X037110Y015650D03*
X038110Y015650D03*
X038210Y016650D03*
X037210Y016650D03*
X036060Y015850D03*
X035060Y015950D03*
X034060Y015850D03*
X033060Y015950D03*
X032060Y015850D03*
X031060Y015950D03*
X025160Y015200D03*
X024160Y015300D03*
X023160Y015200D03*
X023160Y014100D03*
X024160Y014200D03*
X025160Y014100D03*
X024160Y013100D03*
X023160Y013000D03*
X025160Y013000D03*
X014230Y006550D03*
X013090Y006550D03*
X008630Y022150D03*
X007490Y022150D03*
X008560Y023600D03*
X007560Y023700D03*
X007760Y025150D03*
X008760Y025150D03*
X009560Y023700D03*
X010560Y023600D03*
X011560Y023700D03*
X012560Y023600D03*
X013560Y023700D03*
X014560Y023600D03*
X015560Y023700D03*
X016560Y023600D03*
X019160Y023600D03*
X020160Y023700D03*
X021160Y023600D03*
X022160Y023700D03*
X023160Y023600D03*
X024160Y023700D03*
X025160Y023600D03*
X028160Y023600D03*
X029160Y023700D03*
X030160Y023600D03*
X031160Y023700D03*
X032160Y023600D03*
X033160Y023700D03*
X034160Y023600D03*
X037090Y023650D03*
X038230Y023650D03*
X038110Y021650D03*
X037110Y021650D03*
X037210Y020650D03*
X038210Y020650D03*
X038110Y019650D03*
X037110Y019650D03*
X037210Y018650D03*
X038210Y018650D03*
X038110Y017650D03*
X037110Y017650D03*
X013660Y025480D03*
X012560Y025480D03*
X012560Y026620D03*
X013660Y026620D03*
X008760Y026950D03*
X007760Y026950D03*
D11*
X018160Y023700D03*
X027160Y023700D03*
X037210Y022650D03*
X038210Y022650D03*
X038210Y014650D03*
X037210Y014650D03*
X029160Y004700D03*
X020160Y004700D03*
X011160Y004700D03*
D12*
X011600Y006050D02*
X012120Y006050D01*
X012120Y007050D02*
X011600Y007050D01*
X011600Y008050D02*
X012120Y008050D01*
X012120Y009050D02*
X011600Y009050D01*
X009120Y009050D02*
X008600Y009050D01*
X008600Y008050D02*
X009120Y008050D01*
X009120Y007050D02*
X008600Y007050D01*
X008600Y006050D02*
X009120Y006050D01*
X012800Y015550D02*
X013320Y015550D01*
X013320Y016550D02*
X012800Y016550D01*
X012800Y017550D02*
X013320Y017550D01*
X013320Y018550D02*
X012800Y018550D01*
X012800Y019550D02*
X013320Y019550D01*
X013320Y020550D02*
X012800Y020550D01*
X012800Y021550D02*
X013320Y021550D01*
X015800Y021550D02*
X016320Y021550D01*
X016320Y020550D02*
X015800Y020550D01*
X015800Y019550D02*
X016320Y019550D01*
X016320Y018550D02*
X015800Y018550D01*
X015800Y017550D02*
X016320Y017550D01*
X016320Y016550D02*
X015800Y016550D01*
X015800Y015550D02*
X016320Y015550D01*
X022160Y012110D02*
X022160Y011590D01*
X023160Y011590D02*
X023160Y012110D01*
X024160Y012110D02*
X024160Y011590D01*
X025160Y011590D02*
X025160Y012110D01*
X025160Y009110D02*
X025160Y008590D01*
X024160Y008590D02*
X024160Y009110D01*
X023160Y009110D02*
X023160Y008590D01*
X022160Y008590D02*
X022160Y009110D01*
X031900Y009350D02*
X032420Y009350D01*
X032420Y008350D02*
X031900Y008350D01*
X031900Y007350D02*
X032420Y007350D01*
X032420Y006350D02*
X031900Y006350D01*
X034900Y006350D02*
X035420Y006350D01*
X035420Y007350D02*
X034900Y007350D01*
X034900Y008350D02*
X035420Y008350D01*
X035420Y009350D02*
X034900Y009350D01*
X034900Y010350D02*
X035420Y010350D01*
X035420Y011350D02*
X034900Y011350D01*
X034900Y012350D02*
X035420Y012350D01*
X035420Y013350D02*
X034900Y013350D01*
X032420Y013350D02*
X031900Y013350D01*
X031900Y012350D02*
X032420Y012350D01*
X032420Y011350D02*
X031900Y011350D01*
X031900Y010350D02*
X032420Y010350D01*
X031060Y018690D02*
X031060Y019210D01*
X030060Y019210D02*
X030060Y018690D01*
X029060Y018690D02*
X029060Y019210D01*
X028060Y019210D02*
X028060Y018690D01*
X028060Y021690D02*
X028060Y022210D01*
X029060Y022210D02*
X029060Y021690D01*
X030060Y021690D02*
X030060Y022210D01*
X031060Y022210D02*
X031060Y021690D01*
D13*
X032360Y022150D03*
X033360Y022150D03*
X033360Y019150D03*
X032360Y019150D03*
X032860Y018150D03*
X032860Y017150D03*
X032160Y014650D03*
X035160Y014650D03*
X035860Y017150D03*
X035860Y018150D03*
X017460Y018550D03*
X017460Y021550D03*
X011360Y024550D03*
X010360Y024550D03*
X010360Y027550D03*
X011360Y027550D03*
X013660Y013150D03*
X013660Y010150D03*
D14*
X027960Y016750D03*
X027960Y017750D03*
D15*
X003860Y025350D03*
D16*
X001260Y025350D03*
X006460Y025350D03*
D17*
X003290Y002650D03*
X006290Y002650D03*
X010890Y002650D03*
X015490Y002650D03*
X019890Y002650D03*
X022690Y002650D03*
X025690Y002650D03*
X030290Y002650D03*
X034890Y002650D03*
X025730Y018650D03*
X022730Y018650D03*
X024030Y025650D03*
X026830Y025650D03*
X029630Y025650D03*
X032430Y025650D03*
X035230Y025650D03*
X038030Y025650D03*
X021030Y025650D03*
X016630Y025650D03*
X002660Y007720D03*
D18*
X002660Y006202D03*
X004808Y002650D03*
X007738Y002650D03*
X009186Y002650D03*
X012338Y002650D03*
X013786Y002650D03*
X016938Y002650D03*
X018386Y002650D03*
X021408Y002650D03*
X024208Y002650D03*
X027138Y002650D03*
X028586Y002650D03*
X031738Y002650D03*
X033186Y002650D03*
X036338Y002650D03*
X037786Y002650D03*
X024212Y018650D03*
X021282Y018650D03*
X019834Y018650D03*
X019582Y025650D03*
X018134Y025650D03*
X015112Y025650D03*
X022512Y025650D03*
X025312Y025650D03*
X028112Y025650D03*
X030912Y025650D03*
X033712Y025650D03*
X036512Y025650D03*
D19*
X036010Y021850D03*
X035160Y021850D03*
X034310Y021850D03*
X034310Y019950D03*
X035160Y019950D03*
X036010Y019950D03*
X030060Y014150D03*
X029060Y014150D03*
X027760Y012150D03*
X026760Y012150D03*
X025660Y007550D03*
X026760Y006350D03*
X027760Y006350D03*
X024160Y006350D03*
X023160Y006350D03*
X021660Y007550D03*
X020710Y006650D03*
X019860Y006650D03*
X019010Y006650D03*
X016360Y006550D03*
X015360Y006550D03*
X012360Y010150D03*
X008360Y010150D03*
X005360Y007450D03*
X005360Y006450D03*
X019360Y010950D03*
X020360Y010950D03*
D20*
X019360Y009050D03*
X016360Y008550D03*
X014160Y008550D03*
X026760Y008050D03*
X027760Y010250D03*
X029060Y010250D03*
X029060Y012450D03*
D21*
X030060Y012450D03*
X030060Y010250D03*
X027760Y008050D03*
X026760Y010250D03*
X020360Y009050D03*
X015360Y008550D03*
X013160Y008550D03*
D22*
X005660Y009250D03*
X001660Y009250D03*
X001660Y004650D03*
X005660Y004650D03*
D23*
X013760Y002624D02*
X013760Y001750D01*
X013860Y001650D01*
X025560Y001650D01*
X025690Y001780D01*
X025690Y002650D01*
X025690Y002680D02*
X027060Y004050D01*
X027460Y004050D01*
X027760Y004350D01*
X027760Y004950D01*
X027460Y005250D01*
X026860Y005250D01*
X026760Y005350D01*
X026760Y006350D01*
X032160Y008350D02*
X035160Y008350D01*
X035160Y007350D01*
X029060Y014150D02*
X029060Y015050D01*
X029160Y015150D01*
X031960Y015150D01*
X032060Y015250D01*
X032060Y015850D01*
X031060Y015950D02*
X032260Y017150D01*
X032860Y017150D01*
X031060Y015950D02*
X022960Y015950D01*
X022560Y015550D01*
X022560Y012850D01*
X022360Y012650D01*
X020560Y012650D01*
X020360Y012450D01*
X020360Y011550D01*
X020160Y011750D01*
X018360Y011750D01*
X018160Y011950D01*
X018160Y020350D01*
X017960Y020550D01*
X016060Y020550D01*
X018160Y022150D02*
X019660Y020650D01*
X019660Y018824D01*
X019834Y018650D01*
X021160Y018772D02*
X021282Y018650D01*
X021160Y018772D02*
X021160Y020650D01*
X019160Y022650D01*
X019160Y023600D01*
X018160Y023700D02*
X018160Y022150D01*
X013860Y021450D02*
X013860Y018650D01*
X013760Y018550D01*
X013860Y018450D01*
X013860Y015650D01*
X013760Y015550D01*
X013060Y015550D01*
X013060Y018550D02*
X010660Y018550D01*
X010560Y018650D01*
X010560Y023600D01*
X013060Y021550D02*
X013760Y021550D01*
X013860Y021450D01*
X013760Y018550D02*
X013060Y018550D01*
X006460Y025350D02*
X007160Y026050D01*
X010860Y026050D01*
X012360Y027550D01*
X025960Y027550D01*
X026060Y027450D01*
X026060Y023150D01*
X026160Y023050D01*
X027360Y023050D01*
X027460Y022950D01*
X027460Y020650D01*
X027660Y020450D01*
X029960Y020450D01*
X030060Y020350D01*
X030060Y018950D01*
X023160Y021850D02*
X022660Y021350D01*
X022660Y018720D01*
X022730Y018650D01*
X023160Y021850D02*
X023160Y023600D01*
X020360Y011550D02*
X020360Y010950D01*
X013786Y002650D02*
X013760Y002624D01*
D24*
X019560Y004350D02*
X019560Y005150D01*
X019660Y005250D01*
X024660Y005250D01*
X024860Y005450D01*
X024860Y008150D01*
X024160Y008850D01*
X025260Y010250D02*
X022460Y010250D01*
X022160Y009950D01*
X022160Y008850D01*
X025260Y010250D02*
X026360Y011350D01*
X030060Y011350D01*
X031060Y012350D01*
X032160Y012350D01*
X032160Y011350D02*
X030960Y011350D01*
X030860Y011250D01*
X030860Y005650D01*
X030760Y005550D01*
X028660Y005550D01*
X028260Y005150D01*
X028260Y004250D01*
X028760Y003750D01*
X029190Y003750D01*
X030290Y002650D01*
X030338Y004050D02*
X031738Y002650D01*
X033186Y002650D02*
X034586Y004050D01*
X036460Y004050D01*
X036760Y004350D01*
X036760Y004950D01*
X036460Y005250D01*
X031560Y005250D01*
X031460Y005350D01*
X031460Y009250D01*
X031560Y009350D01*
X032160Y009350D01*
X031260Y010350D02*
X031160Y010250D01*
X031160Y005350D01*
X031060Y005250D01*
X028760Y005250D01*
X028560Y005050D01*
X028560Y004350D01*
X028860Y004050D01*
X030338Y004050D01*
X033660Y006450D02*
X033760Y006350D01*
X035160Y006350D01*
X035960Y006050D02*
X036560Y005450D01*
X038760Y005450D01*
X038860Y005350D01*
X038860Y003550D01*
X038760Y003450D01*
X037886Y003450D01*
X037786Y003350D01*
X037786Y002650D01*
X038760Y005750D02*
X036760Y005750D01*
X036260Y006250D01*
X036260Y012250D01*
X036160Y012350D01*
X035160Y012350D01*
X035160Y011350D02*
X035860Y011350D01*
X035960Y011250D01*
X035960Y006050D01*
X036660Y007650D02*
X037110Y007650D01*
X036660Y007650D02*
X036560Y007750D01*
X036560Y013250D01*
X036460Y013350D01*
X035160Y013350D01*
X032160Y010350D02*
X031260Y010350D01*
X032160Y007350D02*
X033560Y007350D01*
X033660Y007250D01*
X033660Y006450D01*
X038110Y007650D02*
X038260Y007650D01*
X038860Y007050D01*
X038860Y005850D01*
X038760Y005750D01*
X025690Y002680D02*
X025690Y002650D01*
X021408Y002650D02*
X021408Y004002D01*
X021360Y004050D01*
X019860Y004050D01*
X019560Y004350D01*
X016060Y016550D02*
X014760Y016550D01*
X014560Y016750D01*
X014560Y023600D01*
X014960Y024450D02*
X012360Y024450D01*
X011760Y025050D01*
X009760Y025050D01*
X009660Y024950D01*
X009660Y024450D01*
X010510Y023600D01*
X010560Y023600D01*
X011560Y023700D02*
X011560Y021950D01*
X011660Y021850D01*
X012260Y021850D01*
X012260Y020650D01*
X012360Y020550D01*
X013060Y020550D01*
X014960Y024450D02*
X015060Y024550D01*
X015060Y025598D01*
X015112Y025650D01*
X032360Y022150D02*
X032360Y021350D01*
X032560Y021150D01*
X034160Y021150D01*
X034310Y021300D01*
X034310Y021850D01*
X033360Y022150D02*
X034160Y022950D01*
X034160Y023600D01*
X033160Y023700D02*
X033160Y022950D01*
X032360Y022150D01*
X035960Y021900D02*
X036010Y021850D01*
X035960Y021900D02*
X035960Y024550D01*
X036512Y025102D01*
X036512Y025650D01*
X038030Y025650D02*
X038060Y025620D01*
X038060Y024550D01*
X037960Y024450D01*
X036660Y024450D01*
X036560Y024350D01*
X036560Y020550D01*
X036010Y020000D01*
X036010Y019950D01*
D25*
X017160Y004700D02*
X016260Y004700D01*
X016160Y004600D01*
X014210Y002650D01*
X013786Y002650D01*
X013760Y002624D02*
X012364Y002624D01*
X012338Y002650D01*
X010890Y002650D01*
X008860Y004680D01*
X008860Y006050D01*
X005360Y007450D02*
X002930Y007450D01*
X002660Y007720D01*
X002660Y007650D01*
X004060Y006250D01*
X004060Y005850D01*
X003290Y005080D01*
X003290Y002650D01*
M02*
