%
M48
M72
T01C0.0315
T02C0.0320
T03C0.0400
T04C0.0433
T05C0.0440
T06C0.0472
T07C0.0630
T08C0.0787
%
T01
X3860Y25350
T02
X7760Y25150
X8760Y25150
X10360Y24550
X11360Y24550
X8760Y26950
X7760Y26950
X10360Y27550
X11360Y27550
X13060Y21550
X13060Y20550
X13060Y19550
X13060Y18550
X13060Y17550
X13060Y16550
X13060Y15550
X13660Y13150
X16060Y15550
X16060Y16550
X16060Y17550
X16060Y18550
X16060Y19550
X16060Y20550
X16060Y21550
X17460Y21550
X17460Y18550
X22160Y11850
X23160Y11850
X24160Y11850
X25160Y11850
X26760Y12150
X27760Y12150
X29060Y12450
X30060Y12450
X30060Y14150
X29060Y14150
X32160Y14650
X32160Y13350
X32160Y12350
X32160Y11350
X32160Y10350
X32160Y9350
X32160Y8350
X32160Y7350
X32160Y6350
X35160Y6350
X35160Y7350
X35160Y8350
X35160Y9350
X35160Y10350
X35160Y11350
X35160Y12350
X35160Y13350
X35160Y14650
X35860Y17150
X35860Y18150
X36010Y19950
X35160Y19950
X34310Y19950
X33360Y19150
X32360Y19150
X31060Y18950
X30060Y18950
X29060Y18950
X28060Y18950
X27960Y17750
X27960Y16750
X32860Y17150
X32860Y18150
X34310Y21850
X35160Y21850
X36010Y21850
X33360Y22150
X32360Y22150
X31060Y21950
X30060Y21950
X29060Y21950
X28060Y21950
X20360Y10950
X19360Y10950
X19360Y9050
X20360Y9050
X22160Y8850
X23160Y8850
X24160Y8850
X25160Y8850
X26760Y8050
X27760Y8050
X27760Y6350
X26760Y6350
X25660Y7550
X24160Y6350
X23160Y6350
X21660Y7550
X20710Y6650
X19860Y6650
X19010Y6650
X16360Y6550
X15360Y6550
X15360Y8550
X16360Y8550
X14160Y8550
X13160Y8550
X11860Y8050
X11860Y7050
X11860Y6050
X8860Y6050
X8860Y7050
X8860Y8050
X8860Y9050
X8360Y10150
X11860Y9050
X12360Y10150
X13660Y10150
X5360Y7450
X5360Y6450
X26760Y10250
X27760Y10250
X29060Y10250
X30060Y10250
T03
X25160Y13000
X24160Y13100
X23160Y13000
X23160Y14100
X24160Y14200
X25160Y14100
X25160Y15200
X24160Y15300
X23160Y15200
X31060Y15950
X32060Y15850
X33060Y15950
X34060Y15850
X35060Y15950
X36060Y15850
X37110Y15650
X38110Y15650
X38210Y14650
X37210Y14650
X37110Y13650
X38110Y13650
X38210Y12650
X37210Y12650
X37110Y11650
X38110Y11650
X38210Y10650
X37210Y10650
X37110Y9650
X38110Y9650
X38210Y8650
X37210Y8650
X37110Y7650
X38110Y7650
X38230Y6650
X37090Y6650
X36160Y4600
X35160Y4700
X34160Y4600
X33160Y4700
X32160Y4600
X31160Y4700
X30160Y4600
X29160Y4700
X27160Y4600
X26160Y4700
X25160Y4600
X24160Y4700
X23160Y4600
X22160Y4700
X21160Y4600
X20160Y4700
X18160Y4600
X17160Y4700
X16160Y4600
X15160Y4700
X14160Y4600
X13160Y4700
X12160Y4600
X11160Y4700
X13090Y6550
X14230Y6550
X7260Y6950
X7260Y5950
X7260Y7950
X7490Y22150
X8630Y22150
X8560Y23600
X7560Y23700
X9560Y23700
X10560Y23600
X11560Y23700
X12560Y23600
X13560Y23700
X14560Y23600
X15560Y23700
X16560Y23600
X18160Y23700
X19160Y23600
X20160Y23700
X21160Y23600
X22160Y23700
X23160Y23600
X24160Y23700
X25160Y23600
X27160Y23700
X28160Y23600
X29160Y23700
X30160Y23600
X31160Y23700
X32160Y23600
X33160Y23700
X34160Y23600
X37090Y23650
X37210Y22650
X38210Y22650
X38230Y23650
X38110Y21650
X37110Y21650
X37210Y20650
X38210Y20650
X38110Y19650
X37110Y19650
X37210Y18650
X38210Y18650
X38110Y17650
X37110Y17650
X37210Y16650
X38210Y16650
X13660Y25480
X12560Y25480
X12560Y26620
X13660Y26620
T04
X9833Y20517
T05
X5660Y9250
X1660Y9250
X1660Y4650
X5660Y4650
T06
X3290Y2650
X4808Y2650
X6290Y2650
X7738Y2650
X9186Y2650
X10890Y2650
X12338Y2650
X13786Y2650
X15490Y2650
X16938Y2650
X18386Y2650
X19890Y2650
X21408Y2650
X22690Y2650
X24208Y2650
X25690Y2650
X27138Y2650
X28586Y2650
X30290Y2650
X31738Y2650
X33186Y2650
X34890Y2650
X36338Y2650
X37786Y2650
X25730Y17650
X24212Y17650
X22730Y17650
X21282Y17650
X19834Y17650
X19582Y25650
X18134Y25650
X16630Y25650
X15112Y25650
X21030Y25650
X22512Y25650
X24030Y25650
X25312Y25650
X26830Y25650
X28112Y25650
X29630Y25650
X30912Y25650
X32430Y25650
X33712Y25650
X35230Y25650
X36512Y25650
X38030Y25650
X2660Y7720
X2660Y6202
T07
X9833Y12210
T08
X6460Y25350
X1260Y25350
M30
