G75*
G70*
%OFA0B0*%
%FSLAX24Y24*%
%IPPOS*%
%LPD*%
%AMOC8*
5,1,8,0,0,1.08239X$1,22.5*
%
%ADD10C,0.0060*%
%ADD11C,0.0040*%
%ADD12C,0.0080*%
%ADD13C,0.0050*%
%ADD14C,0.0010*%
%ADD15C,0.0100*%
%ADD16C,0.0160*%
%ADD17R,0.0230X0.0160*%
%ADD18C,0.0020*%
%ADD19C,0.0120*%
%ADD20R,0.0340X0.0240*%
D10*
X002759Y005549D02*
X004459Y005549D01*
X004476Y005551D01*
X004493Y005555D01*
X004509Y005562D01*
X004523Y005572D01*
X004536Y005585D01*
X004546Y005599D01*
X004553Y005615D01*
X004557Y005632D01*
X004559Y005649D01*
X004559Y006449D01*
X004557Y006466D01*
X004553Y006483D01*
X004546Y006499D01*
X004536Y006513D01*
X004523Y006526D01*
X004509Y006536D01*
X004493Y006543D01*
X004476Y006547D01*
X004459Y006549D01*
X002759Y006549D01*
X002742Y006547D01*
X002725Y006543D01*
X002709Y006536D01*
X002695Y006526D01*
X002682Y006513D01*
X002672Y006499D01*
X002665Y006483D01*
X002661Y006466D01*
X002659Y006449D01*
X002659Y005649D01*
X002661Y005632D01*
X002665Y005615D01*
X002672Y005599D01*
X002682Y005585D01*
X002695Y005572D01*
X002709Y005562D01*
X002725Y005555D01*
X002742Y005551D01*
X002759Y005549D01*
X003459Y006049D02*
X003509Y006049D01*
X003709Y006049D02*
X003759Y006049D01*
X007959Y006749D02*
X008709Y006749D01*
X008711Y006710D01*
X008717Y006671D01*
X008726Y006633D01*
X008739Y006596D01*
X008756Y006560D01*
X008776Y006527D01*
X008800Y006495D01*
X008826Y006466D01*
X008855Y006440D01*
X008887Y006416D01*
X008920Y006396D01*
X008956Y006379D01*
X008993Y006366D01*
X009031Y006357D01*
X009070Y006351D01*
X009109Y006349D01*
X009148Y006351D01*
X009187Y006357D01*
X009225Y006366D01*
X009262Y006379D01*
X009298Y006396D01*
X009331Y006416D01*
X009363Y006440D01*
X009392Y006466D01*
X009418Y006495D01*
X009442Y006527D01*
X009462Y006560D01*
X009479Y006596D01*
X009492Y006633D01*
X009501Y006671D01*
X009507Y006710D01*
X009509Y006749D01*
X010259Y006749D01*
X010259Y002749D01*
X007959Y002749D01*
X007959Y006749D01*
X008059Y007199D02*
X008209Y007199D01*
X008259Y007249D01*
X010159Y007249D01*
X010209Y007199D01*
X010359Y007199D01*
X010376Y007201D01*
X010393Y007205D01*
X010409Y007212D01*
X010423Y007222D01*
X010436Y007235D01*
X010446Y007249D01*
X010453Y007265D01*
X010457Y007282D01*
X010459Y007299D01*
X010459Y007999D01*
X010457Y008016D01*
X010453Y008033D01*
X010446Y008049D01*
X010436Y008063D01*
X010423Y008076D01*
X010409Y008086D01*
X010393Y008093D01*
X010376Y008097D01*
X010359Y008099D01*
X010209Y008099D01*
X010159Y008049D01*
X008259Y008049D01*
X008209Y008099D01*
X008059Y008099D01*
X008042Y008097D01*
X008025Y008093D01*
X008009Y008086D01*
X007995Y008076D01*
X007982Y008063D01*
X007972Y008049D01*
X007965Y008033D01*
X007961Y008016D01*
X007959Y007999D01*
X007959Y007299D01*
X007961Y007282D01*
X007965Y007265D01*
X007972Y007249D01*
X007982Y007235D01*
X007995Y007222D01*
X008009Y007212D01*
X008025Y007205D01*
X008042Y007201D01*
X008059Y007199D01*
X011909Y007799D02*
X011909Y008199D01*
X011909Y009149D01*
X011909Y009499D01*
X012709Y009849D02*
X012809Y009849D01*
X012809Y009949D01*
X013409Y009949D01*
X013409Y009849D01*
X013509Y009849D01*
X014309Y009499D02*
X014309Y009149D01*
X014309Y008149D01*
X014309Y007799D01*
X014809Y008199D02*
X014809Y006499D01*
X014811Y006482D01*
X014815Y006465D01*
X014822Y006449D01*
X014832Y006435D01*
X014845Y006422D01*
X014859Y006412D01*
X014875Y006405D01*
X014892Y006401D01*
X014909Y006399D01*
X015709Y006399D01*
X015726Y006401D01*
X015743Y006405D01*
X015759Y006412D01*
X015773Y006422D01*
X015786Y006435D01*
X015796Y006449D01*
X015803Y006465D01*
X015807Y006482D01*
X015809Y006499D01*
X015809Y008199D01*
X015807Y008216D01*
X015803Y008233D01*
X015796Y008249D01*
X015786Y008263D01*
X015773Y008276D01*
X015759Y008286D01*
X015743Y008293D01*
X015726Y008297D01*
X015709Y008299D01*
X014909Y008299D01*
X014892Y008297D01*
X014875Y008293D01*
X014859Y008286D01*
X014845Y008276D01*
X014832Y008263D01*
X014822Y008249D01*
X014815Y008233D01*
X014811Y008216D01*
X014809Y008199D01*
X014909Y008499D02*
X015709Y008499D01*
X015726Y008501D01*
X015743Y008505D01*
X015759Y008512D01*
X015773Y008522D01*
X015786Y008535D01*
X015796Y008549D01*
X015803Y008565D01*
X015807Y008582D01*
X015809Y008599D01*
X015809Y010299D01*
X015807Y010316D01*
X015803Y010333D01*
X015796Y010349D01*
X015786Y010363D01*
X015773Y010376D01*
X015759Y010386D01*
X015743Y010393D01*
X015726Y010397D01*
X015709Y010399D01*
X014909Y010399D01*
X014892Y010397D01*
X014875Y010393D01*
X014859Y010386D01*
X014845Y010376D01*
X014832Y010363D01*
X014822Y010349D01*
X014815Y010333D01*
X014811Y010316D01*
X014809Y010299D01*
X014809Y008599D01*
X014811Y008582D01*
X014815Y008565D01*
X014822Y008549D01*
X014832Y008535D01*
X014845Y008522D01*
X014859Y008512D01*
X014875Y008505D01*
X014892Y008501D01*
X014909Y008499D01*
X015309Y009299D02*
X015309Y009349D01*
X015309Y009549D02*
X015309Y009599D01*
X016609Y008899D02*
X016709Y008899D01*
X016709Y008999D01*
X016709Y008899D02*
X016809Y008899D01*
X016709Y008899D02*
X016709Y008799D01*
X016209Y009449D02*
X016211Y009512D01*
X016217Y009574D01*
X016227Y009636D01*
X016240Y009698D01*
X016258Y009758D01*
X016279Y009817D01*
X016304Y009875D01*
X016333Y009931D01*
X016365Y009985D01*
X016400Y010037D01*
X016438Y010086D01*
X016480Y010134D01*
X016524Y010178D01*
X016572Y010220D01*
X016621Y010258D01*
X016673Y010293D01*
X016727Y010325D01*
X016783Y010354D01*
X016841Y010379D01*
X016900Y010400D01*
X016960Y010418D01*
X017022Y010431D01*
X017084Y010441D01*
X017146Y010447D01*
X017209Y010449D01*
X017272Y010447D01*
X017334Y010441D01*
X017396Y010431D01*
X017458Y010418D01*
X017518Y010400D01*
X017577Y010379D01*
X017635Y010354D01*
X017691Y010325D01*
X017745Y010293D01*
X017797Y010258D01*
X017846Y010220D01*
X017894Y010178D01*
X017938Y010134D01*
X017980Y010086D01*
X018018Y010037D01*
X018053Y009985D01*
X018085Y009931D01*
X018114Y009875D01*
X018139Y009817D01*
X018160Y009758D01*
X018178Y009698D01*
X018191Y009636D01*
X018201Y009574D01*
X018207Y009512D01*
X018209Y009449D01*
X018207Y009386D01*
X018201Y009324D01*
X018191Y009262D01*
X018178Y009200D01*
X018160Y009140D01*
X018139Y009081D01*
X018114Y009023D01*
X018085Y008967D01*
X018053Y008913D01*
X018018Y008861D01*
X017980Y008812D01*
X017938Y008764D01*
X017894Y008720D01*
X017846Y008678D01*
X017797Y008640D01*
X017745Y008605D01*
X017691Y008573D01*
X017635Y008544D01*
X017577Y008519D01*
X017518Y008498D01*
X017458Y008480D01*
X017396Y008467D01*
X017334Y008457D01*
X017272Y008451D01*
X017209Y008449D01*
X017146Y008451D01*
X017084Y008457D01*
X017022Y008467D01*
X016960Y008480D01*
X016900Y008498D01*
X016841Y008519D01*
X016783Y008544D01*
X016727Y008573D01*
X016673Y008605D01*
X016621Y008640D01*
X016572Y008678D01*
X016524Y008720D01*
X016480Y008764D01*
X016438Y008812D01*
X016400Y008861D01*
X016365Y008913D01*
X016333Y008967D01*
X016304Y009023D01*
X016279Y009081D01*
X016258Y009140D01*
X016240Y009200D01*
X016227Y009262D01*
X016217Y009324D01*
X016211Y009386D01*
X016209Y009449D01*
X015309Y007499D02*
X015309Y007449D01*
X015309Y007249D02*
X015309Y007199D01*
X016609Y006799D02*
X016709Y006799D01*
X016709Y006899D01*
X016709Y006799D02*
X016809Y006799D01*
X016709Y006799D02*
X016709Y006699D01*
X016209Y007349D02*
X016211Y007412D01*
X016217Y007474D01*
X016227Y007536D01*
X016240Y007598D01*
X016258Y007658D01*
X016279Y007717D01*
X016304Y007775D01*
X016333Y007831D01*
X016365Y007885D01*
X016400Y007937D01*
X016438Y007986D01*
X016480Y008034D01*
X016524Y008078D01*
X016572Y008120D01*
X016621Y008158D01*
X016673Y008193D01*
X016727Y008225D01*
X016783Y008254D01*
X016841Y008279D01*
X016900Y008300D01*
X016960Y008318D01*
X017022Y008331D01*
X017084Y008341D01*
X017146Y008347D01*
X017209Y008349D01*
X017272Y008347D01*
X017334Y008341D01*
X017396Y008331D01*
X017458Y008318D01*
X017518Y008300D01*
X017577Y008279D01*
X017635Y008254D01*
X017691Y008225D01*
X017745Y008193D01*
X017797Y008158D01*
X017846Y008120D01*
X017894Y008078D01*
X017938Y008034D01*
X017980Y007986D01*
X018018Y007937D01*
X018053Y007885D01*
X018085Y007831D01*
X018114Y007775D01*
X018139Y007717D01*
X018160Y007658D01*
X018178Y007598D01*
X018191Y007536D01*
X018201Y007474D01*
X018207Y007412D01*
X018209Y007349D01*
X018207Y007286D01*
X018201Y007224D01*
X018191Y007162D01*
X018178Y007100D01*
X018160Y007040D01*
X018139Y006981D01*
X018114Y006923D01*
X018085Y006867D01*
X018053Y006813D01*
X018018Y006761D01*
X017980Y006712D01*
X017938Y006664D01*
X017894Y006620D01*
X017846Y006578D01*
X017797Y006540D01*
X017745Y006505D01*
X017691Y006473D01*
X017635Y006444D01*
X017577Y006419D01*
X017518Y006398D01*
X017458Y006380D01*
X017396Y006367D01*
X017334Y006357D01*
X017272Y006351D01*
X017209Y006349D01*
X017146Y006351D01*
X017084Y006357D01*
X017022Y006367D01*
X016960Y006380D01*
X016900Y006398D01*
X016841Y006419D01*
X016783Y006444D01*
X016727Y006473D01*
X016673Y006505D01*
X016621Y006540D01*
X016572Y006578D01*
X016524Y006620D01*
X016480Y006664D01*
X016438Y006712D01*
X016400Y006761D01*
X016365Y006813D01*
X016333Y006867D01*
X016304Y006923D01*
X016279Y006981D01*
X016258Y007040D01*
X016240Y007100D01*
X016227Y007162D01*
X016217Y007224D01*
X016211Y007286D01*
X016209Y007349D01*
X018363Y006849D02*
X018521Y006849D01*
X018584Y006299D02*
X020233Y006299D01*
X020296Y006849D02*
X020454Y006849D01*
X022199Y007019D02*
X023618Y007019D01*
X023618Y008879D02*
X022199Y008879D01*
X022409Y009099D02*
X022409Y010799D01*
X022411Y010816D01*
X022415Y010833D01*
X022422Y010849D01*
X022432Y010863D01*
X022445Y010876D01*
X022459Y010886D01*
X022475Y010893D01*
X022492Y010897D01*
X022509Y010899D01*
X023309Y010899D01*
X023326Y010897D01*
X023343Y010893D01*
X023359Y010886D01*
X023373Y010876D01*
X023386Y010863D01*
X023396Y010849D01*
X023403Y010833D01*
X023407Y010816D01*
X023409Y010799D01*
X023409Y009099D01*
X023407Y009082D01*
X023403Y009065D01*
X023396Y009049D01*
X023386Y009035D01*
X023373Y009022D01*
X023359Y009012D01*
X023343Y009005D01*
X023326Y009001D01*
X023309Y008999D01*
X022509Y008999D01*
X022492Y009001D01*
X022475Y009005D01*
X022459Y009012D01*
X022445Y009022D01*
X022432Y009035D01*
X022422Y009049D01*
X022415Y009065D01*
X022411Y009082D01*
X022409Y009099D01*
X022909Y009799D02*
X022909Y009849D01*
X022909Y010049D02*
X022909Y010099D01*
X021409Y010499D02*
X021309Y010499D01*
X021309Y010399D01*
X021309Y010499D02*
X021209Y010499D01*
X021309Y010499D02*
X021309Y010599D01*
X019809Y009949D02*
X019811Y010012D01*
X019817Y010074D01*
X019827Y010136D01*
X019840Y010198D01*
X019858Y010258D01*
X019879Y010317D01*
X019904Y010375D01*
X019933Y010431D01*
X019965Y010485D01*
X020000Y010537D01*
X020038Y010586D01*
X020080Y010634D01*
X020124Y010678D01*
X020172Y010720D01*
X020221Y010758D01*
X020273Y010793D01*
X020327Y010825D01*
X020383Y010854D01*
X020441Y010879D01*
X020500Y010900D01*
X020560Y010918D01*
X020622Y010931D01*
X020684Y010941D01*
X020746Y010947D01*
X020809Y010949D01*
X020872Y010947D01*
X020934Y010941D01*
X020996Y010931D01*
X021058Y010918D01*
X021118Y010900D01*
X021177Y010879D01*
X021235Y010854D01*
X021291Y010825D01*
X021345Y010793D01*
X021397Y010758D01*
X021446Y010720D01*
X021494Y010678D01*
X021538Y010634D01*
X021580Y010586D01*
X021618Y010537D01*
X021653Y010485D01*
X021685Y010431D01*
X021714Y010375D01*
X021739Y010317D01*
X021760Y010258D01*
X021778Y010198D01*
X021791Y010136D01*
X021801Y010074D01*
X021807Y010012D01*
X021809Y009949D01*
X021807Y009886D01*
X021801Y009824D01*
X021791Y009762D01*
X021778Y009700D01*
X021760Y009640D01*
X021739Y009581D01*
X021714Y009523D01*
X021685Y009467D01*
X021653Y009413D01*
X021618Y009361D01*
X021580Y009312D01*
X021538Y009264D01*
X021494Y009220D01*
X021446Y009178D01*
X021397Y009140D01*
X021345Y009105D01*
X021291Y009073D01*
X021235Y009044D01*
X021177Y009019D01*
X021118Y008998D01*
X021058Y008980D01*
X020996Y008967D01*
X020934Y008957D01*
X020872Y008951D01*
X020809Y008949D01*
X020746Y008951D01*
X020684Y008957D01*
X020622Y008967D01*
X020560Y008980D01*
X020500Y008998D01*
X020441Y009019D01*
X020383Y009044D01*
X020327Y009073D01*
X020273Y009105D01*
X020221Y009140D01*
X020172Y009178D01*
X020124Y009220D01*
X020080Y009264D01*
X020038Y009312D01*
X020000Y009361D01*
X019965Y009413D01*
X019933Y009467D01*
X019904Y009523D01*
X019879Y009581D01*
X019858Y009640D01*
X019840Y009700D01*
X019827Y009762D01*
X019817Y009824D01*
X019811Y009886D01*
X019809Y009949D01*
X020559Y011449D02*
X022859Y011449D01*
X022859Y015449D01*
X022109Y015449D01*
X022107Y015410D01*
X022101Y015371D01*
X022092Y015333D01*
X022079Y015296D01*
X022062Y015260D01*
X022042Y015227D01*
X022018Y015195D01*
X021992Y015166D01*
X021963Y015140D01*
X021931Y015116D01*
X021898Y015096D01*
X021862Y015079D01*
X021825Y015066D01*
X021787Y015057D01*
X021748Y015051D01*
X021709Y015049D01*
X021670Y015051D01*
X021631Y015057D01*
X021593Y015066D01*
X021556Y015079D01*
X021520Y015096D01*
X021487Y015116D01*
X021455Y015140D01*
X021426Y015166D01*
X021400Y015195D01*
X021376Y015227D01*
X021356Y015260D01*
X021339Y015296D01*
X021326Y015333D01*
X021317Y015371D01*
X021311Y015410D01*
X021309Y015449D01*
X020559Y015449D01*
X020559Y011449D01*
X018359Y012299D02*
X018209Y012299D01*
X018159Y012349D01*
X016259Y012349D01*
X016209Y012299D01*
X016059Y012299D01*
X016259Y013149D02*
X018159Y013149D01*
X018209Y013199D01*
X018359Y013199D01*
X018059Y013449D02*
X016359Y013449D01*
X016342Y013451D01*
X016325Y013455D01*
X016309Y013462D01*
X016295Y013472D01*
X016282Y013485D01*
X016272Y013499D01*
X016265Y013515D01*
X016261Y013532D01*
X016259Y013549D01*
X016259Y014349D01*
X016261Y014366D01*
X016265Y014383D01*
X016272Y014399D01*
X016282Y014413D01*
X016295Y014426D01*
X016309Y014436D01*
X016325Y014443D01*
X016342Y014447D01*
X016359Y014449D01*
X018059Y014449D01*
X018076Y014447D01*
X018093Y014443D01*
X018109Y014436D01*
X018123Y014426D01*
X018136Y014413D01*
X018146Y014399D01*
X018153Y014383D01*
X018157Y014366D01*
X018159Y014349D01*
X018159Y013549D01*
X018157Y013532D01*
X018153Y013515D01*
X018146Y013499D01*
X018136Y013485D01*
X018123Y013472D01*
X018109Y013462D01*
X018093Y013455D01*
X018076Y013451D01*
X018059Y013449D01*
X017359Y013949D02*
X017309Y013949D01*
X017109Y013949D02*
X017059Y013949D01*
X016259Y013149D02*
X016209Y013199D01*
X016059Y013199D01*
X015759Y015949D02*
X018059Y015949D01*
X018059Y022949D01*
X017309Y022949D01*
X017307Y022910D01*
X017301Y022871D01*
X017292Y022833D01*
X017279Y022796D01*
X017262Y022760D01*
X017242Y022727D01*
X017218Y022695D01*
X017192Y022666D01*
X017163Y022640D01*
X017131Y022616D01*
X017098Y022596D01*
X017062Y022579D01*
X017025Y022566D01*
X016987Y022557D01*
X016948Y022551D01*
X016909Y022549D01*
X016870Y022551D01*
X016831Y022557D01*
X016793Y022566D01*
X016756Y022579D01*
X016720Y022596D01*
X016687Y022616D01*
X016655Y022640D01*
X016626Y022666D01*
X016600Y022695D01*
X016576Y022727D01*
X016556Y022760D01*
X016539Y022796D01*
X016526Y022833D01*
X016517Y022871D01*
X016511Y022910D01*
X016509Y022949D01*
X015759Y022949D01*
X015759Y015949D01*
X020559Y015699D02*
X020709Y015699D01*
X020759Y015749D01*
X022659Y015749D01*
X022709Y015699D01*
X022859Y015699D01*
X022659Y016549D02*
X020759Y016549D01*
X020709Y016599D01*
X020559Y016599D01*
X020759Y016849D02*
X020759Y017649D01*
X020761Y017666D01*
X020765Y017683D01*
X020772Y017699D01*
X020782Y017713D01*
X020795Y017726D01*
X020809Y017736D01*
X020825Y017743D01*
X020842Y017747D01*
X020859Y017749D01*
X022559Y017749D01*
X022576Y017747D01*
X022593Y017743D01*
X022609Y017736D01*
X022623Y017726D01*
X022636Y017713D01*
X022646Y017699D01*
X022653Y017683D01*
X022657Y017666D01*
X022659Y017649D01*
X022659Y016849D01*
X022657Y016832D01*
X022653Y016815D01*
X022646Y016799D01*
X022636Y016785D01*
X022623Y016772D01*
X022609Y016762D01*
X022593Y016755D01*
X022576Y016751D01*
X022559Y016749D01*
X020859Y016749D01*
X020842Y016751D01*
X020825Y016755D01*
X020809Y016762D01*
X020795Y016772D01*
X020782Y016785D01*
X020772Y016799D01*
X020765Y016815D01*
X020761Y016832D01*
X020759Y016849D01*
X021559Y017249D02*
X021609Y017249D01*
X021809Y017249D02*
X021859Y017249D01*
X022659Y016549D02*
X022709Y016599D01*
X022859Y016599D01*
X024309Y015199D02*
X024309Y015099D01*
X024209Y015099D01*
X024309Y015099D02*
X024409Y015099D01*
X024309Y015099D02*
X024309Y014999D01*
X023809Y015649D02*
X023811Y015712D01*
X023817Y015774D01*
X023827Y015836D01*
X023840Y015898D01*
X023858Y015958D01*
X023879Y016017D01*
X023904Y016075D01*
X023933Y016131D01*
X023965Y016185D01*
X024000Y016237D01*
X024038Y016286D01*
X024080Y016334D01*
X024124Y016378D01*
X024172Y016420D01*
X024221Y016458D01*
X024273Y016493D01*
X024327Y016525D01*
X024383Y016554D01*
X024441Y016579D01*
X024500Y016600D01*
X024560Y016618D01*
X024622Y016631D01*
X024684Y016641D01*
X024746Y016647D01*
X024809Y016649D01*
X024872Y016647D01*
X024934Y016641D01*
X024996Y016631D01*
X025058Y016618D01*
X025118Y016600D01*
X025177Y016579D01*
X025235Y016554D01*
X025291Y016525D01*
X025345Y016493D01*
X025397Y016458D01*
X025446Y016420D01*
X025494Y016378D01*
X025538Y016334D01*
X025580Y016286D01*
X025618Y016237D01*
X025653Y016185D01*
X025685Y016131D01*
X025714Y016075D01*
X025739Y016017D01*
X025760Y015958D01*
X025778Y015898D01*
X025791Y015836D01*
X025801Y015774D01*
X025807Y015712D01*
X025809Y015649D01*
X025807Y015586D01*
X025801Y015524D01*
X025791Y015462D01*
X025778Y015400D01*
X025760Y015340D01*
X025739Y015281D01*
X025714Y015223D01*
X025685Y015167D01*
X025653Y015113D01*
X025618Y015061D01*
X025580Y015012D01*
X025538Y014964D01*
X025494Y014920D01*
X025446Y014878D01*
X025397Y014840D01*
X025345Y014805D01*
X025291Y014773D01*
X025235Y014744D01*
X025177Y014719D01*
X025118Y014698D01*
X025058Y014680D01*
X024996Y014667D01*
X024934Y014657D01*
X024872Y014651D01*
X024809Y014649D01*
X024746Y014651D01*
X024684Y014657D01*
X024622Y014667D01*
X024560Y014680D01*
X024500Y014698D01*
X024441Y014719D01*
X024383Y014744D01*
X024327Y014773D01*
X024273Y014805D01*
X024221Y014840D01*
X024172Y014878D01*
X024124Y014920D01*
X024080Y014964D01*
X024038Y015012D01*
X024000Y015061D01*
X023965Y015113D01*
X023933Y015167D01*
X023904Y015223D01*
X023879Y015281D01*
X023858Y015340D01*
X023840Y015400D01*
X023827Y015462D01*
X023817Y015524D01*
X023811Y015586D01*
X023809Y015649D01*
X027059Y011349D02*
X028759Y011349D01*
X028776Y011347D01*
X028793Y011343D01*
X028809Y011336D01*
X028823Y011326D01*
X028836Y011313D01*
X028846Y011299D01*
X028853Y011283D01*
X028857Y011266D01*
X028859Y011249D01*
X028859Y010449D01*
X028857Y010432D01*
X028853Y010415D01*
X028846Y010399D01*
X028836Y010385D01*
X028823Y010372D01*
X028809Y010362D01*
X028793Y010355D01*
X028776Y010351D01*
X028759Y010349D01*
X027059Y010349D01*
X027042Y010351D01*
X027025Y010355D01*
X027009Y010362D01*
X026995Y010372D01*
X026982Y010385D01*
X026972Y010399D01*
X026965Y010415D01*
X026961Y010432D01*
X026959Y010449D01*
X026959Y011249D01*
X026961Y011266D01*
X026965Y011283D01*
X026972Y011299D01*
X026982Y011313D01*
X026995Y011326D01*
X027009Y011336D01*
X027025Y011343D01*
X027042Y011347D01*
X027059Y011349D01*
X027759Y010849D02*
X027809Y010849D01*
X028009Y010849D02*
X028059Y010849D01*
X028509Y009599D02*
X028509Y009499D01*
X028609Y009499D01*
X028509Y009499D02*
X028509Y009399D01*
X028509Y009499D02*
X028409Y009499D01*
X027009Y008949D02*
X027011Y009012D01*
X027017Y009074D01*
X027027Y009136D01*
X027040Y009198D01*
X027058Y009258D01*
X027079Y009317D01*
X027104Y009375D01*
X027133Y009431D01*
X027165Y009485D01*
X027200Y009537D01*
X027238Y009586D01*
X027280Y009634D01*
X027324Y009678D01*
X027372Y009720D01*
X027421Y009758D01*
X027473Y009793D01*
X027527Y009825D01*
X027583Y009854D01*
X027641Y009879D01*
X027700Y009900D01*
X027760Y009918D01*
X027822Y009931D01*
X027884Y009941D01*
X027946Y009947D01*
X028009Y009949D01*
X028072Y009947D01*
X028134Y009941D01*
X028196Y009931D01*
X028258Y009918D01*
X028318Y009900D01*
X028377Y009879D01*
X028435Y009854D01*
X028491Y009825D01*
X028545Y009793D01*
X028597Y009758D01*
X028646Y009720D01*
X028694Y009678D01*
X028738Y009634D01*
X028780Y009586D01*
X028818Y009537D01*
X028853Y009485D01*
X028885Y009431D01*
X028914Y009375D01*
X028939Y009317D01*
X028960Y009258D01*
X028978Y009198D01*
X028991Y009136D01*
X029001Y009074D01*
X029007Y009012D01*
X029009Y008949D01*
X029007Y008886D01*
X029001Y008824D01*
X028991Y008762D01*
X028978Y008700D01*
X028960Y008640D01*
X028939Y008581D01*
X028914Y008523D01*
X028885Y008467D01*
X028853Y008413D01*
X028818Y008361D01*
X028780Y008312D01*
X028738Y008264D01*
X028694Y008220D01*
X028646Y008178D01*
X028597Y008140D01*
X028545Y008105D01*
X028491Y008073D01*
X028435Y008044D01*
X028377Y008019D01*
X028318Y007998D01*
X028258Y007980D01*
X028196Y007967D01*
X028134Y007957D01*
X028072Y007951D01*
X028009Y007949D01*
X027946Y007951D01*
X027884Y007957D01*
X027822Y007967D01*
X027760Y007980D01*
X027700Y007998D01*
X027641Y008019D01*
X027583Y008044D01*
X027527Y008073D01*
X027473Y008105D01*
X027421Y008140D01*
X027372Y008178D01*
X027324Y008220D01*
X027280Y008264D01*
X027238Y008312D01*
X027200Y008361D01*
X027165Y008413D01*
X027133Y008467D01*
X027104Y008523D01*
X027079Y008581D01*
X027058Y008640D01*
X027040Y008700D01*
X027027Y008762D01*
X027017Y008824D01*
X027011Y008886D01*
X027009Y008949D01*
X026309Y009499D02*
X026209Y009499D01*
X026209Y009399D01*
X026209Y009499D02*
X026109Y009499D01*
X026209Y009499D02*
X026209Y009599D01*
X024709Y008949D02*
X024711Y009012D01*
X024717Y009074D01*
X024727Y009136D01*
X024740Y009198D01*
X024758Y009258D01*
X024779Y009317D01*
X024804Y009375D01*
X024833Y009431D01*
X024865Y009485D01*
X024900Y009537D01*
X024938Y009586D01*
X024980Y009634D01*
X025024Y009678D01*
X025072Y009720D01*
X025121Y009758D01*
X025173Y009793D01*
X025227Y009825D01*
X025283Y009854D01*
X025341Y009879D01*
X025400Y009900D01*
X025460Y009918D01*
X025522Y009931D01*
X025584Y009941D01*
X025646Y009947D01*
X025709Y009949D01*
X025772Y009947D01*
X025834Y009941D01*
X025896Y009931D01*
X025958Y009918D01*
X026018Y009900D01*
X026077Y009879D01*
X026135Y009854D01*
X026191Y009825D01*
X026245Y009793D01*
X026297Y009758D01*
X026346Y009720D01*
X026394Y009678D01*
X026438Y009634D01*
X026480Y009586D01*
X026518Y009537D01*
X026553Y009485D01*
X026585Y009431D01*
X026614Y009375D01*
X026639Y009317D01*
X026660Y009258D01*
X026678Y009198D01*
X026691Y009136D01*
X026701Y009074D01*
X026707Y009012D01*
X026709Y008949D01*
X026707Y008886D01*
X026701Y008824D01*
X026691Y008762D01*
X026678Y008700D01*
X026660Y008640D01*
X026639Y008581D01*
X026614Y008523D01*
X026585Y008467D01*
X026553Y008413D01*
X026518Y008361D01*
X026480Y008312D01*
X026438Y008264D01*
X026394Y008220D01*
X026346Y008178D01*
X026297Y008140D01*
X026245Y008105D01*
X026191Y008073D01*
X026135Y008044D01*
X026077Y008019D01*
X026018Y007998D01*
X025958Y007980D01*
X025896Y007967D01*
X025834Y007957D01*
X025772Y007951D01*
X025709Y007949D01*
X025646Y007951D01*
X025584Y007957D01*
X025522Y007967D01*
X025460Y007980D01*
X025400Y007998D01*
X025341Y008019D01*
X025283Y008044D01*
X025227Y008073D01*
X025173Y008105D01*
X025121Y008140D01*
X025072Y008178D01*
X025024Y008220D01*
X024980Y008264D01*
X024938Y008312D01*
X024900Y008361D01*
X024865Y008413D01*
X024833Y008467D01*
X024804Y008523D01*
X024779Y008581D01*
X024758Y008640D01*
X024740Y008700D01*
X024727Y008762D01*
X024717Y008824D01*
X024711Y008886D01*
X024709Y008949D01*
X026259Y007599D02*
X026409Y007599D01*
X026459Y007549D01*
X028359Y007549D01*
X028409Y007599D01*
X028559Y007599D01*
X028359Y006749D02*
X026459Y006749D01*
X026409Y006699D01*
X026259Y006699D01*
X028359Y006749D02*
X028409Y006699D01*
X028559Y006699D01*
X016659Y003699D02*
X016509Y003699D01*
X016459Y003649D01*
X014559Y003649D01*
X014509Y003699D01*
X014359Y003699D01*
X014559Y002849D02*
X016459Y002849D01*
X016509Y002799D01*
X016659Y002799D01*
X014559Y002849D02*
X014509Y002799D01*
X014359Y002799D01*
X012909Y004199D02*
X012909Y004299D01*
X013009Y004299D01*
X012909Y004299D02*
X012809Y004299D01*
X012909Y004299D02*
X012909Y004399D01*
X011409Y003749D02*
X011411Y003812D01*
X011417Y003874D01*
X011427Y003936D01*
X011440Y003998D01*
X011458Y004058D01*
X011479Y004117D01*
X011504Y004175D01*
X011533Y004231D01*
X011565Y004285D01*
X011600Y004337D01*
X011638Y004386D01*
X011680Y004434D01*
X011724Y004478D01*
X011772Y004520D01*
X011821Y004558D01*
X011873Y004593D01*
X011927Y004625D01*
X011983Y004654D01*
X012041Y004679D01*
X012100Y004700D01*
X012160Y004718D01*
X012222Y004731D01*
X012284Y004741D01*
X012346Y004747D01*
X012409Y004749D01*
X012472Y004747D01*
X012534Y004741D01*
X012596Y004731D01*
X012658Y004718D01*
X012718Y004700D01*
X012777Y004679D01*
X012835Y004654D01*
X012891Y004625D01*
X012945Y004593D01*
X012997Y004558D01*
X013046Y004520D01*
X013094Y004478D01*
X013138Y004434D01*
X013180Y004386D01*
X013218Y004337D01*
X013253Y004285D01*
X013285Y004231D01*
X013314Y004175D01*
X013339Y004117D01*
X013360Y004058D01*
X013378Y003998D01*
X013391Y003936D01*
X013401Y003874D01*
X013407Y003812D01*
X013409Y003749D01*
X013407Y003686D01*
X013401Y003624D01*
X013391Y003562D01*
X013378Y003500D01*
X013360Y003440D01*
X013339Y003381D01*
X013314Y003323D01*
X013285Y003267D01*
X013253Y003213D01*
X013218Y003161D01*
X013180Y003112D01*
X013138Y003064D01*
X013094Y003020D01*
X013046Y002978D01*
X012997Y002940D01*
X012945Y002905D01*
X012891Y002873D01*
X012835Y002844D01*
X012777Y002819D01*
X012718Y002798D01*
X012658Y002780D01*
X012596Y002767D01*
X012534Y002757D01*
X012472Y002751D01*
X012409Y002749D01*
X012346Y002751D01*
X012284Y002757D01*
X012222Y002767D01*
X012160Y002780D01*
X012100Y002798D01*
X012041Y002819D01*
X011983Y002844D01*
X011927Y002873D01*
X011873Y002905D01*
X011821Y002940D01*
X011772Y002978D01*
X011724Y003020D01*
X011680Y003064D01*
X011638Y003112D01*
X011600Y003161D01*
X011565Y003213D01*
X011533Y003267D01*
X011504Y003323D01*
X011479Y003381D01*
X011458Y003440D01*
X011440Y003500D01*
X011427Y003562D01*
X011417Y003624D01*
X011411Y003686D01*
X011409Y003749D01*
X012809Y007349D02*
X013409Y007349D01*
X013409Y007449D01*
X013509Y007449D01*
X012809Y007449D02*
X012809Y007349D01*
X012809Y007449D02*
X012709Y007449D01*
X013009Y008649D02*
X013011Y008669D01*
X013017Y008687D01*
X013026Y008705D01*
X013038Y008720D01*
X013053Y008732D01*
X013071Y008741D01*
X013089Y008747D01*
X013109Y008749D01*
X013129Y008747D01*
X013147Y008741D01*
X013165Y008732D01*
X013180Y008720D01*
X013192Y008705D01*
X013201Y008687D01*
X013207Y008669D01*
X013209Y008649D01*
X013207Y008629D01*
X013201Y008611D01*
X013192Y008593D01*
X013180Y008578D01*
X013165Y008566D01*
X013147Y008557D01*
X013129Y008551D01*
X013109Y008549D01*
X013089Y008551D01*
X013071Y008557D01*
X013053Y008566D01*
X013038Y008578D01*
X013026Y008593D01*
X013017Y008611D01*
X013011Y008629D01*
X013009Y008649D01*
X012409Y008649D02*
X012411Y008701D01*
X012417Y008753D01*
X012427Y008805D01*
X012440Y008855D01*
X012457Y008905D01*
X012478Y008953D01*
X012503Y008999D01*
X012531Y009043D01*
X012562Y009085D01*
X012596Y009125D01*
X012633Y009162D01*
X012673Y009196D01*
X012715Y009227D01*
X012759Y009255D01*
X012805Y009280D01*
X012853Y009301D01*
X012903Y009318D01*
X012953Y009331D01*
X013005Y009341D01*
X013057Y009347D01*
X013109Y009349D01*
X013161Y009347D01*
X013213Y009341D01*
X013265Y009331D01*
X013315Y009318D01*
X013365Y009301D01*
X013413Y009280D01*
X013459Y009255D01*
X013503Y009227D01*
X013545Y009196D01*
X013585Y009162D01*
X013622Y009125D01*
X013656Y009085D01*
X013687Y009043D01*
X013715Y008999D01*
X013740Y008953D01*
X013761Y008905D01*
X013778Y008855D01*
X013791Y008805D01*
X013801Y008753D01*
X013807Y008701D01*
X013809Y008649D01*
X013807Y008597D01*
X013801Y008545D01*
X013791Y008493D01*
X013778Y008443D01*
X013761Y008393D01*
X013740Y008345D01*
X013715Y008299D01*
X013687Y008255D01*
X013656Y008213D01*
X013622Y008173D01*
X013585Y008136D01*
X013545Y008102D01*
X013503Y008071D01*
X013459Y008043D01*
X013413Y008018D01*
X013365Y007997D01*
X013315Y007980D01*
X013265Y007967D01*
X013213Y007957D01*
X013161Y007951D01*
X013109Y007949D01*
X013057Y007951D01*
X013005Y007957D01*
X012953Y007967D01*
X012903Y007980D01*
X012853Y007997D01*
X012805Y008018D01*
X012759Y008043D01*
X012715Y008071D01*
X012673Y008102D01*
X012633Y008136D01*
X012596Y008173D01*
X012562Y008213D01*
X012531Y008255D01*
X012503Y008299D01*
X012478Y008345D01*
X012457Y008393D01*
X012440Y008443D01*
X012427Y008493D01*
X012417Y008545D01*
X012411Y008597D01*
X012409Y008649D01*
X029909Y019799D02*
X029909Y020549D01*
X029948Y020551D01*
X029987Y020557D01*
X030025Y020566D01*
X030062Y020579D01*
X030098Y020596D01*
X030131Y020616D01*
X030163Y020640D01*
X030192Y020666D01*
X030218Y020695D01*
X030242Y020727D01*
X030262Y020760D01*
X030279Y020796D01*
X030292Y020833D01*
X030301Y020871D01*
X030307Y020910D01*
X030309Y020949D01*
X030307Y020988D01*
X030301Y021027D01*
X030292Y021065D01*
X030279Y021102D01*
X030262Y021138D01*
X030242Y021171D01*
X030218Y021203D01*
X030192Y021232D01*
X030163Y021258D01*
X030131Y021282D01*
X030098Y021302D01*
X030062Y021319D01*
X030025Y021332D01*
X029987Y021341D01*
X029948Y021347D01*
X029909Y021349D01*
X029909Y022099D01*
X033909Y022099D01*
X033909Y019799D01*
X029909Y019799D01*
X030759Y017699D02*
X030909Y017699D01*
X030909Y016599D01*
X030909Y016549D01*
X033909Y016549D01*
X033926Y016551D01*
X033943Y016555D01*
X033959Y016562D01*
X033973Y016572D01*
X033986Y016585D01*
X033996Y016599D01*
X034003Y016615D01*
X034007Y016632D01*
X034009Y016649D01*
X034009Y017649D01*
X034007Y017666D01*
X034003Y017683D01*
X033996Y017699D01*
X033986Y017713D01*
X033973Y017726D01*
X033959Y017736D01*
X033943Y017743D01*
X033926Y017747D01*
X033909Y017749D01*
X030909Y017749D01*
X030909Y017699D01*
X030759Y017699D02*
X030759Y016599D01*
X030909Y016599D01*
X031809Y017149D02*
X032009Y017149D01*
X032009Y017449D01*
X032159Y017449D02*
X032309Y017449D01*
X032309Y016849D01*
X032159Y016849D01*
X032159Y017449D01*
X032459Y017449D02*
X032459Y017149D01*
X032659Y017149D01*
X032459Y017149D02*
X032459Y016849D01*
X032009Y016849D02*
X032009Y017149D01*
X035363Y017149D02*
X035521Y017149D01*
X035584Y017699D02*
X037233Y017699D01*
X037296Y017149D02*
X037454Y017149D01*
X037454Y019149D02*
X037296Y019149D01*
X037233Y019699D02*
X035584Y019699D01*
X035409Y019899D02*
X035259Y019899D01*
X035409Y019899D02*
X035459Y019949D01*
X037359Y019949D01*
X037409Y019899D01*
X037559Y019899D01*
X037359Y020749D02*
X035459Y020749D01*
X035409Y020799D01*
X035259Y020799D01*
X035259Y020899D02*
X035409Y020899D01*
X035459Y020949D01*
X037359Y020949D01*
X037409Y020899D01*
X037559Y020899D01*
X037559Y020799D02*
X037409Y020799D01*
X037359Y020749D01*
X037359Y021749D02*
X035459Y021749D01*
X035409Y021799D01*
X035259Y021799D01*
X035259Y021899D02*
X035409Y021899D01*
X035459Y021949D01*
X037359Y021949D01*
X037409Y021899D01*
X037559Y021899D01*
X037559Y021799D02*
X037409Y021799D01*
X037359Y021749D01*
X037359Y022749D02*
X035459Y022749D01*
X035409Y022799D01*
X035259Y022799D01*
X035259Y022899D02*
X035409Y022899D01*
X035459Y022949D01*
X037359Y022949D01*
X037409Y022899D01*
X037559Y022899D01*
X037559Y022799D02*
X037409Y022799D01*
X037359Y022749D01*
X037359Y023749D02*
X035459Y023749D01*
X035409Y023799D01*
X035259Y023799D01*
X037359Y023749D02*
X037409Y023799D01*
X037559Y023799D01*
X035521Y019149D02*
X035363Y019149D01*
X014959Y025699D02*
X014809Y025699D01*
X014759Y025749D01*
X012859Y025749D01*
X012809Y025699D01*
X012659Y025699D01*
X012859Y026549D02*
X012809Y026599D01*
X012659Y026599D01*
X012659Y026699D02*
X012809Y026699D01*
X012859Y026749D01*
X014759Y026749D01*
X014809Y026699D01*
X014959Y026699D01*
X014959Y026599D02*
X014809Y026599D01*
X014759Y026549D01*
X012859Y026549D01*
X012859Y027549D02*
X012809Y027599D01*
X012659Y027599D01*
X012859Y027549D02*
X014759Y027549D01*
X014809Y027599D01*
X014959Y027599D01*
X006079Y024919D02*
X005439Y024919D01*
X005439Y024492D01*
X005439Y024274D02*
X005439Y024061D01*
X005439Y024168D02*
X005866Y024168D01*
X005866Y024274D01*
X006079Y024168D02*
X006186Y024168D01*
X005759Y023845D02*
X005545Y023845D01*
X005439Y023738D01*
X005439Y023418D01*
X005545Y023200D02*
X005439Y023093D01*
X005439Y022880D01*
X005545Y022773D01*
X005759Y022773D01*
X005866Y022880D01*
X005866Y023093D01*
X005759Y023200D01*
X005545Y023200D01*
X005866Y023418D02*
X005866Y023738D01*
X005759Y023845D01*
X005866Y022555D02*
X005439Y022555D01*
X005652Y022555D02*
X005866Y022342D01*
X005866Y022235D01*
D11*
X011129Y025069D02*
X011129Y025376D01*
X011282Y025529D01*
X011435Y025376D01*
X011435Y025069D01*
X011435Y025299D02*
X011129Y025299D01*
X011729Y025352D02*
X011729Y025046D01*
X011805Y024969D01*
X011959Y024969D01*
X012035Y025046D01*
X012035Y025199D01*
X011882Y025199D01*
X011729Y025352D02*
X011805Y025429D01*
X011959Y025429D01*
X012035Y025352D01*
X012189Y025429D02*
X012496Y024969D01*
X012496Y025429D01*
X012649Y025429D02*
X012880Y025429D01*
X012956Y025352D01*
X012956Y025046D01*
X012880Y024969D01*
X012649Y024969D01*
X012649Y025429D01*
X012929Y025276D02*
X013082Y025429D01*
X013082Y024969D01*
X012929Y024969D02*
X013235Y024969D01*
X013389Y025046D02*
X013466Y024969D01*
X013619Y024969D01*
X013696Y025046D01*
X013696Y025122D01*
X013619Y025199D01*
X013542Y025199D01*
X013619Y025199D02*
X013696Y025276D01*
X013696Y025352D01*
X013619Y025429D01*
X013466Y025429D01*
X013389Y025352D01*
X013929Y025276D02*
X014082Y025429D01*
X014082Y024969D01*
X013929Y024969D02*
X014235Y024969D01*
X014389Y024969D02*
X014696Y025276D01*
X014696Y025352D01*
X014619Y025429D01*
X014466Y025429D01*
X014389Y025352D01*
X014389Y024969D02*
X014696Y024969D01*
X014929Y024969D02*
X015235Y024969D01*
X015082Y024969D02*
X015082Y025429D01*
X014929Y025276D01*
X015389Y025276D02*
X015542Y025429D01*
X015542Y024969D01*
X015389Y024969D02*
X015696Y024969D01*
X016082Y023829D02*
X016082Y023369D01*
X015929Y023369D02*
X016235Y023369D01*
X016389Y023446D02*
X016466Y023369D01*
X016619Y023369D01*
X016696Y023446D01*
X016696Y023752D01*
X016389Y023446D01*
X016389Y023752D01*
X016466Y023829D01*
X016619Y023829D01*
X016696Y023752D01*
X017129Y023752D02*
X017129Y023676D01*
X017205Y023599D01*
X017435Y023599D01*
X017435Y023446D02*
X017435Y023752D01*
X017359Y023829D01*
X017205Y023829D01*
X017129Y023752D01*
X017129Y023446D02*
X017205Y023369D01*
X017359Y023369D01*
X017435Y023446D01*
X018129Y023446D02*
X018205Y023369D01*
X018359Y023369D01*
X018435Y023446D01*
X018435Y023522D01*
X018359Y023599D01*
X018205Y023599D01*
X018129Y023676D01*
X018129Y023752D01*
X018205Y023829D01*
X018359Y023829D01*
X018435Y023752D01*
X018435Y023676D01*
X018359Y023599D01*
X018205Y023599D02*
X018129Y023522D01*
X018129Y023446D01*
X019729Y023446D02*
X019729Y023369D01*
X019729Y023446D02*
X020035Y023752D01*
X020035Y023829D01*
X019729Y023829D01*
X020729Y023599D02*
X020959Y023599D01*
X021035Y023522D01*
X021035Y023446D01*
X020959Y023369D01*
X020805Y023369D01*
X020729Y023446D01*
X020729Y023599D01*
X020882Y023752D01*
X021035Y023829D01*
X021729Y023829D02*
X021729Y023599D01*
X021882Y023676D01*
X021959Y023676D01*
X022035Y023599D01*
X022035Y023446D01*
X021959Y023369D01*
X021805Y023369D01*
X021729Y023446D01*
X021729Y023829D02*
X022035Y023829D01*
X022729Y023599D02*
X023035Y023599D01*
X022959Y023369D02*
X022959Y023829D01*
X022729Y023599D01*
X023729Y023446D02*
X023805Y023369D01*
X023959Y023369D01*
X024035Y023446D01*
X024035Y023522D01*
X023959Y023599D01*
X023882Y023599D01*
X023959Y023599D02*
X024035Y023676D01*
X024035Y023752D01*
X023959Y023829D01*
X023805Y023829D01*
X023729Y023752D01*
X024829Y023752D02*
X024905Y023829D01*
X025059Y023829D01*
X025135Y023752D01*
X025135Y023676D01*
X024829Y023369D01*
X025135Y023369D01*
X025729Y023369D02*
X026035Y023369D01*
X025882Y023369D02*
X025882Y023829D01*
X025729Y023676D01*
X026829Y023752D02*
X026829Y023446D01*
X027135Y023752D01*
X027135Y023446D01*
X027059Y023369D01*
X026905Y023369D01*
X026829Y023446D01*
X026829Y023752D02*
X026905Y023829D01*
X027059Y023829D01*
X027135Y023752D01*
X028529Y023676D02*
X028682Y023829D01*
X028682Y023369D01*
X028529Y023369D02*
X028835Y023369D01*
X028989Y023599D02*
X029296Y023599D01*
X029219Y023369D02*
X029219Y023829D01*
X028989Y023599D01*
X029529Y023676D02*
X029682Y023829D01*
X029682Y023369D01*
X029529Y023369D02*
X029835Y023369D01*
X029989Y023446D02*
X030066Y023369D01*
X030219Y023369D01*
X030296Y023446D01*
X030296Y023599D01*
X030219Y023676D01*
X030142Y023676D01*
X029989Y023599D01*
X029989Y023829D01*
X030296Y023829D01*
X030529Y023676D02*
X030682Y023829D01*
X030682Y023369D01*
X030529Y023369D02*
X030835Y023369D01*
X030989Y023446D02*
X031066Y023369D01*
X031219Y023369D01*
X031296Y023446D01*
X031296Y023522D01*
X031219Y023599D01*
X030989Y023599D01*
X030989Y023446D01*
X030989Y023599D02*
X031142Y023752D01*
X031296Y023829D01*
X031529Y023676D02*
X031682Y023829D01*
X031682Y023369D01*
X031529Y023369D02*
X031835Y023369D01*
X031989Y023369D02*
X031989Y023446D01*
X032296Y023752D01*
X032296Y023829D01*
X031989Y023829D01*
X032529Y023676D02*
X032682Y023829D01*
X032682Y023369D01*
X032529Y023369D02*
X032835Y023369D01*
X032989Y023446D02*
X033066Y023369D01*
X033219Y023369D01*
X033296Y023446D01*
X033296Y023522D01*
X033219Y023599D01*
X033066Y023599D01*
X032989Y023676D01*
X032989Y023752D01*
X033066Y023829D01*
X033219Y023829D01*
X033296Y023752D01*
X033296Y023676D01*
X033219Y023599D01*
X033066Y023599D02*
X032989Y023522D01*
X032989Y023446D01*
X033529Y023369D02*
X033835Y023369D01*
X033682Y023369D02*
X033682Y023829D01*
X033529Y023676D01*
X033989Y023676D02*
X034066Y023599D01*
X034296Y023599D01*
X034296Y023446D02*
X034296Y023752D01*
X034219Y023829D01*
X034066Y023829D01*
X033989Y023752D01*
X033989Y023676D01*
X033989Y023446D02*
X034066Y023369D01*
X034219Y023369D01*
X034296Y023446D01*
X037429Y024246D02*
X037505Y024169D01*
X037659Y024169D01*
X037735Y024246D01*
X037735Y024399D01*
X037659Y024476D01*
X037582Y024476D01*
X037429Y024399D01*
X037429Y024629D01*
X037735Y024629D01*
X037889Y024629D02*
X037889Y024322D01*
X038042Y024169D01*
X038196Y024322D01*
X038196Y024629D01*
X040129Y025580D02*
X040205Y025504D01*
X040129Y025580D02*
X040129Y025734D01*
X040205Y025811D01*
X040512Y025811D01*
X040589Y025734D01*
X040589Y025580D01*
X040512Y025504D01*
X040512Y025964D02*
X040589Y026041D01*
X040589Y026194D01*
X040512Y026271D01*
X040589Y026424D02*
X040589Y026578D01*
X040589Y026501D02*
X040129Y026501D01*
X040129Y026578D02*
X040129Y026424D01*
X040129Y026271D02*
X040435Y025964D01*
X040512Y025964D01*
X040129Y025964D02*
X040129Y026271D01*
X040205Y026731D02*
X040129Y026808D01*
X040129Y026962D01*
X040205Y027038D01*
X040205Y027192D02*
X040129Y027192D01*
X040129Y027268D01*
X040205Y027268D01*
X040205Y027192D01*
X040205Y027422D02*
X040129Y027499D01*
X040129Y027652D01*
X040205Y027729D01*
X040359Y027575D02*
X040359Y027499D01*
X040282Y027422D01*
X040205Y027422D01*
X040359Y027499D02*
X040435Y027422D01*
X040512Y027422D01*
X040589Y027499D01*
X040589Y027652D01*
X040512Y027729D01*
X040512Y027038D02*
X040589Y026962D01*
X040589Y026808D01*
X040512Y026731D01*
X040435Y026731D01*
X040359Y026808D01*
X040282Y026731D01*
X040205Y026731D01*
X040359Y026808D02*
X040359Y026885D01*
X038219Y018629D02*
X038066Y018629D01*
X037989Y018552D01*
X037835Y018552D02*
X037835Y018476D01*
X037759Y018399D01*
X037835Y018322D01*
X037835Y018246D01*
X037759Y018169D01*
X037605Y018169D01*
X037529Y018246D01*
X037682Y018399D02*
X037759Y018399D01*
X037835Y018552D02*
X037759Y018629D01*
X037605Y018629D01*
X037529Y018552D01*
X037989Y018169D02*
X038296Y018476D01*
X038296Y018552D01*
X038219Y018629D01*
X038296Y018169D02*
X037989Y018169D01*
X038219Y017829D02*
X037989Y017599D01*
X038296Y017599D01*
X038219Y017369D02*
X038219Y017829D01*
X037835Y017752D02*
X037835Y017676D01*
X037759Y017599D01*
X037835Y017522D01*
X037835Y017446D01*
X037759Y017369D01*
X037605Y017369D01*
X037529Y017446D01*
X037682Y017599D02*
X037759Y017599D01*
X037835Y017752D02*
X037759Y017829D01*
X037605Y017829D01*
X037529Y017752D01*
X037605Y016629D02*
X037759Y016629D01*
X037835Y016552D01*
X037835Y016476D01*
X037759Y016399D01*
X037835Y016322D01*
X037835Y016246D01*
X037759Y016169D01*
X037605Y016169D01*
X037529Y016246D01*
X037682Y016399D02*
X037759Y016399D01*
X037989Y016399D02*
X038219Y016399D01*
X038296Y016322D01*
X038296Y016246D01*
X038219Y016169D01*
X038066Y016169D01*
X037989Y016246D01*
X037989Y016399D01*
X038142Y016552D01*
X038296Y016629D01*
X037605Y016629D02*
X037529Y016552D01*
X037605Y015729D02*
X037759Y015729D01*
X037835Y015652D01*
X037835Y015576D01*
X037759Y015499D01*
X037835Y015422D01*
X037835Y015346D01*
X037759Y015269D01*
X037605Y015269D01*
X037529Y015346D01*
X037682Y015499D02*
X037759Y015499D01*
X037989Y015422D02*
X038066Y015499D01*
X038219Y015499D01*
X038296Y015422D01*
X038296Y015346D01*
X038219Y015269D01*
X038066Y015269D01*
X037989Y015346D01*
X037989Y015422D01*
X038066Y015499D02*
X037989Y015576D01*
X037989Y015652D01*
X038066Y015729D01*
X038219Y015729D01*
X038296Y015652D01*
X038296Y015576D01*
X038219Y015499D01*
X037605Y015729D02*
X037529Y015652D01*
X037759Y014729D02*
X037529Y014499D01*
X037835Y014499D01*
X037989Y014346D02*
X037989Y014652D01*
X038066Y014729D01*
X038219Y014729D01*
X038296Y014652D01*
X037989Y014346D01*
X038066Y014269D01*
X038219Y014269D01*
X038296Y014346D01*
X038296Y014652D01*
X037759Y014729D02*
X037759Y014269D01*
X037759Y013729D02*
X037529Y013499D01*
X037835Y013499D01*
X037989Y013652D02*
X038066Y013729D01*
X038219Y013729D01*
X038296Y013652D01*
X038296Y013576D01*
X037989Y013269D01*
X038296Y013269D01*
X037759Y013269D02*
X037759Y013729D01*
X037759Y012729D02*
X037529Y012499D01*
X037835Y012499D01*
X037989Y012499D02*
X038296Y012499D01*
X038219Y012269D02*
X038219Y012729D01*
X037989Y012499D01*
X037759Y012269D02*
X037759Y012729D01*
X037759Y011729D02*
X037529Y011499D01*
X037835Y011499D01*
X037989Y011499D02*
X038219Y011499D01*
X038296Y011422D01*
X038296Y011346D01*
X038219Y011269D01*
X038066Y011269D01*
X037989Y011346D01*
X037989Y011499D01*
X038142Y011652D01*
X038296Y011729D01*
X037759Y011729D02*
X037759Y011269D01*
X037759Y010729D02*
X037529Y010499D01*
X037835Y010499D01*
X037989Y010422D02*
X038066Y010499D01*
X038219Y010499D01*
X038296Y010422D01*
X038296Y010346D01*
X038219Y010269D01*
X038066Y010269D01*
X037989Y010346D01*
X037989Y010422D01*
X038066Y010499D02*
X037989Y010576D01*
X037989Y010652D01*
X038066Y010729D01*
X038219Y010729D01*
X038296Y010652D01*
X038296Y010576D01*
X038219Y010499D01*
X037759Y010269D02*
X037759Y010729D01*
X038005Y007629D02*
X037929Y007552D01*
X037929Y007246D01*
X038005Y007169D01*
X038159Y007169D01*
X038235Y007246D01*
X038235Y007399D01*
X038082Y007399D01*
X038235Y007552D02*
X038159Y007629D01*
X038005Y007629D01*
X037480Y006529D02*
X037249Y006299D01*
X037556Y006299D01*
X037480Y006069D02*
X037480Y006529D01*
X036942Y006529D02*
X036942Y006069D01*
X036789Y006069D02*
X037096Y006069D01*
X036789Y006376D02*
X036942Y006529D01*
X036635Y006376D02*
X036635Y006069D01*
X036635Y006299D02*
X036329Y006299D01*
X036329Y006376D02*
X036482Y006529D01*
X036635Y006376D01*
X036329Y006376D02*
X036329Y006069D01*
X035656Y006069D02*
X035349Y006069D01*
X035656Y006376D01*
X035656Y006452D01*
X035580Y006529D01*
X035426Y006529D01*
X035349Y006452D01*
X035042Y006529D02*
X035042Y006069D01*
X034889Y006069D02*
X035196Y006069D01*
X034889Y006376D02*
X035042Y006529D01*
X034735Y006376D02*
X034735Y006069D01*
X034735Y006299D02*
X034429Y006299D01*
X034429Y006376D02*
X034582Y006529D01*
X034735Y006376D01*
X034429Y006376D02*
X034429Y006069D01*
X033656Y006146D02*
X033580Y006069D01*
X033426Y006069D01*
X033349Y006146D01*
X033656Y006452D01*
X033656Y006146D01*
X033656Y006452D02*
X033580Y006529D01*
X033426Y006529D01*
X033349Y006452D01*
X033349Y006146D01*
X033196Y006069D02*
X032889Y006069D01*
X033042Y006069D02*
X033042Y006529D01*
X032889Y006376D01*
X032735Y006376D02*
X032735Y006069D01*
X032735Y006299D02*
X032429Y006299D01*
X032429Y006376D02*
X032582Y006529D01*
X032735Y006376D01*
X032429Y006376D02*
X032429Y006069D01*
X032296Y006146D02*
X032296Y006452D01*
X032219Y006529D01*
X032066Y006529D01*
X031989Y006452D01*
X031989Y006376D01*
X032066Y006299D01*
X032296Y006299D01*
X032296Y006146D02*
X032219Y006069D01*
X032066Y006069D01*
X031989Y006146D01*
X031835Y006069D02*
X031835Y006376D01*
X031682Y006529D01*
X031529Y006376D01*
X031529Y006069D01*
X031529Y006299D02*
X031835Y006299D01*
X031296Y006222D02*
X031296Y006146D01*
X031219Y006069D01*
X031066Y006069D01*
X030989Y006146D01*
X030989Y006222D01*
X031066Y006299D01*
X031219Y006299D01*
X031296Y006222D01*
X031219Y006299D02*
X031296Y006376D01*
X031296Y006452D01*
X031219Y006529D01*
X031066Y006529D01*
X030989Y006452D01*
X030989Y006376D01*
X031066Y006299D01*
X030835Y006299D02*
X030529Y006299D01*
X030529Y006376D02*
X030682Y006529D01*
X030835Y006376D01*
X030835Y006069D01*
X030529Y006069D02*
X030529Y006376D01*
X029396Y006552D02*
X029089Y006246D01*
X029089Y006169D01*
X028935Y006169D02*
X028935Y006476D01*
X028782Y006629D01*
X028629Y006476D01*
X028629Y006169D01*
X028629Y006399D02*
X028935Y006399D01*
X029089Y006629D02*
X029396Y006629D01*
X029396Y006552D01*
X028396Y006629D02*
X028242Y006552D01*
X028089Y006399D01*
X028319Y006399D01*
X028396Y006322D01*
X028396Y006246D01*
X028319Y006169D01*
X028166Y006169D01*
X028089Y006246D01*
X028089Y006399D01*
X027935Y006399D02*
X027629Y006399D01*
X027629Y006476D02*
X027629Y006169D01*
X027935Y006169D02*
X027935Y006476D01*
X027782Y006629D01*
X027629Y006476D01*
X027296Y006399D02*
X027296Y006246D01*
X027219Y006169D01*
X027066Y006169D01*
X026989Y006246D01*
X026989Y006399D02*
X027142Y006476D01*
X027219Y006476D01*
X027296Y006399D01*
X027296Y006629D02*
X026989Y006629D01*
X026989Y006399D01*
X026835Y006399D02*
X026529Y006399D01*
X026529Y006476D02*
X026529Y006169D01*
X026835Y006169D02*
X026835Y006476D01*
X026682Y006629D01*
X026529Y006476D01*
X026196Y006399D02*
X025889Y006399D01*
X026119Y006629D01*
X026119Y006169D01*
X025735Y006169D02*
X025735Y006476D01*
X025582Y006629D01*
X025429Y006476D01*
X025429Y006169D01*
X025429Y006399D02*
X025735Y006399D01*
X024396Y006476D02*
X024089Y006169D01*
X024396Y006169D01*
X024396Y006476D02*
X024396Y006552D01*
X024319Y006629D01*
X024166Y006629D01*
X024089Y006552D01*
X023935Y006476D02*
X023935Y006169D01*
X023935Y006399D02*
X023629Y006399D01*
X023629Y006476D02*
X023629Y006169D01*
X023396Y006169D02*
X023089Y006169D01*
X023242Y006169D02*
X023242Y006629D01*
X023089Y006476D01*
X022935Y006476D02*
X022935Y006169D01*
X022935Y006399D02*
X022629Y006399D01*
X022629Y006476D02*
X022629Y006169D01*
X022629Y006476D02*
X022782Y006629D01*
X022935Y006476D01*
X022296Y006552D02*
X021989Y006246D01*
X022066Y006169D01*
X022219Y006169D01*
X022296Y006246D01*
X022296Y006552D01*
X022219Y006629D01*
X022066Y006629D01*
X021989Y006552D01*
X021989Y006246D01*
X021835Y006169D02*
X021835Y006476D01*
X021682Y006629D01*
X021529Y006476D01*
X021529Y006169D01*
X021529Y006399D02*
X021835Y006399D01*
X023629Y006476D02*
X023782Y006629D01*
X023935Y006476D01*
X023235Y004227D02*
X022928Y004227D01*
X023235Y004227D02*
X023389Y004073D01*
X023235Y003920D01*
X022928Y003920D01*
X022928Y003766D02*
X022928Y003459D01*
X023158Y003459D01*
X023082Y003613D01*
X023082Y003690D01*
X023158Y003766D01*
X023312Y003766D01*
X023389Y003690D01*
X023389Y003536D01*
X023312Y003459D01*
X023312Y003306D02*
X023389Y003306D01*
X023389Y003229D01*
X023312Y003229D01*
X023312Y003306D01*
X023158Y003076D02*
X023158Y002769D01*
X022928Y002999D01*
X023389Y002999D01*
X025359Y011169D02*
X025359Y011629D01*
X025129Y011399D01*
X025435Y011399D01*
X025589Y011246D02*
X025666Y011246D01*
X025666Y011169D01*
X025589Y011169D01*
X025589Y011246D01*
X025819Y011246D02*
X025896Y011169D01*
X026049Y011169D01*
X026126Y011246D01*
X026126Y011399D01*
X026049Y011476D01*
X025973Y011476D01*
X025819Y011399D01*
X025819Y011629D01*
X026126Y011629D01*
X026280Y011629D02*
X026280Y011322D01*
X026433Y011169D01*
X026586Y011322D01*
X026586Y011629D01*
X038929Y005352D02*
X038929Y005276D01*
X039005Y005199D01*
X039159Y005199D01*
X039235Y005122D01*
X039235Y005046D01*
X039159Y004969D01*
X039005Y004969D01*
X038929Y005046D01*
X038929Y005352D02*
X039005Y005429D01*
X039159Y005429D01*
X039235Y005352D01*
X039389Y005429D02*
X039389Y004969D01*
X039389Y005122D02*
X039619Y005122D01*
X039696Y005199D01*
X039696Y005352D01*
X039619Y005429D01*
X039389Y005429D01*
X039849Y005429D02*
X040003Y005429D01*
X039926Y005429D02*
X039926Y004969D01*
X039849Y004969D02*
X040003Y004969D01*
X016082Y023829D02*
X015929Y023676D01*
X018228Y025869D02*
X018228Y026176D01*
X018228Y026329D02*
X018689Y026636D01*
X018228Y026636D01*
X018305Y026790D02*
X018382Y026790D01*
X018458Y026866D01*
X018458Y027097D01*
X018305Y027097D02*
X018228Y027020D01*
X018228Y026866D01*
X018305Y026790D01*
X018305Y027097D02*
X018612Y027097D01*
X018689Y027020D01*
X018689Y026866D01*
X018612Y026790D01*
X018689Y026329D02*
X018228Y026329D01*
X018228Y026022D02*
X018689Y026022D01*
X012189Y025429D02*
X012189Y024969D01*
X007956Y009129D02*
X007649Y009129D01*
X007649Y008669D01*
X007649Y008899D02*
X007803Y008899D01*
X007496Y009129D02*
X007189Y009129D01*
X007189Y008669D01*
X007035Y008746D02*
X007035Y009052D01*
X006959Y009129D01*
X006805Y009129D01*
X006729Y009052D01*
X006729Y008746D01*
X006805Y008669D01*
X006959Y008669D01*
X007035Y008746D01*
X007189Y008899D02*
X007342Y008899D01*
X006389Y005345D02*
X005928Y005345D01*
X005928Y005038D02*
X006389Y005345D01*
X006389Y005038D02*
X005928Y005038D01*
X005928Y004885D02*
X005928Y004731D01*
X005928Y004808D02*
X006389Y004808D01*
X006389Y004731D02*
X006389Y004885D01*
X006389Y004117D02*
X006235Y003964D01*
X006235Y004041D02*
X006235Y003810D01*
X006389Y003810D02*
X005928Y003810D01*
X005928Y004041D01*
X006005Y004117D01*
X006158Y004117D01*
X006235Y004041D01*
X005835Y004299D02*
X005529Y004299D01*
X005928Y003657D02*
X005928Y003350D01*
X006389Y003350D01*
X006389Y003657D01*
X006158Y003503D02*
X006158Y003350D01*
X005928Y003197D02*
X006389Y003197D01*
X006235Y003043D01*
X006389Y002890D01*
X005928Y002890D01*
X005835Y002799D02*
X005529Y002799D01*
X005682Y002952D02*
X005682Y002646D01*
X005928Y002659D02*
X006005Y002736D01*
X006312Y002736D01*
X006389Y002659D01*
X006389Y002506D01*
X006312Y002429D01*
X006005Y002429D01*
X005928Y002506D01*
X005928Y002659D01*
X006005Y002276D02*
X006158Y002276D01*
X006235Y002199D01*
X006235Y001969D01*
X006389Y001969D02*
X005928Y001969D01*
X005928Y002199D01*
X006005Y002276D01*
D12*
X002491Y002182D02*
X002491Y004938D01*
X002806Y004938D01*
X002806Y002182D01*
X002491Y002182D01*
X002806Y002182D02*
X005247Y002182D01*
X005247Y004938D01*
X002806Y004938D01*
X004852Y005659D02*
X004852Y010238D01*
X006565Y010238D01*
X006565Y005659D01*
X004852Y005659D01*
X012409Y005699D02*
X012409Y005199D01*
X012659Y004949D01*
X013159Y004949D01*
X013409Y005199D01*
X013659Y004949D01*
X014159Y004949D01*
X014409Y005199D01*
X014659Y004949D01*
X015159Y004949D01*
X015409Y005199D01*
X015659Y004949D01*
X016159Y004949D01*
X016409Y005199D01*
X016659Y004949D01*
X017159Y004949D01*
X017409Y005199D01*
X017659Y004949D01*
X018159Y004949D01*
X018409Y005199D01*
X018659Y004949D01*
X019159Y004949D01*
X019409Y005199D01*
X019659Y004949D01*
X020159Y004949D01*
X020409Y005199D01*
X020409Y005699D01*
X020159Y005949D01*
X019659Y005949D01*
X019409Y005699D01*
X019159Y005949D01*
X018659Y005949D01*
X018409Y005699D01*
X018159Y005949D01*
X017659Y005949D01*
X017409Y005699D01*
X017159Y005949D01*
X016659Y005949D01*
X016409Y005699D01*
X016159Y005949D01*
X015659Y005949D01*
X015409Y005699D01*
X015159Y005949D01*
X014659Y005949D01*
X014409Y005699D01*
X014159Y005949D01*
X013659Y005949D01*
X013409Y005699D01*
X013159Y005949D01*
X012659Y005949D01*
X012409Y005699D01*
X021409Y005699D02*
X021409Y005199D01*
X021659Y004949D01*
X022159Y004949D01*
X022409Y005199D01*
X022659Y004949D01*
X023159Y004949D01*
X023409Y005199D01*
X023659Y004949D01*
X024159Y004949D01*
X024409Y005199D01*
X024659Y004949D01*
X025159Y004949D01*
X025409Y005199D01*
X025659Y004949D01*
X026159Y004949D01*
X026409Y005199D01*
X026659Y004949D01*
X027159Y004949D01*
X027409Y005199D01*
X027659Y004949D01*
X028159Y004949D01*
X028409Y005199D01*
X028659Y004949D01*
X029159Y004949D01*
X029409Y005199D01*
X029409Y005699D01*
X029159Y005949D01*
X028659Y005949D01*
X028409Y005699D01*
X028159Y005949D01*
X027659Y005949D01*
X027409Y005699D01*
X027159Y005949D01*
X026659Y005949D01*
X026409Y005699D01*
X026159Y005949D01*
X025659Y005949D01*
X025409Y005699D01*
X025159Y005949D01*
X024659Y005949D01*
X024409Y005699D01*
X024159Y005949D01*
X023659Y005949D01*
X023409Y005699D01*
X023159Y005949D01*
X022659Y005949D01*
X022409Y005699D01*
X022159Y005949D01*
X021659Y005949D01*
X021409Y005699D01*
X023820Y004787D02*
X023820Y002346D01*
X026575Y002346D01*
X026575Y002032D01*
X023820Y002032D01*
X023820Y002346D01*
X026575Y002346D02*
X026575Y004787D01*
X023820Y004787D01*
X026603Y004787D02*
X026603Y002346D01*
X031170Y002346D01*
X031170Y002032D01*
X026603Y002032D01*
X026603Y002346D01*
X026603Y004787D02*
X031170Y004787D01*
X031170Y002346D01*
X031203Y002346D02*
X035770Y002346D01*
X035770Y002032D01*
X031203Y002032D01*
X031203Y002346D01*
X031203Y004787D01*
X035770Y004787D01*
X035770Y002346D01*
X035803Y002346D02*
X040370Y002346D01*
X040370Y002032D01*
X035803Y002032D01*
X035803Y002346D01*
X035803Y004787D01*
X040370Y004787D01*
X040370Y002346D01*
X038159Y004949D02*
X037659Y004949D01*
X037409Y005199D01*
X037159Y004949D01*
X036659Y004949D01*
X036409Y005199D01*
X036159Y004949D01*
X035659Y004949D01*
X035409Y005199D01*
X035159Y004949D01*
X034659Y004949D01*
X034409Y005199D01*
X034159Y004949D01*
X033659Y004949D01*
X033409Y005199D01*
X033159Y004949D01*
X032659Y004949D01*
X032409Y005199D01*
X032159Y004949D01*
X031659Y004949D01*
X031409Y005199D01*
X031159Y004949D01*
X030659Y004949D01*
X030409Y005199D01*
X030409Y005699D01*
X030659Y005949D01*
X031159Y005949D01*
X031409Y005699D01*
X031659Y005949D01*
X032159Y005949D01*
X032409Y005699D01*
X032659Y005949D01*
X033159Y005949D01*
X033409Y005699D01*
X033659Y005949D01*
X034159Y005949D01*
X034409Y005699D01*
X034659Y005949D01*
X035159Y005949D01*
X035409Y005699D01*
X035659Y005949D01*
X036159Y005949D01*
X036409Y005699D01*
X036659Y005949D01*
X037159Y005949D01*
X037409Y005699D01*
X037659Y005949D01*
X038159Y005949D01*
X038409Y005699D01*
X038409Y005199D01*
X038159Y004949D01*
X038659Y006949D02*
X039159Y006949D01*
X039409Y007199D01*
X039659Y006949D01*
X040159Y006949D01*
X040409Y007199D01*
X040409Y007699D01*
X040159Y007949D01*
X039659Y007949D01*
X039409Y007699D01*
X039159Y007949D01*
X038659Y007949D01*
X038409Y007699D01*
X038409Y007199D01*
X038659Y006949D01*
X038659Y007949D02*
X038409Y008199D01*
X038409Y008699D01*
X038659Y008949D01*
X038409Y009199D01*
X038409Y009699D01*
X038659Y009949D01*
X038409Y010199D01*
X038409Y010699D01*
X038659Y010949D01*
X038409Y011199D01*
X038409Y011699D01*
X038659Y011949D01*
X038409Y012199D01*
X038409Y012699D01*
X038659Y012949D01*
X038409Y013199D01*
X038409Y013699D01*
X038659Y013949D01*
X038409Y014199D01*
X038409Y014699D01*
X038659Y014949D01*
X038409Y015199D01*
X038409Y015699D01*
X038659Y015949D01*
X039159Y015949D01*
X039409Y015699D01*
X039409Y015199D01*
X039159Y014949D01*
X039409Y014699D01*
X039409Y014199D01*
X039159Y013949D01*
X039409Y013699D01*
X039409Y013199D01*
X039159Y012949D01*
X039409Y012699D01*
X039409Y012199D01*
X039159Y011949D01*
X039409Y011699D01*
X039409Y011199D01*
X039159Y010949D01*
X039409Y010699D01*
X039409Y010199D01*
X039159Y009949D01*
X039409Y009699D01*
X039409Y009199D01*
X039159Y008949D01*
X039409Y008699D01*
X039409Y008199D01*
X039159Y007949D01*
X038659Y007949D01*
X039409Y008199D02*
X039659Y007949D01*
X040159Y007949D01*
X040409Y008199D01*
X040409Y008699D01*
X040159Y008949D01*
X040409Y009199D01*
X040409Y009699D01*
X040159Y009949D01*
X040409Y010199D01*
X040409Y010699D01*
X040159Y010949D01*
X040409Y011199D01*
X040409Y011699D01*
X040159Y011949D01*
X040409Y012199D01*
X040409Y012699D01*
X040159Y012949D01*
X040409Y013199D01*
X040409Y013699D01*
X040159Y013949D01*
X040409Y014199D01*
X040409Y014699D01*
X040159Y014949D01*
X040409Y015199D01*
X040409Y015699D01*
X040159Y015949D01*
X039659Y015949D01*
X039409Y015699D01*
X039409Y015199D01*
X039659Y014949D01*
X039409Y014699D01*
X039409Y014199D01*
X039659Y013949D01*
X039409Y013699D01*
X039409Y013199D01*
X039659Y012949D01*
X039409Y012699D01*
X039409Y012199D01*
X039659Y011949D01*
X039409Y011699D01*
X039409Y011199D01*
X039659Y010949D01*
X039409Y010699D01*
X039409Y010199D01*
X039659Y009949D01*
X039409Y009699D01*
X039409Y009199D01*
X039659Y008949D01*
X039409Y008699D01*
X039409Y008199D01*
X039659Y015949D02*
X039409Y016199D01*
X039159Y015949D01*
X038659Y015949D01*
X038409Y016199D01*
X038409Y016699D01*
X038659Y016949D01*
X038409Y017199D01*
X038409Y017699D01*
X038659Y017949D01*
X038409Y018199D01*
X038409Y018699D01*
X038659Y018949D01*
X038409Y019199D01*
X038409Y019699D01*
X038659Y019949D01*
X038409Y020199D01*
X038409Y020699D01*
X038659Y020949D01*
X038409Y021199D01*
X038409Y021699D01*
X038659Y021949D01*
X038409Y022199D01*
X038409Y022699D01*
X038659Y022949D01*
X038409Y023199D01*
X038409Y023699D01*
X038659Y023949D01*
X039159Y023949D01*
X039409Y024199D01*
X039659Y023949D01*
X040159Y023949D01*
X040409Y024199D01*
X040409Y024699D01*
X040159Y024949D01*
X039659Y024949D01*
X039409Y024699D01*
X039159Y024949D01*
X038659Y024949D01*
X038409Y024699D01*
X038409Y024199D01*
X038659Y023949D01*
X039159Y023949D01*
X039409Y023699D01*
X039409Y023199D01*
X039159Y022949D01*
X039409Y022699D01*
X039409Y022199D01*
X039159Y021949D01*
X039409Y021699D01*
X039409Y021199D01*
X039159Y020949D01*
X039409Y020699D01*
X039409Y020199D01*
X039159Y019949D01*
X039409Y019699D01*
X039409Y019199D01*
X039159Y018949D01*
X039409Y018699D01*
X039409Y018199D01*
X039159Y017949D01*
X039409Y017699D01*
X039409Y017199D01*
X039159Y016949D01*
X039409Y016699D01*
X039409Y016199D01*
X039409Y016699D01*
X039659Y016949D01*
X039409Y017199D01*
X039409Y017699D01*
X039659Y017949D01*
X039409Y018199D01*
X039409Y018699D01*
X039659Y018949D01*
X039409Y019199D01*
X039409Y019699D01*
X039659Y019949D01*
X039409Y020199D01*
X039409Y020699D01*
X039659Y020949D01*
X039409Y021199D01*
X039409Y021699D01*
X039659Y021949D01*
X039409Y022199D01*
X039409Y022699D01*
X039659Y022949D01*
X039409Y023199D01*
X039409Y023699D01*
X039659Y023949D01*
X040159Y023949D01*
X040409Y023699D01*
X040409Y023199D01*
X040159Y022949D01*
X040409Y022699D01*
X040409Y022199D01*
X040159Y021949D01*
X040409Y021699D01*
X040409Y021199D01*
X040159Y020949D01*
X040409Y020699D01*
X040409Y020199D01*
X040159Y019949D01*
X040409Y019699D01*
X040409Y019199D01*
X040159Y018949D01*
X040409Y018699D01*
X040409Y018199D01*
X040159Y017949D01*
X040409Y017699D01*
X040409Y017199D01*
X040159Y016949D01*
X040409Y016699D01*
X040409Y016199D01*
X040159Y015949D01*
X039659Y015949D01*
X036159Y023949D02*
X035659Y023949D01*
X035409Y024199D01*
X035159Y023949D01*
X034659Y023949D01*
X034409Y024199D01*
X034159Y023949D01*
X033659Y023949D01*
X033409Y024199D01*
X033159Y023949D01*
X032659Y023949D01*
X032409Y024199D01*
X032159Y023949D01*
X031659Y023949D01*
X031409Y024199D01*
X031159Y023949D01*
X030659Y023949D01*
X030409Y024199D01*
X030159Y023949D01*
X029659Y023949D01*
X029409Y024199D01*
X029159Y023949D01*
X028659Y023949D01*
X028409Y024199D01*
X028409Y024699D01*
X028659Y024949D01*
X029159Y024949D01*
X029409Y024699D01*
X029659Y024949D01*
X030159Y024949D01*
X030409Y024699D01*
X030659Y024949D01*
X031159Y024949D01*
X031409Y024699D01*
X031659Y024949D01*
X032159Y024949D01*
X032409Y024699D01*
X032659Y024949D01*
X033159Y024949D01*
X033409Y024699D01*
X033659Y024949D01*
X034159Y024949D01*
X034409Y024699D01*
X034659Y024949D01*
X035159Y024949D01*
X035409Y024699D01*
X035659Y024949D01*
X036159Y024949D01*
X036409Y024699D01*
X036409Y024199D01*
X036159Y023949D01*
X037298Y025110D02*
X034542Y025110D01*
X034542Y027551D01*
X037298Y027551D01*
X037298Y025110D01*
X037342Y025110D02*
X037342Y027551D01*
X040098Y027551D01*
X040098Y025110D01*
X037342Y025110D01*
X034498Y025110D02*
X034498Y027551D01*
X031742Y027551D01*
X031742Y027866D01*
X034498Y027866D01*
X034498Y027551D01*
X034542Y027551D02*
X034542Y027866D01*
X037298Y027866D01*
X037298Y027551D01*
X037342Y027551D02*
X037342Y027866D01*
X040098Y027866D01*
X040098Y027551D01*
X034498Y025110D02*
X031742Y025110D01*
X031742Y027551D01*
X031698Y027551D02*
X028942Y027551D01*
X028942Y027866D01*
X031698Y027866D01*
X031698Y027551D01*
X031698Y025110D01*
X028942Y025110D01*
X028942Y027551D01*
X028898Y027551D02*
X026142Y027551D01*
X026142Y027866D01*
X028898Y027866D01*
X028898Y027551D01*
X028898Y025110D01*
X026142Y025110D01*
X026142Y027551D01*
X026098Y027551D02*
X023342Y027551D01*
X023342Y027866D01*
X026098Y027866D01*
X026098Y027551D01*
X026098Y025110D01*
X023342Y025110D01*
X023342Y027551D01*
X023314Y027551D02*
X018747Y027551D01*
X018747Y027866D01*
X023314Y027866D01*
X023314Y027551D01*
X023314Y025110D01*
X018747Y025110D01*
X018747Y027551D01*
X017909Y027199D02*
X017659Y027449D01*
X017159Y027449D01*
X016909Y027199D01*
X016909Y026699D01*
X016659Y026449D01*
X016909Y026199D01*
X016909Y025699D01*
X016659Y025449D01*
X016159Y025449D01*
X015909Y025699D01*
X015909Y026199D01*
X016159Y026449D01*
X015909Y026699D01*
X015909Y027199D01*
X016159Y027449D01*
X016659Y027449D01*
X016909Y027199D01*
X016909Y026699D01*
X017159Y026449D01*
X016909Y026199D01*
X016909Y025699D01*
X017159Y025449D01*
X017659Y025449D01*
X017909Y025699D01*
X017909Y026199D01*
X017659Y026449D01*
X017909Y026699D01*
X017909Y027199D01*
X018059Y024949D02*
X017809Y024699D01*
X017559Y024949D01*
X017059Y024949D01*
X016809Y024699D01*
X016559Y024949D01*
X016059Y024949D01*
X015809Y024699D01*
X015559Y024949D01*
X015059Y024949D01*
X014809Y024699D01*
X014559Y024949D01*
X014059Y024949D01*
X013809Y024699D01*
X013559Y024949D01*
X013059Y024949D01*
X012809Y024699D01*
X012559Y024949D01*
X012059Y024949D01*
X011809Y024699D01*
X011559Y024949D01*
X011059Y024949D01*
X010809Y024699D01*
X010559Y024949D01*
X010059Y024949D01*
X009809Y024699D01*
X009559Y024949D01*
X009059Y024949D01*
X008809Y024699D01*
X008809Y024199D01*
X009059Y023949D01*
X009559Y023949D01*
X009809Y024199D01*
X010059Y023949D01*
X010559Y023949D01*
X010809Y024199D01*
X011059Y023949D01*
X011559Y023949D01*
X011809Y024199D01*
X012059Y023949D01*
X012559Y023949D01*
X012809Y024199D01*
X013059Y023949D01*
X013559Y023949D01*
X013809Y024199D01*
X014059Y023949D01*
X014559Y023949D01*
X014809Y024199D01*
X015059Y023949D01*
X015559Y023949D01*
X015809Y024199D01*
X016059Y023949D01*
X016559Y023949D01*
X016809Y024199D01*
X017059Y023949D01*
X017559Y023949D01*
X017809Y024199D01*
X018059Y023949D01*
X018559Y023949D01*
X018809Y024199D01*
X018809Y024699D01*
X018559Y024949D01*
X018059Y024949D01*
X019409Y024699D02*
X019409Y024199D01*
X019659Y023949D01*
X020159Y023949D01*
X020409Y024199D01*
X020659Y023949D01*
X021159Y023949D01*
X021409Y024199D01*
X021659Y023949D01*
X022159Y023949D01*
X022409Y024199D01*
X022659Y023949D01*
X023159Y023949D01*
X023409Y024199D01*
X023659Y023949D01*
X024159Y023949D01*
X024409Y024199D01*
X024659Y023949D01*
X025159Y023949D01*
X025409Y024199D01*
X025659Y023949D01*
X026159Y023949D01*
X026409Y024199D01*
X026659Y023949D01*
X027159Y023949D01*
X027409Y024199D01*
X027409Y024699D01*
X027159Y024949D01*
X026659Y024949D01*
X026409Y024699D01*
X026159Y024949D01*
X025659Y024949D01*
X025409Y024699D01*
X025159Y024949D01*
X024659Y024949D01*
X024409Y024699D01*
X024159Y024949D01*
X023659Y024949D01*
X023409Y024699D01*
X023159Y024949D01*
X022659Y024949D01*
X022409Y024699D01*
X022159Y024949D01*
X021659Y024949D01*
X021409Y024699D01*
X021159Y024949D01*
X020659Y024949D01*
X020409Y024699D01*
X020159Y024949D01*
X019659Y024949D01*
X019409Y024699D01*
X011809Y023399D02*
X011809Y022899D01*
X011559Y022649D01*
X011059Y022649D01*
X010809Y022899D01*
X010559Y022649D01*
X010059Y022649D01*
X009809Y022899D01*
X009809Y023399D01*
X010059Y023649D01*
X010559Y023649D01*
X010809Y023399D01*
X011059Y023649D01*
X011559Y023649D01*
X011809Y023399D01*
X005247Y022482D02*
X002806Y022482D01*
X002806Y025238D01*
X005247Y025238D01*
X005247Y022482D01*
X002806Y022482D02*
X002491Y022482D01*
X002491Y025238D01*
X002806Y025238D01*
X024009Y014199D02*
X024009Y013699D01*
X024259Y013449D01*
X024009Y013199D01*
X024009Y012699D01*
X024259Y012449D01*
X024009Y012199D01*
X024009Y011699D01*
X024259Y011449D01*
X024759Y011449D01*
X025009Y011699D01*
X025009Y012199D01*
X024759Y012449D01*
X025009Y012699D01*
X025009Y013199D01*
X024759Y013449D01*
X025009Y013699D01*
X025009Y014199D01*
X024759Y014449D01*
X024259Y014449D01*
X024009Y014199D01*
X024059Y011049D02*
X023809Y010799D01*
X023809Y010299D01*
X024059Y010049D01*
X024559Y010049D01*
X024809Y010299D01*
X025059Y010049D01*
X025559Y010049D01*
X025809Y010299D01*
X025809Y010799D01*
X025559Y011049D01*
X025059Y011049D01*
X024809Y010799D01*
X024559Y011049D01*
X024059Y011049D01*
X022462Y008659D02*
X022464Y008674D01*
X022470Y008687D01*
X022479Y008699D01*
X022490Y008708D01*
X022504Y008714D01*
X022519Y008716D01*
X022534Y008714D01*
X022547Y008708D01*
X022559Y008699D01*
X022568Y008688D01*
X022574Y008674D01*
X022576Y008659D01*
X022574Y008644D01*
X022568Y008631D01*
X022559Y008619D01*
X022548Y008610D01*
X022534Y008604D01*
X022519Y008602D01*
X022504Y008604D01*
X022491Y008610D01*
X022479Y008619D01*
X022470Y008630D01*
X022464Y008644D01*
X022462Y008659D01*
D13*
X026263Y016475D02*
X027554Y016475D01*
X027554Y016827D01*
X028354Y016827D01*
X029531Y017943D01*
X029531Y021016D01*
X028415Y022071D01*
X027515Y022071D01*
X027515Y022423D01*
X026263Y022423D01*
X026263Y022071D01*
X024690Y022071D01*
X024690Y021349D01*
X025575Y020606D01*
X025575Y018249D01*
X024690Y017349D01*
X024690Y016827D01*
X026263Y016827D01*
X026263Y016475D01*
X012409Y021146D02*
X012409Y011776D01*
X011424Y011776D01*
X011424Y010752D01*
X002527Y010713D01*
X002527Y011146D01*
X002566Y011224D01*
X002527Y011146D02*
X002527Y020791D01*
X002645Y020831D01*
X002527Y020791D02*
X002527Y021146D01*
X012409Y021146D01*
X002644Y020831D02*
X002841Y019881D01*
X002993Y018924D01*
X003100Y017960D01*
X003160Y016992D01*
X003175Y016023D01*
X003144Y015054D01*
X003068Y014087D01*
X002946Y013125D01*
X002778Y012171D01*
X002565Y011225D01*
D14*
X014355Y003723D02*
X014355Y003673D01*
X014354Y003674D02*
X014339Y003671D01*
X014325Y003666D01*
X014312Y003657D01*
X014301Y003646D01*
X014292Y003633D01*
X014287Y003619D01*
X014284Y003604D01*
X014235Y003603D01*
X014234Y003604D01*
X014237Y003625D01*
X014243Y003644D01*
X014252Y003663D01*
X014264Y003680D01*
X014278Y003694D01*
X014295Y003706D01*
X014314Y003715D01*
X014333Y003721D01*
X014354Y003724D01*
X014354Y003715D01*
X014335Y003712D01*
X014317Y003707D01*
X014300Y003699D01*
X014284Y003688D01*
X014270Y003674D01*
X014259Y003658D01*
X014251Y003641D01*
X014246Y003623D01*
X014243Y003604D01*
X014252Y003604D01*
X014255Y003624D01*
X014261Y003642D01*
X014271Y003659D01*
X014283Y003675D01*
X014299Y003687D01*
X014316Y003697D01*
X014334Y003703D01*
X014354Y003706D01*
X014354Y003697D01*
X014336Y003694D01*
X014319Y003689D01*
X014304Y003680D01*
X014290Y003668D01*
X014278Y003654D01*
X014269Y003639D01*
X014264Y003622D01*
X014261Y003604D01*
X014270Y003604D01*
X014273Y003622D01*
X014280Y003640D01*
X014290Y003655D01*
X014303Y003668D01*
X014318Y003678D01*
X014336Y003685D01*
X014354Y003688D01*
X014354Y003679D01*
X014338Y003676D01*
X014322Y003670D01*
X014309Y003661D01*
X014297Y003649D01*
X014288Y003636D01*
X014282Y003620D01*
X014279Y003604D01*
X014235Y002895D02*
X014285Y002895D01*
X014284Y002894D02*
X014287Y002879D01*
X014292Y002865D01*
X014301Y002852D01*
X014312Y002841D01*
X014325Y002832D01*
X014339Y002827D01*
X014354Y002824D01*
X014355Y002775D01*
X014354Y002774D01*
X014333Y002777D01*
X014314Y002783D01*
X014295Y002792D01*
X014278Y002804D01*
X014264Y002818D01*
X014252Y002835D01*
X014243Y002854D01*
X014237Y002873D01*
X014234Y002894D01*
X014243Y002894D01*
X014246Y002875D01*
X014251Y002857D01*
X014259Y002840D01*
X014270Y002824D01*
X014284Y002810D01*
X014300Y002799D01*
X014317Y002791D01*
X014335Y002786D01*
X014354Y002783D01*
X014354Y002792D01*
X014334Y002795D01*
X014316Y002801D01*
X014299Y002811D01*
X014283Y002823D01*
X014271Y002839D01*
X014261Y002856D01*
X014255Y002874D01*
X014252Y002894D01*
X014261Y002894D01*
X014264Y002876D01*
X014269Y002859D01*
X014278Y002844D01*
X014290Y002830D01*
X014304Y002818D01*
X014319Y002809D01*
X014336Y002804D01*
X014354Y002801D01*
X014354Y002810D01*
X014336Y002813D01*
X014318Y002820D01*
X014303Y002830D01*
X014290Y002843D01*
X014280Y002858D01*
X014273Y002876D01*
X014270Y002894D01*
X014279Y002894D01*
X014282Y002878D01*
X014288Y002862D01*
X014297Y002849D01*
X014309Y002837D01*
X014322Y002828D01*
X014338Y002822D01*
X014354Y002819D01*
X016663Y002775D02*
X016663Y002825D01*
X016664Y002824D02*
X016679Y002827D01*
X016693Y002832D01*
X016706Y002841D01*
X016717Y002852D01*
X016726Y002865D01*
X016731Y002879D01*
X016734Y002894D01*
X016783Y002895D01*
X016784Y002894D01*
X016781Y002873D01*
X016775Y002854D01*
X016766Y002835D01*
X016754Y002818D01*
X016740Y002804D01*
X016723Y002792D01*
X016704Y002783D01*
X016685Y002777D01*
X016664Y002774D01*
X016664Y002783D01*
X016683Y002786D01*
X016701Y002791D01*
X016718Y002799D01*
X016734Y002810D01*
X016748Y002824D01*
X016759Y002840D01*
X016767Y002857D01*
X016772Y002875D01*
X016775Y002894D01*
X016766Y002894D01*
X016763Y002874D01*
X016757Y002856D01*
X016747Y002839D01*
X016735Y002823D01*
X016719Y002811D01*
X016702Y002801D01*
X016684Y002795D01*
X016664Y002792D01*
X016664Y002801D01*
X016682Y002804D01*
X016699Y002809D01*
X016714Y002818D01*
X016728Y002830D01*
X016740Y002844D01*
X016749Y002859D01*
X016754Y002876D01*
X016757Y002894D01*
X016748Y002894D01*
X016745Y002876D01*
X016738Y002858D01*
X016728Y002843D01*
X016715Y002830D01*
X016700Y002820D01*
X016682Y002813D01*
X016664Y002810D01*
X016664Y002819D01*
X016680Y002822D01*
X016696Y002828D01*
X016709Y002837D01*
X016721Y002849D01*
X016730Y002862D01*
X016736Y002878D01*
X016739Y002894D01*
X016783Y003603D02*
X016733Y003603D01*
X016734Y003604D02*
X016731Y003619D01*
X016726Y003633D01*
X016717Y003646D01*
X016706Y003657D01*
X016693Y003666D01*
X016679Y003671D01*
X016664Y003674D01*
X016663Y003723D01*
X016664Y003724D01*
X016685Y003721D01*
X016704Y003715D01*
X016723Y003706D01*
X016740Y003694D01*
X016754Y003680D01*
X016766Y003663D01*
X016775Y003644D01*
X016781Y003625D01*
X016784Y003604D01*
X016775Y003604D01*
X016772Y003623D01*
X016767Y003641D01*
X016759Y003658D01*
X016748Y003674D01*
X016734Y003688D01*
X016718Y003699D01*
X016701Y003707D01*
X016683Y003712D01*
X016664Y003715D01*
X016664Y003706D01*
X016684Y003703D01*
X016702Y003697D01*
X016719Y003687D01*
X016735Y003675D01*
X016747Y003659D01*
X016757Y003642D01*
X016763Y003624D01*
X016766Y003604D01*
X016757Y003604D01*
X016754Y003622D01*
X016749Y003639D01*
X016740Y003654D01*
X016728Y003668D01*
X016714Y003680D01*
X016699Y003689D01*
X016682Y003694D01*
X016664Y003697D01*
X016664Y003688D01*
X016682Y003685D01*
X016700Y003678D01*
X016715Y003668D01*
X016728Y003655D01*
X016738Y003640D01*
X016745Y003622D01*
X016748Y003604D01*
X016739Y003604D01*
X016736Y003620D01*
X016730Y003636D01*
X016721Y003649D01*
X016709Y003661D01*
X016696Y003670D01*
X016680Y003676D01*
X016664Y003679D01*
X019088Y007974D02*
X019103Y007926D01*
X019102Y007927D02*
X019044Y007907D01*
X018987Y007883D01*
X018931Y007856D01*
X018877Y007825D01*
X018826Y007792D01*
X018776Y007755D01*
X018728Y007715D01*
X018683Y007673D01*
X018641Y007628D01*
X018602Y007580D01*
X018565Y007531D01*
X018532Y007479D01*
X018501Y007425D01*
X018474Y007369D01*
X018451Y007312D01*
X018430Y007254D01*
X018414Y007194D01*
X018401Y007134D01*
X018392Y007073D01*
X018386Y007011D01*
X018384Y006950D01*
X018386Y006888D01*
X018391Y006826D01*
X018401Y006765D01*
X018414Y006705D01*
X018430Y006645D01*
X018450Y006587D01*
X018474Y006530D01*
X018501Y006474D01*
X018531Y006420D01*
X018564Y006368D01*
X018601Y006318D01*
X018562Y006288D01*
X018562Y006287D01*
X018523Y006340D01*
X018488Y006394D01*
X018456Y006451D01*
X018428Y006509D01*
X018403Y006569D01*
X018382Y006630D01*
X018365Y006693D01*
X018351Y006756D01*
X018342Y006820D01*
X018336Y006885D01*
X018334Y006950D01*
X018336Y007014D01*
X018342Y007079D01*
X018352Y007143D01*
X018365Y007206D01*
X018383Y007269D01*
X018404Y007330D01*
X018429Y007390D01*
X018457Y007448D01*
X018489Y007505D01*
X018524Y007559D01*
X018562Y007611D01*
X018604Y007661D01*
X018648Y007708D01*
X018695Y007753D01*
X018745Y007794D01*
X018797Y007833D01*
X018852Y007868D01*
X018908Y007900D01*
X018966Y007929D01*
X019026Y007953D01*
X019087Y007975D01*
X019090Y007966D01*
X019029Y007945D01*
X018970Y007920D01*
X018912Y007892D01*
X018856Y007860D01*
X018802Y007826D01*
X018751Y007787D01*
X018701Y007746D01*
X018654Y007702D01*
X018610Y007655D01*
X018569Y007606D01*
X018531Y007554D01*
X018496Y007500D01*
X018465Y007444D01*
X018437Y007386D01*
X018412Y007327D01*
X018391Y007266D01*
X018374Y007204D01*
X018360Y007141D01*
X018351Y007078D01*
X018345Y007014D01*
X018343Y006950D01*
X018345Y006885D01*
X018351Y006821D01*
X018360Y006758D01*
X018374Y006695D01*
X018391Y006633D01*
X018412Y006572D01*
X018436Y006513D01*
X018464Y006455D01*
X018496Y006399D01*
X018531Y006345D01*
X018569Y006293D01*
X018576Y006299D01*
X018538Y006350D01*
X018504Y006404D01*
X018472Y006459D01*
X018445Y006516D01*
X018420Y006575D01*
X018400Y006636D01*
X018382Y006697D01*
X018369Y006759D01*
X018360Y006822D01*
X018354Y006886D01*
X018352Y006950D01*
X018354Y007013D01*
X018360Y007077D01*
X018369Y007140D01*
X018383Y007202D01*
X018400Y007263D01*
X018421Y007324D01*
X018445Y007383D01*
X018473Y007440D01*
X018504Y007495D01*
X018539Y007549D01*
X018576Y007600D01*
X018617Y007649D01*
X018661Y007696D01*
X018707Y007739D01*
X018756Y007780D01*
X018807Y007818D01*
X018861Y007853D01*
X018916Y007884D01*
X018974Y007912D01*
X019032Y007937D01*
X019093Y007958D01*
X019095Y007949D01*
X019036Y007928D01*
X018977Y007904D01*
X018920Y007876D01*
X018865Y007845D01*
X018812Y007811D01*
X018762Y007773D01*
X018713Y007733D01*
X018667Y007689D01*
X018624Y007643D01*
X018584Y007595D01*
X018546Y007544D01*
X018512Y007491D01*
X018481Y007436D01*
X018453Y007379D01*
X018429Y007320D01*
X018408Y007261D01*
X018391Y007200D01*
X018378Y007138D01*
X018369Y007076D01*
X018363Y007013D01*
X018361Y006950D01*
X018363Y006886D01*
X018369Y006823D01*
X018378Y006761D01*
X018391Y006699D01*
X018408Y006638D01*
X018429Y006579D01*
X018453Y006520D01*
X018480Y006463D01*
X018511Y006408D01*
X018545Y006355D01*
X018583Y006304D01*
X018590Y006310D01*
X018553Y006360D01*
X018519Y006413D01*
X018488Y006468D01*
X018461Y006524D01*
X018437Y006582D01*
X018417Y006641D01*
X018400Y006701D01*
X018387Y006763D01*
X018377Y006825D01*
X018372Y006887D01*
X018370Y006950D01*
X018372Y007012D01*
X018378Y007075D01*
X018387Y007136D01*
X018400Y007198D01*
X018417Y007258D01*
X018437Y007317D01*
X018461Y007375D01*
X018489Y007431D01*
X018520Y007486D01*
X018554Y007539D01*
X018591Y007589D01*
X018631Y007637D01*
X018674Y007683D01*
X018719Y007726D01*
X018767Y007766D01*
X018818Y007803D01*
X018870Y007837D01*
X018925Y007868D01*
X018981Y007896D01*
X019039Y007920D01*
X019098Y007940D01*
X019101Y007932D01*
X019042Y007911D01*
X018985Y007887D01*
X018929Y007860D01*
X018875Y007830D01*
X018823Y007796D01*
X018773Y007759D01*
X018725Y007719D01*
X018680Y007677D01*
X018637Y007631D01*
X018598Y007584D01*
X018561Y007534D01*
X018527Y007481D01*
X018497Y007427D01*
X018470Y007371D01*
X018446Y007314D01*
X018426Y007255D01*
X018409Y007196D01*
X018396Y007135D01*
X018387Y007073D01*
X018381Y007012D01*
X018379Y006950D01*
X018381Y006888D01*
X018386Y006826D01*
X018396Y006764D01*
X018409Y006704D01*
X018425Y006644D01*
X018445Y006585D01*
X018469Y006528D01*
X018496Y006472D01*
X018527Y006418D01*
X018560Y006365D01*
X018597Y006315D01*
X020256Y006288D02*
X020217Y006319D01*
X020217Y006318D02*
X020254Y006368D01*
X020287Y006420D01*
X020317Y006474D01*
X020344Y006530D01*
X020368Y006587D01*
X020388Y006645D01*
X020404Y006705D01*
X020417Y006765D01*
X020427Y006826D01*
X020432Y006888D01*
X020434Y006950D01*
X020432Y007011D01*
X020426Y007073D01*
X020417Y007134D01*
X020404Y007194D01*
X020388Y007254D01*
X020367Y007312D01*
X020344Y007369D01*
X020317Y007425D01*
X020286Y007479D01*
X020253Y007531D01*
X020216Y007580D01*
X020177Y007628D01*
X020135Y007673D01*
X020090Y007715D01*
X020042Y007755D01*
X019992Y007792D01*
X019941Y007825D01*
X019887Y007856D01*
X019831Y007883D01*
X019774Y007907D01*
X019716Y007927D01*
X019730Y007974D01*
X019731Y007975D01*
X019792Y007953D01*
X019852Y007929D01*
X019910Y007900D01*
X019966Y007868D01*
X020021Y007833D01*
X020073Y007794D01*
X020123Y007753D01*
X020170Y007708D01*
X020214Y007661D01*
X020256Y007611D01*
X020294Y007559D01*
X020329Y007505D01*
X020361Y007448D01*
X020389Y007390D01*
X020414Y007330D01*
X020435Y007269D01*
X020453Y007206D01*
X020466Y007143D01*
X020476Y007079D01*
X020482Y007014D01*
X020484Y006950D01*
X020482Y006885D01*
X020476Y006820D01*
X020467Y006756D01*
X020453Y006693D01*
X020436Y006630D01*
X020415Y006569D01*
X020390Y006509D01*
X020362Y006451D01*
X020330Y006394D01*
X020295Y006340D01*
X020256Y006287D01*
X020249Y006293D01*
X020287Y006345D01*
X020322Y006399D01*
X020354Y006455D01*
X020382Y006513D01*
X020406Y006572D01*
X020427Y006633D01*
X020444Y006695D01*
X020458Y006758D01*
X020467Y006821D01*
X020473Y006885D01*
X020475Y006950D01*
X020473Y007014D01*
X020467Y007078D01*
X020458Y007141D01*
X020444Y007204D01*
X020427Y007266D01*
X020406Y007327D01*
X020381Y007386D01*
X020353Y007444D01*
X020322Y007500D01*
X020287Y007554D01*
X020249Y007606D01*
X020208Y007655D01*
X020164Y007702D01*
X020117Y007746D01*
X020067Y007787D01*
X020016Y007825D01*
X019962Y007860D01*
X019906Y007892D01*
X019848Y007920D01*
X019789Y007945D01*
X019728Y007966D01*
X019725Y007958D01*
X019786Y007937D01*
X019844Y007912D01*
X019902Y007884D01*
X019957Y007853D01*
X020011Y007818D01*
X020062Y007780D01*
X020111Y007739D01*
X020157Y007696D01*
X020201Y007649D01*
X020242Y007600D01*
X020279Y007549D01*
X020314Y007495D01*
X020345Y007440D01*
X020373Y007383D01*
X020397Y007324D01*
X020418Y007263D01*
X020435Y007202D01*
X020449Y007140D01*
X020458Y007077D01*
X020464Y007013D01*
X020466Y006950D01*
X020464Y006886D01*
X020458Y006822D01*
X020449Y006759D01*
X020436Y006697D01*
X020418Y006636D01*
X020398Y006575D01*
X020373Y006516D01*
X020346Y006459D01*
X020314Y006404D01*
X020280Y006350D01*
X020242Y006299D01*
X020235Y006304D01*
X020272Y006355D01*
X020307Y006408D01*
X020338Y006463D01*
X020365Y006520D01*
X020389Y006579D01*
X020410Y006638D01*
X020427Y006699D01*
X020440Y006761D01*
X020449Y006823D01*
X020455Y006886D01*
X020457Y006950D01*
X020455Y007013D01*
X020449Y007076D01*
X020440Y007138D01*
X020427Y007200D01*
X020410Y007261D01*
X020389Y007320D01*
X020365Y007379D01*
X020337Y007436D01*
X020306Y007491D01*
X020272Y007544D01*
X020234Y007595D01*
X020194Y007643D01*
X020151Y007689D01*
X020105Y007733D01*
X020056Y007773D01*
X020006Y007811D01*
X019953Y007845D01*
X019898Y007876D01*
X019841Y007904D01*
X019782Y007928D01*
X019723Y007949D01*
X019720Y007940D01*
X019779Y007920D01*
X019837Y007896D01*
X019893Y007868D01*
X019948Y007837D01*
X020000Y007803D01*
X020051Y007766D01*
X020099Y007726D01*
X020144Y007683D01*
X020187Y007637D01*
X020227Y007589D01*
X020264Y007539D01*
X020298Y007486D01*
X020329Y007431D01*
X020357Y007375D01*
X020381Y007317D01*
X020401Y007258D01*
X020418Y007198D01*
X020431Y007136D01*
X020440Y007075D01*
X020446Y007012D01*
X020448Y006950D01*
X020446Y006887D01*
X020441Y006825D01*
X020431Y006763D01*
X020418Y006701D01*
X020401Y006641D01*
X020381Y006582D01*
X020357Y006524D01*
X020330Y006468D01*
X020299Y006413D01*
X020265Y006360D01*
X020228Y006310D01*
X020221Y006315D01*
X020258Y006365D01*
X020291Y006418D01*
X020322Y006472D01*
X020349Y006528D01*
X020373Y006585D01*
X020393Y006644D01*
X020409Y006704D01*
X020422Y006764D01*
X020432Y006826D01*
X020437Y006887D01*
X020439Y006950D01*
X020437Y007012D01*
X020431Y007073D01*
X020422Y007135D01*
X020409Y007196D01*
X020392Y007255D01*
X020372Y007314D01*
X020348Y007371D01*
X020321Y007427D01*
X020291Y007481D01*
X020257Y007534D01*
X020220Y007584D01*
X020181Y007631D01*
X020138Y007677D01*
X020093Y007719D01*
X020045Y007759D01*
X019995Y007796D01*
X019943Y007830D01*
X019889Y007860D01*
X019833Y007887D01*
X019776Y007911D01*
X019717Y007932D01*
X018363Y012275D02*
X018363Y012325D01*
X018364Y012324D02*
X018379Y012327D01*
X018393Y012332D01*
X018406Y012341D01*
X018417Y012352D01*
X018426Y012365D01*
X018431Y012379D01*
X018434Y012394D01*
X018483Y012395D01*
X018484Y012394D01*
X018481Y012373D01*
X018475Y012354D01*
X018466Y012335D01*
X018454Y012318D01*
X018440Y012304D01*
X018423Y012292D01*
X018404Y012283D01*
X018385Y012277D01*
X018364Y012274D01*
X018364Y012283D01*
X018383Y012286D01*
X018401Y012291D01*
X018418Y012299D01*
X018434Y012310D01*
X018448Y012324D01*
X018459Y012340D01*
X018467Y012357D01*
X018472Y012375D01*
X018475Y012394D01*
X018466Y012394D01*
X018463Y012374D01*
X018457Y012356D01*
X018447Y012339D01*
X018435Y012323D01*
X018419Y012311D01*
X018402Y012301D01*
X018384Y012295D01*
X018364Y012292D01*
X018364Y012301D01*
X018382Y012304D01*
X018399Y012309D01*
X018414Y012318D01*
X018428Y012330D01*
X018440Y012344D01*
X018449Y012359D01*
X018454Y012376D01*
X018457Y012394D01*
X018448Y012394D01*
X018445Y012376D01*
X018438Y012358D01*
X018428Y012343D01*
X018415Y012330D01*
X018400Y012320D01*
X018382Y012313D01*
X018364Y012310D01*
X018364Y012319D01*
X018380Y012322D01*
X018396Y012328D01*
X018409Y012337D01*
X018421Y012349D01*
X018430Y012362D01*
X018436Y012378D01*
X018439Y012394D01*
X018483Y013103D02*
X018433Y013103D01*
X018434Y013104D02*
X018431Y013119D01*
X018426Y013133D01*
X018417Y013146D01*
X018406Y013157D01*
X018393Y013166D01*
X018379Y013171D01*
X018364Y013174D01*
X018363Y013223D01*
X018364Y013224D01*
X018385Y013221D01*
X018404Y013215D01*
X018423Y013206D01*
X018440Y013194D01*
X018454Y013180D01*
X018466Y013163D01*
X018475Y013144D01*
X018481Y013125D01*
X018484Y013104D01*
X018475Y013104D01*
X018472Y013123D01*
X018467Y013141D01*
X018459Y013158D01*
X018448Y013174D01*
X018434Y013188D01*
X018418Y013199D01*
X018401Y013207D01*
X018383Y013212D01*
X018364Y013215D01*
X018364Y013206D01*
X018384Y013203D01*
X018402Y013197D01*
X018419Y013187D01*
X018435Y013175D01*
X018447Y013159D01*
X018457Y013142D01*
X018463Y013124D01*
X018466Y013104D01*
X018457Y013104D01*
X018454Y013122D01*
X018449Y013139D01*
X018440Y013154D01*
X018428Y013168D01*
X018414Y013180D01*
X018399Y013189D01*
X018382Y013194D01*
X018364Y013197D01*
X018364Y013188D01*
X018382Y013185D01*
X018400Y013178D01*
X018415Y013168D01*
X018428Y013155D01*
X018438Y013140D01*
X018445Y013122D01*
X018448Y013104D01*
X018439Y013104D01*
X018436Y013120D01*
X018430Y013136D01*
X018421Y013149D01*
X018409Y013161D01*
X018396Y013170D01*
X018380Y013176D01*
X018364Y013179D01*
X016055Y013223D02*
X016055Y013173D01*
X016054Y013174D02*
X016039Y013171D01*
X016025Y013166D01*
X016012Y013157D01*
X016001Y013146D01*
X015992Y013133D01*
X015987Y013119D01*
X015984Y013104D01*
X015935Y013103D01*
X015934Y013104D01*
X015937Y013125D01*
X015943Y013144D01*
X015952Y013163D01*
X015964Y013180D01*
X015978Y013194D01*
X015995Y013206D01*
X016014Y013215D01*
X016033Y013221D01*
X016054Y013224D01*
X016054Y013215D01*
X016035Y013212D01*
X016017Y013207D01*
X016000Y013199D01*
X015984Y013188D01*
X015970Y013174D01*
X015959Y013158D01*
X015951Y013141D01*
X015946Y013123D01*
X015943Y013104D01*
X015952Y013104D01*
X015955Y013124D01*
X015961Y013142D01*
X015971Y013159D01*
X015983Y013175D01*
X015999Y013187D01*
X016016Y013197D01*
X016034Y013203D01*
X016054Y013206D01*
X016054Y013197D01*
X016036Y013194D01*
X016019Y013189D01*
X016004Y013180D01*
X015990Y013168D01*
X015978Y013154D01*
X015969Y013139D01*
X015964Y013122D01*
X015961Y013104D01*
X015970Y013104D01*
X015973Y013122D01*
X015980Y013140D01*
X015990Y013155D01*
X016003Y013168D01*
X016018Y013178D01*
X016036Y013185D01*
X016054Y013188D01*
X016054Y013179D01*
X016038Y013176D01*
X016022Y013170D01*
X016009Y013161D01*
X015997Y013149D01*
X015988Y013136D01*
X015982Y013120D01*
X015979Y013104D01*
X015935Y012395D02*
X015985Y012395D01*
X015984Y012394D02*
X015987Y012379D01*
X015992Y012365D01*
X016001Y012352D01*
X016012Y012341D01*
X016025Y012332D01*
X016039Y012327D01*
X016054Y012324D01*
X016055Y012275D01*
X016054Y012274D01*
X016033Y012277D01*
X016014Y012283D01*
X015995Y012292D01*
X015978Y012304D01*
X015964Y012318D01*
X015952Y012335D01*
X015943Y012354D01*
X015937Y012373D01*
X015934Y012394D01*
X015943Y012394D01*
X015946Y012375D01*
X015951Y012357D01*
X015959Y012340D01*
X015970Y012324D01*
X015984Y012310D01*
X016000Y012299D01*
X016017Y012291D01*
X016035Y012286D01*
X016054Y012283D01*
X016054Y012292D01*
X016034Y012295D01*
X016016Y012301D01*
X015999Y012311D01*
X015983Y012323D01*
X015971Y012339D01*
X015961Y012356D01*
X015955Y012374D01*
X015952Y012394D01*
X015961Y012394D01*
X015964Y012376D01*
X015969Y012359D01*
X015978Y012344D01*
X015990Y012330D01*
X016004Y012318D01*
X016019Y012309D01*
X016036Y012304D01*
X016054Y012301D01*
X016054Y012310D01*
X016036Y012313D01*
X016018Y012320D01*
X016003Y012330D01*
X015990Y012343D01*
X015980Y012358D01*
X015973Y012376D01*
X015970Y012394D01*
X015979Y012394D01*
X015982Y012378D01*
X015988Y012362D01*
X015997Y012349D01*
X016009Y012337D01*
X016022Y012328D01*
X016038Y012322D01*
X016054Y012319D01*
X020435Y015795D02*
X020485Y015795D01*
X020484Y015794D02*
X020487Y015779D01*
X020492Y015765D01*
X020501Y015752D01*
X020512Y015741D01*
X020525Y015732D01*
X020539Y015727D01*
X020554Y015724D01*
X020555Y015675D01*
X020554Y015674D01*
X020533Y015677D01*
X020514Y015683D01*
X020495Y015692D01*
X020478Y015704D01*
X020464Y015718D01*
X020452Y015735D01*
X020443Y015754D01*
X020437Y015773D01*
X020434Y015794D01*
X020443Y015794D01*
X020446Y015775D01*
X020451Y015757D01*
X020459Y015740D01*
X020470Y015724D01*
X020484Y015710D01*
X020500Y015699D01*
X020517Y015691D01*
X020535Y015686D01*
X020554Y015683D01*
X020554Y015692D01*
X020534Y015695D01*
X020516Y015701D01*
X020499Y015711D01*
X020483Y015723D01*
X020471Y015739D01*
X020461Y015756D01*
X020455Y015774D01*
X020452Y015794D01*
X020461Y015794D01*
X020464Y015776D01*
X020469Y015759D01*
X020478Y015744D01*
X020490Y015730D01*
X020504Y015718D01*
X020519Y015709D01*
X020536Y015704D01*
X020554Y015701D01*
X020554Y015710D01*
X020536Y015713D01*
X020518Y015720D01*
X020503Y015730D01*
X020490Y015743D01*
X020480Y015758D01*
X020473Y015776D01*
X020470Y015794D01*
X020479Y015794D01*
X020482Y015778D01*
X020488Y015762D01*
X020497Y015749D01*
X020509Y015737D01*
X020522Y015728D01*
X020538Y015722D01*
X020554Y015719D01*
X020555Y016623D02*
X020555Y016573D01*
X020554Y016574D02*
X020539Y016571D01*
X020525Y016566D01*
X020512Y016557D01*
X020501Y016546D01*
X020492Y016533D01*
X020487Y016519D01*
X020484Y016504D01*
X020435Y016503D01*
X020434Y016504D01*
X020437Y016525D01*
X020443Y016544D01*
X020452Y016563D01*
X020464Y016580D01*
X020478Y016594D01*
X020495Y016606D01*
X020514Y016615D01*
X020533Y016621D01*
X020554Y016624D01*
X020554Y016615D01*
X020535Y016612D01*
X020517Y016607D01*
X020500Y016599D01*
X020484Y016588D01*
X020470Y016574D01*
X020459Y016558D01*
X020451Y016541D01*
X020446Y016523D01*
X020443Y016504D01*
X020452Y016504D01*
X020455Y016524D01*
X020461Y016542D01*
X020471Y016559D01*
X020483Y016575D01*
X020499Y016587D01*
X020516Y016597D01*
X020534Y016603D01*
X020554Y016606D01*
X020554Y016597D01*
X020536Y016594D01*
X020519Y016589D01*
X020504Y016580D01*
X020490Y016568D01*
X020478Y016554D01*
X020469Y016539D01*
X020464Y016522D01*
X020461Y016504D01*
X020470Y016504D01*
X020473Y016522D01*
X020480Y016540D01*
X020490Y016555D01*
X020503Y016568D01*
X020518Y016578D01*
X020536Y016585D01*
X020554Y016588D01*
X020554Y016579D01*
X020538Y016576D01*
X020522Y016570D01*
X020509Y016561D01*
X020497Y016549D01*
X020488Y016536D01*
X020482Y016520D01*
X020479Y016504D01*
X022983Y016503D02*
X022933Y016503D01*
X022934Y016504D02*
X022931Y016519D01*
X022926Y016533D01*
X022917Y016546D01*
X022906Y016557D01*
X022893Y016566D01*
X022879Y016571D01*
X022864Y016574D01*
X022863Y016623D01*
X022864Y016624D01*
X022885Y016621D01*
X022904Y016615D01*
X022923Y016606D01*
X022940Y016594D01*
X022954Y016580D01*
X022966Y016563D01*
X022975Y016544D01*
X022981Y016525D01*
X022984Y016504D01*
X022975Y016504D01*
X022972Y016523D01*
X022967Y016541D01*
X022959Y016558D01*
X022948Y016574D01*
X022934Y016588D01*
X022918Y016599D01*
X022901Y016607D01*
X022883Y016612D01*
X022864Y016615D01*
X022864Y016606D01*
X022884Y016603D01*
X022902Y016597D01*
X022919Y016587D01*
X022935Y016575D01*
X022947Y016559D01*
X022957Y016542D01*
X022963Y016524D01*
X022966Y016504D01*
X022957Y016504D01*
X022954Y016522D01*
X022949Y016539D01*
X022940Y016554D01*
X022928Y016568D01*
X022914Y016580D01*
X022899Y016589D01*
X022882Y016594D01*
X022864Y016597D01*
X022864Y016588D01*
X022882Y016585D01*
X022900Y016578D01*
X022915Y016568D01*
X022928Y016555D01*
X022938Y016540D01*
X022945Y016522D01*
X022948Y016504D01*
X022939Y016504D01*
X022936Y016520D01*
X022930Y016536D01*
X022921Y016549D01*
X022909Y016561D01*
X022896Y016570D01*
X022880Y016576D01*
X022864Y016579D01*
X022863Y015675D02*
X022863Y015725D01*
X022864Y015724D02*
X022879Y015727D01*
X022893Y015732D01*
X022906Y015741D01*
X022917Y015752D01*
X022926Y015765D01*
X022931Y015779D01*
X022934Y015794D01*
X022983Y015795D01*
X022984Y015794D01*
X022981Y015773D01*
X022975Y015754D01*
X022966Y015735D01*
X022954Y015718D01*
X022940Y015704D01*
X022923Y015692D01*
X022904Y015683D01*
X022885Y015677D01*
X022864Y015674D01*
X022864Y015683D01*
X022883Y015686D01*
X022901Y015691D01*
X022918Y015699D01*
X022934Y015710D01*
X022948Y015724D01*
X022959Y015740D01*
X022967Y015757D01*
X022972Y015775D01*
X022975Y015794D01*
X022966Y015794D01*
X022963Y015774D01*
X022957Y015756D01*
X022947Y015739D01*
X022935Y015723D01*
X022919Y015711D01*
X022902Y015701D01*
X022884Y015695D01*
X022864Y015692D01*
X022864Y015701D01*
X022882Y015704D01*
X022899Y015709D01*
X022914Y015718D01*
X022928Y015730D01*
X022940Y015744D01*
X022949Y015759D01*
X022954Y015776D01*
X022957Y015794D01*
X022948Y015794D01*
X022945Y015776D01*
X022938Y015758D01*
X022928Y015743D01*
X022915Y015730D01*
X022900Y015720D01*
X022882Y015713D01*
X022864Y015710D01*
X022864Y015719D01*
X022880Y015722D01*
X022896Y015728D01*
X022909Y015737D01*
X022921Y015749D01*
X022930Y015762D01*
X022936Y015778D01*
X022939Y015794D01*
X026255Y007623D02*
X026255Y007573D01*
X026254Y007574D02*
X026239Y007571D01*
X026225Y007566D01*
X026212Y007557D01*
X026201Y007546D01*
X026192Y007533D01*
X026187Y007519D01*
X026184Y007504D01*
X026135Y007503D01*
X026134Y007504D01*
X026137Y007525D01*
X026143Y007544D01*
X026152Y007563D01*
X026164Y007580D01*
X026178Y007594D01*
X026195Y007606D01*
X026214Y007615D01*
X026233Y007621D01*
X026254Y007624D01*
X026254Y007615D01*
X026235Y007612D01*
X026217Y007607D01*
X026200Y007599D01*
X026184Y007588D01*
X026170Y007574D01*
X026159Y007558D01*
X026151Y007541D01*
X026146Y007523D01*
X026143Y007504D01*
X026152Y007504D01*
X026155Y007524D01*
X026161Y007542D01*
X026171Y007559D01*
X026183Y007575D01*
X026199Y007587D01*
X026216Y007597D01*
X026234Y007603D01*
X026254Y007606D01*
X026254Y007597D01*
X026236Y007594D01*
X026219Y007589D01*
X026204Y007580D01*
X026190Y007568D01*
X026178Y007554D01*
X026169Y007539D01*
X026164Y007522D01*
X026161Y007504D01*
X026170Y007504D01*
X026173Y007522D01*
X026180Y007540D01*
X026190Y007555D01*
X026203Y007568D01*
X026218Y007578D01*
X026236Y007585D01*
X026254Y007588D01*
X026254Y007579D01*
X026238Y007576D01*
X026222Y007570D01*
X026209Y007561D01*
X026197Y007549D01*
X026188Y007536D01*
X026182Y007520D01*
X026179Y007504D01*
X026135Y006795D02*
X026185Y006795D01*
X026184Y006794D02*
X026187Y006779D01*
X026192Y006765D01*
X026201Y006752D01*
X026212Y006741D01*
X026225Y006732D01*
X026239Y006727D01*
X026254Y006724D01*
X026255Y006675D01*
X026254Y006674D01*
X026233Y006677D01*
X026214Y006683D01*
X026195Y006692D01*
X026178Y006704D01*
X026164Y006718D01*
X026152Y006735D01*
X026143Y006754D01*
X026137Y006773D01*
X026134Y006794D01*
X026143Y006794D01*
X026146Y006775D01*
X026151Y006757D01*
X026159Y006740D01*
X026170Y006724D01*
X026184Y006710D01*
X026200Y006699D01*
X026217Y006691D01*
X026235Y006686D01*
X026254Y006683D01*
X026254Y006692D01*
X026234Y006695D01*
X026216Y006701D01*
X026199Y006711D01*
X026183Y006723D01*
X026171Y006739D01*
X026161Y006756D01*
X026155Y006774D01*
X026152Y006794D01*
X026161Y006794D01*
X026164Y006776D01*
X026169Y006759D01*
X026178Y006744D01*
X026190Y006730D01*
X026204Y006718D01*
X026219Y006709D01*
X026236Y006704D01*
X026254Y006701D01*
X026254Y006710D01*
X026236Y006713D01*
X026218Y006720D01*
X026203Y006730D01*
X026190Y006743D01*
X026180Y006758D01*
X026173Y006776D01*
X026170Y006794D01*
X026179Y006794D01*
X026182Y006778D01*
X026188Y006762D01*
X026197Y006749D01*
X026209Y006737D01*
X026222Y006728D01*
X026238Y006722D01*
X026254Y006719D01*
X028563Y006675D02*
X028563Y006725D01*
X028564Y006724D02*
X028579Y006727D01*
X028593Y006732D01*
X028606Y006741D01*
X028617Y006752D01*
X028626Y006765D01*
X028631Y006779D01*
X028634Y006794D01*
X028683Y006795D01*
X028684Y006794D01*
X028681Y006773D01*
X028675Y006754D01*
X028666Y006735D01*
X028654Y006718D01*
X028640Y006704D01*
X028623Y006692D01*
X028604Y006683D01*
X028585Y006677D01*
X028564Y006674D01*
X028564Y006683D01*
X028583Y006686D01*
X028601Y006691D01*
X028618Y006699D01*
X028634Y006710D01*
X028648Y006724D01*
X028659Y006740D01*
X028667Y006757D01*
X028672Y006775D01*
X028675Y006794D01*
X028666Y006794D01*
X028663Y006774D01*
X028657Y006756D01*
X028647Y006739D01*
X028635Y006723D01*
X028619Y006711D01*
X028602Y006701D01*
X028584Y006695D01*
X028564Y006692D01*
X028564Y006701D01*
X028582Y006704D01*
X028599Y006709D01*
X028614Y006718D01*
X028628Y006730D01*
X028640Y006744D01*
X028649Y006759D01*
X028654Y006776D01*
X028657Y006794D01*
X028648Y006794D01*
X028645Y006776D01*
X028638Y006758D01*
X028628Y006743D01*
X028615Y006730D01*
X028600Y006720D01*
X028582Y006713D01*
X028564Y006710D01*
X028564Y006719D01*
X028580Y006722D01*
X028596Y006728D01*
X028609Y006737D01*
X028621Y006749D01*
X028630Y006762D01*
X028636Y006778D01*
X028639Y006794D01*
X028683Y007503D02*
X028633Y007503D01*
X028634Y007504D02*
X028631Y007519D01*
X028626Y007533D01*
X028617Y007546D01*
X028606Y007557D01*
X028593Y007566D01*
X028579Y007571D01*
X028564Y007574D01*
X028563Y007623D01*
X028564Y007624D01*
X028585Y007621D01*
X028604Y007615D01*
X028623Y007606D01*
X028640Y007594D01*
X028654Y007580D01*
X028666Y007563D01*
X028675Y007544D01*
X028681Y007525D01*
X028684Y007504D01*
X028675Y007504D01*
X028672Y007523D01*
X028667Y007541D01*
X028659Y007558D01*
X028648Y007574D01*
X028634Y007588D01*
X028618Y007599D01*
X028601Y007607D01*
X028583Y007612D01*
X028564Y007615D01*
X028564Y007606D01*
X028584Y007603D01*
X028602Y007597D01*
X028619Y007587D01*
X028635Y007575D01*
X028647Y007559D01*
X028657Y007542D01*
X028663Y007524D01*
X028666Y007504D01*
X028657Y007504D01*
X028654Y007522D01*
X028649Y007539D01*
X028640Y007554D01*
X028628Y007568D01*
X028614Y007580D01*
X028599Y007589D01*
X028582Y007594D01*
X028564Y007597D01*
X028564Y007588D01*
X028582Y007585D01*
X028600Y007578D01*
X028615Y007568D01*
X028628Y007555D01*
X028638Y007540D01*
X028645Y007522D01*
X028648Y007504D01*
X028639Y007504D01*
X028636Y007520D01*
X028630Y007536D01*
X028621Y007549D01*
X028609Y007561D01*
X028596Y007570D01*
X028580Y007576D01*
X028564Y007579D01*
X035561Y017710D02*
X035600Y017679D01*
X035600Y017680D02*
X035563Y017630D01*
X035530Y017578D01*
X035500Y017524D01*
X035473Y017468D01*
X035449Y017411D01*
X035429Y017353D01*
X035413Y017293D01*
X035400Y017233D01*
X035390Y017172D01*
X035385Y017110D01*
X035383Y017048D01*
X035385Y016987D01*
X035391Y016925D01*
X035400Y016864D01*
X035413Y016804D01*
X035429Y016744D01*
X035450Y016686D01*
X035473Y016629D01*
X035500Y016573D01*
X035531Y016519D01*
X035564Y016467D01*
X035601Y016418D01*
X035640Y016370D01*
X035682Y016325D01*
X035727Y016283D01*
X035775Y016243D01*
X035825Y016206D01*
X035876Y016173D01*
X035930Y016142D01*
X035986Y016115D01*
X036043Y016091D01*
X036101Y016071D01*
X036087Y016024D01*
X036086Y016023D01*
X036025Y016045D01*
X035965Y016069D01*
X035907Y016098D01*
X035851Y016130D01*
X035796Y016165D01*
X035744Y016204D01*
X035694Y016245D01*
X035647Y016290D01*
X035603Y016337D01*
X035561Y016387D01*
X035523Y016439D01*
X035488Y016493D01*
X035456Y016550D01*
X035428Y016608D01*
X035403Y016668D01*
X035382Y016729D01*
X035364Y016792D01*
X035351Y016855D01*
X035341Y016919D01*
X035335Y016984D01*
X035333Y017048D01*
X035335Y017113D01*
X035341Y017178D01*
X035350Y017242D01*
X035364Y017305D01*
X035381Y017368D01*
X035402Y017429D01*
X035427Y017489D01*
X035455Y017547D01*
X035487Y017604D01*
X035522Y017658D01*
X035561Y017711D01*
X035568Y017705D01*
X035530Y017653D01*
X035495Y017599D01*
X035463Y017543D01*
X035435Y017485D01*
X035411Y017426D01*
X035390Y017365D01*
X035373Y017303D01*
X035359Y017240D01*
X035350Y017177D01*
X035344Y017113D01*
X035342Y017048D01*
X035344Y016984D01*
X035350Y016920D01*
X035359Y016857D01*
X035373Y016794D01*
X035390Y016732D01*
X035411Y016671D01*
X035436Y016612D01*
X035464Y016554D01*
X035495Y016498D01*
X035530Y016444D01*
X035568Y016392D01*
X035609Y016343D01*
X035653Y016296D01*
X035700Y016252D01*
X035750Y016211D01*
X035801Y016173D01*
X035855Y016138D01*
X035911Y016106D01*
X035969Y016078D01*
X036028Y016053D01*
X036089Y016032D01*
X036092Y016040D01*
X036031Y016061D01*
X035973Y016086D01*
X035915Y016114D01*
X035860Y016145D01*
X035806Y016180D01*
X035755Y016218D01*
X035706Y016259D01*
X035660Y016302D01*
X035616Y016349D01*
X035575Y016398D01*
X035538Y016449D01*
X035503Y016503D01*
X035472Y016558D01*
X035444Y016615D01*
X035420Y016674D01*
X035399Y016735D01*
X035382Y016796D01*
X035368Y016858D01*
X035359Y016921D01*
X035353Y016985D01*
X035351Y017048D01*
X035353Y017112D01*
X035359Y017176D01*
X035368Y017239D01*
X035381Y017301D01*
X035399Y017362D01*
X035419Y017423D01*
X035444Y017482D01*
X035471Y017539D01*
X035503Y017594D01*
X035537Y017648D01*
X035575Y017699D01*
X035582Y017694D01*
X035545Y017643D01*
X035510Y017590D01*
X035479Y017535D01*
X035452Y017478D01*
X035428Y017419D01*
X035407Y017360D01*
X035390Y017299D01*
X035377Y017237D01*
X035368Y017175D01*
X035362Y017112D01*
X035360Y017048D01*
X035362Y016985D01*
X035368Y016922D01*
X035377Y016860D01*
X035390Y016798D01*
X035407Y016737D01*
X035428Y016678D01*
X035452Y016619D01*
X035480Y016562D01*
X035511Y016507D01*
X035545Y016454D01*
X035583Y016403D01*
X035623Y016355D01*
X035666Y016309D01*
X035712Y016265D01*
X035761Y016225D01*
X035811Y016187D01*
X035864Y016153D01*
X035919Y016122D01*
X035976Y016094D01*
X036035Y016070D01*
X036094Y016049D01*
X036097Y016058D01*
X036038Y016078D01*
X035980Y016102D01*
X035924Y016130D01*
X035869Y016161D01*
X035817Y016195D01*
X035766Y016232D01*
X035718Y016272D01*
X035673Y016315D01*
X035630Y016361D01*
X035590Y016409D01*
X035553Y016459D01*
X035519Y016512D01*
X035488Y016567D01*
X035460Y016623D01*
X035436Y016681D01*
X035416Y016740D01*
X035399Y016800D01*
X035386Y016862D01*
X035377Y016923D01*
X035371Y016986D01*
X035369Y017048D01*
X035371Y017111D01*
X035376Y017173D01*
X035386Y017235D01*
X035399Y017297D01*
X035416Y017357D01*
X035436Y017416D01*
X035460Y017474D01*
X035487Y017530D01*
X035518Y017585D01*
X035552Y017638D01*
X035589Y017688D01*
X035596Y017683D01*
X035559Y017633D01*
X035526Y017580D01*
X035495Y017526D01*
X035468Y017470D01*
X035444Y017413D01*
X035424Y017354D01*
X035408Y017294D01*
X035395Y017234D01*
X035385Y017172D01*
X035380Y017111D01*
X035378Y017048D01*
X035380Y016986D01*
X035386Y016925D01*
X035395Y016863D01*
X035408Y016802D01*
X035425Y016743D01*
X035445Y016684D01*
X035469Y016627D01*
X035496Y016571D01*
X035526Y016517D01*
X035560Y016464D01*
X035597Y016414D01*
X035636Y016367D01*
X035679Y016321D01*
X035724Y016279D01*
X035772Y016239D01*
X035822Y016202D01*
X035874Y016168D01*
X035928Y016138D01*
X035984Y016111D01*
X036041Y016087D01*
X036100Y016066D01*
X036730Y016024D02*
X036715Y016072D01*
X036716Y016071D02*
X036774Y016091D01*
X036831Y016115D01*
X036887Y016142D01*
X036941Y016173D01*
X036992Y016206D01*
X037042Y016243D01*
X037090Y016283D01*
X037135Y016325D01*
X037177Y016370D01*
X037216Y016418D01*
X037253Y016467D01*
X037286Y016519D01*
X037317Y016573D01*
X037344Y016629D01*
X037367Y016686D01*
X037388Y016744D01*
X037404Y016804D01*
X037417Y016864D01*
X037426Y016925D01*
X037432Y016987D01*
X037434Y017048D01*
X037432Y017110D01*
X037427Y017172D01*
X037417Y017233D01*
X037404Y017293D01*
X037388Y017353D01*
X037368Y017411D01*
X037344Y017468D01*
X037317Y017524D01*
X037287Y017578D01*
X037254Y017630D01*
X037217Y017680D01*
X037256Y017710D01*
X037256Y017711D01*
X037295Y017658D01*
X037330Y017604D01*
X037362Y017547D01*
X037390Y017489D01*
X037415Y017429D01*
X037436Y017368D01*
X037453Y017305D01*
X037467Y017242D01*
X037476Y017178D01*
X037482Y017113D01*
X037484Y017048D01*
X037482Y016984D01*
X037476Y016919D01*
X037466Y016855D01*
X037453Y016792D01*
X037435Y016729D01*
X037414Y016668D01*
X037389Y016608D01*
X037361Y016550D01*
X037329Y016493D01*
X037294Y016439D01*
X037256Y016387D01*
X037214Y016337D01*
X037170Y016290D01*
X037123Y016245D01*
X037073Y016204D01*
X037021Y016165D01*
X036966Y016130D01*
X036910Y016098D01*
X036852Y016069D01*
X036792Y016045D01*
X036731Y016023D01*
X036728Y016032D01*
X036789Y016053D01*
X036848Y016078D01*
X036906Y016106D01*
X036962Y016138D01*
X037016Y016172D01*
X037067Y016211D01*
X037117Y016252D01*
X037164Y016296D01*
X037208Y016343D01*
X037249Y016392D01*
X037287Y016444D01*
X037322Y016498D01*
X037353Y016554D01*
X037381Y016612D01*
X037406Y016671D01*
X037427Y016732D01*
X037444Y016794D01*
X037458Y016857D01*
X037467Y016920D01*
X037473Y016984D01*
X037475Y017048D01*
X037473Y017113D01*
X037467Y017177D01*
X037458Y017240D01*
X037444Y017303D01*
X037427Y017365D01*
X037406Y017426D01*
X037382Y017485D01*
X037354Y017543D01*
X037322Y017599D01*
X037287Y017653D01*
X037249Y017705D01*
X037242Y017699D01*
X037280Y017648D01*
X037314Y017594D01*
X037346Y017539D01*
X037373Y017482D01*
X037398Y017423D01*
X037418Y017362D01*
X037436Y017301D01*
X037449Y017239D01*
X037458Y017176D01*
X037464Y017112D01*
X037466Y017048D01*
X037464Y016985D01*
X037458Y016921D01*
X037449Y016858D01*
X037435Y016796D01*
X037418Y016735D01*
X037397Y016674D01*
X037373Y016615D01*
X037345Y016558D01*
X037314Y016503D01*
X037279Y016449D01*
X037242Y016398D01*
X037201Y016349D01*
X037157Y016302D01*
X037111Y016259D01*
X037062Y016218D01*
X037011Y016180D01*
X036957Y016145D01*
X036902Y016114D01*
X036844Y016086D01*
X036786Y016061D01*
X036725Y016040D01*
X036723Y016049D01*
X036782Y016070D01*
X036841Y016094D01*
X036898Y016122D01*
X036953Y016153D01*
X037006Y016187D01*
X037056Y016225D01*
X037105Y016265D01*
X037151Y016309D01*
X037194Y016355D01*
X037234Y016403D01*
X037272Y016454D01*
X037306Y016507D01*
X037337Y016562D01*
X037365Y016619D01*
X037389Y016678D01*
X037410Y016737D01*
X037427Y016798D01*
X037440Y016860D01*
X037449Y016922D01*
X037455Y016985D01*
X037457Y017048D01*
X037455Y017112D01*
X037449Y017175D01*
X037440Y017237D01*
X037427Y017299D01*
X037410Y017360D01*
X037389Y017419D01*
X037365Y017478D01*
X037338Y017535D01*
X037307Y017590D01*
X037273Y017643D01*
X037235Y017694D01*
X037228Y017688D01*
X037265Y017638D01*
X037299Y017585D01*
X037330Y017530D01*
X037357Y017474D01*
X037381Y017416D01*
X037401Y017357D01*
X037418Y017297D01*
X037431Y017235D01*
X037441Y017173D01*
X037446Y017111D01*
X037448Y017048D01*
X037446Y016986D01*
X037440Y016923D01*
X037431Y016862D01*
X037418Y016800D01*
X037401Y016740D01*
X037381Y016681D01*
X037357Y016623D01*
X037329Y016567D01*
X037298Y016512D01*
X037264Y016459D01*
X037227Y016409D01*
X037187Y016361D01*
X037144Y016315D01*
X037099Y016272D01*
X037051Y016232D01*
X037000Y016195D01*
X036948Y016161D01*
X036893Y016130D01*
X036837Y016102D01*
X036779Y016078D01*
X036720Y016058D01*
X036717Y016066D01*
X036776Y016087D01*
X036833Y016111D01*
X036889Y016138D01*
X036943Y016168D01*
X036995Y016202D01*
X037045Y016239D01*
X037093Y016279D01*
X037138Y016321D01*
X037181Y016367D01*
X037220Y016414D01*
X037257Y016464D01*
X037291Y016517D01*
X037321Y016571D01*
X037348Y016627D01*
X037372Y016684D01*
X037392Y016743D01*
X037409Y016802D01*
X037422Y016863D01*
X037431Y016925D01*
X037437Y016986D01*
X037439Y017048D01*
X037437Y017110D01*
X037432Y017172D01*
X037422Y017234D01*
X037409Y017294D01*
X037393Y017354D01*
X037373Y017413D01*
X037349Y017470D01*
X037322Y017526D01*
X037291Y017580D01*
X037258Y017633D01*
X037221Y017683D01*
X036730Y018024D02*
X036715Y018072D01*
X036716Y018071D02*
X036774Y018091D01*
X036831Y018115D01*
X036887Y018142D01*
X036941Y018173D01*
X036992Y018206D01*
X037042Y018243D01*
X037090Y018283D01*
X037135Y018325D01*
X037177Y018370D01*
X037216Y018418D01*
X037253Y018467D01*
X037286Y018519D01*
X037317Y018573D01*
X037344Y018629D01*
X037367Y018686D01*
X037388Y018744D01*
X037404Y018804D01*
X037417Y018864D01*
X037426Y018925D01*
X037432Y018987D01*
X037434Y019048D01*
X037432Y019110D01*
X037427Y019172D01*
X037417Y019233D01*
X037404Y019293D01*
X037388Y019353D01*
X037368Y019411D01*
X037344Y019468D01*
X037317Y019524D01*
X037287Y019578D01*
X037254Y019630D01*
X037217Y019680D01*
X037256Y019710D01*
X037256Y019711D01*
X037295Y019658D01*
X037330Y019604D01*
X037362Y019547D01*
X037390Y019489D01*
X037415Y019429D01*
X037436Y019368D01*
X037453Y019305D01*
X037467Y019242D01*
X037476Y019178D01*
X037482Y019113D01*
X037484Y019048D01*
X037482Y018984D01*
X037476Y018919D01*
X037466Y018855D01*
X037453Y018792D01*
X037435Y018729D01*
X037414Y018668D01*
X037389Y018608D01*
X037361Y018550D01*
X037329Y018493D01*
X037294Y018439D01*
X037256Y018387D01*
X037214Y018337D01*
X037170Y018290D01*
X037123Y018245D01*
X037073Y018204D01*
X037021Y018165D01*
X036966Y018130D01*
X036910Y018098D01*
X036852Y018069D01*
X036792Y018045D01*
X036731Y018023D01*
X036728Y018032D01*
X036789Y018053D01*
X036848Y018078D01*
X036906Y018106D01*
X036962Y018138D01*
X037016Y018172D01*
X037067Y018211D01*
X037117Y018252D01*
X037164Y018296D01*
X037208Y018343D01*
X037249Y018392D01*
X037287Y018444D01*
X037322Y018498D01*
X037353Y018554D01*
X037381Y018612D01*
X037406Y018671D01*
X037427Y018732D01*
X037444Y018794D01*
X037458Y018857D01*
X037467Y018920D01*
X037473Y018984D01*
X037475Y019048D01*
X037473Y019113D01*
X037467Y019177D01*
X037458Y019240D01*
X037444Y019303D01*
X037427Y019365D01*
X037406Y019426D01*
X037382Y019485D01*
X037354Y019543D01*
X037322Y019599D01*
X037287Y019653D01*
X037249Y019705D01*
X037242Y019699D01*
X037280Y019648D01*
X037314Y019594D01*
X037346Y019539D01*
X037373Y019482D01*
X037398Y019423D01*
X037418Y019362D01*
X037436Y019301D01*
X037449Y019239D01*
X037458Y019176D01*
X037464Y019112D01*
X037466Y019048D01*
X037464Y018985D01*
X037458Y018921D01*
X037449Y018858D01*
X037435Y018796D01*
X037418Y018735D01*
X037397Y018674D01*
X037373Y018615D01*
X037345Y018558D01*
X037314Y018503D01*
X037279Y018449D01*
X037242Y018398D01*
X037201Y018349D01*
X037157Y018302D01*
X037111Y018259D01*
X037062Y018218D01*
X037011Y018180D01*
X036957Y018145D01*
X036902Y018114D01*
X036844Y018086D01*
X036786Y018061D01*
X036725Y018040D01*
X036723Y018049D01*
X036782Y018070D01*
X036841Y018094D01*
X036898Y018122D01*
X036953Y018153D01*
X037006Y018187D01*
X037056Y018225D01*
X037105Y018265D01*
X037151Y018309D01*
X037194Y018355D01*
X037234Y018403D01*
X037272Y018454D01*
X037306Y018507D01*
X037337Y018562D01*
X037365Y018619D01*
X037389Y018678D01*
X037410Y018737D01*
X037427Y018798D01*
X037440Y018860D01*
X037449Y018922D01*
X037455Y018985D01*
X037457Y019048D01*
X037455Y019112D01*
X037449Y019175D01*
X037440Y019237D01*
X037427Y019299D01*
X037410Y019360D01*
X037389Y019419D01*
X037365Y019478D01*
X037338Y019535D01*
X037307Y019590D01*
X037273Y019643D01*
X037235Y019694D01*
X037228Y019688D01*
X037265Y019638D01*
X037299Y019585D01*
X037330Y019530D01*
X037357Y019474D01*
X037381Y019416D01*
X037401Y019357D01*
X037418Y019297D01*
X037431Y019235D01*
X037441Y019173D01*
X037446Y019111D01*
X037448Y019048D01*
X037446Y018986D01*
X037440Y018923D01*
X037431Y018862D01*
X037418Y018800D01*
X037401Y018740D01*
X037381Y018681D01*
X037357Y018623D01*
X037329Y018567D01*
X037298Y018512D01*
X037264Y018459D01*
X037227Y018409D01*
X037187Y018361D01*
X037144Y018315D01*
X037099Y018272D01*
X037051Y018232D01*
X037000Y018195D01*
X036948Y018161D01*
X036893Y018130D01*
X036837Y018102D01*
X036779Y018078D01*
X036720Y018058D01*
X036717Y018066D01*
X036776Y018087D01*
X036833Y018111D01*
X036889Y018138D01*
X036943Y018168D01*
X036995Y018202D01*
X037045Y018239D01*
X037093Y018279D01*
X037138Y018321D01*
X037181Y018367D01*
X037220Y018414D01*
X037257Y018464D01*
X037291Y018517D01*
X037321Y018571D01*
X037348Y018627D01*
X037372Y018684D01*
X037392Y018743D01*
X037409Y018802D01*
X037422Y018863D01*
X037431Y018925D01*
X037437Y018986D01*
X037439Y019048D01*
X037437Y019110D01*
X037432Y019172D01*
X037422Y019234D01*
X037409Y019294D01*
X037393Y019354D01*
X037373Y019413D01*
X037349Y019470D01*
X037322Y019526D01*
X037291Y019580D01*
X037258Y019633D01*
X037221Y019683D01*
X037563Y019875D02*
X037563Y019925D01*
X037564Y019924D02*
X037579Y019927D01*
X037593Y019932D01*
X037606Y019941D01*
X037617Y019952D01*
X037626Y019965D01*
X037631Y019979D01*
X037634Y019994D01*
X037683Y019995D01*
X037684Y019994D01*
X037681Y019973D01*
X037675Y019954D01*
X037666Y019935D01*
X037654Y019918D01*
X037640Y019904D01*
X037623Y019892D01*
X037604Y019883D01*
X037585Y019877D01*
X037564Y019874D01*
X037564Y019883D01*
X037583Y019886D01*
X037601Y019891D01*
X037618Y019899D01*
X037634Y019910D01*
X037648Y019924D01*
X037659Y019940D01*
X037667Y019957D01*
X037672Y019975D01*
X037675Y019994D01*
X037666Y019994D01*
X037663Y019974D01*
X037657Y019956D01*
X037647Y019939D01*
X037635Y019923D01*
X037619Y019911D01*
X037602Y019901D01*
X037584Y019895D01*
X037564Y019892D01*
X037564Y019901D01*
X037582Y019904D01*
X037599Y019909D01*
X037614Y019918D01*
X037628Y019930D01*
X037640Y019944D01*
X037649Y019959D01*
X037654Y019976D01*
X037657Y019994D01*
X037648Y019994D01*
X037645Y019976D01*
X037638Y019958D01*
X037628Y019943D01*
X037615Y019930D01*
X037600Y019920D01*
X037582Y019913D01*
X037564Y019910D01*
X037564Y019919D01*
X037580Y019922D01*
X037596Y019928D01*
X037609Y019937D01*
X037621Y019949D01*
X037630Y019962D01*
X037636Y019978D01*
X037639Y019994D01*
X037683Y020703D02*
X037633Y020703D01*
X037634Y020704D02*
X037631Y020719D01*
X037626Y020733D01*
X037617Y020746D01*
X037606Y020757D01*
X037593Y020766D01*
X037579Y020771D01*
X037564Y020774D01*
X037563Y020823D01*
X037564Y020824D01*
X037585Y020821D01*
X037604Y020815D01*
X037623Y020806D01*
X037640Y020794D01*
X037654Y020780D01*
X037666Y020763D01*
X037675Y020744D01*
X037681Y020725D01*
X037684Y020704D01*
X037675Y020704D01*
X037672Y020723D01*
X037667Y020741D01*
X037659Y020758D01*
X037648Y020774D01*
X037634Y020788D01*
X037618Y020799D01*
X037601Y020807D01*
X037583Y020812D01*
X037564Y020815D01*
X037564Y020806D01*
X037584Y020803D01*
X037602Y020797D01*
X037619Y020787D01*
X037635Y020775D01*
X037647Y020759D01*
X037657Y020742D01*
X037663Y020724D01*
X037666Y020704D01*
X037657Y020704D01*
X037654Y020722D01*
X037649Y020739D01*
X037640Y020754D01*
X037628Y020768D01*
X037614Y020780D01*
X037599Y020789D01*
X037582Y020794D01*
X037564Y020797D01*
X037564Y020788D01*
X037582Y020785D01*
X037600Y020778D01*
X037615Y020768D01*
X037628Y020755D01*
X037638Y020740D01*
X037645Y020722D01*
X037648Y020704D01*
X037639Y020704D01*
X037636Y020720D01*
X037630Y020736D01*
X037621Y020749D01*
X037609Y020761D01*
X037596Y020770D01*
X037580Y020776D01*
X037564Y020779D01*
X037563Y020875D02*
X037563Y020925D01*
X037564Y020924D02*
X037579Y020927D01*
X037593Y020932D01*
X037606Y020941D01*
X037617Y020952D01*
X037626Y020965D01*
X037631Y020979D01*
X037634Y020994D01*
X037683Y020995D01*
X037684Y020994D01*
X037681Y020973D01*
X037675Y020954D01*
X037666Y020935D01*
X037654Y020918D01*
X037640Y020904D01*
X037623Y020892D01*
X037604Y020883D01*
X037585Y020877D01*
X037564Y020874D01*
X037564Y020883D01*
X037583Y020886D01*
X037601Y020891D01*
X037618Y020899D01*
X037634Y020910D01*
X037648Y020924D01*
X037659Y020940D01*
X037667Y020957D01*
X037672Y020975D01*
X037675Y020994D01*
X037666Y020994D01*
X037663Y020974D01*
X037657Y020956D01*
X037647Y020939D01*
X037635Y020923D01*
X037619Y020911D01*
X037602Y020901D01*
X037584Y020895D01*
X037564Y020892D01*
X037564Y020901D01*
X037582Y020904D01*
X037599Y020909D01*
X037614Y020918D01*
X037628Y020930D01*
X037640Y020944D01*
X037649Y020959D01*
X037654Y020976D01*
X037657Y020994D01*
X037648Y020994D01*
X037645Y020976D01*
X037638Y020958D01*
X037628Y020943D01*
X037615Y020930D01*
X037600Y020920D01*
X037582Y020913D01*
X037564Y020910D01*
X037564Y020919D01*
X037580Y020922D01*
X037596Y020928D01*
X037609Y020937D01*
X037621Y020949D01*
X037630Y020962D01*
X037636Y020978D01*
X037639Y020994D01*
X037683Y021703D02*
X037633Y021703D01*
X037634Y021704D02*
X037631Y021719D01*
X037626Y021733D01*
X037617Y021746D01*
X037606Y021757D01*
X037593Y021766D01*
X037579Y021771D01*
X037564Y021774D01*
X037563Y021823D01*
X037564Y021824D01*
X037585Y021821D01*
X037604Y021815D01*
X037623Y021806D01*
X037640Y021794D01*
X037654Y021780D01*
X037666Y021763D01*
X037675Y021744D01*
X037681Y021725D01*
X037684Y021704D01*
X037675Y021704D01*
X037672Y021723D01*
X037667Y021741D01*
X037659Y021758D01*
X037648Y021774D01*
X037634Y021788D01*
X037618Y021799D01*
X037601Y021807D01*
X037583Y021812D01*
X037564Y021815D01*
X037564Y021806D01*
X037584Y021803D01*
X037602Y021797D01*
X037619Y021787D01*
X037635Y021775D01*
X037647Y021759D01*
X037657Y021742D01*
X037663Y021724D01*
X037666Y021704D01*
X037657Y021704D01*
X037654Y021722D01*
X037649Y021739D01*
X037640Y021754D01*
X037628Y021768D01*
X037614Y021780D01*
X037599Y021789D01*
X037582Y021794D01*
X037564Y021797D01*
X037564Y021788D01*
X037582Y021785D01*
X037600Y021778D01*
X037615Y021768D01*
X037628Y021755D01*
X037638Y021740D01*
X037645Y021722D01*
X037648Y021704D01*
X037639Y021704D01*
X037636Y021720D01*
X037630Y021736D01*
X037621Y021749D01*
X037609Y021761D01*
X037596Y021770D01*
X037580Y021776D01*
X037564Y021779D01*
X037563Y021875D02*
X037563Y021925D01*
X037564Y021924D02*
X037579Y021927D01*
X037593Y021932D01*
X037606Y021941D01*
X037617Y021952D01*
X037626Y021965D01*
X037631Y021979D01*
X037634Y021994D01*
X037683Y021995D01*
X037684Y021994D01*
X037681Y021973D01*
X037675Y021954D01*
X037666Y021935D01*
X037654Y021918D01*
X037640Y021904D01*
X037623Y021892D01*
X037604Y021883D01*
X037585Y021877D01*
X037564Y021874D01*
X037564Y021883D01*
X037583Y021886D01*
X037601Y021891D01*
X037618Y021899D01*
X037634Y021910D01*
X037648Y021924D01*
X037659Y021940D01*
X037667Y021957D01*
X037672Y021975D01*
X037675Y021994D01*
X037666Y021994D01*
X037663Y021974D01*
X037657Y021956D01*
X037647Y021939D01*
X037635Y021923D01*
X037619Y021911D01*
X037602Y021901D01*
X037584Y021895D01*
X037564Y021892D01*
X037564Y021901D01*
X037582Y021904D01*
X037599Y021909D01*
X037614Y021918D01*
X037628Y021930D01*
X037640Y021944D01*
X037649Y021959D01*
X037654Y021976D01*
X037657Y021994D01*
X037648Y021994D01*
X037645Y021976D01*
X037638Y021958D01*
X037628Y021943D01*
X037615Y021930D01*
X037600Y021920D01*
X037582Y021913D01*
X037564Y021910D01*
X037564Y021919D01*
X037580Y021922D01*
X037596Y021928D01*
X037609Y021937D01*
X037621Y021949D01*
X037630Y021962D01*
X037636Y021978D01*
X037639Y021994D01*
X037683Y022703D02*
X037633Y022703D01*
X037634Y022704D02*
X037631Y022719D01*
X037626Y022733D01*
X037617Y022746D01*
X037606Y022757D01*
X037593Y022766D01*
X037579Y022771D01*
X037564Y022774D01*
X037563Y022823D01*
X037564Y022824D01*
X037585Y022821D01*
X037604Y022815D01*
X037623Y022806D01*
X037640Y022794D01*
X037654Y022780D01*
X037666Y022763D01*
X037675Y022744D01*
X037681Y022725D01*
X037684Y022704D01*
X037675Y022704D01*
X037672Y022723D01*
X037667Y022741D01*
X037659Y022758D01*
X037648Y022774D01*
X037634Y022788D01*
X037618Y022799D01*
X037601Y022807D01*
X037583Y022812D01*
X037564Y022815D01*
X037564Y022806D01*
X037584Y022803D01*
X037602Y022797D01*
X037619Y022787D01*
X037635Y022775D01*
X037647Y022759D01*
X037657Y022742D01*
X037663Y022724D01*
X037666Y022704D01*
X037657Y022704D01*
X037654Y022722D01*
X037649Y022739D01*
X037640Y022754D01*
X037628Y022768D01*
X037614Y022780D01*
X037599Y022789D01*
X037582Y022794D01*
X037564Y022797D01*
X037564Y022788D01*
X037582Y022785D01*
X037600Y022778D01*
X037615Y022768D01*
X037628Y022755D01*
X037638Y022740D01*
X037645Y022722D01*
X037648Y022704D01*
X037639Y022704D01*
X037636Y022720D01*
X037630Y022736D01*
X037621Y022749D01*
X037609Y022761D01*
X037596Y022770D01*
X037580Y022776D01*
X037564Y022779D01*
X037563Y022875D02*
X037563Y022925D01*
X037564Y022924D02*
X037579Y022927D01*
X037593Y022932D01*
X037606Y022941D01*
X037617Y022952D01*
X037626Y022965D01*
X037631Y022979D01*
X037634Y022994D01*
X037683Y022995D01*
X037684Y022994D01*
X037681Y022973D01*
X037675Y022954D01*
X037666Y022935D01*
X037654Y022918D01*
X037640Y022904D01*
X037623Y022892D01*
X037604Y022883D01*
X037585Y022877D01*
X037564Y022874D01*
X037564Y022883D01*
X037583Y022886D01*
X037601Y022891D01*
X037618Y022899D01*
X037634Y022910D01*
X037648Y022924D01*
X037659Y022940D01*
X037667Y022957D01*
X037672Y022975D01*
X037675Y022994D01*
X037666Y022994D01*
X037663Y022974D01*
X037657Y022956D01*
X037647Y022939D01*
X037635Y022923D01*
X037619Y022911D01*
X037602Y022901D01*
X037584Y022895D01*
X037564Y022892D01*
X037564Y022901D01*
X037582Y022904D01*
X037599Y022909D01*
X037614Y022918D01*
X037628Y022930D01*
X037640Y022944D01*
X037649Y022959D01*
X037654Y022976D01*
X037657Y022994D01*
X037648Y022994D01*
X037645Y022976D01*
X037638Y022958D01*
X037628Y022943D01*
X037615Y022930D01*
X037600Y022920D01*
X037582Y022913D01*
X037564Y022910D01*
X037564Y022919D01*
X037580Y022922D01*
X037596Y022928D01*
X037609Y022937D01*
X037621Y022949D01*
X037630Y022962D01*
X037636Y022978D01*
X037639Y022994D01*
X037683Y023703D02*
X037633Y023703D01*
X037634Y023704D02*
X037631Y023719D01*
X037626Y023733D01*
X037617Y023746D01*
X037606Y023757D01*
X037593Y023766D01*
X037579Y023771D01*
X037564Y023774D01*
X037563Y023823D01*
X037564Y023824D01*
X037585Y023821D01*
X037604Y023815D01*
X037623Y023806D01*
X037640Y023794D01*
X037654Y023780D01*
X037666Y023763D01*
X037675Y023744D01*
X037681Y023725D01*
X037684Y023704D01*
X037675Y023704D01*
X037672Y023723D01*
X037667Y023741D01*
X037659Y023758D01*
X037648Y023774D01*
X037634Y023788D01*
X037618Y023799D01*
X037601Y023807D01*
X037583Y023812D01*
X037564Y023815D01*
X037564Y023806D01*
X037584Y023803D01*
X037602Y023797D01*
X037619Y023787D01*
X037635Y023775D01*
X037647Y023759D01*
X037657Y023742D01*
X037663Y023724D01*
X037666Y023704D01*
X037657Y023704D01*
X037654Y023722D01*
X037649Y023739D01*
X037640Y023754D01*
X037628Y023768D01*
X037614Y023780D01*
X037599Y023789D01*
X037582Y023794D01*
X037564Y023797D01*
X037564Y023788D01*
X037582Y023785D01*
X037600Y023778D01*
X037615Y023768D01*
X037628Y023755D01*
X037638Y023740D01*
X037645Y023722D01*
X037648Y023704D01*
X037639Y023704D01*
X037636Y023720D01*
X037630Y023736D01*
X037621Y023749D01*
X037609Y023761D01*
X037596Y023770D01*
X037580Y023776D01*
X037564Y023779D01*
X035255Y023823D02*
X035255Y023773D01*
X035254Y023774D02*
X035239Y023771D01*
X035225Y023766D01*
X035212Y023757D01*
X035201Y023746D01*
X035192Y023733D01*
X035187Y023719D01*
X035184Y023704D01*
X035135Y023703D01*
X035134Y023704D01*
X035137Y023725D01*
X035143Y023744D01*
X035152Y023763D01*
X035164Y023780D01*
X035178Y023794D01*
X035195Y023806D01*
X035214Y023815D01*
X035233Y023821D01*
X035254Y023824D01*
X035254Y023815D01*
X035235Y023812D01*
X035217Y023807D01*
X035200Y023799D01*
X035184Y023788D01*
X035170Y023774D01*
X035159Y023758D01*
X035151Y023741D01*
X035146Y023723D01*
X035143Y023704D01*
X035152Y023704D01*
X035155Y023724D01*
X035161Y023742D01*
X035171Y023759D01*
X035183Y023775D01*
X035199Y023787D01*
X035216Y023797D01*
X035234Y023803D01*
X035254Y023806D01*
X035254Y023797D01*
X035236Y023794D01*
X035219Y023789D01*
X035204Y023780D01*
X035190Y023768D01*
X035178Y023754D01*
X035169Y023739D01*
X035164Y023722D01*
X035161Y023704D01*
X035170Y023704D01*
X035173Y023722D01*
X035180Y023740D01*
X035190Y023755D01*
X035203Y023768D01*
X035218Y023778D01*
X035236Y023785D01*
X035254Y023788D01*
X035254Y023779D01*
X035238Y023776D01*
X035222Y023770D01*
X035209Y023761D01*
X035197Y023749D01*
X035188Y023736D01*
X035182Y023720D01*
X035179Y023704D01*
X035135Y022995D02*
X035185Y022995D01*
X035184Y022994D02*
X035187Y022979D01*
X035192Y022965D01*
X035201Y022952D01*
X035212Y022941D01*
X035225Y022932D01*
X035239Y022927D01*
X035254Y022924D01*
X035255Y022875D01*
X035254Y022874D01*
X035233Y022877D01*
X035214Y022883D01*
X035195Y022892D01*
X035178Y022904D01*
X035164Y022918D01*
X035152Y022935D01*
X035143Y022954D01*
X035137Y022973D01*
X035134Y022994D01*
X035143Y022994D01*
X035146Y022975D01*
X035151Y022957D01*
X035159Y022940D01*
X035170Y022924D01*
X035184Y022910D01*
X035200Y022899D01*
X035217Y022891D01*
X035235Y022886D01*
X035254Y022883D01*
X035254Y022892D01*
X035234Y022895D01*
X035216Y022901D01*
X035199Y022911D01*
X035183Y022923D01*
X035171Y022939D01*
X035161Y022956D01*
X035155Y022974D01*
X035152Y022994D01*
X035161Y022994D01*
X035164Y022976D01*
X035169Y022959D01*
X035178Y022944D01*
X035190Y022930D01*
X035204Y022918D01*
X035219Y022909D01*
X035236Y022904D01*
X035254Y022901D01*
X035254Y022910D01*
X035236Y022913D01*
X035218Y022920D01*
X035203Y022930D01*
X035190Y022943D01*
X035180Y022958D01*
X035173Y022976D01*
X035170Y022994D01*
X035179Y022994D01*
X035182Y022978D01*
X035188Y022962D01*
X035197Y022949D01*
X035209Y022937D01*
X035222Y022928D01*
X035238Y022922D01*
X035254Y022919D01*
X035255Y022823D02*
X035255Y022773D01*
X035254Y022774D02*
X035239Y022771D01*
X035225Y022766D01*
X035212Y022757D01*
X035201Y022746D01*
X035192Y022733D01*
X035187Y022719D01*
X035184Y022704D01*
X035135Y022703D01*
X035134Y022704D01*
X035137Y022725D01*
X035143Y022744D01*
X035152Y022763D01*
X035164Y022780D01*
X035178Y022794D01*
X035195Y022806D01*
X035214Y022815D01*
X035233Y022821D01*
X035254Y022824D01*
X035254Y022815D01*
X035235Y022812D01*
X035217Y022807D01*
X035200Y022799D01*
X035184Y022788D01*
X035170Y022774D01*
X035159Y022758D01*
X035151Y022741D01*
X035146Y022723D01*
X035143Y022704D01*
X035152Y022704D01*
X035155Y022724D01*
X035161Y022742D01*
X035171Y022759D01*
X035183Y022775D01*
X035199Y022787D01*
X035216Y022797D01*
X035234Y022803D01*
X035254Y022806D01*
X035254Y022797D01*
X035236Y022794D01*
X035219Y022789D01*
X035204Y022780D01*
X035190Y022768D01*
X035178Y022754D01*
X035169Y022739D01*
X035164Y022722D01*
X035161Y022704D01*
X035170Y022704D01*
X035173Y022722D01*
X035180Y022740D01*
X035190Y022755D01*
X035203Y022768D01*
X035218Y022778D01*
X035236Y022785D01*
X035254Y022788D01*
X035254Y022779D01*
X035238Y022776D01*
X035222Y022770D01*
X035209Y022761D01*
X035197Y022749D01*
X035188Y022736D01*
X035182Y022720D01*
X035179Y022704D01*
X035135Y021995D02*
X035185Y021995D01*
X035184Y021994D02*
X035187Y021979D01*
X035192Y021965D01*
X035201Y021952D01*
X035212Y021941D01*
X035225Y021932D01*
X035239Y021927D01*
X035254Y021924D01*
X035255Y021875D01*
X035254Y021874D01*
X035233Y021877D01*
X035214Y021883D01*
X035195Y021892D01*
X035178Y021904D01*
X035164Y021918D01*
X035152Y021935D01*
X035143Y021954D01*
X035137Y021973D01*
X035134Y021994D01*
X035143Y021994D01*
X035146Y021975D01*
X035151Y021957D01*
X035159Y021940D01*
X035170Y021924D01*
X035184Y021910D01*
X035200Y021899D01*
X035217Y021891D01*
X035235Y021886D01*
X035254Y021883D01*
X035254Y021892D01*
X035234Y021895D01*
X035216Y021901D01*
X035199Y021911D01*
X035183Y021923D01*
X035171Y021939D01*
X035161Y021956D01*
X035155Y021974D01*
X035152Y021994D01*
X035161Y021994D01*
X035164Y021976D01*
X035169Y021959D01*
X035178Y021944D01*
X035190Y021930D01*
X035204Y021918D01*
X035219Y021909D01*
X035236Y021904D01*
X035254Y021901D01*
X035254Y021910D01*
X035236Y021913D01*
X035218Y021920D01*
X035203Y021930D01*
X035190Y021943D01*
X035180Y021958D01*
X035173Y021976D01*
X035170Y021994D01*
X035179Y021994D01*
X035182Y021978D01*
X035188Y021962D01*
X035197Y021949D01*
X035209Y021937D01*
X035222Y021928D01*
X035238Y021922D01*
X035254Y021919D01*
X035255Y021823D02*
X035255Y021773D01*
X035254Y021774D02*
X035239Y021771D01*
X035225Y021766D01*
X035212Y021757D01*
X035201Y021746D01*
X035192Y021733D01*
X035187Y021719D01*
X035184Y021704D01*
X035135Y021703D01*
X035134Y021704D01*
X035137Y021725D01*
X035143Y021744D01*
X035152Y021763D01*
X035164Y021780D01*
X035178Y021794D01*
X035195Y021806D01*
X035214Y021815D01*
X035233Y021821D01*
X035254Y021824D01*
X035254Y021815D01*
X035235Y021812D01*
X035217Y021807D01*
X035200Y021799D01*
X035184Y021788D01*
X035170Y021774D01*
X035159Y021758D01*
X035151Y021741D01*
X035146Y021723D01*
X035143Y021704D01*
X035152Y021704D01*
X035155Y021724D01*
X035161Y021742D01*
X035171Y021759D01*
X035183Y021775D01*
X035199Y021787D01*
X035216Y021797D01*
X035234Y021803D01*
X035254Y021806D01*
X035254Y021797D01*
X035236Y021794D01*
X035219Y021789D01*
X035204Y021780D01*
X035190Y021768D01*
X035178Y021754D01*
X035169Y021739D01*
X035164Y021722D01*
X035161Y021704D01*
X035170Y021704D01*
X035173Y021722D01*
X035180Y021740D01*
X035190Y021755D01*
X035203Y021768D01*
X035218Y021778D01*
X035236Y021785D01*
X035254Y021788D01*
X035254Y021779D01*
X035238Y021776D01*
X035222Y021770D01*
X035209Y021761D01*
X035197Y021749D01*
X035188Y021736D01*
X035182Y021720D01*
X035179Y021704D01*
X035135Y020995D02*
X035185Y020995D01*
X035184Y020994D02*
X035187Y020979D01*
X035192Y020965D01*
X035201Y020952D01*
X035212Y020941D01*
X035225Y020932D01*
X035239Y020927D01*
X035254Y020924D01*
X035255Y020875D01*
X035254Y020874D01*
X035233Y020877D01*
X035214Y020883D01*
X035195Y020892D01*
X035178Y020904D01*
X035164Y020918D01*
X035152Y020935D01*
X035143Y020954D01*
X035137Y020973D01*
X035134Y020994D01*
X035143Y020994D01*
X035146Y020975D01*
X035151Y020957D01*
X035159Y020940D01*
X035170Y020924D01*
X035184Y020910D01*
X035200Y020899D01*
X035217Y020891D01*
X035235Y020886D01*
X035254Y020883D01*
X035254Y020892D01*
X035234Y020895D01*
X035216Y020901D01*
X035199Y020911D01*
X035183Y020923D01*
X035171Y020939D01*
X035161Y020956D01*
X035155Y020974D01*
X035152Y020994D01*
X035161Y020994D01*
X035164Y020976D01*
X035169Y020959D01*
X035178Y020944D01*
X035190Y020930D01*
X035204Y020918D01*
X035219Y020909D01*
X035236Y020904D01*
X035254Y020901D01*
X035254Y020910D01*
X035236Y020913D01*
X035218Y020920D01*
X035203Y020930D01*
X035190Y020943D01*
X035180Y020958D01*
X035173Y020976D01*
X035170Y020994D01*
X035179Y020994D01*
X035182Y020978D01*
X035188Y020962D01*
X035197Y020949D01*
X035209Y020937D01*
X035222Y020928D01*
X035238Y020922D01*
X035254Y020919D01*
X035255Y020823D02*
X035255Y020773D01*
X035254Y020774D02*
X035239Y020771D01*
X035225Y020766D01*
X035212Y020757D01*
X035201Y020746D01*
X035192Y020733D01*
X035187Y020719D01*
X035184Y020704D01*
X035135Y020703D01*
X035134Y020704D01*
X035137Y020725D01*
X035143Y020744D01*
X035152Y020763D01*
X035164Y020780D01*
X035178Y020794D01*
X035195Y020806D01*
X035214Y020815D01*
X035233Y020821D01*
X035254Y020824D01*
X035254Y020815D01*
X035235Y020812D01*
X035217Y020807D01*
X035200Y020799D01*
X035184Y020788D01*
X035170Y020774D01*
X035159Y020758D01*
X035151Y020741D01*
X035146Y020723D01*
X035143Y020704D01*
X035152Y020704D01*
X035155Y020724D01*
X035161Y020742D01*
X035171Y020759D01*
X035183Y020775D01*
X035199Y020787D01*
X035216Y020797D01*
X035234Y020803D01*
X035254Y020806D01*
X035254Y020797D01*
X035236Y020794D01*
X035219Y020789D01*
X035204Y020780D01*
X035190Y020768D01*
X035178Y020754D01*
X035169Y020739D01*
X035164Y020722D01*
X035161Y020704D01*
X035170Y020704D01*
X035173Y020722D01*
X035180Y020740D01*
X035190Y020755D01*
X035203Y020768D01*
X035218Y020778D01*
X035236Y020785D01*
X035254Y020788D01*
X035254Y020779D01*
X035238Y020776D01*
X035222Y020770D01*
X035209Y020761D01*
X035197Y020749D01*
X035188Y020736D01*
X035182Y020720D01*
X035179Y020704D01*
X035135Y019995D02*
X035185Y019995D01*
X035184Y019994D02*
X035187Y019979D01*
X035192Y019965D01*
X035201Y019952D01*
X035212Y019941D01*
X035225Y019932D01*
X035239Y019927D01*
X035254Y019924D01*
X035255Y019875D01*
X035254Y019874D01*
X035233Y019877D01*
X035214Y019883D01*
X035195Y019892D01*
X035178Y019904D01*
X035164Y019918D01*
X035152Y019935D01*
X035143Y019954D01*
X035137Y019973D01*
X035134Y019994D01*
X035143Y019994D01*
X035146Y019975D01*
X035151Y019957D01*
X035159Y019940D01*
X035170Y019924D01*
X035184Y019910D01*
X035200Y019899D01*
X035217Y019891D01*
X035235Y019886D01*
X035254Y019883D01*
X035254Y019892D01*
X035234Y019895D01*
X035216Y019901D01*
X035199Y019911D01*
X035183Y019923D01*
X035171Y019939D01*
X035161Y019956D01*
X035155Y019974D01*
X035152Y019994D01*
X035161Y019994D01*
X035164Y019976D01*
X035169Y019959D01*
X035178Y019944D01*
X035190Y019930D01*
X035204Y019918D01*
X035219Y019909D01*
X035236Y019904D01*
X035254Y019901D01*
X035254Y019910D01*
X035236Y019913D01*
X035218Y019920D01*
X035203Y019930D01*
X035190Y019943D01*
X035180Y019958D01*
X035173Y019976D01*
X035170Y019994D01*
X035179Y019994D01*
X035182Y019978D01*
X035188Y019962D01*
X035197Y019949D01*
X035209Y019937D01*
X035222Y019928D01*
X035238Y019922D01*
X035254Y019919D01*
X035561Y019710D02*
X035600Y019679D01*
X035600Y019680D02*
X035563Y019630D01*
X035530Y019578D01*
X035500Y019524D01*
X035473Y019468D01*
X035449Y019411D01*
X035429Y019353D01*
X035413Y019293D01*
X035400Y019233D01*
X035390Y019172D01*
X035385Y019110D01*
X035383Y019048D01*
X035385Y018987D01*
X035391Y018925D01*
X035400Y018864D01*
X035413Y018804D01*
X035429Y018744D01*
X035450Y018686D01*
X035473Y018629D01*
X035500Y018573D01*
X035531Y018519D01*
X035564Y018467D01*
X035601Y018418D01*
X035640Y018370D01*
X035682Y018325D01*
X035727Y018283D01*
X035775Y018243D01*
X035825Y018206D01*
X035876Y018173D01*
X035930Y018142D01*
X035986Y018115D01*
X036043Y018091D01*
X036101Y018071D01*
X036087Y018024D01*
X036086Y018023D01*
X036025Y018045D01*
X035965Y018069D01*
X035907Y018098D01*
X035851Y018130D01*
X035796Y018165D01*
X035744Y018204D01*
X035694Y018245D01*
X035647Y018290D01*
X035603Y018337D01*
X035561Y018387D01*
X035523Y018439D01*
X035488Y018493D01*
X035456Y018550D01*
X035428Y018608D01*
X035403Y018668D01*
X035382Y018729D01*
X035364Y018792D01*
X035351Y018855D01*
X035341Y018919D01*
X035335Y018984D01*
X035333Y019048D01*
X035335Y019113D01*
X035341Y019178D01*
X035350Y019242D01*
X035364Y019305D01*
X035381Y019368D01*
X035402Y019429D01*
X035427Y019489D01*
X035455Y019547D01*
X035487Y019604D01*
X035522Y019658D01*
X035561Y019711D01*
X035568Y019705D01*
X035530Y019653D01*
X035495Y019599D01*
X035463Y019543D01*
X035435Y019485D01*
X035411Y019426D01*
X035390Y019365D01*
X035373Y019303D01*
X035359Y019240D01*
X035350Y019177D01*
X035344Y019113D01*
X035342Y019048D01*
X035344Y018984D01*
X035350Y018920D01*
X035359Y018857D01*
X035373Y018794D01*
X035390Y018732D01*
X035411Y018671D01*
X035436Y018612D01*
X035464Y018554D01*
X035495Y018498D01*
X035530Y018444D01*
X035568Y018392D01*
X035609Y018343D01*
X035653Y018296D01*
X035700Y018252D01*
X035750Y018211D01*
X035801Y018173D01*
X035855Y018138D01*
X035911Y018106D01*
X035969Y018078D01*
X036028Y018053D01*
X036089Y018032D01*
X036092Y018040D01*
X036031Y018061D01*
X035973Y018086D01*
X035915Y018114D01*
X035860Y018145D01*
X035806Y018180D01*
X035755Y018218D01*
X035706Y018259D01*
X035660Y018302D01*
X035616Y018349D01*
X035575Y018398D01*
X035538Y018449D01*
X035503Y018503D01*
X035472Y018558D01*
X035444Y018615D01*
X035420Y018674D01*
X035399Y018735D01*
X035382Y018796D01*
X035368Y018858D01*
X035359Y018921D01*
X035353Y018985D01*
X035351Y019048D01*
X035353Y019112D01*
X035359Y019176D01*
X035368Y019239D01*
X035381Y019301D01*
X035399Y019362D01*
X035419Y019423D01*
X035444Y019482D01*
X035471Y019539D01*
X035503Y019594D01*
X035537Y019648D01*
X035575Y019699D01*
X035582Y019694D01*
X035545Y019643D01*
X035510Y019590D01*
X035479Y019535D01*
X035452Y019478D01*
X035428Y019419D01*
X035407Y019360D01*
X035390Y019299D01*
X035377Y019237D01*
X035368Y019175D01*
X035362Y019112D01*
X035360Y019048D01*
X035362Y018985D01*
X035368Y018922D01*
X035377Y018860D01*
X035390Y018798D01*
X035407Y018737D01*
X035428Y018678D01*
X035452Y018619D01*
X035480Y018562D01*
X035511Y018507D01*
X035545Y018454D01*
X035583Y018403D01*
X035623Y018355D01*
X035666Y018309D01*
X035712Y018265D01*
X035761Y018225D01*
X035811Y018187D01*
X035864Y018153D01*
X035919Y018122D01*
X035976Y018094D01*
X036035Y018070D01*
X036094Y018049D01*
X036097Y018058D01*
X036038Y018078D01*
X035980Y018102D01*
X035924Y018130D01*
X035869Y018161D01*
X035817Y018195D01*
X035766Y018232D01*
X035718Y018272D01*
X035673Y018315D01*
X035630Y018361D01*
X035590Y018409D01*
X035553Y018459D01*
X035519Y018512D01*
X035488Y018567D01*
X035460Y018623D01*
X035436Y018681D01*
X035416Y018740D01*
X035399Y018800D01*
X035386Y018862D01*
X035377Y018923D01*
X035371Y018986D01*
X035369Y019048D01*
X035371Y019111D01*
X035376Y019173D01*
X035386Y019235D01*
X035399Y019297D01*
X035416Y019357D01*
X035436Y019416D01*
X035460Y019474D01*
X035487Y019530D01*
X035518Y019585D01*
X035552Y019638D01*
X035589Y019688D01*
X035596Y019683D01*
X035559Y019633D01*
X035526Y019580D01*
X035495Y019526D01*
X035468Y019470D01*
X035444Y019413D01*
X035424Y019354D01*
X035408Y019294D01*
X035395Y019234D01*
X035385Y019172D01*
X035380Y019111D01*
X035378Y019048D01*
X035380Y018986D01*
X035386Y018925D01*
X035395Y018863D01*
X035408Y018802D01*
X035425Y018743D01*
X035445Y018684D01*
X035469Y018627D01*
X035496Y018571D01*
X035526Y018517D01*
X035560Y018464D01*
X035597Y018414D01*
X035636Y018367D01*
X035679Y018321D01*
X035724Y018279D01*
X035772Y018239D01*
X035822Y018202D01*
X035874Y018168D01*
X035928Y018138D01*
X035984Y018111D01*
X036041Y018087D01*
X036100Y018066D01*
X014963Y025675D02*
X014963Y025725D01*
X014964Y025724D02*
X014979Y025727D01*
X014993Y025732D01*
X015006Y025741D01*
X015017Y025752D01*
X015026Y025765D01*
X015031Y025779D01*
X015034Y025794D01*
X015083Y025795D01*
X015084Y025794D01*
X015081Y025773D01*
X015075Y025754D01*
X015066Y025735D01*
X015054Y025718D01*
X015040Y025704D01*
X015023Y025692D01*
X015004Y025683D01*
X014985Y025677D01*
X014964Y025674D01*
X014964Y025683D01*
X014983Y025686D01*
X015001Y025691D01*
X015018Y025699D01*
X015034Y025710D01*
X015048Y025724D01*
X015059Y025740D01*
X015067Y025757D01*
X015072Y025775D01*
X015075Y025794D01*
X015066Y025794D01*
X015063Y025774D01*
X015057Y025756D01*
X015047Y025739D01*
X015035Y025723D01*
X015019Y025711D01*
X015002Y025701D01*
X014984Y025695D01*
X014964Y025692D01*
X014964Y025701D01*
X014982Y025704D01*
X014999Y025709D01*
X015014Y025718D01*
X015028Y025730D01*
X015040Y025744D01*
X015049Y025759D01*
X015054Y025776D01*
X015057Y025794D01*
X015048Y025794D01*
X015045Y025776D01*
X015038Y025758D01*
X015028Y025743D01*
X015015Y025730D01*
X015000Y025720D01*
X014982Y025713D01*
X014964Y025710D01*
X014964Y025719D01*
X014980Y025722D01*
X014996Y025728D01*
X015009Y025737D01*
X015021Y025749D01*
X015030Y025762D01*
X015036Y025778D01*
X015039Y025794D01*
X015083Y026503D02*
X015033Y026503D01*
X015034Y026504D02*
X015031Y026519D01*
X015026Y026533D01*
X015017Y026546D01*
X015006Y026557D01*
X014993Y026566D01*
X014979Y026571D01*
X014964Y026574D01*
X014963Y026623D01*
X014964Y026624D01*
X014985Y026621D01*
X015004Y026615D01*
X015023Y026606D01*
X015040Y026594D01*
X015054Y026580D01*
X015066Y026563D01*
X015075Y026544D01*
X015081Y026525D01*
X015084Y026504D01*
X015075Y026504D01*
X015072Y026523D01*
X015067Y026541D01*
X015059Y026558D01*
X015048Y026574D01*
X015034Y026588D01*
X015018Y026599D01*
X015001Y026607D01*
X014983Y026612D01*
X014964Y026615D01*
X014964Y026606D01*
X014984Y026603D01*
X015002Y026597D01*
X015019Y026587D01*
X015035Y026575D01*
X015047Y026559D01*
X015057Y026542D01*
X015063Y026524D01*
X015066Y026504D01*
X015057Y026504D01*
X015054Y026522D01*
X015049Y026539D01*
X015040Y026554D01*
X015028Y026568D01*
X015014Y026580D01*
X014999Y026589D01*
X014982Y026594D01*
X014964Y026597D01*
X014964Y026588D01*
X014982Y026585D01*
X015000Y026578D01*
X015015Y026568D01*
X015028Y026555D01*
X015038Y026540D01*
X015045Y026522D01*
X015048Y026504D01*
X015039Y026504D01*
X015036Y026520D01*
X015030Y026536D01*
X015021Y026549D01*
X015009Y026561D01*
X014996Y026570D01*
X014980Y026576D01*
X014964Y026579D01*
X014963Y026675D02*
X014963Y026725D01*
X014964Y026724D02*
X014979Y026727D01*
X014993Y026732D01*
X015006Y026741D01*
X015017Y026752D01*
X015026Y026765D01*
X015031Y026779D01*
X015034Y026794D01*
X015083Y026795D01*
X015084Y026794D01*
X015081Y026773D01*
X015075Y026754D01*
X015066Y026735D01*
X015054Y026718D01*
X015040Y026704D01*
X015023Y026692D01*
X015004Y026683D01*
X014985Y026677D01*
X014964Y026674D01*
X014964Y026683D01*
X014983Y026686D01*
X015001Y026691D01*
X015018Y026699D01*
X015034Y026710D01*
X015048Y026724D01*
X015059Y026740D01*
X015067Y026757D01*
X015072Y026775D01*
X015075Y026794D01*
X015066Y026794D01*
X015063Y026774D01*
X015057Y026756D01*
X015047Y026739D01*
X015035Y026723D01*
X015019Y026711D01*
X015002Y026701D01*
X014984Y026695D01*
X014964Y026692D01*
X014964Y026701D01*
X014982Y026704D01*
X014999Y026709D01*
X015014Y026718D01*
X015028Y026730D01*
X015040Y026744D01*
X015049Y026759D01*
X015054Y026776D01*
X015057Y026794D01*
X015048Y026794D01*
X015045Y026776D01*
X015038Y026758D01*
X015028Y026743D01*
X015015Y026730D01*
X015000Y026720D01*
X014982Y026713D01*
X014964Y026710D01*
X014964Y026719D01*
X014980Y026722D01*
X014996Y026728D01*
X015009Y026737D01*
X015021Y026749D01*
X015030Y026762D01*
X015036Y026778D01*
X015039Y026794D01*
X015083Y027503D02*
X015033Y027503D01*
X015034Y027504D02*
X015031Y027519D01*
X015026Y027533D01*
X015017Y027546D01*
X015006Y027557D01*
X014993Y027566D01*
X014979Y027571D01*
X014964Y027574D01*
X014963Y027623D01*
X014964Y027624D01*
X014985Y027621D01*
X015004Y027615D01*
X015023Y027606D01*
X015040Y027594D01*
X015054Y027580D01*
X015066Y027563D01*
X015075Y027544D01*
X015081Y027525D01*
X015084Y027504D01*
X015075Y027504D01*
X015072Y027523D01*
X015067Y027541D01*
X015059Y027558D01*
X015048Y027574D01*
X015034Y027588D01*
X015018Y027599D01*
X015001Y027607D01*
X014983Y027612D01*
X014964Y027615D01*
X014964Y027606D01*
X014984Y027603D01*
X015002Y027597D01*
X015019Y027587D01*
X015035Y027575D01*
X015047Y027559D01*
X015057Y027542D01*
X015063Y027524D01*
X015066Y027504D01*
X015057Y027504D01*
X015054Y027522D01*
X015049Y027539D01*
X015040Y027554D01*
X015028Y027568D01*
X015014Y027580D01*
X014999Y027589D01*
X014982Y027594D01*
X014964Y027597D01*
X014964Y027588D01*
X014982Y027585D01*
X015000Y027578D01*
X015015Y027568D01*
X015028Y027555D01*
X015038Y027540D01*
X015045Y027522D01*
X015048Y027504D01*
X015039Y027504D01*
X015036Y027520D01*
X015030Y027536D01*
X015021Y027549D01*
X015009Y027561D01*
X014996Y027570D01*
X014980Y027576D01*
X014964Y027579D01*
X012655Y027623D02*
X012655Y027573D01*
X012654Y027574D02*
X012639Y027571D01*
X012625Y027566D01*
X012612Y027557D01*
X012601Y027546D01*
X012592Y027533D01*
X012587Y027519D01*
X012584Y027504D01*
X012535Y027503D01*
X012534Y027504D01*
X012537Y027525D01*
X012543Y027544D01*
X012552Y027563D01*
X012564Y027580D01*
X012578Y027594D01*
X012595Y027606D01*
X012614Y027615D01*
X012633Y027621D01*
X012654Y027624D01*
X012654Y027615D01*
X012635Y027612D01*
X012617Y027607D01*
X012600Y027599D01*
X012584Y027588D01*
X012570Y027574D01*
X012559Y027558D01*
X012551Y027541D01*
X012546Y027523D01*
X012543Y027504D01*
X012552Y027504D01*
X012555Y027524D01*
X012561Y027542D01*
X012571Y027559D01*
X012583Y027575D01*
X012599Y027587D01*
X012616Y027597D01*
X012634Y027603D01*
X012654Y027606D01*
X012654Y027597D01*
X012636Y027594D01*
X012619Y027589D01*
X012604Y027580D01*
X012590Y027568D01*
X012578Y027554D01*
X012569Y027539D01*
X012564Y027522D01*
X012561Y027504D01*
X012570Y027504D01*
X012573Y027522D01*
X012580Y027540D01*
X012590Y027555D01*
X012603Y027568D01*
X012618Y027578D01*
X012636Y027585D01*
X012654Y027588D01*
X012654Y027579D01*
X012638Y027576D01*
X012622Y027570D01*
X012609Y027561D01*
X012597Y027549D01*
X012588Y027536D01*
X012582Y027520D01*
X012579Y027504D01*
X012535Y026795D02*
X012585Y026795D01*
X012584Y026794D02*
X012587Y026779D01*
X012592Y026765D01*
X012601Y026752D01*
X012612Y026741D01*
X012625Y026732D01*
X012639Y026727D01*
X012654Y026724D01*
X012655Y026675D01*
X012654Y026674D01*
X012633Y026677D01*
X012614Y026683D01*
X012595Y026692D01*
X012578Y026704D01*
X012564Y026718D01*
X012552Y026735D01*
X012543Y026754D01*
X012537Y026773D01*
X012534Y026794D01*
X012543Y026794D01*
X012546Y026775D01*
X012551Y026757D01*
X012559Y026740D01*
X012570Y026724D01*
X012584Y026710D01*
X012600Y026699D01*
X012617Y026691D01*
X012635Y026686D01*
X012654Y026683D01*
X012654Y026692D01*
X012634Y026695D01*
X012616Y026701D01*
X012599Y026711D01*
X012583Y026723D01*
X012571Y026739D01*
X012561Y026756D01*
X012555Y026774D01*
X012552Y026794D01*
X012561Y026794D01*
X012564Y026776D01*
X012569Y026759D01*
X012578Y026744D01*
X012590Y026730D01*
X012604Y026718D01*
X012619Y026709D01*
X012636Y026704D01*
X012654Y026701D01*
X012654Y026710D01*
X012636Y026713D01*
X012618Y026720D01*
X012603Y026730D01*
X012590Y026743D01*
X012580Y026758D01*
X012573Y026776D01*
X012570Y026794D01*
X012579Y026794D01*
X012582Y026778D01*
X012588Y026762D01*
X012597Y026749D01*
X012609Y026737D01*
X012622Y026728D01*
X012638Y026722D01*
X012654Y026719D01*
X012655Y026623D02*
X012655Y026573D01*
X012654Y026574D02*
X012639Y026571D01*
X012625Y026566D01*
X012612Y026557D01*
X012601Y026546D01*
X012592Y026533D01*
X012587Y026519D01*
X012584Y026504D01*
X012535Y026503D01*
X012534Y026504D01*
X012537Y026525D01*
X012543Y026544D01*
X012552Y026563D01*
X012564Y026580D01*
X012578Y026594D01*
X012595Y026606D01*
X012614Y026615D01*
X012633Y026621D01*
X012654Y026624D01*
X012654Y026615D01*
X012635Y026612D01*
X012617Y026607D01*
X012600Y026599D01*
X012584Y026588D01*
X012570Y026574D01*
X012559Y026558D01*
X012551Y026541D01*
X012546Y026523D01*
X012543Y026504D01*
X012552Y026504D01*
X012555Y026524D01*
X012561Y026542D01*
X012571Y026559D01*
X012583Y026575D01*
X012599Y026587D01*
X012616Y026597D01*
X012634Y026603D01*
X012654Y026606D01*
X012654Y026597D01*
X012636Y026594D01*
X012619Y026589D01*
X012604Y026580D01*
X012590Y026568D01*
X012578Y026554D01*
X012569Y026539D01*
X012564Y026522D01*
X012561Y026504D01*
X012570Y026504D01*
X012573Y026522D01*
X012580Y026540D01*
X012590Y026555D01*
X012603Y026568D01*
X012618Y026578D01*
X012636Y026585D01*
X012654Y026588D01*
X012654Y026579D01*
X012638Y026576D01*
X012622Y026570D01*
X012609Y026561D01*
X012597Y026549D01*
X012588Y026536D01*
X012582Y026520D01*
X012579Y026504D01*
X012535Y025795D02*
X012585Y025795D01*
X012584Y025794D02*
X012587Y025779D01*
X012592Y025765D01*
X012601Y025752D01*
X012612Y025741D01*
X012625Y025732D01*
X012639Y025727D01*
X012654Y025724D01*
X012655Y025675D01*
X012654Y025674D01*
X012633Y025677D01*
X012614Y025683D01*
X012595Y025692D01*
X012578Y025704D01*
X012564Y025718D01*
X012552Y025735D01*
X012543Y025754D01*
X012537Y025773D01*
X012534Y025794D01*
X012543Y025794D01*
X012546Y025775D01*
X012551Y025757D01*
X012559Y025740D01*
X012570Y025724D01*
X012584Y025710D01*
X012600Y025699D01*
X012617Y025691D01*
X012635Y025686D01*
X012654Y025683D01*
X012654Y025692D01*
X012634Y025695D01*
X012616Y025701D01*
X012599Y025711D01*
X012583Y025723D01*
X012571Y025739D01*
X012561Y025756D01*
X012555Y025774D01*
X012552Y025794D01*
X012561Y025794D01*
X012564Y025776D01*
X012569Y025759D01*
X012578Y025744D01*
X012590Y025730D01*
X012604Y025718D01*
X012619Y025709D01*
X012636Y025704D01*
X012654Y025701D01*
X012654Y025710D01*
X012636Y025713D01*
X012618Y025720D01*
X012603Y025730D01*
X012590Y025743D01*
X012580Y025758D01*
X012573Y025776D01*
X012570Y025794D01*
X012579Y025794D01*
X012582Y025778D01*
X012588Y025762D01*
X012597Y025749D01*
X012609Y025737D01*
X012622Y025728D01*
X012638Y025722D01*
X012654Y025719D01*
X011353Y026554D02*
X011263Y026554D01*
X011264Y026554D02*
X011262Y026608D01*
X011256Y026661D01*
X011246Y026714D01*
X011232Y026766D01*
X011215Y026817D01*
X011194Y026866D01*
X011170Y026914D01*
X011142Y026960D01*
X011111Y027004D01*
X011077Y027046D01*
X011041Y027085D01*
X011001Y027122D01*
X010959Y027155D01*
X010915Y027186D01*
X010869Y027213D01*
X010911Y027292D01*
X010960Y027264D01*
X011006Y027232D01*
X011051Y027197D01*
X011093Y027160D01*
X011133Y027119D01*
X011169Y027076D01*
X011203Y027031D01*
X011234Y026984D01*
X011261Y026934D01*
X011285Y026883D01*
X011306Y026831D01*
X011323Y026777D01*
X011336Y026722D01*
X011346Y026667D01*
X011352Y026610D01*
X011354Y026554D01*
X011345Y026554D01*
X011343Y026610D01*
X011337Y026665D01*
X011327Y026720D01*
X011314Y026775D01*
X011297Y026828D01*
X011277Y026880D01*
X011253Y026930D01*
X011226Y026979D01*
X011196Y027026D01*
X011162Y027071D01*
X011126Y027113D01*
X011087Y027153D01*
X011045Y027190D01*
X011001Y027225D01*
X010955Y027256D01*
X010907Y027284D01*
X010903Y027276D01*
X010950Y027248D01*
X010996Y027217D01*
X011039Y027183D01*
X011081Y027147D01*
X011119Y027107D01*
X011155Y027065D01*
X011188Y027021D01*
X011218Y026975D01*
X011245Y026926D01*
X011268Y026876D01*
X011289Y026825D01*
X011305Y026772D01*
X011318Y026719D01*
X011328Y026664D01*
X011334Y026609D01*
X011336Y026554D01*
X011327Y026554D01*
X011325Y026609D01*
X011319Y026663D01*
X011310Y026717D01*
X011297Y026770D01*
X011280Y026822D01*
X011260Y026873D01*
X011237Y026922D01*
X011210Y026970D01*
X011181Y027016D01*
X011148Y027060D01*
X011113Y027101D01*
X011074Y027140D01*
X011034Y027177D01*
X010991Y027210D01*
X010945Y027241D01*
X010898Y027268D01*
X010894Y027260D01*
X010941Y027233D01*
X010985Y027203D01*
X011028Y027170D01*
X011068Y027134D01*
X011106Y027095D01*
X011141Y027054D01*
X011173Y027011D01*
X011203Y026965D01*
X011229Y026918D01*
X011252Y026869D01*
X011272Y026819D01*
X011288Y026767D01*
X011301Y026715D01*
X011310Y026662D01*
X011316Y026608D01*
X011318Y026554D01*
X011309Y026554D01*
X011307Y026607D01*
X011301Y026660D01*
X011292Y026713D01*
X011279Y026765D01*
X011263Y026816D01*
X011244Y026866D01*
X011221Y026914D01*
X011195Y026961D01*
X011166Y027005D01*
X011134Y027048D01*
X011099Y027089D01*
X011062Y027127D01*
X011022Y027163D01*
X010980Y027196D01*
X010936Y027226D01*
X010890Y027253D01*
X010886Y027245D01*
X010931Y027218D01*
X010975Y027188D01*
X011016Y027156D01*
X011056Y027121D01*
X011093Y027083D01*
X011127Y027043D01*
X011159Y027000D01*
X011187Y026956D01*
X011213Y026910D01*
X011235Y026862D01*
X011255Y026813D01*
X011271Y026763D01*
X011283Y026711D01*
X011292Y026659D01*
X011298Y026607D01*
X011300Y026554D01*
X011291Y026554D01*
X011289Y026610D01*
X011282Y026665D01*
X011272Y026720D01*
X011258Y026774D01*
X011240Y026826D01*
X011219Y026878D01*
X011193Y026927D01*
X011165Y026975D01*
X011133Y027021D01*
X011098Y027064D01*
X011060Y027104D01*
X011019Y027142D01*
X010975Y027177D01*
X010929Y027208D01*
X010881Y027237D01*
X010877Y027229D01*
X010925Y027201D01*
X010970Y027170D01*
X011013Y027135D01*
X011053Y027098D01*
X011091Y027058D01*
X011126Y027015D01*
X011157Y026970D01*
X011186Y026923D01*
X011210Y026874D01*
X011232Y026823D01*
X011249Y026771D01*
X011263Y026718D01*
X011273Y026664D01*
X011280Y026609D01*
X011282Y026554D01*
X011273Y026554D01*
X011271Y026608D01*
X011265Y026662D01*
X011255Y026716D01*
X011241Y026768D01*
X011223Y026820D01*
X011202Y026870D01*
X011178Y026919D01*
X011150Y026965D01*
X011118Y027010D01*
X011084Y027052D01*
X011047Y027091D01*
X011007Y027128D01*
X010965Y027162D01*
X010920Y027193D01*
X010873Y027221D01*
X010086Y027280D02*
X010131Y027202D01*
X010130Y027202D02*
X010086Y027174D01*
X010044Y027143D01*
X010004Y027110D01*
X009966Y027074D01*
X009931Y027035D01*
X009899Y026994D01*
X009869Y026950D01*
X009843Y026905D01*
X009820Y026858D01*
X009800Y026810D01*
X009784Y026760D01*
X009771Y026710D01*
X009762Y026658D01*
X009756Y026606D01*
X009754Y026554D01*
X009665Y026553D01*
X009664Y026554D01*
X009666Y026609D01*
X009672Y026663D01*
X009681Y026718D01*
X009694Y026771D01*
X009710Y026823D01*
X009729Y026875D01*
X009752Y026925D01*
X009778Y026973D01*
X009807Y027020D01*
X009839Y027064D01*
X009874Y027107D01*
X009912Y027147D01*
X009952Y027184D01*
X009994Y027219D01*
X010039Y027251D01*
X010085Y027280D01*
X010090Y027272D01*
X010044Y027244D01*
X010000Y027212D01*
X009958Y027177D01*
X009918Y027140D01*
X009881Y027101D01*
X009846Y027059D01*
X009815Y027015D01*
X009786Y026969D01*
X009760Y026921D01*
X009738Y026871D01*
X009718Y026821D01*
X009702Y026769D01*
X009690Y026716D01*
X009681Y026662D01*
X009675Y026608D01*
X009673Y026554D01*
X009682Y026554D01*
X009684Y026608D01*
X009690Y026661D01*
X009699Y026714D01*
X009711Y026766D01*
X009727Y026818D01*
X009746Y026868D01*
X009768Y026917D01*
X009794Y026964D01*
X009822Y027010D01*
X009854Y027053D01*
X009888Y027095D01*
X009924Y027134D01*
X009964Y027171D01*
X010005Y027205D01*
X010049Y027236D01*
X010094Y027265D01*
X010099Y027257D01*
X010051Y027227D01*
X010005Y027193D01*
X009962Y027157D01*
X009921Y027117D01*
X009883Y027075D01*
X009848Y027031D01*
X009816Y026984D01*
X009788Y026935D01*
X009763Y026884D01*
X009741Y026831D01*
X009724Y026778D01*
X009710Y026723D01*
X009700Y026667D01*
X009693Y026611D01*
X009691Y026554D01*
X009700Y026554D01*
X009702Y026610D01*
X009708Y026666D01*
X009718Y026721D01*
X009732Y026775D01*
X009750Y026828D01*
X009771Y026880D01*
X009796Y026931D01*
X009824Y026979D01*
X009855Y027025D01*
X009890Y027070D01*
X009927Y027111D01*
X009968Y027150D01*
X010010Y027186D01*
X010056Y027219D01*
X010103Y027249D01*
X010108Y027241D01*
X010061Y027212D01*
X010016Y027179D01*
X009974Y027143D01*
X009934Y027105D01*
X009897Y027064D01*
X009862Y027020D01*
X009831Y026974D01*
X009804Y026926D01*
X009779Y026877D01*
X009758Y026825D01*
X009741Y026773D01*
X009727Y026719D01*
X009717Y026664D01*
X009711Y026609D01*
X009709Y026554D01*
X009718Y026554D01*
X009720Y026609D01*
X009726Y026663D01*
X009736Y026717D01*
X009750Y026770D01*
X009767Y026822D01*
X009787Y026873D01*
X009812Y026922D01*
X009839Y026969D01*
X009870Y027015D01*
X009903Y027058D01*
X009940Y027099D01*
X009980Y027137D01*
X010022Y027172D01*
X010066Y027204D01*
X010112Y027233D01*
X010117Y027225D01*
X010071Y027197D01*
X010027Y027165D01*
X009986Y027130D01*
X009947Y027092D01*
X009910Y027052D01*
X009877Y027010D01*
X009847Y026965D01*
X009819Y026918D01*
X009796Y026869D01*
X009775Y026819D01*
X009758Y026768D01*
X009745Y026715D01*
X009735Y026662D01*
X009729Y026608D01*
X009727Y026554D01*
X009736Y026554D01*
X009738Y026607D01*
X009744Y026661D01*
X009754Y026713D01*
X009767Y026765D01*
X009784Y026816D01*
X009804Y026866D01*
X009827Y026914D01*
X009854Y026960D01*
X009884Y027004D01*
X009917Y027046D01*
X009953Y027086D01*
X009992Y027123D01*
X010033Y027158D01*
X010076Y027189D01*
X010121Y027218D01*
X010126Y027210D01*
X010081Y027182D01*
X010038Y027151D01*
X009998Y027117D01*
X009960Y027080D01*
X009924Y027041D01*
X009892Y026999D01*
X009862Y026955D01*
X009835Y026909D01*
X009812Y026862D01*
X009792Y026813D01*
X009775Y026763D01*
X009762Y026711D01*
X009753Y026659D01*
X009747Y026607D01*
X009745Y026554D01*
X009665Y026545D02*
X009755Y026545D01*
X009754Y026544D02*
X009756Y026490D01*
X009762Y026437D01*
X009772Y026384D01*
X009786Y026332D01*
X009803Y026281D01*
X009824Y026231D01*
X009848Y026183D01*
X009876Y026137D01*
X009907Y026093D01*
X009941Y026052D01*
X009978Y026012D01*
X010017Y025976D01*
X009960Y025908D01*
X009959Y025907D01*
X009918Y025945D01*
X009880Y025985D01*
X009844Y026028D01*
X009811Y026073D01*
X009781Y026120D01*
X009755Y026168D01*
X009731Y026219D01*
X009711Y026271D01*
X009695Y026324D01*
X009681Y026378D01*
X009672Y026433D01*
X009666Y026488D01*
X009664Y026544D01*
X009673Y026544D01*
X009675Y026489D01*
X009681Y026434D01*
X009690Y026380D01*
X009703Y026326D01*
X009720Y026274D01*
X009739Y026222D01*
X009763Y026172D01*
X009789Y026124D01*
X009819Y026078D01*
X009851Y026033D01*
X009886Y025991D01*
X009925Y025951D01*
X009965Y025914D01*
X009971Y025921D01*
X009931Y025958D01*
X009893Y025997D01*
X009858Y026039D01*
X009826Y026083D01*
X009797Y026129D01*
X009771Y026177D01*
X009748Y026226D01*
X009728Y026277D01*
X009712Y026329D01*
X009699Y026382D01*
X009690Y026435D01*
X009684Y026490D01*
X009682Y026544D01*
X009691Y026544D01*
X009693Y026490D01*
X009699Y026437D01*
X009708Y026384D01*
X009721Y026331D01*
X009737Y026280D01*
X009756Y026229D01*
X009779Y026181D01*
X009804Y026133D01*
X009833Y026088D01*
X009865Y026044D01*
X009900Y026003D01*
X009937Y025964D01*
X009977Y025928D01*
X009983Y025935D01*
X009943Y025971D01*
X009906Y026009D01*
X009872Y026050D01*
X009841Y026093D01*
X009812Y026138D01*
X009787Y026185D01*
X009764Y026233D01*
X009745Y026283D01*
X009729Y026334D01*
X009717Y026385D01*
X009708Y026438D01*
X009702Y026491D01*
X009700Y026544D01*
X009709Y026544D01*
X009711Y026491D01*
X009717Y026439D01*
X009726Y026387D01*
X009738Y026336D01*
X009754Y026286D01*
X009773Y026236D01*
X009795Y026189D01*
X009820Y026142D01*
X009848Y026098D01*
X009879Y026056D01*
X009913Y026015D01*
X009950Y025977D01*
X009988Y025942D01*
X009994Y025948D01*
X009956Y025984D01*
X009920Y026021D01*
X009886Y026061D01*
X009856Y026103D01*
X009828Y026147D01*
X009803Y026193D01*
X009781Y026240D01*
X009762Y026289D01*
X009747Y026338D01*
X009734Y026389D01*
X009726Y026440D01*
X009720Y026492D01*
X009718Y026544D01*
X009727Y026544D01*
X009729Y026488D01*
X009736Y026433D01*
X009746Y026378D01*
X009760Y026324D01*
X009778Y026271D01*
X009800Y026220D01*
X009825Y026170D01*
X009854Y026122D01*
X009886Y026077D01*
X009921Y026034D01*
X009959Y025993D01*
X010000Y025955D01*
X010006Y025962D01*
X009965Y025999D01*
X009928Y026040D01*
X009893Y026082D01*
X009861Y026127D01*
X009833Y026175D01*
X009808Y026224D01*
X009786Y026275D01*
X009769Y026327D01*
X009755Y026380D01*
X009745Y026434D01*
X009738Y026489D01*
X009736Y026544D01*
X009745Y026544D01*
X009747Y026490D01*
X009753Y026436D01*
X009763Y026382D01*
X009777Y026329D01*
X009795Y026278D01*
X009816Y026228D01*
X009841Y026179D01*
X009869Y026132D01*
X009900Y026088D01*
X009934Y026046D01*
X009972Y026006D01*
X010012Y025969D01*
X011053Y025904D02*
X010996Y025973D01*
X010996Y025972D02*
X011036Y026009D01*
X011074Y026048D01*
X011108Y026090D01*
X011140Y026134D01*
X011168Y026180D01*
X011193Y026229D01*
X011214Y026279D01*
X011232Y026330D01*
X011245Y026383D01*
X011255Y026436D01*
X011262Y026490D01*
X011264Y026544D01*
X011353Y026545D01*
X011354Y026544D01*
X011352Y026488D01*
X011346Y026432D01*
X011336Y026377D01*
X011323Y026322D01*
X011306Y026269D01*
X011286Y026216D01*
X011262Y026165D01*
X011235Y026116D01*
X011204Y026069D01*
X011171Y026024D01*
X011135Y025981D01*
X011096Y025941D01*
X011054Y025903D01*
X011048Y025910D01*
X011089Y025947D01*
X011128Y025987D01*
X011164Y026029D01*
X011197Y026074D01*
X011227Y026121D01*
X011254Y026169D01*
X011277Y026220D01*
X011298Y026272D01*
X011314Y026325D01*
X011327Y026379D01*
X011337Y026433D01*
X011343Y026488D01*
X011345Y026544D01*
X011336Y026544D01*
X011334Y026489D01*
X011328Y026434D01*
X011319Y026380D01*
X011306Y026327D01*
X011289Y026275D01*
X011269Y026223D01*
X011246Y026174D01*
X011219Y026125D01*
X011190Y026079D01*
X011157Y026035D01*
X011121Y025993D01*
X011083Y025954D01*
X011042Y025917D01*
X011037Y025924D01*
X011077Y025960D01*
X011115Y025999D01*
X011150Y026041D01*
X011182Y026084D01*
X011212Y026130D01*
X011238Y026178D01*
X011261Y026227D01*
X011281Y026277D01*
X011297Y026329D01*
X011310Y026382D01*
X011319Y026436D01*
X011325Y026490D01*
X011327Y026544D01*
X011318Y026544D01*
X011316Y026490D01*
X011310Y026437D01*
X011301Y026384D01*
X011288Y026332D01*
X011272Y026280D01*
X011253Y026230D01*
X011230Y026182D01*
X011204Y026135D01*
X011175Y026089D01*
X011143Y026046D01*
X011108Y026005D01*
X011071Y025967D01*
X011031Y025931D01*
X011025Y025938D01*
X011064Y025973D01*
X011101Y026011D01*
X011136Y026052D01*
X011167Y026095D01*
X011196Y026139D01*
X011222Y026186D01*
X011244Y026234D01*
X011264Y026283D01*
X011280Y026334D01*
X011292Y026386D01*
X011301Y026438D01*
X011307Y026491D01*
X011309Y026544D01*
X011300Y026544D01*
X011298Y026492D01*
X011292Y026439D01*
X011283Y026388D01*
X011271Y026337D01*
X011255Y026286D01*
X011236Y026237D01*
X011214Y026190D01*
X011188Y026144D01*
X011160Y026100D01*
X011129Y026058D01*
X011095Y026017D01*
X011058Y025980D01*
X011019Y025945D01*
X011013Y025951D01*
X011052Y025986D01*
X011088Y026024D01*
X011122Y026063D01*
X011153Y026105D01*
X011181Y026149D01*
X011206Y026194D01*
X011228Y026241D01*
X011247Y026289D01*
X011262Y026339D01*
X011275Y026389D01*
X011283Y026441D01*
X011289Y026492D01*
X011291Y026544D01*
X011282Y026544D01*
X011280Y026493D01*
X011275Y026442D01*
X011266Y026391D01*
X011254Y026341D01*
X011238Y026292D01*
X011220Y026245D01*
X011198Y026198D01*
X011173Y026153D01*
X011145Y026110D01*
X011115Y026069D01*
X011082Y026030D01*
X011046Y025993D01*
X011008Y025958D01*
X011002Y025965D01*
X011043Y026002D01*
X011081Y026042D01*
X011115Y026084D01*
X011147Y026129D01*
X011176Y026176D01*
X011201Y026225D01*
X011222Y026276D01*
X011240Y026327D01*
X011254Y026381D01*
X011264Y026435D01*
X011271Y026489D01*
X011273Y026544D01*
X008086Y027280D02*
X008131Y027202D01*
X008130Y027202D02*
X008086Y027174D01*
X008044Y027143D01*
X008004Y027110D01*
X007966Y027074D01*
X007931Y027035D01*
X007899Y026994D01*
X007869Y026950D01*
X007843Y026905D01*
X007820Y026858D01*
X007800Y026810D01*
X007784Y026760D01*
X007771Y026710D01*
X007762Y026658D01*
X007756Y026606D01*
X007754Y026554D01*
X007665Y026553D01*
X007664Y026554D01*
X007666Y026609D01*
X007672Y026663D01*
X007681Y026718D01*
X007694Y026771D01*
X007710Y026823D01*
X007729Y026875D01*
X007752Y026925D01*
X007778Y026973D01*
X007807Y027020D01*
X007839Y027064D01*
X007874Y027107D01*
X007912Y027147D01*
X007952Y027184D01*
X007994Y027219D01*
X008039Y027251D01*
X008085Y027280D01*
X008090Y027272D01*
X008044Y027244D01*
X008000Y027212D01*
X007958Y027177D01*
X007918Y027140D01*
X007881Y027101D01*
X007846Y027059D01*
X007815Y027015D01*
X007786Y026969D01*
X007760Y026921D01*
X007738Y026871D01*
X007718Y026821D01*
X007702Y026769D01*
X007690Y026716D01*
X007681Y026662D01*
X007675Y026608D01*
X007673Y026554D01*
X007682Y026554D01*
X007684Y026608D01*
X007690Y026661D01*
X007699Y026714D01*
X007711Y026766D01*
X007727Y026818D01*
X007746Y026868D01*
X007768Y026917D01*
X007794Y026964D01*
X007822Y027010D01*
X007854Y027053D01*
X007888Y027095D01*
X007924Y027134D01*
X007964Y027171D01*
X008005Y027205D01*
X008049Y027236D01*
X008094Y027265D01*
X008099Y027257D01*
X008051Y027227D01*
X008005Y027193D01*
X007962Y027157D01*
X007921Y027117D01*
X007883Y027075D01*
X007848Y027031D01*
X007816Y026984D01*
X007788Y026935D01*
X007763Y026884D01*
X007741Y026831D01*
X007724Y026778D01*
X007710Y026723D01*
X007700Y026667D01*
X007693Y026611D01*
X007691Y026554D01*
X007700Y026554D01*
X007702Y026610D01*
X007708Y026666D01*
X007718Y026721D01*
X007732Y026775D01*
X007750Y026828D01*
X007771Y026880D01*
X007796Y026931D01*
X007824Y026979D01*
X007855Y027025D01*
X007890Y027070D01*
X007927Y027111D01*
X007968Y027150D01*
X008010Y027186D01*
X008056Y027219D01*
X008103Y027249D01*
X008108Y027241D01*
X008061Y027212D01*
X008016Y027179D01*
X007974Y027143D01*
X007934Y027105D01*
X007897Y027064D01*
X007862Y027020D01*
X007831Y026974D01*
X007804Y026926D01*
X007779Y026877D01*
X007758Y026825D01*
X007741Y026773D01*
X007727Y026719D01*
X007717Y026664D01*
X007711Y026609D01*
X007709Y026554D01*
X007718Y026554D01*
X007720Y026609D01*
X007726Y026663D01*
X007736Y026717D01*
X007750Y026770D01*
X007767Y026822D01*
X007787Y026873D01*
X007812Y026922D01*
X007839Y026969D01*
X007870Y027015D01*
X007903Y027058D01*
X007940Y027099D01*
X007980Y027137D01*
X008022Y027172D01*
X008066Y027204D01*
X008112Y027233D01*
X008117Y027225D01*
X008071Y027197D01*
X008027Y027165D01*
X007986Y027130D01*
X007947Y027092D01*
X007910Y027052D01*
X007877Y027010D01*
X007847Y026965D01*
X007819Y026918D01*
X007796Y026869D01*
X007775Y026819D01*
X007758Y026768D01*
X007745Y026715D01*
X007735Y026662D01*
X007729Y026608D01*
X007727Y026554D01*
X007736Y026554D01*
X007738Y026607D01*
X007744Y026661D01*
X007754Y026713D01*
X007767Y026765D01*
X007784Y026816D01*
X007804Y026866D01*
X007827Y026914D01*
X007854Y026960D01*
X007884Y027004D01*
X007917Y027046D01*
X007953Y027086D01*
X007992Y027123D01*
X008033Y027158D01*
X008076Y027189D01*
X008121Y027218D01*
X008126Y027210D01*
X008081Y027182D01*
X008038Y027151D01*
X007998Y027117D01*
X007960Y027080D01*
X007924Y027041D01*
X007892Y026999D01*
X007862Y026955D01*
X007835Y026909D01*
X007812Y026862D01*
X007792Y026813D01*
X007775Y026763D01*
X007762Y026711D01*
X007753Y026659D01*
X007747Y026607D01*
X007745Y026554D01*
X009353Y026554D02*
X009263Y026554D01*
X009264Y026554D02*
X009262Y026608D01*
X009256Y026661D01*
X009246Y026714D01*
X009232Y026766D01*
X009215Y026817D01*
X009194Y026866D01*
X009170Y026914D01*
X009142Y026960D01*
X009111Y027004D01*
X009077Y027046D01*
X009041Y027085D01*
X009001Y027122D01*
X008959Y027155D01*
X008915Y027186D01*
X008869Y027213D01*
X008911Y027292D01*
X008960Y027264D01*
X009006Y027232D01*
X009051Y027197D01*
X009093Y027160D01*
X009133Y027119D01*
X009169Y027076D01*
X009203Y027031D01*
X009234Y026984D01*
X009261Y026934D01*
X009285Y026883D01*
X009306Y026831D01*
X009323Y026777D01*
X009336Y026722D01*
X009346Y026667D01*
X009352Y026610D01*
X009354Y026554D01*
X009345Y026554D01*
X009343Y026610D01*
X009337Y026665D01*
X009327Y026720D01*
X009314Y026775D01*
X009297Y026828D01*
X009277Y026880D01*
X009253Y026930D01*
X009226Y026979D01*
X009196Y027026D01*
X009162Y027071D01*
X009126Y027113D01*
X009087Y027153D01*
X009045Y027190D01*
X009001Y027225D01*
X008955Y027256D01*
X008907Y027284D01*
X008903Y027276D01*
X008950Y027248D01*
X008996Y027217D01*
X009039Y027183D01*
X009081Y027147D01*
X009119Y027107D01*
X009155Y027065D01*
X009188Y027021D01*
X009218Y026975D01*
X009245Y026926D01*
X009268Y026876D01*
X009289Y026825D01*
X009305Y026772D01*
X009318Y026719D01*
X009328Y026664D01*
X009334Y026609D01*
X009336Y026554D01*
X009327Y026554D01*
X009325Y026609D01*
X009319Y026663D01*
X009310Y026717D01*
X009297Y026770D01*
X009280Y026822D01*
X009260Y026873D01*
X009237Y026922D01*
X009210Y026970D01*
X009181Y027016D01*
X009148Y027060D01*
X009113Y027101D01*
X009074Y027140D01*
X009034Y027177D01*
X008991Y027210D01*
X008945Y027241D01*
X008898Y027268D01*
X008894Y027260D01*
X008941Y027233D01*
X008985Y027203D01*
X009028Y027170D01*
X009068Y027134D01*
X009106Y027095D01*
X009141Y027054D01*
X009173Y027011D01*
X009203Y026965D01*
X009229Y026918D01*
X009252Y026869D01*
X009272Y026819D01*
X009288Y026767D01*
X009301Y026715D01*
X009310Y026662D01*
X009316Y026608D01*
X009318Y026554D01*
X009309Y026554D01*
X009307Y026607D01*
X009301Y026660D01*
X009292Y026713D01*
X009279Y026765D01*
X009263Y026816D01*
X009244Y026866D01*
X009221Y026914D01*
X009195Y026961D01*
X009166Y027005D01*
X009134Y027048D01*
X009099Y027089D01*
X009062Y027127D01*
X009022Y027163D01*
X008980Y027196D01*
X008936Y027226D01*
X008890Y027253D01*
X008886Y027245D01*
X008931Y027218D01*
X008975Y027188D01*
X009016Y027156D01*
X009056Y027121D01*
X009093Y027083D01*
X009127Y027043D01*
X009159Y027000D01*
X009187Y026956D01*
X009213Y026910D01*
X009235Y026862D01*
X009255Y026813D01*
X009271Y026763D01*
X009283Y026711D01*
X009292Y026659D01*
X009298Y026607D01*
X009300Y026554D01*
X009291Y026554D01*
X009289Y026610D01*
X009282Y026665D01*
X009272Y026720D01*
X009258Y026774D01*
X009240Y026826D01*
X009219Y026878D01*
X009193Y026927D01*
X009165Y026975D01*
X009133Y027021D01*
X009098Y027064D01*
X009060Y027104D01*
X009019Y027142D01*
X008975Y027177D01*
X008929Y027208D01*
X008881Y027237D01*
X008877Y027229D01*
X008925Y027201D01*
X008970Y027170D01*
X009013Y027135D01*
X009053Y027098D01*
X009091Y027058D01*
X009126Y027015D01*
X009157Y026970D01*
X009186Y026923D01*
X009210Y026874D01*
X009232Y026823D01*
X009249Y026771D01*
X009263Y026718D01*
X009273Y026664D01*
X009280Y026609D01*
X009282Y026554D01*
X009273Y026554D01*
X009271Y026608D01*
X009265Y026662D01*
X009255Y026716D01*
X009241Y026768D01*
X009223Y026820D01*
X009202Y026870D01*
X009178Y026919D01*
X009150Y026965D01*
X009118Y027010D01*
X009084Y027052D01*
X009047Y027091D01*
X009007Y027128D01*
X008965Y027162D01*
X008920Y027193D01*
X008873Y027221D01*
X009053Y025904D02*
X008996Y025973D01*
X008996Y025972D02*
X009036Y026009D01*
X009074Y026048D01*
X009108Y026090D01*
X009140Y026134D01*
X009168Y026180D01*
X009193Y026229D01*
X009214Y026279D01*
X009232Y026330D01*
X009245Y026383D01*
X009255Y026436D01*
X009262Y026490D01*
X009264Y026544D01*
X009353Y026545D01*
X009354Y026544D01*
X009352Y026488D01*
X009346Y026432D01*
X009336Y026377D01*
X009323Y026322D01*
X009306Y026269D01*
X009286Y026216D01*
X009262Y026165D01*
X009235Y026116D01*
X009204Y026069D01*
X009171Y026024D01*
X009135Y025981D01*
X009096Y025941D01*
X009054Y025903D01*
X009048Y025910D01*
X009089Y025947D01*
X009128Y025987D01*
X009164Y026029D01*
X009197Y026074D01*
X009227Y026121D01*
X009254Y026169D01*
X009277Y026220D01*
X009298Y026272D01*
X009314Y026325D01*
X009327Y026379D01*
X009337Y026433D01*
X009343Y026488D01*
X009345Y026544D01*
X009336Y026544D01*
X009334Y026489D01*
X009328Y026434D01*
X009319Y026380D01*
X009306Y026327D01*
X009289Y026275D01*
X009269Y026223D01*
X009246Y026174D01*
X009219Y026125D01*
X009190Y026079D01*
X009157Y026035D01*
X009121Y025993D01*
X009083Y025954D01*
X009042Y025917D01*
X009037Y025924D01*
X009077Y025960D01*
X009115Y025999D01*
X009150Y026041D01*
X009182Y026084D01*
X009212Y026130D01*
X009238Y026178D01*
X009261Y026227D01*
X009281Y026277D01*
X009297Y026329D01*
X009310Y026382D01*
X009319Y026436D01*
X009325Y026490D01*
X009327Y026544D01*
X009318Y026544D01*
X009316Y026490D01*
X009310Y026437D01*
X009301Y026384D01*
X009288Y026332D01*
X009272Y026280D01*
X009253Y026230D01*
X009230Y026182D01*
X009204Y026135D01*
X009175Y026089D01*
X009143Y026046D01*
X009108Y026005D01*
X009071Y025967D01*
X009031Y025931D01*
X009025Y025938D01*
X009064Y025973D01*
X009101Y026011D01*
X009136Y026052D01*
X009167Y026095D01*
X009196Y026139D01*
X009222Y026186D01*
X009244Y026234D01*
X009264Y026283D01*
X009280Y026334D01*
X009292Y026386D01*
X009301Y026438D01*
X009307Y026491D01*
X009309Y026544D01*
X009300Y026544D01*
X009298Y026492D01*
X009292Y026439D01*
X009283Y026388D01*
X009271Y026337D01*
X009255Y026286D01*
X009236Y026237D01*
X009214Y026190D01*
X009188Y026144D01*
X009160Y026100D01*
X009129Y026058D01*
X009095Y026017D01*
X009058Y025980D01*
X009019Y025945D01*
X009013Y025951D01*
X009052Y025986D01*
X009088Y026024D01*
X009122Y026063D01*
X009153Y026105D01*
X009181Y026149D01*
X009206Y026194D01*
X009228Y026241D01*
X009247Y026289D01*
X009262Y026339D01*
X009275Y026389D01*
X009283Y026441D01*
X009289Y026492D01*
X009291Y026544D01*
X009282Y026544D01*
X009280Y026493D01*
X009275Y026442D01*
X009266Y026391D01*
X009254Y026341D01*
X009238Y026292D01*
X009220Y026245D01*
X009198Y026198D01*
X009173Y026153D01*
X009145Y026110D01*
X009115Y026069D01*
X009082Y026030D01*
X009046Y025993D01*
X009008Y025958D01*
X009002Y025965D01*
X009043Y026002D01*
X009081Y026042D01*
X009115Y026084D01*
X009147Y026129D01*
X009176Y026176D01*
X009201Y026225D01*
X009222Y026276D01*
X009240Y026327D01*
X009254Y026381D01*
X009264Y026435D01*
X009271Y026489D01*
X009273Y026544D01*
X007665Y026545D02*
X007755Y026545D01*
X007754Y026544D02*
X007756Y026490D01*
X007762Y026437D01*
X007772Y026384D01*
X007786Y026332D01*
X007803Y026281D01*
X007824Y026231D01*
X007848Y026183D01*
X007876Y026137D01*
X007907Y026093D01*
X007941Y026052D01*
X007978Y026012D01*
X008017Y025976D01*
X007960Y025908D01*
X007959Y025907D01*
X007918Y025945D01*
X007880Y025985D01*
X007844Y026028D01*
X007811Y026073D01*
X007781Y026120D01*
X007755Y026168D01*
X007731Y026219D01*
X007711Y026271D01*
X007695Y026324D01*
X007681Y026378D01*
X007672Y026433D01*
X007666Y026488D01*
X007664Y026544D01*
X007673Y026544D01*
X007675Y026489D01*
X007681Y026434D01*
X007690Y026380D01*
X007703Y026326D01*
X007720Y026274D01*
X007739Y026222D01*
X007763Y026172D01*
X007789Y026124D01*
X007819Y026078D01*
X007851Y026033D01*
X007886Y025991D01*
X007925Y025951D01*
X007965Y025914D01*
X007971Y025921D01*
X007931Y025958D01*
X007893Y025997D01*
X007858Y026039D01*
X007826Y026083D01*
X007797Y026129D01*
X007771Y026177D01*
X007748Y026226D01*
X007728Y026277D01*
X007712Y026329D01*
X007699Y026382D01*
X007690Y026435D01*
X007684Y026490D01*
X007682Y026544D01*
X007691Y026544D01*
X007693Y026490D01*
X007699Y026437D01*
X007708Y026384D01*
X007721Y026331D01*
X007737Y026280D01*
X007756Y026229D01*
X007779Y026181D01*
X007804Y026133D01*
X007833Y026088D01*
X007865Y026044D01*
X007900Y026003D01*
X007937Y025964D01*
X007977Y025928D01*
X007983Y025935D01*
X007943Y025971D01*
X007906Y026009D01*
X007872Y026050D01*
X007841Y026093D01*
X007812Y026138D01*
X007787Y026185D01*
X007764Y026233D01*
X007745Y026283D01*
X007729Y026334D01*
X007717Y026385D01*
X007708Y026438D01*
X007702Y026491D01*
X007700Y026544D01*
X007709Y026544D01*
X007711Y026491D01*
X007717Y026439D01*
X007726Y026387D01*
X007738Y026336D01*
X007754Y026286D01*
X007773Y026236D01*
X007795Y026189D01*
X007820Y026142D01*
X007848Y026098D01*
X007879Y026056D01*
X007913Y026015D01*
X007950Y025977D01*
X007988Y025942D01*
X007994Y025948D01*
X007956Y025984D01*
X007920Y026021D01*
X007886Y026061D01*
X007856Y026103D01*
X007828Y026147D01*
X007803Y026193D01*
X007781Y026240D01*
X007762Y026289D01*
X007747Y026338D01*
X007734Y026389D01*
X007726Y026440D01*
X007720Y026492D01*
X007718Y026544D01*
X007727Y026544D01*
X007729Y026488D01*
X007736Y026433D01*
X007746Y026378D01*
X007760Y026324D01*
X007778Y026271D01*
X007800Y026220D01*
X007825Y026170D01*
X007854Y026122D01*
X007886Y026077D01*
X007921Y026034D01*
X007959Y025993D01*
X008000Y025955D01*
X008006Y025962D01*
X007965Y025999D01*
X007928Y026040D01*
X007893Y026082D01*
X007861Y026127D01*
X007833Y026175D01*
X007808Y026224D01*
X007786Y026275D01*
X007769Y026327D01*
X007755Y026380D01*
X007745Y026434D01*
X007738Y026489D01*
X007736Y026544D01*
X007745Y026544D01*
X007747Y026490D01*
X007753Y026436D01*
X007763Y026382D01*
X007777Y026329D01*
X007795Y026278D01*
X007816Y026228D01*
X007841Y026179D01*
X007869Y026132D01*
X007900Y026088D01*
X007934Y026046D01*
X007972Y026006D01*
X008012Y025969D01*
D15*
X007999Y025929D02*
X008179Y025929D01*
X008819Y025929D02*
X009019Y025929D01*
X009999Y025929D02*
X010179Y025929D01*
X010819Y025929D02*
X011019Y025929D01*
X021609Y017549D02*
X021609Y017249D01*
X021609Y016949D01*
X021809Y016949D02*
X021809Y017249D01*
X021809Y017549D01*
X017309Y014249D02*
X017309Y013949D01*
X017309Y013649D01*
X017109Y013649D02*
X017109Y013949D01*
X017109Y014249D01*
X022609Y010049D02*
X022909Y010049D01*
X023209Y010049D01*
X023209Y009849D02*
X022909Y009849D01*
X022609Y009849D01*
X027809Y010549D02*
X027809Y010849D01*
X027809Y011149D01*
X028009Y011149D02*
X028009Y010849D01*
X028009Y010549D01*
X015609Y009549D02*
X015309Y009549D01*
X015009Y009549D01*
X015009Y009349D02*
X015309Y009349D01*
X015609Y009349D01*
X015609Y007449D02*
X015309Y007449D01*
X015009Y007449D01*
X015009Y007249D02*
X015309Y007249D01*
X015609Y007249D01*
X003709Y006349D02*
X003709Y006049D01*
X003709Y005749D01*
X003509Y005749D02*
X003509Y006049D01*
X003509Y006349D01*
D16*
X030389Y016929D02*
X030409Y016949D01*
X030509Y016949D01*
X030559Y017349D02*
X030409Y017349D01*
X030389Y017369D01*
D17*
X030624Y017349D03*
X030624Y016949D03*
D18*
X014309Y009149D02*
X014209Y009149D01*
X014209Y008149D01*
X014309Y008149D01*
X012009Y008199D02*
X011909Y008199D01*
X012009Y008199D02*
X012009Y009149D01*
X011909Y009149D01*
D19*
X029409Y009349D02*
X029409Y010099D01*
X037409Y010099D01*
X037409Y007799D01*
X029409Y007799D01*
X029409Y008549D01*
X029448Y008551D01*
X029487Y008557D01*
X029525Y008566D01*
X029562Y008579D01*
X029598Y008596D01*
X029631Y008616D01*
X029663Y008640D01*
X029692Y008666D01*
X029718Y008695D01*
X029742Y008727D01*
X029762Y008760D01*
X029779Y008796D01*
X029792Y008833D01*
X029801Y008871D01*
X029807Y008910D01*
X029809Y008949D01*
X029807Y008988D01*
X029801Y009027D01*
X029792Y009065D01*
X029779Y009102D01*
X029762Y009138D01*
X029742Y009171D01*
X029718Y009203D01*
X029692Y009232D01*
X029663Y009258D01*
X029631Y009282D01*
X029598Y009302D01*
X029562Y009319D01*
X029525Y009332D01*
X029487Y009341D01*
X029448Y009347D01*
X029409Y009349D01*
D20*
X010629Y007649D03*
X007789Y007649D03*
M02*
